<svg width="24" height="24" viewBox="0 0 24 24" fill="none" xmlns="http://www.w3.org/2000/svg">
<path d="M21.75 12.0008C21.7469 14.3838 20.8726 16.6834 19.2917 18.4664C17.7109 20.2495 15.5326 21.393 13.1671 21.6815C13.1145 21.6874 13.0611 21.6821 13.0107 21.666C12.9602 21.6498 12.9137 21.6232 12.8743 21.5877C12.8348 21.5523 12.8034 21.5089 12.782 21.4604C12.7605 21.4119 12.7496 21.3595 12.75 21.3065V14.2508H15C15.1028 14.2511 15.2045 14.2301 15.2989 14.1894C15.3933 14.1486 15.4783 14.0889 15.5487 14.0139C15.619 13.9389 15.6732 13.8502 15.7078 13.7534C15.7424 13.6566 15.7568 13.5537 15.75 13.4511C15.7334 13.2583 15.6444 13.0788 15.5009 12.9489C15.3574 12.819 15.1701 12.7482 14.9765 12.7508H12.75V10.5008C12.75 10.103 12.908 9.72148 13.1893 9.44017C13.4706 9.15887 13.8521 9.00083 14.25 9.00083H15.75C15.8528 9.00106 15.9545 8.98014 16.0489 8.93938C16.1433 8.89862 16.2283 8.83889 16.2987 8.7639C16.369 8.6889 16.4232 8.60025 16.4578 8.50344C16.4924 8.40663 16.5068 8.30373 16.5 8.20114C16.4834 8.00796 16.3941 7.82825 16.2502 7.69828C16.1063 7.56831 15.9185 7.49775 15.7246 7.50083H14.25C13.4543 7.50083 12.6912 7.8169 12.1286 8.37951C11.566 8.94212 11.25 9.70518 11.25 10.5008V12.7508H8.99996C8.89714 12.7506 8.79538 12.7715 8.70099 12.8123C8.60659 12.853 8.52159 12.9128 8.45126 12.9878C8.38092 13.0628 8.32676 13.1514 8.29213 13.2482C8.2575 13.345 8.24315 13.4479 8.24996 13.5505C8.26655 13.7437 8.35579 13.9234 8.49968 14.0534C8.64357 14.1834 8.8314 14.2539 9.02527 14.2508H11.25V21.3083C11.2503 21.3612 11.2394 21.4136 11.218 21.462C11.1967 21.5105 11.1653 21.5538 11.126 21.5892C11.0866 21.6246 11.0403 21.6513 10.9899 21.6676C10.9395 21.6838 10.8863 21.6892 10.8337 21.6833C8.40498 21.3876 6.1758 20.1907 4.5874 18.3298C2.99901 16.4688 2.16716 14.0793 2.25652 11.6343C2.44402 6.57177 6.54464 2.45614 11.6109 2.25927C12.9225 2.20846 14.231 2.42272 15.4579 2.88924C16.6848 3.35575 17.8051 4.06493 18.7516 4.97436C19.6981 5.88379 20.4515 6.97478 20.9667 8.18209C21.4819 9.38939 21.7483 10.6882 21.75 12.0008Z" fill="#7F8CA0"/>
</svg>
