<svg width="153" height="191" viewBox="0 0 153 191" fill="none" xmlns="http://www.w3.org/2000/svg">
<path d="M0.189598 180.15C-0.279759 181.15 0.150321 182.341 1.15021 182.811L17.4443 190.459C18.4442 190.929 19.6353 190.498 20.1046 189.499C20.574 188.499 20.1439 187.308 19.144 186.838L4.66036 180.039L11.4591 165.556C11.9285 164.556 11.4984 163.365 10.4985 162.895C9.49864 162.426 8.30758 162.856 7.83822 163.856L0.189598 180.15ZM151 1.00007L149.024 0.69352C141.041 52.1622 129.21 87.5839 106.974 114.696C84.7375 141.808 51.8917 160.858 1.3208 179.119L2.00006 181L2.67931 182.881C53.4998 164.53 87.1518 145.172 110.067 117.233C132.981 89.2935 144.955 53.0209 152.976 1.30661L151 1.00007Z" fill="#FF592C"/>
</svg>
