<svg width="32" height="32" viewBox="0 0 32 32" fill="none" xmlns="http://www.w3.org/2000/svg">
<rect x="0.5" y="0.5" width="31" height="31" rx="3.5" fill="white" stroke="#AFB5BC"/>
<path d="M6.25 13.75H8.5V19.75H7C6.80109 19.75 6.61032 19.829 6.46967 19.9697C6.32902 20.1103 6.25 20.3011 6.25 20.5C6.25 20.6989 6.32902 20.8897 6.46967 21.0304C6.61032 21.171 6.80109 21.25 7 21.25H25C25.1989 21.25 25.3897 21.171 25.5303 21.0304C25.671 20.8897 25.75 20.6989 25.75 20.5C25.75 20.3011 25.671 20.1103 25.5303 19.9697C25.3897 19.829 25.1989 19.75 25 19.75H23.5V13.75H25.75C25.9132 13.7499 26.0719 13.6965 26.202 13.598C26.3321 13.4995 26.4265 13.3612 26.4709 13.2042C26.5153 13.0472 26.5073 12.8799 26.4481 12.7279C26.3889 12.5758 26.2817 12.4472 26.1428 12.3616L16.3928 6.36158C16.2747 6.28894 16.1387 6.25049 16 6.25049C15.8613 6.25049 15.7253 6.28894 15.6072 6.36158L5.85719 12.3616C5.71828 12.4472 5.61108 12.5758 5.55187 12.7279C5.49266 12.8799 5.48466 13.0472 5.52908 13.2042C5.57351 13.3612 5.66793 13.4995 5.79803 13.598C5.92814 13.6965 6.08681 13.7499 6.25 13.75ZM10 13.75H13V19.75H10V13.75ZM17.5 13.75V19.75H14.5V13.75H17.5ZM22 19.75H19V13.75H22V19.75ZM16 7.88033L23.1006 12.25H8.89937L16 7.88033ZM27.25 23.5C27.25 23.6989 27.171 23.8897 27.0303 24.0304C26.8897 24.171 26.6989 24.25 26.5 24.25H5.5C5.30109 24.25 5.11032 24.171 4.96967 24.0304C4.82902 23.8897 4.75 23.6989 4.75 23.5C4.75 23.3011 4.82902 23.1103 4.96967 22.9697C5.11032 22.829 5.30109 22.75 5.5 22.75H26.5C26.6989 22.75 26.8897 22.829 27.0303 22.9697C27.171 23.1103 27.25 23.3011 27.25 23.5Z" fill="#281480"/>
</svg>
