<svg width="48" height="48" viewBox="0 0 48 48" fill="none" xmlns="http://www.w3.org/2000/svg">
<path d="M42 37.5H40.5V7.5C40.5 7.10218 40.342 6.72064 40.0607 6.43934C39.7794 6.15804 39.3978 6 39 6H28.5C28.1022 6 27.7206 6.15804 27.4393 6.43934C27.158 6.72064 27 7.10218 27 7.5V15H18C17.6022 15 17.2206 15.158 16.9393 15.4393C16.658 15.7206 16.5 16.1022 16.5 16.5V24H9C8.60218 24 8.22064 24.158 7.93934 24.4393C7.65804 24.7206 7.5 25.1022 7.5 25.5V37.5H6C5.60218 37.5 5.22064 37.658 4.93934 37.9393C4.65804 38.2206 4.5 38.6022 4.5 39C4.5 39.3978 4.65804 39.7794 4.93934 40.0607C5.22064 40.342 5.60218 40.5 6 40.5H42C42.3978 40.5 42.7794 40.342 43.0607 40.0607C43.342 39.7794 43.5 39.3978 43.5 39C43.5 38.6022 43.342 38.2206 43.0607 37.9393C42.7794 37.658 42.3978 37.5 42 37.5ZM30 9H37.5V37.5H30V9ZM19.5 18H27V37.5H19.5V18ZM10.5 27H16.5V37.5H10.5V27Z" fill="#343330"/>
</svg>
