<svg width="1280" height="604" viewBox="0 0 1280 604" fill="none" xmlns="http://www.w3.org/2000/svg">
<path d="M1300.98 428.084C1286.13 271.234 1081.78 160.933 925.378 154.321C745.136 146.722 672.107 278.678 536.569 229.864C412.881 185.364 410.512 52.6522 319.324 26.7414C235.519 2.93318 98.737 75.5658 -136.664 459.391" stroke="#DBE2EB" stroke-miterlimit="10"/>
<path d="M-126.928 477.779C105.578 99.5325 242.553 23.8145 327.691 44.1418C390.787 59.2985 412.844 124.89 460.658 177.844C484.492 205.06 514.294 225.694 547.386 237.893C655.778 277.944 723.999 206.252 842.423 180.402C872.612 173.718 903.486 170.808 934.408 171.731C1091.55 175.879 1294.07 272.885 1312.35 424.242" stroke="#DBE2EB" stroke-miterlimit="10"/>
<path d="M-117.172 496.116C112.439 123.473 249.529 44.6919 335.82 61.5554C399.251 73.9571 422.878 136.566 470.89 186.973C495.354 213.291 525.128 233.449 557.941 245.909C664.731 286.436 732.644 222.213 851.419 197.89C881.606 191.643 912.365 188.715 943.202 189.154C1101.08 191.35 1301.77 274.523 1323.48 420.387" stroke="#DBE2EB" stroke-miterlimit="10"/>
<path d="M-107.436 514.395C119.225 147.431 256.507 65.6177 344.057 78.9424C407.87 88.6458 432.967 148.212 481.253 196.103C506.292 221.507 536.015 241.198 568.526 253.921C673.815 294.931 741.191 238.136 860.444 215.375C890.645 209.494 921.325 206.522 952.105 206.497C1110.71 206.444 1309.56 276.081 1334.69 416.453" stroke="#DBE2EB" stroke-miterlimit="10"/>
<path d="M-97.6997 532.81C126.069 171.364 263.439 86.5663 352.323 96.3566C416.443 103.384 443.137 159.916 491.674 205.21C517.307 229.712 547.033 248.959 579.295 261.943C683.083 303.436 749.998 254.101 869.782 232.876C899.934 227.433 930.467 224.45 961.112 223.953C1120.46 221.653 1317.48 277.78 1346.06 412.662" stroke="#DBE2EB" stroke-miterlimit="10"/>
<path d="M-88.0703 551.165C132.881 195.292 270.539 104.907 360.584 113.739C424.862 119.967 453.307 171.427 502.037 214.335C528.252 237.895 557.98 256.697 589.981 269.956C692.269 311.934 758.672 270.055 878.806 250.384C908.934 245.308 939.366 242.288 969.911 241.34C1130.01 236.685 1325.19 279.384 1357.2 408.802" stroke="#DBE2EB" stroke-miterlimit="10"/>
<path d="M-78.2156 569.53C139.713 219.244 277.277 128.636 368.821 130.98C433.463 132.974 463.518 183.096 512.421 223.484C539.188 246.092 568.921 264.459 600.663 277.993C701.45 320.454 767.419 286.009 887.929 267.893C918.034 263.217 948.367 260.177 978.807 258.783C1139.66 251.88 1333 280.961 1368.44 404.971" stroke="#DBE2EB" stroke-miterlimit="10"/>
<path d="M-68.4794 587.89C146.479 243.167 284.184 149.521 377.081 148.52C441.982 147.728 473.798 194.528 522.815 232.581C550.113 254.216 579.865 272.139 611.357 285.922C710.618 328.894 776.15 301.936 897.065 285.296C925.198 281.458 955.211 277.939 987.716 276.092C1149.35 266.862 1340.81 282.62 1379.68 401.086" stroke="#DBE2EB" stroke-miterlimit="10"/>
<path d="M-58.7514 606.249C153.363 267.117 291.071 170.694 385.316 165.835C450.493 162.5 484.096 205.981 533.254 241.646C561.084 262.297 590.871 279.813 622.119 293.903C719.879 337.359 784.928 317.806 906.267 302.778C934.516 299.269 964.45 295.8 996.718 293.482C1158.9 281.939 1348.62 284.245 1390.92 397.196" stroke="#DBE2EB" stroke-miterlimit="10"/>
<path d="M-48.9873 624.579C160.207 291.035 297.971 191.81 393.581 183.283C459.007 177.43 494.529 217.491 543.573 250.781C571.897 270.434 601.715 287.552 632.709 301.952C728.994 345.894 793.582 333.801 915.329 320.195C943.565 317.008 973.525 313.54 1005.55 310.778C1168.67 296.809 1356.45 285.704 1402.17 393.193" stroke="#DBE2EB" stroke-miterlimit="10"/>
<path d="M-39.2527 642.936C167.023 314.949 304.865 212.976 401.771 200.641C467.444 192.297 504.785 228.878 553.915 259.913C582.73 278.528 612.6 295.238 643.35 309.944C738.11 354.371 802.238 349.712 924.407 337.797C952.757 334.994 982.642 331.495 1014.41 328.314C1178.28 311.908 1364.19 287.449 1413.39 389.453" stroke="#DBE2EB" stroke-miterlimit="10"/>
<path d="M-29.5171 661.294C173.864 338.89 311.812 234.142 410.089 218.003C476.035 207.195 515.222 240.244 564.335 269.018C592.568 285.547 621.485 302.247 654.095 317.939C747.356 362.825 811.022 365.655 933.594 355.27C962.008 352.82 991.843 349.291 1023.42 345.696C1188.05 326.852 1372.11 289.039 1424.72 385.581" stroke="#DBE2EB" stroke-miterlimit="10"/>
<path d="M-19.7896 679.648C180.694 362.905 318.571 255.344 418.322 235.379C484.542 222.081 525.654 251.548 574.724 278.113C603.679 293.794 632.689 310.07 664.782 325.923C756.539 371.375 819.724 381.559 942.724 372.733C971.2 370.663 1001.01 367.105 1032.27 363.061C1197.64 341.725 1379.87 290.61 1435.91 381.692" stroke="#DBE2EB" stroke-miterlimit="10"/>
<path d="M-10.1023 698C187.517 386.728 325.62 276.584 426.567 252.751C493.057 237.042 536.099 262.82 585.122 287.229C614.828 302.01 643.904 317.887 675.377 333.923C765.663 379.783 828.333 397.509 951.863 390.246C980.429 388.505 1010.16 384.916 1041.18 380.481C1207.31 356.598 1387.7 292.178 1447.17 377.799" stroke="#DBE2EB" stroke-miterlimit="10"/>
<path d="M-0.294969 716.331C194.355 410.63 332.481 297.863 434.83 270.09C501.618 251.945 546.564 274.004 595.49 296.283C625.947 310.136 655.138 325.671 686.171 341.873C774.906 388.218 837.168 413.386 960.998 407.674C990.867 405.969 1020.61 402.652 1050.12 397.735C1216.96 371.437 1395.6 293.794 1458.42 373.87" stroke="#DBE2EB" stroke-miterlimit="10"/>
<path d="M9.44278 734.683C201.199 434.554 339.557 319.065 443 287.416C510.084 266.859 556.963 285.148 605.916 305.355C637.125 318.255 666.382 333.445 696.871 349.834C784.132 396.669 845.908 429.303 970.091 425.119C999.919 423.82 1029.61 420.496 1058.99 415.167C1226.62 386.107 1403.36 295.337 1469.71 369.851" stroke="#DBE2EB" stroke-miterlimit="10"/>
<path d="M19.1759 753.035C208.015 458.445 346.623 340.449 451.345 304.743C518.672 281.825 567.513 296.236 616.29 314.389C648.252 326.307 677.57 341.233 707.542 357.785C793.278 405.108 854.621 445.187 979.283 442.564C1009.07 441.635 1038.72 438.276 1067.95 432.517C1236.25 400.957 1411.19 296.899 1480.97 366.033" stroke="#DBE2EB" stroke-miterlimit="10"/>
<path d="M28.935 771.353C214.86 482.322 353.503 361.54 459.608 321.873C527.311 296.538 578.016 307.042 626.691 323.23C659.513 334.124 688.817 348.787 718.273 365.535C802.516 413.313 863.373 460.936 988.471 459.872C1018.22 459.297 1047.82 455.901 1076.92 449.726C1245.94 415.52 1419.09 298.203 1492.3 361.901" stroke="#DBE2EB" stroke-miterlimit="10"/>
<path d="M38.6691 789.673C221.588 505.957 360.536 382.699 467.895 339.087C535.923 311.382 588.494 317.921 637.116 332.226C670.615 342.165 700.112 356.523 729.002 373.437C811.747 421.779 872.15 476.847 997.66 477.262C1027.36 477.041 1056.93 473.608 1085.89 467.017C1255.63 430.134 1427.11 299.686 1503.63 357.854" stroke="#DBE2EB" stroke-miterlimit="10"/>
<path d="M48.3988 807.991C228.536 529.747 367.591 403.865 476.161 356.113C544.564 326.011 598.979 328.525 647.55 340.893C681.812 349.637 711.34 363.923 739.738 381.062C820.962 429.912 880.909 492.46 1006.85 494.491C1036.51 494.638 1066.04 491.167 1094.86 484.147C1265.31 444.503 1434.9 300.79 1514.97 353.571" stroke="#DBE2EB" stroke-miterlimit="10"/>
<path d="M58.1574 826.287C235.386 553.52 374.643 425.182 484.35 373.228C553.102 340.781 609.336 339.211 657.854 349.718C692.879 357.293 722.49 371.456 750.349 388.709C830.103 438.096 889.593 508.158 1015.95 511.724C1045.57 512.212 1075.08 508.703 1103.76 501.283C1274.79 458.652 1442.7 302.082 1526.27 349.357" stroke="#DBE2EB" stroke-miterlimit="10"/>
<path d="M67.8721 844.608C350.779 410.791 542.009 335.914 668.396 358.558C806.365 383.272 854.139 522.1 1025.25 529.056C1225.99 537.187 1435.98 296.273 1537.67 345.165" stroke="#DBE2EB" stroke-miterlimit="10"/>
</svg>
