<?xml version="1.0" encoding="UTF-8"?>
<svg xmlns="http://www.w3.org/2000/svg" version="1.2" baseProfile="tiny-ps" width="320" height="320" viewBox="0 0 320 320">
  <title>Robert Ventures</title>
  <g id="Group">
    <path fill="#6542FF" fill-rule="evenodd" stroke="none" d="M159.994614 110.832748L0 270.829285l42.665455 42.664978L159.990295 196.169403l117.329651 117.330597 42.666413-42.66687L202.655762 153.502991l.004318-.004807-42.665466-42.665436z"/>
    <path fill="#6542FF" fill-rule="evenodd" stroke="none" d="M21.664158 57.835083c-.111357-.107971-.222233-.217438-.33215-.327332-11.781731-11.781707-11.781731-30.883728 0-42.665924 6.103979-6.103989 14.17302-9.045334 22.171025-8.824539v-.017273l143.302143.00528c23.816437.02832 47.095733 7.104278 66.901382 20.337493 19.843094 13.26056 35.310654 32.107178 44.444779 54.158218 9.133636 22.050552 11.523468 46.314789 6.867614 69.723221-3.167907 15.926407-9.50177 30.970596-18.539459 44.275329l-44.254669-44.25325c9.307877-21.965103 5.00769-48.324493-12.897705-66.229889-11.781723-11.782196-27.223343-17.678345-42.665436-17.678345H115.498024l23.155464 23.155472-42.665451 42.665451-74.323879-74.323898z"/>
  </g>
</svg>
