<?xml version="1.0" encoding="UTF-8"?>
<svg xmlns="http://www.w3.org/2000/svg" width="320" height="320" viewBox="0 0 320 320" version="1.2" baseProfile="tiny">
  <g id="Group">
    <linearGradient id="linearGradient1" x1="350.825445" y1="419.44103" x2="-13.16361" y2="446.44023" gradientUnits="userSpaceOnUse">
      <stop offset="1e-05" stop-color="#c4ebe9" stop-opacity="1"></stop>
      <stop offset="0.34" stop-color="#5028ff" stop-opacity="1"></stop>
      <stop offset="0.51" stop-color="#5028ff" stop-opacity="1"></stop>
      <stop offset="1" stop-color="#ff592c" stop-opacity="1"></stop>
    </linearGradient>
    <path id="Path" fill="url(#linearGradient1)" fill-rule="evenodd" stroke="none" d="M 159.994614 110.832748 L 0 270.829285 L 42.665455 313.494263 L 159.990295 196.169403 L 277.319946 313.5 L 319.986359 270.83313 L 202.655762 153.502991 L 202.66008 153.498184 L 159.994614 110.832748 Z"></path>
    <linearGradient id="linearGradient2" x1="103.833403" y1="56.460425" x2="488.819436" y2="-15.540322" gradientUnits="userSpaceOnUse">
      <stop offset="1e-05" stop-color="#5028ff" stop-opacity="1"></stop>
      <stop offset="1" stop-color="#ff592c" stop-opacity="1"></stop>
    </linearGradient>
    <path id="path1" fill="url(#linearGradient2)" fill-rule="evenodd" stroke="none" d="M 21.664158 57.835083 C 21.552801 57.727112 21.441925 57.617645 21.332008 57.507751 C 9.550277 45.726044 9.550277 26.624023 21.332008 14.841827 C 27.435987 8.737823 35.505028 5.796478 43.503033 6.017273 L 43.503033 6 L 186.805176 6.00528 C 210.621613 6.0336 233.900909 13.109558 253.706558 26.342773 C 273.549652 39.603333 289.017212 58.449951 298.151337 80.500992 C 307.284973 102.551544 309.674805 126.815781 305.018951 150.224213 C 301.851044 166.15062 295.517181 181.194809 286.479492 194.499542 L 242.224823 150.246292 C 251.5327 128.281189 247.232513 101.921799 229.327118 84.016403 C 217.545395 72.234207 202.103775 66.338058 186.661682 66.338058 L 115.498024 66.338058 L 138.653488 89.49353 L 95.988037 132.158981 L 21.664158 57.835083 Z"></path>
  </g>
  <title>Robert Ventures</title>
</svg>