<svg width="36" height="36" viewBox="0 0 36 36" fill="none" xmlns="http://www.w3.org/2000/svg">
<circle cx="18" cy="18" r="17.5263" fill="#5028FF" stroke="#5028FF" stroke-width="0.947368"/>
<path d="M20.0306 10.719L26.7806 17.469C26.8504 17.5386 26.9057 17.6213 26.9434 17.7124C26.9812 17.8034 27.0006 17.901 27.0006 17.9996C27.0006 18.0981 26.9812 18.1957 26.9434 18.2868C26.9057 18.3778 26.8504 18.4606 26.7806 18.5302L20.0306 25.2802C19.8899 25.4209 19.699 25.5 19.5 25.5C19.301 25.5 19.1101 25.4209 18.9694 25.2802C18.8286 25.1395 18.7496 24.9486 18.7496 24.7496C18.7496 24.5506 18.8286 24.3597 18.9694 24.219L24.4397 18.7496L9.75 18.7496C9.55109 18.7496 9.36032 18.6706 9.21967 18.5299C9.07902 18.3893 9 18.1985 9 17.9996C9 17.8007 9.07902 17.6099 9.21967 17.4693C9.36032 17.3286 9.55109 17.2496 9.75 17.2496L24.4397 17.2496L18.9694 11.7802C18.8286 11.6395 18.7496 11.4486 18.7496 11.2496C18.7496 11.0506 18.8286 10.8597 18.9694 10.719C19.1101 10.5782 19.301 10.4992 19.5 10.4992C19.699 10.4992 19.8899 10.5782 20.0306 10.719Z" fill="white"/>
</svg>
