<svg width="39" height="33" viewBox="0 0 39 33" fill="none" xmlns="http://www.w3.org/2000/svg">
<path d="M39 31.5C39 31.8978 38.842 32.2794 38.5607 32.5607C38.2794 32.842 37.8978 33 37.5 33H1.5C1.10218 33 0.720644 32.842 0.43934 32.5607C0.158035 32.2794 0 31.8978 0 31.5V1.5C0 1.10218 0.158035 0.720645 0.43934 0.43934C0.720644 0.158036 1.10218 0 1.5 0C1.89782 0 2.27936 0.158036 2.56066 0.43934C2.84196 0.720645 3 1.10218 3 1.5V21.8794L12.4387 12.4387C12.5781 12.2993 12.7435 12.1886 12.9256 12.1132C13.1077 12.0377 13.3029 11.9988 13.5 11.9988C13.6971 11.9988 13.8923 12.0377 14.0744 12.1132C14.2565 12.1886 14.4219 12.2993 14.5613 12.4387L19.5 17.3794L29.3794 7.5H25.5C25.1022 7.5 24.7206 7.34196 24.4393 7.06066C24.158 6.77936 24 6.39782 24 6C24 5.60218 24.158 5.22064 24.4393 4.93934C24.7206 4.65804 25.1022 4.5 25.5 4.5H33C33.3978 4.5 33.7794 4.65804 34.0607 4.93934C34.342 5.22064 34.5 5.60218 34.5 6V13.5C34.5 13.8978 34.342 14.2794 34.0607 14.5607C33.7794 14.842 33.3978 15 33 15C32.6022 15 32.2206 14.842 31.9393 14.5607C31.658 14.2794 31.5 13.8978 31.5 13.5V9.62062L20.5613 20.5613C20.4219 20.7007 20.2565 20.8114 20.0744 20.8868C19.8923 20.9623 19.6971 21.0012 19.5 21.0012C19.3029 21.0012 19.1077 20.9623 18.9256 20.8868C18.7435 20.8114 18.5781 20.7007 18.4387 20.5613L13.5 15.6206L3 26.1206V30H37.5C37.8978 30 38.2794 30.158 38.5607 30.4393C38.842 30.7206 39 31.1022 39 31.5Z" fill="#241273"/>
</svg>
