<svg width="33" height="39" viewBox="0 0 33 39" fill="none" xmlns="http://www.w3.org/2000/svg">
<path d="M32.5612 10.9388L22.0613 0.43875C21.9218 0.299499 21.7564 0.189078 21.5743 0.113796C21.3922 0.0385137 21.197 -0.000154479 21 4.63798e-07H3C2.20435 4.63798e-07 1.44129 0.316071 0.87868 0.87868C0.31607 1.44129 0 2.20435 0 3V36C0 36.7957 0.31607 37.5587 0.87868 38.1213C1.44129 38.6839 2.20435 39 3 39H30C30.7956 39 31.5587 38.6839 32.1213 38.1213C32.6839 37.5587 33 36.7957 33 36V12C33.0002 11.803 32.9615 11.6078 32.8862 11.4257C32.8109 11.2436 32.7005 11.0782 32.5612 10.9388ZM22.5 5.12063L27.8794 10.5H22.5V5.12063ZM30 36H3V3H19.5V12C19.5 12.3978 19.658 12.7794 19.9393 13.0607C20.2206 13.342 20.6022 13.5 21 13.5H30V36ZM22.0613 24.4387C22.2007 24.5781 22.3114 24.7435 22.3868 24.9256C22.4623 25.1077 22.5012 25.3029 22.5012 25.5C22.5012 25.6971 22.4623 25.8923 22.3868 26.0744C22.3114 26.2565 22.2007 26.4219 22.0613 26.5613L17.5613 31.0613C17.4219 31.2007 17.2565 31.3114 17.0744 31.3868C16.8923 31.4623 16.6971 31.5012 16.5 31.5012C16.3029 31.5012 16.1077 31.4623 15.9256 31.3868C15.7435 31.3114 15.5781 31.2007 15.4387 31.0613L10.9387 26.5613C10.6573 26.2798 10.4992 25.898 10.4992 25.5C10.4992 25.102 10.6573 24.7202 10.9387 24.4387C11.2202 24.1573 11.602 23.9992 12 23.9992C12.398 23.9992 12.7798 24.1573 13.0613 24.4387L15 26.3794V18C15 17.6022 15.158 17.2206 15.4393 16.9393C15.7206 16.658 16.1022 16.5 16.5 16.5C16.8978 16.5 17.2794 16.658 17.5607 16.9393C17.842 17.2206 18 17.6022 18 18V26.3794L19.9387 24.4387C20.0781 24.2993 20.2435 24.1886 20.4256 24.1132C20.6077 24.0377 20.8029 23.9988 21 23.9988C21.1971 23.9988 21.3923 24.0377 21.5744 24.1132C21.7565 24.1886 21.9219 24.2993 22.0613 24.4387Z" fill="#241273"/>
</svg>
