<svg width="32" height="32" viewBox="0 0 32 32" fill="none" xmlns="http://www.w3.org/2000/svg">
<rect width="32" height="32" fill="#152429"/>
<rect width="11.3137" height="3.017" transform="matrix(0.707106 -0.707107 0.707106 0.707107 8 21.8667)" fill="#BFD1D7"/>
<rect width="3.017" height="11.3137" transform="matrix(0.707106 -0.707107 0.707106 0.707107 13.8672 15.9995)" fill="#BFD1D7"/>
<path d="M10.1758 8.62451V11.6415H17.334C18.1061 11.6415 18.8782 11.9363 19.4673 12.5254C20.3626 13.4207 20.5776 14.7388 20.1122 15.837L22.325 18.0498C22.777 17.3845 23.0936 16.6323 23.252 15.836C23.4848 14.6655 23.3654 13.4522 22.9087 12.3497C22.452 11.2471 21.6786 10.3047 20.6863 9.64169C19.696 8.98 18.5321 8.6262 17.3411 8.62479L10.1758 8.62451Z" fill="#BFD1D7"/>
<rect width="3.017" height="5.27975" transform="matrix(0.707106 -0.707107 0.707106 0.707107 9.06641 11.1987)" fill="#BFD1D7"/>
<circle cx="1.5085" cy="1.5085" r="1.5085" transform="matrix(0.707106 -0.707107 0.707106 0.707107 8 10.1323)" fill="#BFD1D7"/>
</svg>
