<svg width="110" height="32" viewBox="0 0 110 32" fill="none" xmlns="http://www.w3.org/2000/svg">
<path d="M43.936 7.88L46.272 7.464L48.352 11.32C48.448 11.4907 48.5493 11.624 48.656 11.72C48.7627 11.8053 48.88 11.864 49.008 11.896C49.1467 11.928 49.296 11.944 49.456 11.944H49.6V13H46.432L43.936 7.88ZM42.416 11.784C42.416 11.816 42.448 11.8427 42.512 11.864C42.576 11.8747 42.656 11.8907 42.752 11.912C42.8587 11.9227 42.976 11.9333 43.104 11.944C43.232 11.944 43.36 11.944 43.488 11.944L43.696 11.944V13L38.656 13V11.944H38.816C39.136 11.944 39.3973 11.9067 39.6 11.832C39.8133 11.7573 39.92 11.6027 39.92 11.368V3.272C39.92 3.03733 39.8133 2.88267 39.6 2.808C39.3973 2.73333 39.136 2.696 38.816 2.696H38.656V1.64L44.304 1.64C45.2 1.64 45.9573 1.768 46.576 2.024C47.2053 2.28 47.6853 2.648 48.016 3.128C48.3467 3.59733 48.512 4.168 48.512 4.84C48.512 5.42667 48.3787 5.94933 48.112 6.408C47.8453 6.856 47.456 7.224 46.944 7.512C46.4427 7.8 45.824 7.992 45.088 8.088C45.0027 8.13067 44.9173 8.168 44.832 8.2C44.7467 8.22133 44.656 8.24267 44.56 8.264C44.4747 8.28533 44.384 8.30133 44.288 8.312L42.096 8.312V7.192H43.872C44.3413 7.192 44.7253 7.10133 45.024 6.92C45.3333 6.728 45.5573 6.46133 45.696 6.12C45.8453 5.77867 45.92 5.37333 45.92 4.904C45.92 4.456 45.8453 4.07733 45.696 3.768C45.5573 3.448 45.3387 3.208 45.04 3.048C44.752 2.87733 44.3893 2.792 43.952 2.792H42.416V11.784ZM59.5104 8.776C59.5104 9.66133 59.3237 10.4347 58.9504 11.096C58.577 11.7573 58.049 12.2693 57.3664 12.632C56.6837 12.9947 55.873 13.176 54.9344 13.176C54.0064 13.176 53.1957 12.9947 52.5024 12.632C51.8197 12.2693 51.2917 11.7573 50.9184 11.096C50.545 10.4347 50.3584 9.66133 50.3584 8.776C50.3584 8.104 50.465 7.50133 50.6784 6.968C50.8917 6.424 51.1957 5.96 51.5904 5.576C51.9957 5.18133 52.4757 4.88267 53.0304 4.68C53.5957 4.46667 54.2304 4.36 54.9344 4.36C55.6384 4.36 56.2677 4.46667 56.8224 4.68C57.3877 4.88267 57.8677 5.18133 58.2624 5.576C58.6677 5.96 58.977 6.424 59.1904 6.968C59.4037 7.50133 59.5104 8.104 59.5104 8.776ZM52.8224 8.776C52.8224 9.49067 52.897 10.088 53.0464 10.568C53.2064 11.048 53.441 11.4107 53.7504 11.656C54.0704 11.8907 54.465 12.008 54.9344 12.008C55.4144 12.008 55.809 11.8907 56.1184 11.656C56.4277 11.4107 56.6624 11.048 56.8224 10.568C56.9824 10.088 57.0624 9.49067 57.0624 8.776C57.0624 8.06133 56.9824 7.46933 56.8224 7C56.6624 6.52 56.4277 6.16267 56.1184 5.928C55.809 5.68267 55.4144 5.56 54.9344 5.56C54.465 5.56 54.0704 5.68267 53.7504 5.928C53.441 6.16267 53.2064 6.52 53.0464 7C52.897 7.46933 52.8224 8.06133 52.8224 8.776ZM66.509 13.176C66.0077 13.176 65.565 13.1013 65.181 12.952C64.8077 12.792 64.477 12.568 64.189 12.28C63.9117 11.9813 63.6503 11.6133 63.405 11.176L63.437 9.72C63.7037 10.168 63.9597 10.552 64.205 10.872C64.461 11.192 64.7277 11.4373 65.005 11.608C65.293 11.768 65.613 11.848 65.965 11.848C66.2957 11.848 66.5837 11.7787 66.829 11.64C67.0743 11.5013 67.277 11.2987 67.437 11.032C67.6077 10.7547 67.7303 10.424 67.805 10.04C67.8903 9.64533 67.933 9.19733 67.933 8.696C67.933 8.20533 67.8957 7.77867 67.821 7.416C67.7463 7.04267 67.6343 6.728 67.485 6.472C67.3357 6.216 67.1437 6.024 66.909 5.896C66.6743 5.768 66.397 5.704 66.077 5.704C65.725 5.704 65.3997 5.784 65.101 5.944C64.813 6.09333 64.5357 6.33333 64.269 6.664C64.0023 6.99467 63.725 7.42133 63.437 7.944L63.421 6.68C63.7197 6.168 64.0183 5.74133 64.317 5.4C64.6263 5.05867 64.9677 4.80267 65.341 4.632C65.7143 4.45067 66.1517 4.36 66.653 4.36C67.4317 4.36 68.0983 4.54133 68.653 4.904C69.2077 5.26667 69.6343 5.77333 69.933 6.424C70.2317 7.07467 70.381 7.832 70.381 8.696C70.381 9.56 70.221 10.3333 69.901 11.016C69.5917 11.688 69.1437 12.216 68.557 12.6C67.981 12.984 67.2983 13.176 66.509 13.176ZM61.533 2.648C61.533 2.52 61.501 2.424 61.437 2.36C61.373 2.28533 61.2717 2.22667 61.133 2.184C60.9943 2.13067 60.8183 2.088 60.605 2.056L60.461 2.024V0.999999L63.917 0.999999V11.08L63.709 11.192L63.005 13.128H61.533V2.648ZM74.008 8.824C74.008 9.368 74.0613 9.84267 74.168 10.248C74.2747 10.6427 74.4347 10.968 74.648 11.224C74.8613 11.4693 75.1227 11.656 75.432 11.784C75.7413 11.9013 76.0933 11.96 76.488 11.96C76.8933 11.96 77.2453 11.8907 77.544 11.752C77.8427 11.6027 78.0987 11.416 78.312 11.192C78.536 10.9573 78.728 10.712 78.888 10.456L79.848 11.16C79.6347 11.5653 79.3573 11.9227 79.016 12.232C78.6853 12.5307 78.2853 12.7653 77.816 12.936C77.3573 13.096 76.824 13.176 76.216 13.176C75.3093 13.176 74.5093 13.0053 73.816 12.664C73.1227 12.3227 72.584 11.8267 72.2 11.176C71.816 10.5253 71.624 9.736 71.624 8.808C71.624 7.92267 71.8053 7.14933 72.168 6.488C72.5413 5.816 73.0533 5.29333 73.704 4.92C74.3547 4.54667 75.096 4.36 75.928 4.36C76.6 4.36 77.1813 4.46133 77.672 4.664C78.1733 4.86667 78.5893 5.17067 78.92 5.576C79.2507 5.98133 79.5013 6.488 79.672 7.096C79.8427 7.704 79.928 8.41867 79.928 9.24L73.544 9.24V8.168L78.056 8.168L77.672 8.584C77.6613 8.008 77.6187 7.52267 77.544 7.128C77.48 6.73333 77.3787 6.424 77.24 6.2C77.112 5.96533 76.9413 5.79467 76.728 5.688C76.5147 5.58133 76.2587 5.528 75.96 5.528C75.6613 5.528 75.3947 5.592 75.16 5.72C74.9253 5.848 74.7173 6.04533 74.536 6.312C74.3653 6.568 74.232 6.904 74.136 7.32C74.0507 7.736 74.008 8.23733 74.008 8.824ZM87.524 4.456V6.648C87.4387 6.62667 87.332 6.61067 87.204 6.6C87.0867 6.57867 86.9587 6.56267 86.82 6.552C86.692 6.54133 86.564 6.536 86.436 6.536C86.18 6.536 85.9453 6.56267 85.732 6.616C85.5187 6.65867 85.3213 6.728 85.14 6.824C84.9587 6.92 84.7933 7.048 84.644 7.208C84.4947 7.368 84.34 7.56533 84.18 7.8L84.164 7.032C84.388 6.47733 84.6227 6.00267 84.868 5.608C85.1133 5.21333 85.396 4.90933 85.716 4.696C86.0467 4.48267 86.4413 4.376 86.9 4.376C87.0387 4.376 87.1613 4.38667 87.268 4.408C87.3853 4.41867 87.4707 4.43467 87.524 4.456ZM81.044 13V12.056H81.076C81.396 12.056 81.6467 12.008 81.828 11.912C82.02 11.8053 82.116 11.6133 82.116 11.336V6.184C82.116 6.056 82.084 5.96 82.02 5.896C81.956 5.82133 81.8547 5.76267 81.716 5.72C81.5773 5.67733 81.4013 5.63467 81.188 5.592L81.044 5.56V4.536H84.228L84.372 6.952L84.5 6.856V11.752C84.5 11.8373 84.5587 11.9067 84.676 11.96C84.804 12.0027 84.9587 12.0293 85.14 12.04C85.3213 12.0507 85.4867 12.056 85.636 12.056H85.86V13H81.044ZM88.3163 5.672V4.616H88.4283C88.7163 4.616 88.9616 4.59467 89.1643 4.552C89.3776 4.50933 89.5376 4.424 89.6443 4.296C89.7509 4.168 89.8043 3.98133 89.8043 3.736L91.2763 4.536H94.5243V5.672L88.3163 5.672ZM92.0763 10.248C92.0763 10.664 92.1296 10.9947 92.2363 11.24C92.3429 11.4747 92.4976 11.64 92.7003 11.736C92.9136 11.832 93.1643 11.88 93.4523 11.88C93.6976 11.88 93.9216 11.8587 94.1243 11.816C94.3376 11.7733 94.4869 11.7413 94.5723 11.72V12.92C94.4763 12.9627 94.3376 13 94.1563 13.032C93.9856 13.0747 93.7883 13.1067 93.5643 13.128C93.3509 13.16 93.1216 13.176 92.8763 13.176C92.2896 13.176 91.7563 13.096 91.2763 12.936C90.7963 12.7653 90.4123 12.4773 90.1243 12.072C89.8469 11.656 89.7083 11.08 89.7083 10.344V4.808L89.8043 4.68V2.152L92.0763 2.152V10.248ZM44.144 28.44L43.904 28.04L47.088 18.792C47.088 18.7173 47.0187 18.6587 46.88 18.616C46.752 18.5733 46.5813 18.5413 46.368 18.52C46.1653 18.488 45.9467 18.472 45.712 18.472H45.472V17.64L49.296 17.64V18.472H49.2C48.8907 18.472 48.64 18.52 48.448 18.616C48.2667 18.712 48.1173 18.9307 48 19.272L44.608 29.064H42.928L39.424 19.112C39.328 18.824 39.184 18.648 38.992 18.584C38.8107 18.5093 38.5707 18.472 38.272 18.472H38.192V17.64H42.4V18.472H42.16C41.9253 18.472 41.7013 18.4773 41.488 18.488C41.2747 18.4987 41.0987 18.5147 40.96 18.536C40.832 18.5573 40.768 18.5893 40.768 18.632L44.144 28.44ZM50.8643 24.856C50.8643 25.4427 50.9336 25.9493 51.0723 26.376C51.2216 26.8027 51.4243 27.1547 51.6803 27.432C51.9363 27.6987 52.2349 27.9013 52.5763 28.04C52.9176 28.168 53.2909 28.232 53.6963 28.232C54.1336 28.232 54.5123 28.152 54.8323 27.992C55.1629 27.8213 55.4456 27.6133 55.6803 27.368C55.9149 27.1227 56.1123 26.8667 56.2723 26.6L57.0403 27.24C56.8376 27.6027 56.5763 27.9333 56.2563 28.232C55.9363 28.5307 55.5576 28.7653 55.1203 28.936C54.6936 29.096 54.2083 29.176 53.6643 29.176C52.8643 29.176 52.1389 29.0053 51.4883 28.664C50.8483 28.3227 50.3416 27.8267 49.9683 27.176C49.5949 26.5253 49.4083 25.7467 49.4083 24.84C49.4083 23.9547 49.5789 23.1813 49.9203 22.52C50.2723 21.8587 50.7469 21.3413 51.3443 20.968C51.9416 20.5947 52.6189 20.408 53.3763 20.408C53.9843 20.408 54.5123 20.5093 54.9603 20.712C55.4189 20.904 55.8029 21.2027 56.1123 21.608C56.4216 22.0027 56.6563 22.4987 56.8163 23.096C56.9763 23.6827 57.0563 24.376 57.0563 25.176H50.5443V24.264H56.0003L55.5683 24.616C55.5469 24.0293 55.4883 23.5333 55.3923 23.128C55.3069 22.712 55.1789 22.376 55.0083 22.12C54.8376 21.8533 54.6136 21.6613 54.3363 21.544C54.0696 21.416 53.7496 21.352 53.3763 21.352C53.0136 21.352 52.6776 21.4267 52.3683 21.576C52.0589 21.7253 51.7923 21.9493 51.5683 22.248C51.3443 22.5467 51.1683 22.9147 51.0403 23.352C50.9229 23.7893 50.8643 24.2907 50.8643 24.856ZM58.3744 29V28.248H58.4224C58.689 28.248 58.9237 28.2267 59.1264 28.184C59.329 28.1413 59.4837 28.0613 59.5904 27.944C59.7077 27.8267 59.7664 27.6667 59.7664 27.464V22.12C59.7664 21.96 59.7184 21.8427 59.6224 21.768C59.537 21.6827 59.4037 21.6133 59.2224 21.56C59.041 21.5067 58.8117 21.4533 58.5344 21.4L58.3744 21.368V20.568H60.9664L61.0944 22.344L61.1904 22.456V28.088C61.1904 28.12 61.2544 28.152 61.3824 28.184C61.5104 28.2053 61.665 28.2213 61.8464 28.232C62.0277 28.2427 62.193 28.248 62.3424 28.248H62.3904V29H58.3744ZM67.9584 29H63.9424V28.248H63.9904C64.1397 28.248 64.305 28.2427 64.4864 28.232C64.6677 28.2213 64.8224 28.2053 64.9504 28.184C65.089 28.152 65.1584 28.12 65.1584 28.088V23.048C65.1584 22.6853 65.1157 22.3867 65.0304 22.152C64.945 21.9173 64.801 21.7413 64.5984 21.624C64.3957 21.5067 64.1237 21.448 63.7824 21.448C63.4304 21.448 63.089 21.5173 62.7584 21.656C62.4277 21.7947 62.1077 22.0027 61.7984 22.28C61.4997 22.5573 61.201 22.904 60.9024 23.32V22.392C61.201 21.9547 61.5104 21.592 61.8304 21.304C62.161 21.0053 62.513 20.7813 62.8864 20.632C63.2597 20.4827 63.665 20.408 64.1024 20.408C64.625 20.408 65.0677 20.4987 65.4304 20.68C65.793 20.8507 66.0757 21.1227 66.2784 21.496C66.481 21.8587 66.5824 22.3173 66.5824 22.872V27.464C66.5824 27.6667 66.6357 27.8267 66.7424 27.944C66.8597 28.0613 67.0144 28.1413 67.2064 28.184C67.409 28.2267 67.649 28.248 67.9264 28.248H67.9584V29ZM68.567 21.512V20.648H68.711C69.0523 20.648 69.3403 20.6267 69.575 20.584C69.8203 20.5307 70.0017 20.4347 70.119 20.296C70.247 20.1573 70.311 19.9547 70.311 19.688L71.351 20.568H74.295V21.512L68.567 21.512ZM71.623 26.328C71.623 26.7867 71.687 27.1547 71.815 27.432C71.943 27.6987 72.1243 27.8907 72.359 28.008C72.6043 28.1147 72.887 28.168 73.207 28.168C73.463 28.168 73.703 28.152 73.927 28.12C74.151 28.0773 74.3163 28.04 74.423 28.008V28.952C74.3163 28.9947 74.1883 29.032 74.039 29.064C73.8897 29.096 73.7297 29.1227 73.559 29.144C73.399 29.1653 73.2283 29.176 73.047 29.176C72.5563 29.176 72.0923 29.096 71.655 28.936C71.2283 28.776 70.8763 28.4933 70.599 28.088C70.3323 27.6827 70.199 27.1013 70.199 26.344V20.808L70.311 20.68V18.184L71.623 18.184V26.328ZM78.1383 20.568V26.504C78.1383 26.8667 78.1809 27.1707 78.2663 27.416C78.3623 27.6507 78.5063 27.8267 78.6983 27.944C78.9009 28.0613 79.1729 28.12 79.5143 28.12C79.8663 28.12 80.2023 28.0507 80.5223 27.912C80.8423 27.7733 81.1516 27.5707 81.4503 27.304C81.7596 27.0267 82.0583 26.68 82.3463 26.264V27.208C82.0476 27.6347 81.7383 27.992 81.4183 28.28C81.0983 28.568 80.7516 28.7867 80.3783 28.936C80.0156 29.0853 79.6156 29.16 79.1783 29.16C78.6769 29.16 78.2396 29.0747 77.8663 28.904C77.5036 28.7227 77.2209 28.4453 77.0182 28.072C76.8156 27.6987 76.7143 27.24 76.7143 26.696V22.12C76.7143 21.8853 76.6129 21.72 76.4103 21.624C76.2183 21.528 75.9143 21.4533 75.4983 21.4L75.2743 21.368V20.568H78.1383ZM83.4823 20.568V27.576C83.4823 27.7253 83.5356 27.8427 83.6423 27.928C83.7596 28.0133 83.9143 28.0773 84.1063 28.12C84.3089 28.152 84.5383 28.1787 84.7943 28.2L84.8743 28.216V29H82.2823L82.1543 27.208L82.0583 27.064V22.12C82.0583 21.8853 81.9569 21.72 81.7543 21.624C81.5516 21.528 81.2369 21.4587 80.8103 21.416L80.4263 21.368V20.568H83.4823ZM91.8096 20.456V21.96C91.735 21.928 91.6443 21.9067 91.5376 21.896C91.431 21.8853 91.319 21.8747 91.2016 21.864C91.095 21.8533 90.9883 21.848 90.8816 21.848C90.5936 21.848 90.3323 21.88 90.0976 21.944C89.8736 22.008 89.6656 22.1093 89.4736 22.248C89.2923 22.376 89.1163 22.5467 88.9456 22.76C88.7856 22.9733 88.615 23.2293 88.4336 23.528V22.68C88.6576 22.2 88.903 21.7893 89.1696 21.448C89.447 21.1067 89.751 20.8453 90.0816 20.664C90.423 20.4827 90.8016 20.392 91.2176 20.392C91.3456 20.392 91.463 20.3973 91.5696 20.408C91.6763 20.4187 91.7563 20.4347 91.8096 20.456ZM85.9056 29V28.248H85.9536C86.359 28.248 86.6843 28.2 86.9296 28.104C87.175 27.9973 87.2976 27.784 87.2976 27.464V22.12C87.2976 21.96 87.2496 21.8427 87.1536 21.768C87.0683 21.6827 86.935 21.6133 86.7536 21.56C86.5723 21.5067 86.343 21.4533 86.0656 21.4L85.9056 21.368V20.568H88.4976L88.6256 22.776L88.7216 22.68V27.832C88.7216 27.9493 88.7963 28.04 88.9456 28.104C89.095 28.168 89.271 28.2107 89.4736 28.232C89.6763 28.2427 89.8523 28.248 90.0016 28.248H90.3376V29H85.9056ZM94.2705 24.856C94.2705 25.4427 94.3398 25.9493 94.4785 26.376C94.6278 26.8027 94.8305 27.1547 95.0865 27.432C95.3425 27.6987 95.6412 27.9013 95.9825 28.04C96.3238 28.168 96.6972 28.232 97.1025 28.232C97.5398 28.232 97.9185 28.152 98.2385 27.992C98.5692 27.8213 98.8518 27.6133 99.0865 27.368C99.3212 27.1227 99.5185 26.8667 99.6785 26.6L100.447 27.24C100.244 27.6027 99.9825 27.9333 99.6625 28.232C99.3425 28.5307 98.9638 28.7653 98.5265 28.936C98.0998 29.096 97.6145 29.176 97.0705 29.176C96.2705 29.176 95.5452 29.0053 94.8945 28.664C94.2545 28.3227 93.7478 27.8267 93.3745 27.176C93.0012 26.5253 92.8145 25.7467 92.8145 24.84C92.8145 23.9547 92.9852 23.1813 93.3265 22.52C93.6785 21.8587 94.1532 21.3413 94.7505 20.968C95.3478 20.5947 96.0252 20.408 96.7825 20.408C97.3905 20.408 97.9185 20.5093 98.3665 20.712C98.8252 20.904 99.2092 21.2027 99.5185 21.608C99.8278 22.0027 100.063 22.4987 100.223 23.096C100.383 23.6827 100.463 24.376 100.463 25.176H93.9505V24.264H99.4065L98.9745 24.616C98.9532 24.0293 98.8945 23.5333 98.7985 23.128C98.7132 22.712 98.5852 22.376 98.4145 22.12C98.2438 21.8533 98.0198 21.6613 97.7425 21.544C97.4758 21.416 97.1558 21.352 96.7825 21.352C96.4198 21.352 96.0838 21.4267 95.7745 21.576C95.4652 21.7253 95.1985 21.9493 94.9745 22.248C94.7505 22.5467 94.5745 22.9147 94.4465 23.352C94.3292 23.7893 94.2705 24.2907 94.2705 24.856ZM107.141 26.792C107.141 26.5467 107.077 26.344 106.949 26.184C106.831 26.024 106.666 25.8907 106.453 25.784C106.25 25.6773 106.015 25.592 105.749 25.528C105.493 25.4533 105.221 25.384 104.933 25.32C104.591 25.2347 104.25 25.1387 103.909 25.032C103.578 24.9253 103.274 24.7813 102.997 24.6C102.719 24.4187 102.501 24.1893 102.341 23.912C102.181 23.624 102.101 23.2613 102.101 22.824C102.101 22.344 102.218 21.9227 102.453 21.56C102.698 21.1973 103.05 20.9147 103.509 20.712C103.967 20.5093 104.527 20.408 105.189 20.408C105.701 20.408 106.143 20.44 106.517 20.504C106.901 20.568 107.221 20.648 107.477 20.744C107.733 20.84 107.925 20.9307 108.053 21.016V22.936H106.645V21.336C106.762 21.336 106.858 21.352 106.933 21.384C107.018 21.416 107.082 21.464 107.125 21.528C107.178 21.592 107.21 21.672 107.221 21.768C107.242 21.8533 107.247 21.96 107.237 22.088C107.109 21.9173 106.938 21.7787 106.725 21.672C106.522 21.5653 106.293 21.4853 106.037 21.432C105.781 21.3787 105.498 21.352 105.189 21.352C104.581 21.352 104.133 21.4693 103.845 21.704C103.557 21.9387 103.413 22.2533 103.413 22.648C103.413 22.904 103.471 23.1173 103.589 23.288C103.717 23.4587 103.887 23.5973 104.101 23.704C104.314 23.8 104.554 23.8907 104.821 23.976C105.098 24.0507 105.391 24.12 105.701 24.184C106.031 24.2587 106.362 24.3547 106.693 24.472C107.023 24.5787 107.322 24.7227 107.589 24.904C107.866 25.0747 108.085 25.304 108.245 25.592C108.405 25.8693 108.485 26.2213 108.485 26.648C108.485 27.128 108.357 27.56 108.101 27.944C107.845 28.328 107.471 28.632 106.981 28.856C106.49 29.0693 105.887 29.176 105.173 29.176C104.65 29.176 104.175 29.1387 103.749 29.064C103.333 28.9893 102.965 28.8933 102.645 28.776C102.325 28.648 102.042 28.5093 101.797 28.36V26.344H103.221V28.488C103.061 28.4027 102.933 28.3173 102.837 28.232C102.751 28.1467 102.693 28.0613 102.661 27.976C102.629 27.88 102.613 27.784 102.613 27.688C102.623 27.592 102.639 27.4907 102.661 27.384C102.831 27.5653 103.039 27.72 103.285 27.848C103.541 27.9653 103.823 28.0613 104.133 28.136C104.453 28.2 104.794 28.232 105.157 28.232C105.594 28.232 105.957 28.1787 106.245 28.072C106.533 27.9653 106.751 27.8053 106.901 27.592C107.061 27.3787 107.141 27.112 107.141 26.792Z" fill="#152429"/>
<rect width="32" height="32" fill="#152429"/>
<rect width="11.3137" height="3.017" transform="matrix(0.707106 -0.707107 0.707106 0.707107 8 21.8667)" fill="#BFD1D7"/>
<rect width="3.017" height="11.3137" transform="matrix(0.707106 -0.707107 0.707106 0.707107 13.8672 15.9995)" fill="#BFD1D7"/>
<path d="M10.1758 8.62451V11.6415H17.334C18.1061 11.6415 18.8782 11.9363 19.4673 12.5254C20.3626 13.4207 20.5776 14.7388 20.1122 15.837L22.325 18.0498C22.777 17.3845 23.0936 16.6323 23.252 15.836C23.4848 14.6655 23.3654 13.4522 22.9087 12.3497C22.452 11.2471 21.6786 10.3047 20.6863 9.64169C19.696 8.98 18.5321 8.6262 17.3411 8.62479L10.1758 8.62451Z" fill="#BFD1D7"/>
<rect width="3.017" height="5.27975" transform="matrix(0.707106 -0.707107 0.707106 0.707107 9.06641 11.1987)" fill="#BFD1D7"/>
<circle cx="1.5085" cy="1.5085" r="1.5085" transform="matrix(0.707106 -0.707107 0.707106 0.707107 8 10.1323)" fill="#BFD1D7"/>
</svg>
