<svg width="15" height="13" viewBox="0 0 15 13" fill="none" xmlns="http://www.w3.org/2000/svg">
<path d="M6.66667 1.44177C5.96096 1.87431 5.39039 2.25077 4.95496 2.57116C4.51952 2.87554 4.07658 3.28404 3.62613 3.79667C3.20571 4.27726 2.88288 4.78189 2.65766 5.31054C2.43243 5.83919 2.27477 6.52002 2.18468 7.35305H3.26577C4.1967 7.35305 4.92492 7.60136 5.45045 8.09797C5.99099 8.57856 6.26126 9.29144 6.26126 10.2366C6.26126 10.9094 6.02102 11.5422 5.54054 12.1349C5.07508 12.7116 4.42943 13 3.6036 13C2.31231 13 1.38889 12.5514 0.833333 11.6543C0.277778 10.7412 0 9.54775 0 8.07394C0 7.03266 0.21021 6.08749 0.630631 5.23845C1.05105 4.37338 1.56156 3.60444 2.16216 2.93161C2.77778 2.24276 3.43093 1.65804 4.12162 1.17745C4.81231 0.696858 5.39039 0.304375 5.85586 0L6.66667 1.44177ZM15 1.44177C14.2943 1.87431 13.7237 2.25077 13.2883 2.57116C12.8529 2.87554 12.4099 3.28404 11.9595 3.79667C11.524 4.29328 11.1937 4.80591 10.9685 5.33457C10.7583 5.8472 10.6081 6.52002 10.518 7.35305H11.5991C12.53 7.35305 13.2583 7.60136 13.7838 8.09797C14.3243 8.57856 14.5946 9.29144 14.5946 10.2366C14.5946 10.9094 14.3544 11.5422 13.8739 12.1349C13.4084 12.7116 12.7628 13 11.9369 13C10.6456 13 9.72222 12.5514 9.16667 11.6543C8.61111 10.7412 8.33333 9.54775 8.33333 8.07394C8.33333 7.03266 8.54354 6.08749 8.96396 5.23845C9.38438 4.37338 9.8949 3.60444 10.4955 2.93161C11.1111 2.24276 11.7643 1.65804 12.455 1.17745C13.1456 0.696858 13.7237 0.304375 14.1892 0L15 1.44177Z" fill="#FF6A41"/>
</svg>
