<svg width="114" height="32" viewBox="0 0 114 32" fill="none" xmlns="http://www.w3.org/2000/svg">
<path fill-rule="evenodd" clip-rule="evenodd" d="M83.4673 24.3472C79.6092 24.3472 77.2122 22.1062 77.2122 18.4968C77.2122 14.7461 79.4239 12.4157 82.985 12.4157L83.286 12.4139C83.7312 12.4139 84.3466 12.428 85.1867 12.535V8.00977H87.7061V23.9402C87.7061 23.9402 85.3135 24.3472 83.4673 24.3472ZM83.4454 14.4027C81.0074 14.4027 79.822 15.7217 79.822 18.4343C79.822 20.8685 81.251 22.3803 83.5504 22.3803C83.9918 22.3803 84.4977 22.3528 85.1867 22.292V14.5638C84.4971 14.4541 83.9435 14.4027 83.4454 14.4027Z" fill="#AFB5BC"/>
<path fill-rule="evenodd" clip-rule="evenodd" d="M48.9954 23.9837L42.1961 12.0876L42.1944 23.9837H39.8254V8.92578H43.1412L49.9404 20.7155L49.9375 8.92578H52.3369V23.9837H48.9954Z" fill="#AFB5BC"/>
<path fill-rule="evenodd" clip-rule="evenodd" d="M70.6508 24.2145C69.5064 24.2145 68.3121 24.0862 66.8903 23.8121L66.7393 23.7822V21.6786L66.9645 21.7281C68.2161 21.995 69.2981 22.2257 70.379 22.2257C71.2544 22.2257 73.2904 22.0861 73.2904 20.797C73.2904 19.7146 71.8833 19.4438 70.7524 19.2271L70.6817 19.213C70.4717 19.1714 70.2728 19.132 70.1027 19.0892C68.4452 18.6574 66.677 18.01 66.677 15.7826C66.677 13.6109 68.3924 12.3652 71.3829 12.3652C72.8176 12.3652 73.8597 12.5205 74.6964 12.6456L75.1058 12.7069V14.7457L74.8874 14.7081C73.94 14.5329 72.83 14.3534 71.7603 14.3534C70.5749 14.3534 69.1628 14.5758 69.1628 15.6357C69.1628 16.5138 70.3167 16.7654 71.653 17.0565C73.5201 17.464 75.8374 17.9712 75.8374 20.5251C75.8374 22.8697 73.9468 24.2145 70.6508 24.2145Z" fill="#AFB5BC"/>
<path fill-rule="evenodd" clip-rule="evenodd" d="M94.7711 24.2145C92.1635 24.2145 89.7512 23.7552 89.7512 20.4205C89.7512 16.7919 93.4824 16.7919 95.7122 16.7919C95.9351 16.7919 96.9829 16.8398 97.3058 16.8544C97.3029 14.8189 97.2754 14.3331 94.3309 14.3331C93.1635 14.3331 91.8664 14.5657 90.7221 14.7705L90.5036 14.8099V12.7992L90.653 12.7688C91.9787 12.4975 93.2572 12.3652 94.5611 12.3652C97.4152 12.3652 99.8337 12.654 99.8337 16.2026V23.9438L99.6596 23.9617C97.6831 24.1841 96.1125 24.2145 94.7711 24.2145ZM95.6487 18.5865C93.4993 18.5865 92.1674 18.9035 92.1674 20.4824C92.1674 22.309 93.8677 22.4616 95.4612 22.4616C96.0581 22.4616 97.1289 22.3856 97.4563 22.3609V18.6484C96.9941 18.6309 95.7942 18.5865 95.6487 18.5865Z" fill="#AFB5BC"/>
<path fill-rule="evenodd" clip-rule="evenodd" d="M59.4547 24.2145C56.847 24.2145 54.4348 23.7552 54.4348 20.4205C54.4348 16.7919 58.166 16.7919 60.3958 16.7919C60.6181 16.7919 61.6664 16.8398 61.9893 16.8544C61.9865 14.8189 61.959 14.3331 59.0144 14.3331C57.8471 14.3331 56.5505 14.5657 55.4056 14.7705L55.1872 14.8099V12.7992L55.3366 12.7688C56.6629 12.4975 57.9408 12.3652 59.2446 12.3652C62.0988 12.3652 64.5172 12.654 64.5172 16.2026V23.9438L64.3431 23.9617C62.3667 24.1841 60.7961 24.2145 59.4547 24.2145ZM60.3323 18.5865C58.1829 18.5865 56.8509 18.9035 56.8509 20.4824C56.8509 22.309 58.5512 22.4616 60.1448 22.4616C60.7416 22.4616 61.8124 22.3856 62.1398 22.3609V18.6484C61.6777 18.6309 60.4777 18.5865 60.3323 18.5865Z" fill="#AFB5BC"/>
<path fill-rule="evenodd" clip-rule="evenodd" d="M109.855 29.0961V24.1576C108.872 24.2961 108.349 24.2961 107.928 24.2961C106.931 24.2961 105.825 24.0788 104.966 23.714C103.048 22.9158 101.904 20.8837 101.904 18.2774C101.904 16.9743 102.22 14.596 104.336 13.3142C105.396 12.6781 106.651 12.4062 108.535 12.4062C109.211 12.4062 110.122 12.4586 111.002 12.5098L112.431 12.5835V27.9528L109.855 29.0961ZM108.346 14.3939C105.79 14.3939 104.493 15.7004 104.493 18.2774C104.493 21.5919 106.429 22.2876 108.054 22.2876C108.448 22.2876 108.894 22.2876 109.879 22.1632V14.4653C109.107 14.413 108.753 14.3939 108.346 14.3939Z" fill="#AFB5BC"/>
<path fill-rule="evenodd" clip-rule="evenodd" d="M28.5809 0L20.2555 22.9292C20.0511 23.4949 19.535 23.9081 18.9163 23.9706V23.9841H27.7162C28.4063 23.9841 28.9958 23.5444 29.2171 22.9292L37.5426 0H28.5809ZM18.2004 23.6338C18.7086 23.6338 19.1567 23.3817 19.4307 22.9966C19.4594 22.9566 19.5594 22.8159 19.6289 22.6239L22.683 14.2107L20.8968 9.29753C20.6688 8.75206 20.1303 8.36872 19.5031 8.36872C18.9955 8.36872 18.5469 8.62034 18.2728 9.00593C18.2443 9.04534 18.1252 9.22491 18.0747 9.37858L15.0218 17.7885L16.8152 22.7213C17.0477 23.2578 17.5794 23.6338 18.2004 23.6338ZM9.95648 8.01708H18.8525V8.02214C18.1916 8.04973 17.6317 8.47585 17.4172 9.07141L9.09232 32H0.130127L8.45501 9.07141C8.67737 8.45615 9.26583 8.01708 9.95648 8.01708Z" fill="#AFB5BC"/>
</svg>
