<svg width="149" height="21" viewBox="0 0 149 21" fill="none" xmlns="http://www.w3.org/2000/svg">
<path d="M2.19898 18.6896C1.8902 19.036 1.73581 19.4728 1.73581 20H0.730398V15.3909H1.89397C2.18768 16.5507 2.79771 17.4921 3.72405 18.2151C4.65792 18.9306 5.78383 19.2883 7.10179 19.2883C8.75112 19.2883 9.85444 18.8327 10.4117 17.9214C10.5925 17.6126 10.6829 17.2662 10.6829 16.8821C10.6829 16.0612 10.3929 15.357 9.81302 14.7696C9.23312 14.1822 8.239 13.6324 6.83067 13.1203C5.42986 12.6006 4.36796 12.1261 3.64497 11.6969C2.92951 11.2676 2.36467 10.8157 1.95045 10.3412C1.21993 9.50528 0.854662 8.40949 0.854662 7.05388C0.854662 5.69826 1.43456 4.59871 2.59437 3.75521C3.7617 2.91172 5.17757 2.48997 6.84196 2.48997C7.78336 2.48997 8.58167 2.59917 9.23688 2.81758C9.89963 3.03598 10.4042 3.29204 10.7507 3.58576C10.9314 3.32217 11.0293 3.03222 11.0444 2.71591H12.095V6.91831H11.0105C10.8975 5.8037 10.4306 4.94514 9.60968 4.34265C8.79631 3.73262 7.85114 3.42761 6.77418 3.42761C5.70475 3.42761 4.83113 3.64978 4.15333 4.09412C3.47552 4.53093 3.13661 5.12966 3.13661 5.89031C3.13661 6.65096 3.45292 7.31747 4.08554 7.88984C4.71817 8.46221 6.00977 9.17767 7.96034 10.0362C9.79042 10.7818 11.067 11.5387 11.79 12.3069C12.513 13.0675 12.8744 14.0089 12.8744 15.1311C12.8744 16.7126 12.3171 17.959 11.2025 18.8703C10.0954 19.7741 8.75112 20.2259 7.16957 20.2259C5.59555 20.2259 4.22487 19.9096 3.05754 19.277C2.7111 19.0887 2.42492 18.8929 2.19898 18.6896ZM19.512 20.2259C16.8234 20.2259 15.479 18.9758 15.479 16.4754V9.32453H14.1121V8.44338H15.479V4.98656C16.1644 4.98656 17.0003 4.80958 17.9869 4.45561C18.2129 4.37277 18.3748 4.30122 18.4727 4.24098V8.44338H22.1893V9.32453H18.4727V17.2888C18.4727 17.9816 18.6158 18.4825 18.902 18.7912C19.1957 19.0925 19.5835 19.2431 20.0655 19.2431C20.8187 19.2431 21.4965 18.908 22.099 18.2377L22.6977 18.7686C22.1554 19.4389 21.4174 19.887 20.4835 20.113C20.1747 20.1883 19.8509 20.2259 19.512 20.2259ZM28.0474 10.0023C29.2599 8.835 30.5703 8.25134 31.9787 8.25134C32.4306 8.25134 32.8297 8.40196 33.1761 8.70321C33.5226 9.00446 33.6958 9.39231 33.6958 9.86678C33.6958 10.3337 33.5489 10.714 33.2552 11.0078C32.9615 11.3015 32.6038 11.4483 32.182 11.4483C31.7603 11.4483 31.4025 11.3052 31.1088 11.0191C30.8226 10.7253 30.6795 10.3638 30.6795 9.93456C30.6795 9.76134 30.7097 9.58436 30.7699 9.40361C29.6779 9.73498 28.7704 10.2961 28.0474 11.0868V19.1301H30.5214V20H23.4044V19.1301H25.0876V9.32453H23.3931V8.44338H28.0474V10.0023ZM45.4056 18.0231C44.2232 19.4916 42.54 20.2259 40.3559 20.2259C39.6329 20.2259 38.8798 20.0753 38.0966 19.7741C37.3133 19.4653 36.6468 19.0435 36.097 18.5088C34.9598 17.3791 34.3912 15.9407 34.3912 14.1934C34.3912 12.4387 34.9636 11.0115 36.1083 9.91196C37.2531 8.81241 38.7066 8.26263 40.4689 8.26263C43.0596 8.26263 44.6901 9.34713 45.3604 11.5161C45.5788 12.209 45.688 12.9885 45.688 13.8545H37.5091V14.1934C37.5091 16.5206 38.1681 18.0494 39.4861 18.7799C39.9304 19.0285 40.4614 19.1527 41.0789 19.1527C42.4496 19.1527 43.6922 18.5954 44.8069 17.4808L45.4056 18.0231ZM42.6492 12.9282C42.6341 11.7232 42.4496 10.8044 42.0956 10.1718C41.7417 9.53164 41.1618 9.21156 40.3559 9.21156C38.7217 9.21156 37.7916 10.4504 37.5656 12.9282H42.6492ZM58.1999 18.0231C57.0175 19.4916 55.3343 20.2259 53.1502 20.2259C52.4272 20.2259 51.6741 20.0753 50.8909 19.7741C50.1076 19.4653 49.4411 19.0435 48.8913 18.5088C47.7541 17.3791 47.1855 15.9407 47.1855 14.1934C47.1855 12.4387 47.7579 11.0115 48.9026 9.91196C50.0474 8.81241 51.5009 8.26263 53.2632 8.26263C55.8539 8.26263 57.4844 9.34713 58.1547 11.5161C58.3731 12.209 58.4823 12.9885 58.4823 13.8545H50.3034V14.1934C50.3034 16.5206 50.9624 18.0494 52.2804 18.7799C52.7247 19.0285 53.2557 19.1527 53.8732 19.1527C55.2439 19.1527 56.4865 18.5954 57.6012 17.4808L58.1999 18.0231ZM55.4435 12.9282C55.4284 11.7232 55.2439 10.8044 54.8899 10.1718C54.536 9.53164 53.9561 9.21156 53.1502 9.21156C51.516 9.21156 50.5859 10.4504 50.3599 12.9282H55.4435ZM64.9278 20.2259C62.2392 20.2259 60.8949 18.9758 60.8949 16.4754V9.32453H59.5279V8.44338H60.8949V4.98656C61.5802 4.98656 62.4162 4.80958 63.4027 4.45561C63.6287 4.37277 63.7906 4.30122 63.8885 4.24098V8.44338H67.6051V9.32453H63.8885V17.2888C63.8885 17.9816 64.0316 18.4825 64.3178 18.7912C64.6115 19.0925 64.9994 19.2431 65.4813 19.2431C66.2345 19.2431 66.9123 18.908 67.5148 18.2377L68.1135 18.7686C67.5713 19.4389 66.8332 19.887 65.8993 20.113C65.5906 20.1883 65.2667 20.2259 64.9278 20.2259ZM68.9106 19.1189H71.1361L71.1474 3.59706H68.9106V2.71591H76.4117V3.59706H74.1862V19.1189H76.4117V20H68.9106V19.1189ZM85.5345 9.32453C84.3069 9.32453 83.1961 9.89314 82.202 11.0303V19.1189H84.258V20H77.4347V19.1189H79.2648V9.32453H77.4234V8.44338H82.202V9.88937C83.3316 8.79735 84.6232 8.25134 86.0768 8.25134C87.0784 8.25134 87.9671 8.5074 88.7428 9.01952C89.7444 9.68226 90.2453 10.7366 90.2453 12.1826V19.1189H92.0754V20H85.2521V19.1189H87.3081V11.9567C87.3081 11.0755 87.214 10.4768 87.0257 10.1605C86.8449 9.84418 86.6378 9.62578 86.4044 9.50528C86.1784 9.38478 85.8885 9.32453 85.5345 9.32453ZM94.5444 19.1753C94.3034 19.341 94.1678 19.6159 94.1377 20H93.0532L93.0984 16.5997H94.1377C94.1377 17.1796 94.4992 17.7745 95.2222 18.3846C95.9527 18.9946 96.8753 19.2996 97.9899 19.2996C99.1045 19.2996 99.8125 18.9758 100.114 18.3281C100.197 18.1398 100.238 17.944 100.238 17.7406C100.238 17.3641 99.9781 17.0176 99.4585 16.7013C98.9464 16.385 98.0991 16.016 96.9167 15.5943C95.7418 15.1725 94.8155 14.6303 94.1377 13.9675C93.4599 13.2972 93.121 12.4839 93.121 11.5274C93.121 10.5634 93.5503 9.7764 94.4088 9.16638C95.2674 8.55635 96.2577 8.25134 97.3799 8.25134C98.5096 8.25134 99.4171 8.52999 100.102 9.0873C100.313 9.01952 100.479 8.85383 100.599 8.59024C100.645 8.49987 100.667 8.39066 100.667 8.26263H101.526V11.4144H100.532C100.404 10.7065 100.061 10.1567 99.5037 9.76511C98.9539 9.36595 98.3062 9.16638 97.5606 9.16638C96.815 9.16638 96.2389 9.31323 95.8322 9.60695C95.4331 9.89314 95.2335 10.2433 95.2335 10.6576C95.2335 11.0718 95.4632 11.4521 95.9226 11.7985C96.3895 12.1374 97.0447 12.4575 97.8882 12.7588C98.7393 13.0525 99.4058 13.3123 99.8878 13.5382C101.432 14.2838 102.204 15.3645 102.204 16.7804C102.204 18.1887 101.413 19.213 99.8313 19.8531C99.2137 20.1017 98.5849 20.2259 97.9447 20.2259C96.6117 20.2259 95.4782 19.8757 94.5444 19.1753ZM107.519 5.68696C107.218 5.98821 106.853 6.13884 106.424 6.13884C105.994 6.13884 105.625 5.99198 105.317 5.69826C105.008 5.39701 104.853 5.0807 104.853 4.74933C104.853 4.19202 105.004 3.76274 105.305 3.4615C105.607 3.16025 105.976 3.00962 106.412 3.00962C107.105 3.00962 107.583 3.32594 107.847 3.95856C107.93 4.14684 107.971 4.35018 107.971 4.56858C107.971 5.01292 107.821 5.38572 107.519 5.68696ZM103.091 19.1189H104.921V9.32453H103.249V8.44338H107.915V19.1189H109.745V20H103.091V19.1189ZM119.884 18.8251C118.996 19.759 117.667 20.2259 115.897 20.2259C115.309 20.2259 114.692 20.113 114.044 19.887C113.404 19.6536 112.839 19.2921 112.349 18.8025C111.867 18.313 111.483 17.6917 111.197 16.9386C110.919 16.1779 110.779 15.3005 110.779 14.3064C110.779 12.4387 111.325 10.9626 112.417 9.87807C113.509 8.79358 114.842 8.25134 116.416 8.25134C117.41 8.25134 118.329 8.45468 119.173 8.86136C119.444 8.98939 119.681 9.13249 119.884 9.29064V1.85735H117.546V0.976202H122.822V19.1189H124.494V20H119.884V18.8251ZM116.891 9.22286C114.925 9.22286 113.942 10.8797 113.942 14.1934C113.942 16.6561 114.473 18.2076 115.535 18.8477C115.904 19.0737 116.371 19.1866 116.936 19.1866C117.508 19.1791 118.054 19.0209 118.574 18.7122C119.101 18.4034 119.538 17.9892 119.884 17.4695V10.4881C119.305 9.88561 118.566 9.49398 117.67 9.31323C117.399 9.25299 117.139 9.22286 116.891 9.22286ZM136.282 18.0231C135.1 19.4916 133.417 20.2259 131.233 20.2259C130.51 20.2259 129.757 20.0753 128.973 19.7741C128.19 19.4653 127.524 19.0435 126.974 18.5088C125.837 17.3791 125.268 15.9407 125.268 14.1934C125.268 12.4387 125.84 11.0115 126.985 9.91196C128.13 8.81241 129.583 8.26263 131.346 8.26263C133.936 8.26263 135.567 9.34713 136.237 11.5161C136.456 12.209 136.565 12.9885 136.565 13.8545H128.386V14.1934C128.386 16.5206 129.045 18.0494 130.363 18.7799C130.807 19.0285 131.338 19.1527 131.956 19.1527C133.326 19.1527 134.569 18.5954 135.684 17.4808L136.282 18.0231ZM133.526 12.9282C133.511 11.7232 133.326 10.8044 132.972 10.1718C132.618 9.53164 132.039 9.21156 131.233 9.21156C129.598 9.21156 128.668 10.4504 128.442 12.9282H133.526ZM142.592 10.0023C143.805 8.835 145.115 8.25134 146.524 8.25134C146.975 8.25134 147.375 8.40196 147.721 8.70321C148.068 9.00446 148.241 9.39231 148.241 9.86678C148.241 10.3337 148.094 10.714 147.8 11.0078C147.506 11.3015 147.149 11.4483 146.727 11.4483C146.305 11.4483 145.947 11.3052 145.654 11.0191C145.368 10.7253 145.224 10.3638 145.224 9.93456C145.224 9.76134 145.255 9.58436 145.315 9.40361C144.223 9.73498 143.315 10.2961 142.592 11.0868V19.1301H145.066V20H137.949V19.1301H139.633V9.32453H137.938V8.44338H142.592V10.0023Z" fill="#AFB5BC"/>
</svg>
