<svg width="54" height="48" viewBox="0 0 54 48" fill="none" xmlns="http://www.w3.org/2000/svg">
<g clip-path="url(#clip0_2629_566)">
<path d="M21.0532 37.1108H10.772V20.9545H0.490738V10.6733H21.0532V37.1108ZM52.6314 10.6733L41.6157 37.1108H29.8657L40.8814 10.6733H52.6314ZM29.8657 22.4233C31.4239 22.4233 32.9182 21.8043 34.02 20.7025C35.1218 19.6008 35.7407 18.1064 35.7407 16.5483C35.7407 14.9901 35.1218 13.4958 34.02 12.394C32.9182 11.2922 31.4239 10.6733 29.8657 10.6733C28.3076 10.6733 26.8133 11.2922 25.7115 12.394C24.6097 13.4958 23.9907 14.9901 23.9907 16.5483C23.9907 18.1064 24.6097 19.6008 25.7115 20.7025C26.8133 21.8043 28.3076 22.4233 29.8657 22.4233Z" fill="#AFB5BC"/>
</g>
<defs>
<clipPath id="clip0_2629_566">
<rect width="52.875" height="47" fill="white" transform="translate(0.490738 0.392029)"/>
</clipPath>
</defs>
</svg>
