<?xml version="1.0" encoding="UTF-8"?>
<!DOCTYPE svg PUBLIC "-//W3C//DTD SVG 1.1//EN" "http://www.w3.org/Graphics/SVG/1.1/DTD/svg11.dtd">
<!-- Creator: CorelDRAW X5 -->
<svg xmlns="http://www.w3.org/2000/svg" xml:space="preserve" width="105.932mm" height="130mm" style="shape-rendering:geometricPrecision; text-rendering:geometricPrecision; image-rendering:optimizeQuality; fill-rule:evenodd; clip-rule:evenodd"
viewBox="0 0 10593 13000"
 xmlns:xlink="http://www.w3.org/1999/xlink">
 <defs>
  <style type="text/css">
   <![CDATA[
    .fil0 {fill:#737373}
   ]]>
  </style>
 </defs>
 <g id="Layer_x0020_1">
  <metadata id="CorelCorpID_0Corel-Layer"/>
  <path id="Apple_x0020_Logo_x0020_-_x0020_88FilesCom.svg" class="fil0" d="M5845 1130c855,-1123 2040,-1130 2040,-1130 0,0 177,1058 -671,2076 -907,1087 -1935,910 -1935,910 0,0 -193,-855 567,-1857l0 0zm-458 2600c439,0 1254,-603 2315,-603 1827,0 2544,1300 2544,1300 0,0 -1405,717 -1405,2462 0,1968 1752,2646 1752,2646 0,0 -1225,3445 -2878,3445 -760,0 -1349,-511 -2148,-511 -815,0 -1624,530 -2151,530 -1510,-3 -3415,-3271 -3415,-5897 0,-2587 1614,-3943 3127,-3943 986,0 1749,570 2259,570l0 0z"/>
 </g>
</svg>
