<svg width="18" height="10" viewBox="0 0 18 10" fill="none" xmlns="http://www.w3.org/2000/svg">
<path d="M8.46896 9.03104L0.968956 1.53104C0.899275 1.46136 0.844 1.37863 0.806288 1.28759C0.768576 1.19654 0.749165 1.09896 0.749165 1.00042C0.749165 0.90187 0.768576 0.804289 0.806288 0.713244C0.844 0.622199 0.899275 0.539474 0.968956 0.469791C1.03864 0.400108 1.12136 0.344833 1.21241 0.307121C1.30345 0.269409 1.40104 0.249999 1.49958 0.249999C1.59813 0.249999 1.69571 0.269409 1.78675 0.307121C1.8778 0.344833 1.96052 0.400108 2.03021 0.469791L8.99958 7.4401L15.969 0.469792C16.1097 0.329061 16.3006 0.25 16.4996 0.25C16.6986 0.25 16.8895 0.329061 17.0302 0.469792C17.1709 0.610522 17.25 0.801394 17.25 1.00042C17.25 1.19944 17.1709 1.39031 17.0302 1.53104L9.53021 9.03104C9.46055 9.10077 9.37784 9.15609 9.28679 9.19384C9.19574 9.23158 9.09814 9.25101 8.99958 9.25101C8.90102 9.25101 8.80343 9.23158 8.71238 9.19384C8.62133 9.15609 8.53861 9.10077 8.46896 9.03104Z" fill="#AFB5BC"/>
</svg>
