<svg width="940" height="942" viewBox="0 0 940 942" fill="none" xmlns="http://www.w3.org/2000/svg">
<g clip-path="url(#clip0_2596_3139)">
<path d="M701.714 859.524L701.885 859.52C721.581 858.857 738.76 854.211 752.948 845.715C790.264 823.374 806.573 773.919 798.873 706.461C790.927 636.869 759.139 553.757 706.931 466.082C656.527 506.24 600.268 544.982 539.714 581.24C465.122 625.903 388.464 663.994 318.022 691.394C246.126 719.361 184.139 734.769 138.664 735.99C198.064 835.203 286.656 903.911 388.206 929.49C480.352 952.703 576.847 938.099 659.893 888.374C659.91 888.361 659.914 888.357 659.927 888.349C674.21 879.799 688.223 870.136 701.585 859.632L701.714 859.524ZM753.485 846.611C739.185 855.174 721.898 859.865 702.093 860.557C688.739 871.045 674.731 880.699 660.464 889.245C660.456 889.249 660.439 889.257 660.431 889.261C577.135 939.136 480.372 953.778 387.951 930.499C285.868 904.786 196.856 835.624 137.314 735.761L136.855 734.995L137.747 734.969C183.181 733.936 245.389 718.528 317.643 690.419C388.031 663.044 464.635 624.982 539.181 580.344C599.881 544.003 656.26 505.157 706.752 464.894L707.214 464.523L707.518 465.036C813.352 642.536 832.252 799.449 753.485 846.611Z" fill="#BFD1D7"/>
<path d="M705.376 861.974C629.726 907.266 549.647 939.22 502.076 940.307L502.051 939.266C568.03 937.762 696.863 876.603 789.238 802.937L789.884 803.749C763.872 824.495 734.959 844.257 705.376 861.974Z" fill="#BFD1D7"/>
<path d="M647.281 761.812C517.977 839.237 381.106 893.857 299.814 895.716L299.785 894.674C412.689 892.099 633.106 787.474 791.136 661.453L791.786 662.266C747.306 697.736 697.865 731.524 647.281 761.812Z" fill="#BFD1D7"/>
<path d="M657.544 901.453C634.027 915.536 607.327 922.02 578.373 920.449C534.089 918.041 485.635 896.803 438.252 859.028C389.427 820.103 342.448 764.028 302.41 696.874L303.302 696.34C343.281 763.39 390.169 819.365 438.902 858.215C486.11 895.853 534.364 917.011 578.431 919.403C627.485 922.07 670.035 901.428 701.49 859.728L702.319 860.353C689.206 877.745 674.169 891.503 657.544 901.453Z" fill="#BFD1D7"/>
<path d="M703.298 880.474C703.19 880.537 703.082 880.595 702.965 880.645C689.186 886.578 610.294 773.774 506.652 599.945L507.548 599.407C626.277 798.549 691.865 884.295 702.552 879.687C702.623 879.653 702.694 879.62 702.765 879.578C704.423 878.582 705.411 874.328 701.402 860.182L702.407 859.899C705.84 872.028 706.136 878.774 703.298 880.474Z" fill="#BFD1D7"/>
<path d="M802.707 206.457C823.294 241.132 839.798 278.603 851.778 317.861C876.065 280.915 883.261 251.186 872.582 231.832C862.911 214.299 839.407 205.765 802.707 206.457ZM707.757 465.428C770.148 570.178 803.473 668.816 801.748 743.524C875.594 620.432 894.153 462.466 851.423 320.286C822.853 363.04 773.207 413.199 707.757 465.428ZM703.448 859.458C722.486 858.608 739.132 853.991 752.948 845.716L752.961 845.712C782.244 828.183 798.682 794.237 800.586 747.462C774.023 790.899 741.352 828.57 703.448 859.458ZM753.498 846.608L753.486 846.612C739.14 855.199 721.794 859.891 701.923 860.562L700.369 860.616L701.577 859.637C740.373 828.262 773.707 789.807 800.657 745.332C802.978 670.507 769.586 571.166 706.627 465.57L706.394 465.182L706.752 464.895C772.661 412.341 822.544 361.89 851.032 318.995C838.973 279.22 822.257 241.282 801.353 206.224L800.898 205.461L801.79 205.436C839.419 204.578 863.544 213.29 873.494 231.332C884.44 251.17 877.065 281.536 852.173 319.161C895.486 462.436 876.623 621.836 801.69 745.637C800.144 793.745 783.482 828.653 753.498 846.608Z" fill="#BFD1D7"/>
<path d="M789.884 803.749L789.238 802.936C849.755 754.682 882.259 710.69 874.076 688.136C870.297 677.703 857.613 672.44 837.409 672.899L837.384 671.857C858.08 671.386 871.109 676.89 875.055 687.778C883.397 710.77 850.759 755.207 789.884 803.749Z" fill="#BFD1D7"/>
<path d="M791.785 662.265L791.135 661.453C894.752 578.824 950.393 503.436 936.343 464.707C929.814 446.711 908.006 437.615 873.276 438.407L873.251 437.365C908.472 436.561 930.627 445.894 937.322 464.353C951.531 503.511 895.764 579.349 791.785 662.265Z" fill="#BFD1D7"/>
<path d="M756.569 834.22C739.565 844.399 721.373 853.207 702.09 860.528L701.719 859.553C792.127 825.232 858.744 758.028 889.294 670.311C906.952 619.616 912.061 564.824 904.482 507.457C896.632 448.07 875.544 389.265 841.806 332.678L842.702 332.145C876.515 388.853 897.644 447.79 905.511 507.32C913.115 564.849 907.99 619.803 890.277 670.653C866.14 739.953 819.561 796.499 756.569 834.22Z" fill="#BFD1D7"/>
<path d="M709.018 856.461C706.747 857.82 704.463 859.161 702.163 860.495L701.643 859.59C757.697 827.253 805.551 785.215 843.884 734.736C880.934 685.953 907.451 631.524 922.701 572.957C952.459 458.661 935.797 340.286 875.788 239.636L876.68 239.103C936.839 339.994 953.539 458.653 923.709 573.219C908.426 631.919 881.847 686.474 844.718 735.365C807.868 783.878 762.243 824.59 709.018 856.461Z" fill="#BFD1D7"/>
<path d="M233.167 476.269C294.855 579.619 377.492 676.328 465.905 748.607C554.251 820.841 637.984 860.22 701.718 859.524C789.947 788.107 848.914 680.965 867.751 557.819C886.597 434.644 863.072 309.882 801.509 206.486C756.101 207.582 694.013 222.982 621.909 251.032C551.522 278.407 474.917 316.469 400.376 361.103C339.817 397.361 283.567 436.107 233.167 476.269ZM702.093 860.557L701.909 860.561C637.909 861.336 553.859 821.866 465.247 749.415C376.63 676.97 293.813 580.011 232.042 476.411L231.805 476.019L232.159 475.736C282.688 435.448 339.101 396.578 399.842 360.207C474.43 315.548 551.092 277.457 621.534 250.057C693.905 221.907 756.239 206.478 801.789 205.436L802.093 205.432L802.247 205.694C864.051 309.344 887.68 434.461 868.78 557.982C849.893 681.449 790.743 788.865 702.23 860.445L702.093 860.557Z" fill="#BFD1D7"/>
<path d="M837.41 672.899C771.43 674.407 642.605 735.562 550.23 809.228L549.576 808.412C642.11 734.633 771.214 673.37 837.385 671.857L837.41 672.899Z" fill="#BFD1D7"/>
<path d="M873.277 438.407C760.377 440.986 539.956 545.611 381.931 671.628L381.281 670.815C539.469 544.674 760.161 439.949 873.252 437.365L873.277 438.407Z" fill="#BFD1D7"/>
<path d="M702.327 860.345L701.485 859.737C745.656 798.741 763.231 701.337 750.973 585.457C738.702 469.47 697.96 348.599 636.256 245.111L637.152 244.574C698.931 348.19 739.718 469.211 752.006 585.349C764.293 701.482 746.652 799.145 702.327 860.345Z" fill="#BFD1D7"/>
<path d="M702.401 859.895L701.406 860.186C680.006 787.724 559.16 555.282 432.014 342.04L432.909 341.507C560.093 554.811 680.989 787.361 702.401 859.895Z" fill="#BFD1D7"/>
<path d="M232.347 476.924C112.63 572.482 48.3842 659.645 64.6426 704.465C72.2176 725.34 97.4967 735.89 137.747 734.97L138.051 734.961L138.209 735.224C197.593 834.832 286.372 903.811 388.18 929.461C480.351 952.691 576.855 938.091 659.926 888.349C673.768 880.061 687.372 870.72 700.381 860.574C636.576 860.707 553.16 821.291 465.247 749.415C376.776 677.09 294.084 580.332 232.347 476.924ZM660.464 889.245C577.155 939.128 480.368 953.77 387.926 930.478C285.934 904.782 196.997 835.728 137.468 736.02C96.9009 736.89 71.3842 726.103 63.6634 704.82C47.2259 659.507 111.793 571.728 232.159 475.736L232.63 475.365L232.934 475.878C294.643 579.378 377.38 676.236 465.905 748.607C554.335 820.907 638.143 860.295 701.897 859.52L703.431 859.499L702.222 860.449C688.818 870.99 674.768 880.678 660.464 889.245Z" fill="#BFD1D7"/>
<path d="M502.077 940.308C481.381 940.778 468.356 935.274 464.41 924.387C456.069 901.395 488.702 856.957 549.577 808.412L550.231 809.228C489.71 857.482 457.206 901.474 465.385 924.028C469.169 934.462 481.848 939.728 502.052 939.266L502.077 940.308Z" fill="#BFD1D7"/>
<path d="M299.815 895.716C264.594 896.52 242.44 887.186 235.744 868.732C221.535 829.57 277.302 753.732 381.281 670.815L381.931 671.628C278.315 754.261 222.673 829.645 236.723 868.374C243.252 886.374 265.06 895.47 299.785 894.674L299.815 895.716Z" fill="#BFD1D7"/>
<path d="M702.081 860.528C601.922 896.899 483.897 890.849 369.755 843.491C255.576 796.12 158.659 712.949 96.8594 609.303L97.7552 608.774C159.439 712.228 256.18 795.245 370.16 842.528C484.06 889.787 601.81 895.828 701.727 859.553L702.081 860.528Z" fill="#BFD1D7"/>
<path d="M702.161 860.495C592.915 921.77 466.356 939.112 345.794 909.328C225.165 879.528 124.69 806.016 62.877 702.349L63.7686 701.812C125.44 805.241 225.69 878.583 346.048 908.316C466.348 938.037 592.64 920.733 701.648 859.587L702.161 860.495Z" fill="#BFD1D7"/>
<path d="M138.05 734.962C183.459 733.866 245.55 718.47 317.642 690.424C388.026 663.049 464.63 624.982 539.18 580.345C599.738 544.086 655.992 505.345 706.392 465.182C644.717 361.84 562.076 265.144 473.671 192.869C385.326 120.64 301.592 81.2609 237.863 81.9609C149.634 153.378 90.6628 260.515 71.8211 383.653C52.9753 506.828 76.4961 631.582 138.05 734.962ZM539.713 581.241C465.113 625.907 388.455 663.999 318.021 691.395C245.659 719.545 183.33 734.974 137.771 736.011L137.467 736.02L137.313 735.761C75.517 632.116 51.892 507.015 70.792 383.499C89.6878 260.032 148.838 152.615 237.35 81.0401L237.488 80.9234H237.671C301.667 80.1443 385.713 119.615 474.33 192.061C562.942 264.507 645.759 361.449 707.522 465.036L707.755 465.428L707.401 465.715C656.872 506.003 600.455 544.874 539.713 581.241Z" fill="#BFD1D7"/>
<path d="M413.785 370.203C284.476 447.628 147.61 502.249 66.3222 504.103L66.293 503.061C179.197 500.486 399.622 395.87 557.643 269.84L558.293 270.657C513.814 306.124 464.368 339.915 413.785 370.203Z" fill="#BFD1D7"/>
<path d="M305.489 191.286C229.839 236.582 149.764 268.536 102.193 269.623L102.168 268.582C168.147 267.073 296.981 205.923 389.347 132.252L389.997 133.069C363.985 153.811 335.072 173.573 305.489 191.286Z" fill="#BFD1D7"/>
<path d="M303.301 696.341L302.409 696.874C240.638 593.274 199.855 472.261 187.567 356.128C175.284 239.994 192.93 142.336 237.255 81.1401L238.097 81.7485C193.926 142.74 176.346 240.14 188.605 356.019C200.876 472.003 241.605 592.866 303.301 696.341Z" fill="#BFD1D7"/>
<path d="M507.547 599.407L506.651 599.945C379.476 386.644 258.588 154.111 237.176 81.59L238.176 81.2983C259.572 153.748 380.405 386.174 507.547 599.407Z" fill="#BFD1D7"/>
<path d="M239.196 80.9111C303.005 80.7736 386.417 120.19 474.33 192.061C562.793 264.386 645.484 361.128 707.213 464.524C826.93 368.97 891.176 281.807 874.918 236.986C867.343 216.107 842.064 205.561 801.814 206.478L801.509 206.486L801.351 206.224C741.976 106.632 653.209 37.6652 551.409 12.0152C459.234 -11.2098 362.722 3.39439 279.655 53.1319C265.813 61.4194 252.209 70.7611 239.196 80.9111ZM706.93 466.082L706.626 465.57C644.922 362.082 562.193 265.236 473.672 192.869C385.247 120.578 301.434 81.1903 237.684 81.9653L236.146 81.9819L237.355 81.032C250.763 70.4944 264.813 60.8027 279.117 52.236C362.43 2.35685 459.222 -12.289 551.663 11.0027C653.647 36.6986 742.572 105.736 802.093 205.432C842.655 204.561 868.176 215.345 875.897 236.632C892.334 281.94 827.768 369.72 707.401 465.716L706.93 466.082Z" fill="#BFD1D7"/>
<path d="M558.292 270.657L557.643 269.84C661.259 187.215 716.901 111.828 702.851 73.0986C696.322 55.0985 674.513 46.0027 639.788 46.7986L639.763 45.7569C674.98 44.9527 697.134 54.2861 703.83 72.7444C718.038 111.907 662.268 187.74 558.292 270.657Z" fill="#BFD1D7"/>
<path d="M389.998 133.069L389.348 132.253C449.864 83.9943 482.373 40.0067 474.194 17.4525C470.41 7.02336 457.731 1.75254 437.523 2.21504L437.498 1.17337C458.194 0.702537 471.223 6.20667 475.173 17.0983C483.506 40.09 450.877 84.5234 389.998 133.069Z" fill="#BFD1D7"/>
<path d="M842.702 332.145L841.807 332.678C780.132 229.236 683.394 146.228 569.419 98.9445C455.519 51.6944 337.769 45.6527 237.852 81.9319L237.502 80.9528C337.656 44.5861 455.673 50.632 569.819 97.9862C683.998 145.353 780.911 228.511 842.702 332.145Z" fill="#BFD1D7"/>
<path d="M876.681 239.103L875.789 239.636C814.127 136.219 713.889 62.8902 593.535 33.161C473.23 3.44435 346.939 20.7527 237.93 81.8944L237.422 80.9902C346.664 19.7151 473.218 2.36514 593.78 32.1485C714.41 61.9485 814.877 135.449 876.681 239.103Z" fill="#BFD1D7"/>
<path d="M399.842 360.207C474.438 315.545 551.101 277.453 621.538 250.053C693.426 222.09 755.417 206.682 800.897 205.461C741.522 106.29 652.951 37.6027 551.405 12.0235C459.226 -11.2015 362.717 3.39857 279.655 53.1319C265.384 61.6778 251.367 71.3361 237.996 81.8528L237.863 81.957L237.696 81.9653C217.996 82.6278 200.813 87.2694 186.629 95.7653C149.309 118.111 133 167.561 140.696 235.011C148.638 304.595 180.425 387.699 232.629 475.366C283.034 435.207 339.288 396.466 399.842 360.207ZM802.705 206.457L801.813 206.478C756.376 207.52 694.167 222.924 621.913 251.024C551.534 278.403 474.926 316.465 400.375 361.103C339.675 397.449 283.3 436.291 232.813 476.553L232.346 476.924L232.038 476.411C126.217 298.932 107.321 142.032 186.092 94.8736C200.392 86.3069 217.684 81.6194 237.488 80.9278C250.854 70.4277 264.859 60.7777 279.117 52.2361C362.421 2.35685 459.213 -12.2806 551.659 11.0152C653.738 36.7319 742.73 105.869 802.247 205.69L802.705 206.457Z" fill="#BFD1D7"/>
<path d="M639.79 46.7985C526.889 49.3777 306.473 153.994 148.443 280.019L147.789 279.203C305.973 153.065 526.669 48.3402 639.764 45.7568L639.79 46.7985Z" fill="#BFD1D7"/>
<path d="M437.523 2.21501C371.548 3.71918 242.718 64.8692 150.343 138.544L149.693 137.728C242.227 63.9442 371.327 2.68584 437.498 1.17334L437.523 2.21501Z" fill="#BFD1D7"/>
<path d="M637.152 244.574L636.256 245.111C596.285 178.069 549.401 122.103 500.672 83.2608C453.46 45.6233 405.214 24.4691 361.151 22.0733C312.089 19.415 269.543 40.0483 238.093 81.7567L237.264 81.1275C268.93 39.14 311.789 18.3483 361.21 21.0358C405.489 23.44 453.939 44.6733 501.318 82.4442C550.151 121.365 597.118 177.432 637.152 244.574Z" fill="#BFD1D7"/>
<path d="M432.909 341.507L432.013 342.04C313.296 142.923 247.717 57.1898 237.025 61.7981C235.255 62.5815 234.005 66.5732 238.175 81.3024L237.175 81.5857C233.738 69.4523 233.446 62.7107 236.284 61.0107C236.392 60.9482 236.5 60.8898 236.613 60.8398C250.392 54.9023 329.275 167.694 432.909 341.507Z" fill="#BFD1D7"/>
<path d="M186.631 95.765C157.348 113.298 140.902 147.24 138.998 194.015C165.56 150.578 198.227 112.915 236.135 82.0233C217.09 82.8774 200.444 87.4941 186.631 95.765ZM137.835 197.953C63.9895 321.044 45.4229 479.003 88.1396 621.161C116.71 578.407 166.352 528.253 231.806 476.019C169.423 371.286 136.11 272.665 137.835 197.953ZM87.7854 623.582C63.4979 660.528 56.3062 690.261 66.9812 709.62C76.652 727.149 100.156 735.686 136.856 734.99C116.269 700.32 99.7646 662.853 87.7854 623.582ZM138.665 735.99L137.773 736.011C100.144 736.874 76.0229 728.161 66.0728 710.12C55.127 690.282 62.502 659.911 87.3937 622.286C44.0895 479.028 62.9562 319.64 137.894 195.84C139.44 147.736 156.106 112.827 186.094 94.8733C200.435 86.2858 217.781 81.5941 237.66 80.9233L239.215 80.8691L238.006 81.8483C199.21 113.219 165.877 151.669 138.923 196.14C136.606 270.969 169.99 370.307 232.936 475.878L233.169 476.269L232.815 476.553C166.902 529.111 117.019 579.561 88.5312 622.453C100.594 662.236 117.31 700.174 138.21 735.224L138.665 735.99Z" fill="#BFD1D7"/>
<path d="M66.3224 504.103C31.1015 504.911 8.94736 495.578 2.25152 477.119C-11.9568 437.957 43.8098 362.119 147.789 279.203L148.443 280.019C44.8182 362.649 -10.8194 438.036 3.23063 476.765C9.7598 494.761 31.5682 503.857 66.2932 503.061L66.3224 504.103Z" fill="#BFD1D7"/>
<path d="M102.193 269.623C81.4976 270.094 68.4684 264.586 64.5226 253.703C56.1851 230.711 88.8184 186.273 149.693 137.728L150.343 138.544C89.8268 186.803 57.3142 230.79 65.5017 253.344C69.2851 263.773 81.9643 269.04 102.168 268.582L102.193 269.623Z" fill="#BFD1D7"/>
<path d="M97.7554 608.774L96.8596 609.303C63.0513 552.603 41.9262 493.674 34.0596 434.157C26.4596 376.632 31.5887 321.682 49.2971 270.836C79.9512 182.823 146.785 115.382 237.493 80.9565L237.864 81.9274C147.439 116.252 80.8346 183.465 50.2846 271.178C32.6221 321.869 27.5137 376.657 35.0929 434.019C42.9387 493.399 64.0179 552.194 97.7554 608.774Z" fill="#BFD1D7"/>
<path d="M63.7687 701.811L62.877 702.349C2.73112 601.474 -13.9647 482.832 15.8645 368.274C31.1478 309.573 57.727 255.019 94.8604 206.123C133.281 155.532 181.223 113.44 237.415 80.9941L237.94 81.8942C181.852 114.211 134.027 156.273 95.6895 206.753C58.6395 255.536 32.1228 309.969 16.8728 368.536C-12.8856 482.824 3.76864 601.182 63.7687 701.811Z" fill="#BFD1D7"/>
<path d="M468.089 940.233C469.818 940.228 471.556 940.22 473.268 940.212C476.735 940.195 480.089 940.182 483.11 940.212C496.093 939.716 512.493 938.628 523.897 937.503C532.335 936.666 544.106 934.987 553.877 933.216C565.502 931.116 581.589 927.541 593.906 924.324C602.86 921.987 618.381 917.195 626.468 914.27C636.564 910.62 647.977 906.491 662.027 900.166C669.618 896.749 681.085 891.583 699.81 881.241C703.702 879.091 707.706 876.787 711.71 874.387C728.914 864.087 745.893 852.291 762.177 839.324C783.635 822.232 799.418 806.145 806.16 799.278C813.36 791.941 822.206 781.803 829.931 772.874C832.71 769.666 836.01 765.441 838.918 761.712C839.723 760.678 840.502 759.682 841.231 758.761C847.731 750.499 855.594 738.995 859.706 732.874C863.769 726.824 868.718 718.661 872.698 712.103L873.918 710.087C880.185 699.753 888.252 684.391 893.989 671.849C902.548 653.124 911.806 627.966 917.127 612.116C921.414 599.345 925.585 582.207 928.052 570.42C930.406 559.195 933.664 542.866 934.798 530.711C936.648 510.957 938.556 481.999 938.377 459.99C938.26 445.59 936.427 427.02 935.644 419.703C934.531 409.303 932.356 394.861 930.227 383.765C923.552 348.936 915.398 325.894 909.443 309.069C905.235 297.182 897.702 278.386 890.306 264.528C888.989 262.053 887.573 259.365 886.106 256.574C881.589 247.986 876.473 238.261 871.989 230.799C865.281 219.64 856.073 205.619 849.073 195.924C842.26 186.482 832.193 172.849 823.456 163.519C821.01 160.911 818.339 157.99 815.581 154.965C809.598 148.411 803.41 141.636 797.973 136.319C785.064 123.694 775.118 114.715 767.568 108.873C743.206 90.0026 723.239 75.961 708.227 67.1401C677.589 49.1401 657.335 40.8818 639.468 33.5984C626.398 28.2651 608.452 22.6818 598.918 19.8317C589.86 17.1192 576.722 13.8276 565.452 11.4442C548.193 7.79423 526.493 4.92338 520.252 4.13171C513.689 3.29421 505.718 2.7859 498.006 2.2859C494.539 2.0609 491.189 1.84839 488.156 1.61089C476.86 0.740059 462.252 1.08172 456.497 1.26922C442.881 1.71089 425.081 3.1567 415.681 3.97753C415.472 3.9942 394.189 5.90258 365.218 12.3526C357.085 14.1609 332.356 19.6692 300.46 31.8442C292.839 34.7526 282.935 38.7151 267.276 46.0443C256.847 50.9234 248.547 55.4484 239.768 60.2401C238.531 60.9151 233.997 63.4568 227.96 67.0734C222.935 70.0818 218.247 73.0068 214.018 75.7734C199.91 84.986 191.172 91.5652 186.976 94.7277C171.18 106.624 155.647 120.098 140.805 134.782C132.922 142.578 123.093 153.04 116.343 160.807C107.86 170.569 97.3429 184.157 93.2179 189.549C91.1095 192.294 72.6804 217.911 62.1637 237.474C56.4346 248.136 48.3304 263.799 42.772 275.778C38.4929 284.99 33.672 297.174 30.5804 305.507C21.8512 329.065 14.9553 353.449 10.0928 377.986C0.196978 427.92 -1.59466 478.682 4.77201 528.87C6.22618 540.311 8.92618 556.166 11.4887 568.311C13.047 575.695 15.422 584.495 17.7178 593.003C18.7678 596.882 19.7762 600.628 20.647 604.028C23.4387 614.878 28.6595 629.928 33.9428 642.37C42.1678 661.728 55.322 689.832 67.572 710.653C78.5929 729.391 94.8388 752.557 108.005 768.307C116.972 779.024 126.255 789.482 132.843 796.282C141.58 805.303 153.401 816.57 162.268 824.324C170.851 831.832 182.293 841.062 190.739 847.291C198.831 853.253 209.414 860.237 218.751 866.395C220.714 867.691 222.614 868.941 224.405 870.128C234.385 876.749 248.264 884.032 255.647 887.787C264.597 892.337 276.168 897.499 286.381 902.058C288.826 903.149 291.185 904.199 293.397 905.195C305.181 910.495 322.151 916.508 335.622 920.158C354.381 925.241 381.685 932.32 402.193 935.112C408.589 935.978 416.214 936.849 424.185 937.633C378.722 930.999 334.172 915.545 293.089 892.028C292.956 891.949 292.81 891.866 292.672 891.791C289.956 890.224 287.256 888.637 284.564 886.999C226.305 851.645 175.547 799.62 137.789 736.557L137.314 735.762C75.5179 632.116 51.8929 507.016 70.7929 383.499C89.6888 260.032 148.839 152.615 237.351 81.0401L238.006 81.8485C149.693 153.261 90.6762 260.444 71.822 383.653C52.9637 506.936 76.5387 631.791 138.21 735.224L138.685 736.024C176.36 798.941 226.989 850.841 285.101 886.112C341.36 920.253 404.635 938.97 468.089 940.233ZM712.248 875.278C708.231 877.687 704.214 879.999 700.314 882.153C681.552 892.516 670.06 897.691 662.452 901.116C648.373 907.457 636.935 911.591 626.847 915.241C618.71 918.178 603.147 922.991 594.168 925.337C581.827 928.557 565.71 932.137 554.064 934.241C544.26 936.016 532.46 937.703 524.002 938.537C512.577 939.67 496.147 940.757 483.127 941.249H483.118V941.253C478.127 941.366 473.068 941.374 468.076 941.274C462.864 941.283 456.839 941.249 451.718 940.924C435.339 939.895 415.843 938.016 402.056 936.141C381.485 933.345 354.135 926.253 335.351 921.162C321.831 917.499 304.797 911.466 292.968 906.145C290.756 905.149 288.397 904.095 285.956 903.008C275.731 898.449 264.147 893.278 255.172 888.716C247.768 884.953 233.851 877.645 223.826 870.995C222.039 869.807 220.143 868.562 218.172 867.262C208.826 861.099 198.235 854.112 190.126 848.128C181.655 841.887 170.185 832.632 161.585 825.112C152.697 817.341 140.847 806.045 132.097 797.003C125.493 790.191 116.189 779.712 107.205 768.974C94.0096 753.191 77.722 729.962 66.6762 711.182C54.4012 690.316 41.222 662.166 32.9845 642.778C27.6803 630.295 22.4387 615.182 19.6429 604.282C18.772 600.891 17.7553 597.149 16.7137 593.274C14.4137 584.753 12.0345 575.941 10.472 568.524C7.90116 556.353 5.19284 540.47 3.73867 528.999C-2.64467 478.703 -0.844699 427.828 9.06781 377.786C13.947 353.195 20.8553 328.753 29.6053 305.145C32.7012 296.799 37.5345 284.582 41.8262 275.34C47.397 263.34 55.5096 247.661 61.2471 236.982C71.7929 217.361 90.2804 191.669 92.3887 188.911C96.5221 183.519 107.055 169.903 115.551 160.128C122.322 152.336 132.176 141.853 140.072 134.04C154.951 119.328 170.514 105.819 186.347 93.8943C190.556 90.7276 199.314 84.1318 213.447 74.8985C217.689 72.1318 222.389 69.1943 227.422 66.1818C233.48 62.5568 238.026 59.9985 239.268 59.3276C248.064 54.5276 256.372 49.9943 266.831 45.0984C282.522 37.7609 292.451 33.7859 300.093 30.8693C332.056 18.6693 356.839 13.1526 364.981 11.3359C394.026 4.87339 415.385 2.95673 415.593 2.94006C425.001 2.11923 442.822 0.673389 456.46 0.227556C462.235 0.0400554 476.889 -0.305746 488.239 0.573422C491.264 0.806755 494.61 1.0234 498.068 1.24424C505.802 1.74424 513.789 2.26087 520.385 3.09837C526.635 3.89004 548.368 6.76922 565.664 10.4276C576.964 12.8109 590.131 16.1109 599.218 18.8317C608.768 21.6942 626.752 27.2818 639.864 32.6276C657.76 39.9276 678.052 48.2026 708.756 66.2443C723.806 75.0859 743.806 89.1526 768.206 108.048C775.789 113.919 785.764 122.923 798.706 135.578C804.16 140.911 810.356 147.698 816.352 154.265C819.11 157.282 821.773 160.199 824.214 162.807C832.993 172.186 843.089 185.853 849.919 195.311C856.931 205.032 866.164 219.078 872.885 230.265C877.381 237.744 882.506 247.49 887.027 256.086C888.489 258.878 889.906 261.561 891.227 264.036C898.652 277.949 906.21 296.803 910.427 308.719C916.389 325.578 924.56 348.665 931.248 383.57C933.381 394.69 935.564 409.165 936.677 419.59C937.464 426.924 939.298 445.536 939.418 459.982C939.598 482.032 937.685 511.028 935.835 530.811C934.698 543.011 931.431 559.386 929.073 570.636C926.598 582.445 922.419 599.632 918.114 612.449C912.785 628.324 903.51 653.516 894.935 672.282C889.185 684.853 881.098 700.27 874.81 710.628L873.589 712.641C869.606 719.211 864.648 727.382 860.569 733.457C856.452 739.591 848.568 751.116 842.048 759.403C841.323 760.328 840.548 761.32 839.739 762.353C836.823 766.091 833.514 770.328 830.718 773.557C822.985 782.495 814.127 792.649 806.902 800.007C800.152 806.887 784.335 823.003 762.827 840.137C746.51 853.137 729.489 864.957 712.248 875.278Z" fill="#BFD1D7"/>
<path d="M233.01 84.7319H233.023C234.218 84.7027 236.343 83.8777 238.439 82.6235C239.277 82.1235 240.052 81.586 240.743 81.0319C242.643 79.5194 243.027 78.5693 242.956 78.3943C242.956 78.3943 242.852 78.2944 242.418 78.3027C241.223 78.3277 239.102 79.1568 237.006 80.4068C236.168 80.911 235.393 81.4444 234.697 81.9985C232.797 83.5152 232.414 84.4694 232.489 84.6402C232.489 84.6402 232.589 84.7402 233.01 84.7319ZM230.227 88.2944C232.71 87.761 236.123 86.2944 239.481 84.2819C241.156 83.2777 242.71 82.211 244.098 81.0985C247.627 78.286 248.918 76.1319 248.623 75.3194C248.452 74.8402 247.577 74.7902 247.072 74.7985C244.635 74.8527 240.339 76.5193 236.131 79.0402C234.46 80.0402 232.906 81.111 231.518 82.2193C227.985 85.036 226.693 87.1902 226.989 88.0027C227.139 88.4277 227.848 88.5152 228.356 88.5235C229.539 87.511 230.722 86.5069 231.914 85.511C231.693 85.3652 231.572 85.1693 231.51 84.9943C231.072 83.7902 232.914 82.0944 234.052 81.1819C234.781 80.6027 235.593 80.0402 236.473 79.5152C238.743 78.1569 241.01 77.2902 242.393 77.2611C243.427 77.2361 243.802 77.6694 243.935 78.0402C244.373 79.2402 242.531 80.9402 241.393 81.8527C240.664 82.4318 239.852 82.9944 238.972 83.5152C236.802 84.8194 234.631 85.6652 233.235 85.7652C232.227 86.6027 231.227 87.4485 230.227 88.2944ZM240.018 85.1735C235.702 87.761 231.418 89.4235 228.752 89.5527L228.748 89.5568L228.564 89.561H228.547L227.106 89.5944L227.297 89.4319C226.497 89.211 226.152 88.761 226.01 88.361C225.456 86.8402 227.227 84.3027 230.864 81.4069C232.293 80.2694 233.881 79.1693 235.597 78.1443C240.014 75.4985 244.402 73.8194 247.048 73.7569C248.785 73.7194 249.398 74.3944 249.602 74.961C250.156 76.4819 248.385 79.0152 244.748 81.9152C243.323 83.0527 241.731 84.1485 240.018 85.1735Z" fill="#BFD1D7"/>
<path d="M185.714 100.327C170.806 114.198 163.314 126.19 165.756 132.923C167.11 136.652 171.672 138.552 178.956 138.427C179.914 137.29 180.876 136.161 181.843 135.032C173.414 134.961 170.485 131.877 169.531 129.244C167.235 122.927 173.164 112.557 185.714 100.327ZM182.947 133.982L182.976 133.977C198.843 133.615 226.527 122.944 253.506 106.794C264.185 100.398 274.102 93.5649 282.985 86.4816C303.981 69.7357 315.285 54.5315 312.481 46.8023C311.214 43.3148 306.902 41.5523 300.014 41.7106C284.143 42.0731 256.46 52.744 229.481 68.8982C218.802 75.2899 208.885 82.1232 200.006 89.2065C179.006 105.952 167.701 121.161 170.506 128.886C171.768 132.373 176.072 134.132 182.947 133.982ZM180.36 138.382C197.589 137.515 226.656 126.173 254.997 109.202C266.477 102.332 277.135 94.9857 286.677 87.3774C309.252 69.3732 321.402 53.0232 318.381 44.6982C317.018 40.9315 312.372 39.0315 304.952 39.2024C298.372 39.3524 289.922 41.1482 280.347 44.2898C287.856 42.0523 294.539 40.794 299.989 40.669C309.314 40.4565 312.46 43.694 313.46 46.4482C316.468 54.7357 305.318 70.0065 283.635 87.2982C274.714 94.4066 264.76 101.269 254.039 107.686C226.635 124.098 199.539 134.548 183.231 135.015C182.268 136.132 181.31 137.252 180.36 138.382ZM255.531 110.094C226.081 127.732 196.968 138.965 179.452 139.461L178.064 139.494L178.077 139.473C168.96 139.423 165.806 136.115 164.776 133.277C161.556 124.394 173.531 107.998 196.814 89.4315C206.397 81.7899 217.093 74.419 228.61 67.5232C258.193 49.8107 287.435 38.5565 304.922 38.1607C314.918 37.9315 318.293 41.3982 319.364 44.344C322.589 53.2315 310.61 69.6274 287.327 88.194C277.743 95.8316 267.052 103.202 255.531 110.094Z" fill="#BFD1D7"/>
<path d="M139.385 195.386C170.398 194.282 223.639 173.657 275.514 142.599C296.256 130.178 315.523 116.903 332.773 103.144C373.689 70.5193 395.681 40.8068 390.164 25.6068C387.631 18.6193 379.102 15.0901 365.502 15.3985C362.614 15.4651 359.548 15.6984 356.302 16.0943C357.693 15.9901 359.044 15.9276 360.356 15.8984C373.952 15.5859 382.51 19.2234 385.118 26.4109C390.589 41.4901 369.268 70.5693 329.473 102.307C312.806 115.594 294.198 128.415 274.164 140.411C223.66 170.653 171.76 190.661 141.798 191.465C140.989 192.765 140.181 194.074 139.385 195.386ZM276.052 143.49C222.689 175.444 169.964 195.736 138.456 196.457L137.506 196.478L137.998 195.665C139.006 193.994 140.031 192.332 141.064 190.674L141.214 190.436L141.493 190.428C171.243 189.749 223.11 169.765 273.631 139.515C293.623 127.544 312.193 114.753 328.823 101.49C368.256 70.0443 389.452 41.411 384.139 26.7651C381.702 20.0401 373.485 16.6401 360.381 16.9401C347.981 17.2235 331.448 20.8443 312.556 27.4151H312.552L309.448 28.5151L309.093 27.5318C310.139 27.1568 311.177 26.7901 312.21 26.4318L313.218 26.0735L318.877 24.1443C337.402 17.9318 353.081 14.6443 365.477 14.3568C379.569 14.036 388.444 17.8026 391.144 25.2526C396.814 40.8901 374.698 71.0443 333.423 103.961C316.135 117.749 296.831 131.049 276.052 143.49Z" fill="#BFD1D7"/>
<path d="M123.235 155.582C114.502 168.132 111.114 178.582 113.91 185.582C116.585 192.273 124.96 195.669 138.148 195.419C138.943 194.107 139.748 192.794 140.56 191.486C127.823 191.603 119.66 188.132 116.935 181.419C114.36 175.094 116.618 166.219 123.235 155.582ZM138.743 196.448L138.456 196.457C124.635 196.773 115.81 193.144 112.943 185.969C107.743 172.961 121.935 149.886 151.885 122.665C155.277 119.507 158.918 116.265 162.714 113.04L163.398 113.823L156.873 119.607C155.406 120.89 153.977 122.165 152.585 123.432C125.793 148.361 113.152 169.353 117.902 181.028C120.518 187.473 128.677 190.723 141.493 190.428L142.46 190.407L141.948 191.228C140.918 192.878 139.898 194.54 138.893 196.203L138.743 196.448Z" fill="#BFD1D7"/>
<path d="M107.23 258.165C151.051 256.832 226.73 227.582 300.443 183.444C329.793 165.869 357.047 147.09 381.455 127.623C439.409 81.4149 470.543 39.294 462.71 17.6981C459.518 8.9023 449.709 3.94402 434.189 3.19401C446.739 4.76068 454.772 9.64397 457.651 17.5815C465.459 39.0982 434.926 80.6732 377.98 126.09C354.105 145.127 327.451 163.49 298.755 180.673C226.368 224.015 151.997 252.69 109.105 253.807C108.472 255.257 107.851 256.707 107.23 258.165ZM300.976 184.336C226.668 228.832 150.309 258.228 106.447 259.228L105.643 259.248L105.955 258.503C106.726 256.694 107.497 254.886 108.284 253.086L108.418 252.782L108.751 252.773C151.418 251.798 225.793 223.148 298.218 179.777C326.876 162.619 353.493 144.282 377.33 125.273C433.918 80.1482 464.318 39.019 456.672 17.9399C453.139 8.19819 441.289 3.27732 422.409 3.71065C419.222 3.78149 415.805 4.00647 412.255 4.38147L408.322 4.84813L408.193 3.81486C409.526 3.63986 410.839 3.48563 412.139 3.34813L415.389 2.96068C419.68 2.46485 423.784 2.16899 427.584 2.07733C447.418 1.62732 459.905 6.9065 463.689 17.344C471.68 39.369 440.418 81.9399 382.105 128.44C357.659 147.932 330.364 166.744 300.976 184.336Z" fill="#BFD1D7"/>
<path d="M75.4516 216.99C69.6599 229.015 68.5683 238.84 72.3391 245.882C76.8433 254.286 88.5058 258.54 106.089 258.194C106.706 256.736 107.327 255.282 107.96 253.832C90.4599 254.094 79.235 249.89 74.5933 241.319C71.2516 235.149 71.5724 226.903 75.4516 216.99ZM106.785 259.224L106.447 259.228C88.0016 259.653 76.2183 255.324 71.4182 246.374C65.9182 236.107 70.2641 220.303 83.9808 200.678L86.0683 197.703C86.6808 196.811 87.3183 195.911 87.9683 194.999L88.8182 195.603L86.9308 198.294C74.3349 216.653 70.3849 231.357 75.5099 240.824C79.9557 249.036 91.4475 253.169 108.752 252.774L109.568 252.753L109.239 253.503C108.452 255.303 107.681 257.103 106.914 258.915L106.785 259.224Z" fill="#BFD1D7"/>
<path d="M84.0639 325.44C139.539 323.882 235.614 286.786 329.185 230.761C366.356 208.498 400.889 184.715 431.806 160.057C504.31 102.24 543.873 49.1565 535.052 21.519C532.123 12.3398 524.077 6.36478 511.081 3.69394C521.239 6.88561 527.627 12.6189 530.131 20.8148C538.573 48.4731 499.514 100.982 428.193 157.861C397.756 182.136 363.768 205.552 327.177 227.457C234.872 282.732 140.031 319.29 85.3639 320.703C84.9181 322.278 84.4889 323.857 84.0639 325.44ZM329.718 231.652C235.614 287.998 138.927 325.228 83.3931 326.494L82.6973 326.511L82.8764 325.84C83.3931 323.903 83.9222 321.973 84.4639 320.052L84.5723 319.682L84.9514 319.669C139.393 318.423 234.26 281.877 326.643 226.565C363.193 204.682 397.143 181.29 427.543 157.044C498.527 100.444 537.448 48.3607 529.135 21.119C525.727 9.95648 514.689 3.53978 496.327 2.06062L492.602 1.83142L492.656 0.793945C493.939 0.843945 495.185 0.923082 496.398 1.02308L499.398 1.20225C519.839 2.33558 532.168 9.0648 536.043 21.1981C544.998 49.2607 505.306 102.777 432.46 160.869C401.498 185.557 366.931 209.369 329.718 231.652Z" fill="#BFD1D7"/>
<path d="M39.3379 284.911C36.0629 295.836 36.6379 304.74 41.0671 311.469C47.4629 321.182 61.563 325.89 82.9755 325.461C83.4005 323.882 83.838 322.303 84.2755 320.728C63.0629 321.103 49.0213 316.336 42.5379 306.557C38.7379 300.823 37.6712 293.578 39.3379 284.911ZM83.7796 326.486L83.3922 326.494C61.3755 326.998 46.8421 322.136 40.1963 312.044C34.2588 303.023 34.9505 290.348 42.263 274.373L44.2755 270.003C44.5213 269.453 44.7754 268.903 45.0421 268.344L45.9838 268.786L45.2255 270.432C38.4171 285.569 37.8046 297.532 43.4088 305.982C49.7546 315.553 63.7296 320.153 84.9505 319.669L85.6547 319.653L85.463 320.332C84.9255 322.253 84.3963 324.182 83.8796 326.111L83.7796 326.486Z" fill="#BFD1D7"/>
<path d="M70.1135 395.761C135.88 394.003 249.964 349.982 361.064 283.461C405.151 257.061 446.105 228.848 482.776 199.603C524.856 166.053 558.401 133.207 579.797 104.623C600.481 76.9942 609.514 53.8483 605.918 37.6941C603.735 27.8608 596.96 20.7816 585.751 16.5816C594.151 20.9774 599.331 27.4691 601.201 35.9733C608.656 69.8483 563.043 129.998 479.185 196.873C442.918 225.79 402.43 253.682 358.839 279.786C305.305 311.84 250.285 339.174 199.726 358.84C148.014 378.957 103.439 390.028 70.7719 390.861C70.5427 392.49 70.326 394.124 70.1135 395.761ZM361.597 284.357C307.397 316.807 251.697 344.486 200.526 364.39C147.939 384.844 102.639 396.057 69.5302 396.811L68.9219 396.824L69.001 396.228C69.2552 394.24 69.5219 392.257 69.801 390.278L69.8594 389.844L70.3052 389.832C135.18 388.349 248.222 344.803 358.305 278.89C401.855 252.815 442.306 224.944 478.535 196.057C520.068 162.936 553.189 130.515 574.322 102.298C594.756 75.0191 603.697 52.1608 600.185 36.1983C597.647 24.6691 588.743 16.9607 573.722 13.2816L572.593 13.0191L572.589 13.0149L572.822 12.0024C573.201 12.0858 573.581 12.1775 573.951 12.265L573.956 12.2691L579.068 13.4691C594.86 17.2566 604.235 25.3316 606.935 37.4691C614.564 71.7525 568.393 132.665 483.431 200.419C446.718 229.694 405.726 257.932 361.597 284.357Z" fill="#BFD1D7"/>
<path d="M15.1764 356.761C13.8264 366.569 15.6222 374.669 20.5347 380.919C28.6806 391.265 45.0056 396.265 69.0556 395.778C69.2681 394.149 69.489 392.515 69.7181 390.886C45.7431 391.34 29.4098 386.286 21.1598 375.857C17.0723 370.686 15.0723 364.29 15.1764 356.761ZM69.9765 396.803L69.5306 396.811C44.8848 397.378 28.1264 392.249 19.7181 381.561C13.4389 373.582 12.0639 362.736 15.6348 349.328L16.9972 344.282C17.0972 343.899 17.2056 343.515 17.3098 343.136V343.132L18.314 343.403L18.0056 344.544C14.6681 357.34 16.0014 367.653 21.9806 375.211C30.0848 385.461 46.3431 390.378 70.3057 389.832L70.914 389.815L70.8307 390.424C70.5557 392.399 70.289 394.378 70.0307 396.361L69.9765 396.803Z" fill="#BFD1D7"/>
<path d="M65.5555 467.836C102.906 466.874 153.91 454.203 213.11 431.178C271.056 408.636 334.122 377.303 395.498 340.553C445.468 310.632 491.881 278.653 533.448 245.507C626.527 171.282 678.902 103.728 673.548 64.7944C672.114 54.4152 666.519 46.4527 656.889 41.0735C663.839 46.3777 667.952 53.4819 669.148 62.2903C674.444 101.244 622.389 168.528 529.914 242.278C488.677 275.153 442.643 306.874 393.081 336.553C332.21 372.999 269.652 404.082 212.172 426.436C153.376 449.311 102.701 461.891 65.5639 462.841C65.5555 464.507 65.5514 466.17 65.5555 467.836ZM396.031 341.445C334.61 378.224 271.485 409.591 213.489 432.149C153.897 455.328 102.568 468.032 65.0472 468.891L64.518 468.903V468.37C64.5097 466.357 64.5139 464.341 64.5264 462.332L64.5305 461.824L65.0347 461.811C102.097 460.966 152.843 448.399 211.793 425.466C269.222 403.132 331.722 372.074 392.547 335.661C442.068 306.003 488.064 274.315 529.264 241.461C621.452 167.949 673.36 101.019 668.114 62.4277C666.506 50.5902 659.435 41.9236 647.106 36.6611L646.323 36.336L646.723 35.3735C646.985 35.486 647.252 35.5944 647.51 35.7069H647.514L652.594 37.8235C665.481 43.2694 672.877 52.2944 674.577 64.6569C679.981 103.949 627.464 171.865 534.098 246.324C492.493 279.499 446.043 311.503 396.031 341.445Z" fill="#BFD1D7"/>
<path d="M2.89721 431.053C3.02221 439.828 5.76802 447.153 11.093 452.882C20.818 463.341 38.7847 468.378 64.5139 467.861C64.5097 466.195 64.5139 464.528 64.5264 462.866C38.7639 463.378 20.7097 458.282 10.8597 447.724C6.58052 443.136 3.91804 437.553 2.89721 431.053ZM65.5597 468.878L65.0473 468.891C38.7389 469.491 20.3264 464.345 10.3305 453.591C3.75969 446.528 0.988841 437.141 2.08468 425.691L2.63882 420.199C2.66382 419.916 2.69304 419.636 2.72637 419.353L3.75971 419.461V419.466L3.67636 420.299C2.65552 431.278 5.33052 440.27 11.6222 447.016C21.3264 457.42 39.2972 462.403 65.0347 461.811L65.5722 461.799L65.5681 462.336C65.5514 464.345 65.5514 466.357 65.5556 468.37L65.5597 468.878Z" fill="#BFD1D7"/>
<path d="M70.597 540.332C111.497 539.303 167.372 525.432 232.226 500.207C295.647 475.536 364.676 441.236 431.856 401.015C486.551 368.265 537.352 333.261 582.852 296.978C681.447 218.357 738.898 145.702 736.535 102.619C735.939 91.7649 731.514 83.069 723.364 76.7149C728.989 82.7357 732.081 90.3149 732.564 99.3691C734.885 142.511 677.647 215.019 579.456 293.315C534.218 329.394 483.697 364.203 429.301 396.769C362.51 436.761 293.86 470.873 230.785 495.411C166.285 520.499 110.689 534.303 69.9428 535.349C70.1553 537.015 70.372 538.674 70.597 540.332ZM432.389 401.907C385.231 430.144 337.16 455.461 290.756 476.586C271.005 485.578 251.555 493.807 232.605 501.178C167.389 526.544 111.222 540.449 70.1637 541.386L69.6928 541.394L69.6345 540.936C69.3553 538.928 69.0887 536.919 68.8345 534.907L68.7637 534.336L69.3387 534.324C110.018 533.394 165.714 519.603 230.405 494.436C293.43 469.924 362.022 435.84 428.768 395.878C483.118 363.332 533.602 328.553 578.81 292.498C676.735 214.411 733.827 142.232 731.527 99.4233C730.873 87.2649 725.389 77.8357 715.231 71.3857L714.664 71.0274L715.21 70.144H715.214L715.789 70.5066H715.798L720.614 73.5149C731.181 80.1941 736.885 89.9649 737.577 102.565C739.956 145.982 682.356 218.965 583.502 297.798C537.964 334.107 487.126 369.136 432.389 401.907Z" fill="#BFD1D7"/>
<path d="M2.67112 506.628C6.55029 529.515 29.5503 541.153 69.5503 540.357C69.3253 538.699 69.1045 537.036 68.892 535.374C31.8586 536.132 9.22946 526.24 2.67112 506.628ZM70.742 541.374L70.1628 541.386C26.8086 542.374 2.9461 528.961 1.15026 502.59L0.791934 496.928L0.746094 496.224L1.78357 496.161L1.8336 496.861C3.63777 522.336 26.9836 535.29 69.3378 534.324L69.8086 534.311L69.867 534.778C70.1212 536.786 70.3837 538.79 70.667 540.795L70.742 541.374Z" fill="#BFD1D7"/>
<path d="M85.4629 611.957C128.946 610.882 188.38 596.132 257.367 569.299C324.78 543.078 398.159 506.62 469.563 463.865C527.701 429.057 581.701 391.849 630.059 353.286C731.101 272.711 792.188 197.053 793.48 150.89C793.793 139.619 790.551 130.294 783.83 123.123C788.218 129.707 790.301 137.673 790.043 146.915C789.405 169.361 774.655 199.307 747.397 233.507C719.276 268.782 677.609 308.807 626.888 349.249C578.684 387.686 524.863 424.769 466.922 459.465C395.759 502.07 322.63 538.411 255.43 564.549C186.738 591.265 127.525 605.974 84.1254 607.099C84.5671 608.724 85.0129 610.34 85.4629 611.957ZM470.097 464.757C398.642 507.545 325.213 544.028 257.746 570.27C188.43 597.236 128.721 612.011 85.0879 613.011L84.6838 613.02L84.5712 612.628C84.0212 610.665 83.4796 608.699 82.9504 606.732L82.7754 606.09L83.4379 606.074C126.775 605.086 186.121 590.39 255.051 563.578C322.196 537.457 395.276 501.149 466.384 458.569C524.288 423.899 578.072 386.844 626.238 348.436C726.847 268.207 787.697 192.861 788.997 146.886C789.351 134.419 785.343 124.344 777.068 116.94H777.063L776.643 116.565L777.326 115.782L777.759 116.161L777.768 116.165L782.159 120.044C790.722 127.69 794.88 138.078 794.522 150.919C793.888 173.453 779.093 203.523 751.718 237.865C723.484 273.29 681.643 313.482 630.709 354.099C582.313 392.69 528.276 429.924 470.097 464.757Z" fill="#BFD1D7"/>
<path d="M14.7461 581.857C21.5961 602.349 45.5586 612.745 84.392 611.982C83.9378 610.366 83.492 608.749 83.0545 607.128C47.2836 607.874 23.9419 599.178 14.7461 581.857ZM85.7544 612.995L85.0878 613.011C43.342 613.961 18.3544 602.174 12.8294 578.92L11.3711 572.636L12.3919 572.407L12.5211 572.995C17.9378 595.574 42.4627 607.011 83.4378 606.074L83.8503 606.07L83.9545 606.461C84.4836 608.428 85.0211 610.386 85.5753 612.349L85.7544 612.995Z" fill="#BFD1D7"/>
<path d="M110.339 681.266C155.348 680.166 216.881 664.903 288.323 637.116C358.089 609.978 434.027 572.245 507.927 527.995C568.102 491.965 623.99 453.461 674.04 413.549C775.844 332.365 837.361 257.874 842.819 209.169C844.115 197.578 842.102 187.744 836.831 179.894C845.844 199.753 837.94 229.065 813.581 265.461C785.248 307.807 736.002 357.515 671.173 409.211C621.181 449.078 565.356 487.54 505.26 523.528C431.452 567.72 355.602 605.403 285.906 632.511C214.702 660.211 153.327 675.457 108.318 676.645C108.985 678.186 109.656 679.728 110.339 681.266ZM508.465 528.891C434.514 573.166 358.519 610.928 288.698 638.086C216.964 665.991 155.177 681.282 110.014 682.316L109.664 682.324L109.527 682.007C108.693 680.124 107.868 678.236 107.06 676.349L106.756 675.636L107.523 675.62C152.481 674.595 214.031 659.353 285.527 631.541C355.173 604.453 430.969 566.795 504.723 522.632C564.785 486.67 620.565 448.236 670.523 408.395C735.269 356.77 784.44 307.14 812.719 264.882C840.181 223.84 846.602 192.003 831.277 172.815L830.948 172.407L831.752 171.749H831.756L835.894 176.857C842.64 185.294 845.319 196.203 843.852 209.29C838.365 258.261 776.706 333.007 674.69 414.361C624.598 454.303 568.677 492.836 508.465 528.891Z" fill="#BFD1D7"/>
<path d="M39.4294 655.374C48.6544 673.049 72.6795 681.99 109.209 681.286C108.529 679.753 107.859 678.215 107.196 676.67C73.7586 677.378 50.5961 670.053 39.4294 655.374ZM110.792 682.299L110.013 682.315C70.8586 683.207 45.7086 673.153 37.2711 653.236L34.7461 647.161L35.7086 646.77L35.9086 647.245C44.1586 666.69 68.9253 676.503 107.521 675.62L107.875 675.615L108.017 675.936C108.825 677.824 109.646 679.707 110.475 681.582L110.792 682.299Z" fill="#BFD1D7"/>
<path d="M145.38 746.886C190.772 745.786 252.83 730.395 324.897 702.365C395.243 675.003 471.814 636.957 546.326 592.34C607.001 556.011 663.351 517.19 713.818 476.944C776.506 426.953 824.977 378.578 853.993 337.044C881.002 298.373 890.227 267.165 880.827 246.482C886.506 267.336 876.622 296.707 851.806 332.236C822.727 373.878 774.164 422.349 711.368 472.428C660.847 512.711 604.443 551.574 543.714 587.94C469.13 632.595 392.484 670.678 322.055 698.074C250.172 726.036 188.197 741.445 142.734 742.666C143.605 744.082 144.493 745.486 145.38 746.886ZM546.864 593.236C472.301 637.878 395.676 675.953 325.276 703.336C252.943 731.474 190.647 746.895 145.109 747.932L144.813 747.941L144.655 747.691C143.555 745.953 142.455 744.203 141.368 742.445L140.893 741.67L141.797 741.649C187.226 740.607 249.426 725.207 321.672 697.107C392.051 669.728 468.647 631.67 543.176 587.045C603.868 550.707 660.239 511.869 710.718 471.615C773.439 421.599 821.931 373.194 850.952 331.64C879.102 291.344 887.927 259.136 876.489 238.511L876.252 238.09L877.156 237.578L880.46 243.432C892.085 264.432 883.227 297.007 854.843 337.64C825.772 379.257 777.231 427.707 714.468 477.761C663.964 518.032 607.576 556.882 546.864 593.236Z" fill="#BFD1D7"/>
<path d="M77.2054 725.932C88.2471 740.482 110.747 747.537 144.164 746.912C143.28 745.516 142.397 744.107 141.526 742.695C111.135 743.349 89.5637 737.716 77.2054 725.932ZM146.03 747.912L145.11 747.932C109.014 748.757 85.3137 740.741 74.6595 724.107L71.0762 718.42L71.9595 717.866L72.2178 718.278C82.6595 734.603 106.072 742.462 141.797 741.649L142.101 741.641L142.255 741.895C143.339 743.653 144.435 745.399 145.535 747.132L146.03 747.912Z" fill="#BFD1D7"/>
<path d="M188.565 804.64C233.14 803.574 294.111 788.457 364.902 760.924C433.981 734.049 509.177 696.686 582.357 652.874C641.932 617.199 697.269 579.074 746.828 539.553C861.278 448.286 924.311 364.657 913.04 319.615C917.953 366.348 855.215 447.344 745.007 535.228C695.286 574.874 639.773 613.119 580.002 648.907C506.602 692.857 431.165 730.34 361.848 757.303C291.211 784.782 230.294 799.94 185.56 801.19C186.56 802.349 187.556 803.499 188.565 804.64ZM582.89 653.765C509.665 697.611 434.419 734.999 365.281 761.895C294.248 789.524 233.065 804.665 188.348 805.69L188.106 805.695L187.944 805.511C186.644 804.032 185.348 802.536 184.056 801.036L183.344 800.199L184.44 800.174C229.152 799.153 290.365 783.995 361.469 756.336C430.736 729.395 506.115 691.936 579.469 648.015C639.198 612.253 694.673 574.032 744.357 534.411C862.048 440.561 925.507 354.769 909.973 310.511L909.79 309.998L910.769 309.648L913.003 315.869C928.653 360.448 865.228 446.469 747.478 540.369C697.882 579.919 642.507 618.07 582.89 653.765Z" fill="#BFD1D7"/>
<path d="M126.202 788.999C138.152 799.907 158.644 805.174 187.202 804.67C186.206 803.528 185.21 802.374 184.219 801.224C158.335 801.782 138.881 797.678 126.202 788.999ZM189.46 805.662L188.348 805.691C156.744 806.411 134.723 800.178 122.898 787.166L118.831 782.624L118.502 782.257L119.277 781.562L119.602 781.924C131.244 794.753 153.056 800.891 184.439 800.174L184.689 800.17L184.848 800.357C186.135 801.857 187.427 803.345 188.727 804.824L189.46 805.662Z" fill="#BFD1D7"/>
<path d="M237.83 852.495C280.484 851.478 338.826 837.016 406.576 810.666C472.672 784.957 544.614 749.207 614.622 707.287C671.626 673.157 724.572 636.682 771.985 598.87C825.585 556.124 868.551 514.207 896.243 477.64C920.939 445.032 933.256 417.09 932.16 396.361C929.681 442.34 870.806 515.166 770.839 594.891C723.168 632.903 669.935 669.578 612.626 703.895C542.243 746.036 469.905 781.974 403.439 807.832C335.872 834.116 277.58 848.645 234.722 849.903C235.755 850.77 236.788 851.637 237.83 852.495ZM615.155 708.182C545.097 750.128 473.101 785.903 406.951 811.637C338.988 838.07 280.447 852.562 237.663 853.541H237.468L237.318 853.42C235.872 852.228 234.434 851.028 233.001 849.816L231.955 848.924L233.322 848.895C276.193 847.916 334.884 833.382 403.059 806.862C469.476 781.028 541.755 745.111 612.089 702.999C669.36 668.707 722.551 632.057 770.189 594.074C824.06 551.115 867.235 508.982 895.06 472.236C921.968 436.695 934.235 406.682 930.543 385.44L930.443 384.907L931.468 384.715L932.618 391.074C940.331 435.665 880.522 513.645 772.635 599.682C725.185 637.524 672.201 674.028 615.155 708.182Z" fill="#BFD1D7"/>
<path d="M184.339 842.116C196.102 849.395 213.523 852.891 236.235 852.524C235.206 851.67 234.177 850.808 233.152 849.941C212.635 850.391 196.281 847.762 184.339 842.116ZM239.06 853.503L237.664 853.541C211.26 854.141 191.76 849.637 179.706 840.149L175.056 836.433L175.052 836.428L174.689 836.141L175.344 835.333L175.698 835.612C187.606 845.028 206.998 849.495 233.323 848.895L233.523 848.891L233.673 849.02C235.106 850.228 236.544 851.428 237.981 852.616L239.06 853.503Z" fill="#BFD1D7"/>
<path d="M292.051 890.232C331.755 889.299 386.081 875.832 449.164 851.295C510.693 827.361 577.664 794.086 642.839 755.061C695.906 723.286 745.198 689.328 789.339 654.128C878.139 583.315 932.868 517.019 938.093 474.532C928.981 517.703 874.685 582.057 788.839 650.515C744.352 685.995 694.677 720.219 641.193 752.244C575.51 791.574 508.01 825.107 445.981 849.236C383.201 873.657 329.006 887.203 289.055 888.478C290.051 889.07 291.051 889.653 292.051 890.232ZM643.372 755.957C578.147 795.011 511.122 828.311 449.539 852.27C386.268 876.878 331.768 890.37 291.93 891.278L291.785 891.282L291.66 891.207C290.093 890.299 288.53 889.382 286.972 888.453L285.418 887.528L287.226 887.486C327.222 886.57 381.989 873.011 445.606 848.265C507.577 824.161 575.022 790.649 640.656 751.349C694.102 719.349 743.735 685.153 788.193 649.703C882.631 574.394 938.785 504.186 938.414 461.898L938.406 461.29L939.448 461.273L939.548 467.728C939.835 510.048 883.927 580.036 789.985 654.944C745.81 690.169 696.481 724.157 643.372 755.957Z" fill="#BFD1D7"/>
<path d="M250.464 884.595C260.664 888.574 273.935 890.482 290.047 890.274C289.064 889.695 288.081 889.116 287.102 888.532C272.672 888.849 260.41 887.528 250.464 884.595ZM293.785 891.241L291.931 891.278C271.272 891.749 255.072 888.845 243.789 882.645L238.227 879.528L238.739 878.624H238.743L239.135 878.845C250.347 885.053 266.527 887.957 287.227 887.487L287.377 887.482L287.506 887.562C289.06 888.487 290.618 889.403 292.181 890.307L293.785 891.241Z" fill="#BFD1D7"/>
<path d="M350.067 917.616C385.901 916.774 434.934 904.624 491.884 882.478C547.413 860.874 607.859 830.841 666.68 795.624C714.572 766.945 759.055 736.299 798.893 704.528C871.314 646.778 918.38 592.924 930.451 554.49C915.784 593.103 869.151 645.449 799.047 701.349C758.776 733.465 713.813 764.445 665.401 793.428C605.951 829.024 544.859 859.382 488.713 881.216C432.401 903.124 383.709 915.366 347.638 916.703C348.446 917.011 349.255 917.311 350.067 917.616ZM667.213 796.515C608.343 831.765 547.847 861.824 492.263 883.445C435.151 905.657 385.955 917.836 349.992 918.657L349.796 918.624C348.142 918.011 346.488 917.382 344.838 916.745L342.396 915.799L345.017 915.736C381.209 914.911 430.772 902.636 488.342 880.249C544.426 858.432 605.467 828.099 664.868 792.536C713.238 763.574 758.163 732.62 798.397 700.532C878.301 636.815 927.626 577.815 933.718 538.665L933.83 537.928L934.859 538.074L934.747 538.824V538.832L933.897 544.54C927.726 583.565 878.755 642.174 799.543 705.345C759.672 737.14 715.147 767.815 667.213 796.515Z" fill="#BFD1D7"/>
<path d="M324.16 915.791C330.906 917.091 338.619 917.716 347.219 917.658C346.456 917.37 345.698 917.078 344.94 916.783C337.356 916.949 330.419 916.616 324.16 915.791ZM352.719 918.595L349.994 918.657C335.519 918.987 323.398 917.474 313.973 914.153L307.969 911.983L308.323 911.003L308.748 911.158C318.19 914.533 330.398 916.074 345.019 915.737L345.219 915.774C346.86 916.412 348.51 917.037 350.165 917.649L352.719 918.595Z" fill="#BFD1D7"/>
<path d="M410.161 934.282C410.377 934.324 410.598 934.361 410.819 934.403C472.681 932.978 580.673 891.382 685.827 828.42C727.432 803.511 766.069 776.886 800.673 749.29C853.69 707.015 890.903 667.444 907.694 635.815C889.565 667.211 852.819 705.669 801.473 746.619C766.361 774.615 727.161 801.624 684.952 826.899C580.761 889.282 473.769 931.003 410.161 934.282ZM686.361 829.311C581.061 892.361 472.873 934.02 410.74 935.436C408.915 935.111 407.206 934.782 405.494 934.441L400.873 933.516L405.586 933.411C468.394 931.974 577.844 889.815 684.419 826.003C726.586 800.753 765.748 773.774 800.823 745.803C864.028 695.403 905.044 648.832 916.323 614.665L916.615 613.74L917.611 614.061L917.311 614.99L915.532 620.499C904.203 654.382 863.648 700.407 801.323 750.107C766.686 777.728 728.003 804.378 686.361 829.311Z" fill="#BFD1D7"/>
<path d="M415.798 935.32L410.739 935.437C402.81 935.616 395.648 935.162 389.435 934.078L383.068 932.903L383.256 931.878L383.689 931.958C390.039 933.108 397.406 933.599 405.585 933.412C407.402 933.762 409.11 934.091 410.818 934.403L415.798 935.32Z" fill="#BFD1D7"/>
<path d="M501.498 937.011C553.706 927.178 627.615 896.128 699.902 852.845C734.232 832.29 766.123 810.32 794.682 787.545C823.957 764.199 847.848 741.32 864.507 720.861C847.669 740.853 824.352 762.928 796.123 785.44C766.998 808.665 734.482 831.074 699.465 852.036C627.798 894.949 554.527 926.078 501.498 937.011ZM700.436 853.74C613.519 905.782 524.211 940.166 472.919 941.341C471.161 941.324 469.423 941.303 467.686 941.266V940.224C519.769 939.036 610.54 904.07 698.932 851.141C733.902 830.203 766.386 807.824 795.477 784.624C839.298 749.678 871.24 715.799 885.411 689.232V689.228L886.119 687.886L887.04 688.37C886.807 688.815 886.573 689.265 886.332 689.72L883.615 694.903C869.298 721.403 838.773 753.715 795.332 788.361C766.736 811.161 734.811 833.157 700.436 853.74Z" fill="#BFD1D7"/>
<path d="M472.914 941.341C471.943 941.362 470.985 941.37 470.043 941.37L463.693 941.295H463.68L463.326 941.287L463.343 940.245L463.693 940.249C464.984 940.262 466.322 940.257 467.685 940.224C469.439 940.262 471.172 940.282 472.905 940.295L472.914 941.341Z" fill="#BFD1D7"/>
<path d="M676.918 886.253C687.464 880.649 698.064 874.666 708.601 868.353C718.76 862.274 728.639 856.028 738.193 849.653C728.635 856.008 718.768 862.241 708.626 868.312C698.076 874.628 687.468 880.624 676.918 886.253ZM709.139 869.249C654.21 902.137 597.426 926.22 557.247 933.67L551.326 934.708L549.055 935.095L548.889 934.07L551.151 933.683C592.405 926.324 651.076 901.554 708.093 867.416C735.001 851.303 759.997 834.083 782.376 816.237C805.547 797.762 823.972 780.174 837.143 763.957L839.443 761.074L840.26 761.72C839.514 762.674 838.743 763.641 837.951 764.616L833.989 769.587C821.176 785.087 803.547 801.82 781.589 819.333C759.755 836.741 735.38 853.537 709.139 869.249Z" fill="#BFD1D7"/>
<path d="M712.14 875.265C700.402 882.295 688.44 888.778 676.594 894.536L670.257 897.532C667.04 899.049 663.802 900.524 660.64 901.92H660.636L660.215 900.97C662.965 899.749 666.386 898.174 669.457 896.753L669.823 896.586C683.702 890.04 697.752 882.528 711.582 874.245C724.427 866.553 736.773 858.382 748.269 849.957C751.153 847.811 754.207 845.495 756.827 843.503L757.811 842.761L758.444 843.586C755.352 845.99 752.136 848.42 748.89 850.795C747.386 851.92 745.927 852.999 744.598 853.957C734.352 861.336 723.436 868.503 712.14 875.265Z" fill="#BFD1D7"/>
</g>
<defs>
<clipPath id="clip0_2596_3139">
<rect width="940" height="942" fill="white"/>
</clipPath>
</defs>
</svg>
