<svg width="177" height="64" viewBox="0 0 177 64" fill="none" xmlns="http://www.w3.org/2000/svg">
<rect width="177" height="64" fill="white"/>
<path d="M136.231 40.7088V39.9131H129.806V40.7088H132.541V48.8307H133.484V40.7088H136.231ZM135.508 34.128L128.517 22.9239L135.406 15.4115H132.313L123.394 25.4154V15.4075H120.9V34.124H123.394V28.3767L126.825 24.6598L132.595 34.1217L135.508 34.128ZM112.139 48.8267H117.697V48.0342H113.079V44.7147H116.831V43.912H113.079V40.7088H117.512V39.9131H112.139V48.8267ZM116.768 34.124L112.531 26.3776C114.532 25.7539 116.351 23.934 116.351 21.1267C116.351 17.5393 113.883 15.4075 109.775 15.4075H103.718V34.124H106.214V26.7931H110.113L113.986 34.124H116.768ZM109.905 24.7399H106.213V17.5134H109.696C112.295 17.5134 113.859 18.8652 113.859 21.1267C113.859 23.3881 112.377 24.7399 109.908 24.7399H109.905ZM104.426 46.9204C104.005 45.8804 103.596 44.9889 103.114 43.8625L101.43 39.9131H100.414L104.413 48.9752H104.438L108.45 39.9131H107.423L105.738 43.8625C105.255 44.9889 104.847 45.8804 104.426 46.9204ZM97.9747 34.124H100.626L91.9956 15.0957H91.9437L83.3137 34.124H85.9646L87.7846 29.965H96.1288L97.9747 34.124ZM95.2192 27.9109H88.6942C89.9683 25.0517 90.9297 22.8162 91.9697 20.1652C92.9837 22.8162 93.9451 25.0517 95.2192 27.9109ZM84.1439 39.9131H83.2013V48.8267H84.1439V39.9131ZM75.7934 31.9113C75.7934 22.6002 68.2182 15.0234 58.9055 15.0234C49.5928 15.0234 42.0176 22.5987 42.0176 31.9113C42.0176 41.224 49.5928 48.7993 58.9055 48.7993C68.2182 48.7993 75.7934 41.224 75.7934 31.9113ZM57.4696 16.0493L44.755 39.2116C43.5845 36.9563 42.9742 34.4523 42.9759 31.9113C42.9759 23.6119 49.3571 16.779 57.4696 16.0509V16.0493ZM58.4248 31.6294L46.1021 38.745L58.4248 16.2999V31.6294ZM58.4248 47.826C55.7928 47.746 53.2217 47.0148 50.9416 45.6978C48.6615 44.3808 46.7434 42.519 45.359 40.2791L58.4248 32.7384V47.826ZM62.6876 23.6394C62.6836 25.0255 62.3872 26.3953 61.8178 27.659C61.2484 28.9228 60.4187 30.0522 59.3831 30.9735V16.3038C60.4261 17.2194 61.2607 18.3479 61.8307 19.6133C62.4007 20.8787 62.6929 22.2516 62.6876 23.6394ZM72.4457 23.5349L61.7631 29.701C62.9828 27.9144 63.6376 25.8026 63.6428 23.6394C63.648 22.2333 63.3753 20.8401 62.84 19.5398C62.3046 18.2396 61.5174 17.0581 60.5236 16.0634C62.9493 16.3148 65.285 17.119 67.3512 18.4142C69.4175 19.7095 71.1592 21.4613 72.4425 23.5349H72.4457ZM72.9272 39.4575L59.8583 31.9113L72.9272 24.3628C74.1779 26.6818 74.8327 29.2753 74.8327 31.9102C74.8327 34.545 74.1779 37.1385 72.9272 39.4575ZM72.4449 40.2854C71.0601 42.5235 69.1423 44.3837 66.863 45.6995C64.5836 47.0154 62.0137 47.746 59.3831 47.826V32.74L72.4449 40.2854ZM89.8536 39.7662H89.841V48.8267H90.7836V42.9082C90.7836 42.6238 90.7718 42.363 90.7718 42.1156C90.8457 42.2145 90.9446 42.3261 91.031 42.425L96.714 48.9744H96.7265V39.9131H95.784V45.8309C95.784 46.1278 95.7965 46.3753 95.7965 46.6235L95.5366 46.3132L89.8536 39.7662ZM125.769 46.6989C125.769 47.6029 124.877 48.123 123.714 48.123C122.735 48.123 121.82 47.7883 121.238 47.504V48.4466C122.034 48.7945 122.893 48.9755 123.763 48.9783C125.509 48.9783 126.698 48.1143 126.698 46.6384C126.698 45.3384 125.954 44.6205 124.172 43.989C122.575 43.4069 122.142 42.85 122.142 42.0457C122.142 41.1816 122.971 40.6216 124.11 40.6216C124.849 40.6395 125.576 40.8169 126.24 41.1416V40.2225C125.555 39.9265 124.819 39.7713 124.073 39.7662C122.476 39.7662 121.213 40.6074 121.213 42.081C121.213 43.3684 121.943 44.1233 123.714 44.7516C125.285 45.3093 125.77 45.7924 125.77 46.6957L125.769 46.6989Z" fill="#AFB5BC"/>
</svg>
