<svg width="178" height="64" viewBox="0 0 178 64" fill="none" xmlns="http://www.w3.org/2000/svg">
<rect x="0.411133" width="177" height="64" fill="white"/>
<path d="M20.8626 44.7841H17.3799V34.2041H20.8626C24.5472 34.2041 26.522 36.0041 26.522 39.4869C26.522 42.9399 24.8816 44.7841 20.8626 44.7841ZM20.6102 35.8136H19.4683V43.174H20.585C23.462 43.2327 24.3895 41.8282 24.3895 39.5014C24.3895 36.9404 23.0582 35.8136 20.6102 35.8136Z" fill="#AFB5BC"/>
<path d="M29.7155 40.3225C29.7723 39.3565 30.2455 38.4638 31.337 38.4638C32.3969 38.4638 32.9206 39.2537 32.8764 40.3225H29.7155ZM31.4001 37.2202C28.6177 37.2202 27.6523 39.1957 27.6523 41.0537C27.6523 43.2639 28.7628 44.9169 31.1351 44.9901C33.0215 45.0052 34.6935 44.4343 34.8071 42.3711H32.8764C32.8764 43.2052 32.2013 43.7465 31.4127 43.7465C30.0814 43.7465 29.6587 42.7661 29.6398 41.5661L34.9711 41.5515C35.1289 39.3565 34.1761 37.2202 31.4001 37.2202Z" fill="#AFB5BC"/>
<path d="M43.5314 44.7843H41.5377L41.525 43.5843C41.1907 44.5351 40.2632 45.0184 39.1275 45.0184C37.7773 45.0184 36.5029 44.1988 36.4902 42.2379V37.4819H38.5092V41.9596C38.4966 43.0133 38.9067 43.5988 39.8973 43.6133C40.7932 43.6133 41.525 43.101 41.525 41.682V37.4819H43.5314V44.7843Z" fill="#AFB5BC"/>
<path d="M46.1194 37.5101V36.3536L48.069 35.3296V37.5101H49.9302V38.929H48.069V42.4559C48.069 43.1727 48.315 43.5828 49.0469 43.6118C49.3245 43.6118 49.5769 43.6408 49.9428 43.5386V44.7973C48.9901 44.9292 47.8923 45.1778 46.9838 44.6945C46.296 44.3292 46.1194 43.685 46.1194 42.661V38.929H44.5547V37.5101H46.1194Z" fill="#AFB5BC"/>
<path d="M57.5076 41.6369C57.8293 42.2811 57.8167 43.1297 57.4192 43.7152C56.7315 44.7682 55.2362 45.032 54.0816 45.0029C52.4412 44.9001 50.9838 44.4761 51.0532 42.5152H53.0469C53.028 43.3638 53.558 43.6711 54.3151 43.7001C55.0469 43.7001 55.7788 43.4515 55.7788 42.7783C55.7788 42.2369 55.2678 42.0029 54.6116 41.8565C53.8608 41.6956 53.3245 41.6224 52.4854 41.2855C51.8166 40.9637 51.1541 40.4224 51.1541 39.3984C51.1541 38.5492 51.8166 37.9056 52.681 37.5542C53.2614 37.3056 53.9807 37.2324 54.599 37.2324C55.987 37.2324 57.4949 37.7151 57.4066 39.471H55.5328C55.5328 39.2079 55.476 38.9151 55.2551 38.7397C54.845 38.3738 53.5832 38.3296 53.192 38.9296C52.7504 39.9543 54.1132 40.0274 55.6211 40.4369C56.5738 40.6565 57.2173 41.0514 57.5076 41.6369Z" fill="#AFB5BC"/>
<path d="M62.4975 37.2036C64.0938 37.2036 65.7468 37.9355 65.7468 39.9406L63.7846 39.9254C63.7846 38.9891 63.2735 38.4181 62.3082 38.4623C62.0559 38.4768 61.7909 38.5645 61.5763 38.6819C60.9707 39.0333 60.7814 40.0138 60.7814 40.9942C60.7814 42.0327 61.0337 43.0429 61.488 43.4082C61.7909 43.7009 62.3335 43.7892 62.8003 43.7009C63.5764 43.5697 63.8098 42.8082 63.8288 42.1501L65.7468 42.1356C65.772 44.2277 64.0622 45.0183 62.2767 44.9886C59.8918 44.9009 58.7939 43.3501 58.7939 41.0523C58.7939 38.726 60.1252 37.2036 62.4975 37.2036Z" fill="#AFB5BC"/>
<path d="M67.293 34.2183H69.3119V38.6373C69.8419 37.701 70.6306 37.2915 71.6969 37.2915C73.047 37.2915 74.3215 38.301 74.3215 39.7496V44.7838H72.3278V40.3055C72.3278 39.3105 71.9051 38.6524 70.9524 38.6524C70.0627 38.6524 69.2993 39.2373 69.2993 40.5837V44.7838H67.293V34.2183Z" fill="#AFB5BC"/>
<path d="M77.9489 40.3225C78.0057 39.3565 78.4726 38.4638 79.5704 38.4638C80.624 38.4638 81.154 39.2537 81.1098 40.3225H77.9489ZM79.6335 37.2202C76.8511 37.2202 75.8857 39.1957 75.8857 41.0537C75.8857 43.2639 76.9962 44.9169 79.3685 44.9901C81.2549 45.0052 82.9269 44.4343 83.0405 42.3711H81.1098C81.1098 43.2052 80.4347 43.7465 79.6461 43.7465C78.3148 43.7465 77.8921 42.7661 77.8732 41.5661L83.2045 41.5515C83.3623 39.3565 82.4095 37.2202 79.6335 37.2202Z" fill="#AFB5BC"/>
<path d="M95.6529 44.4786C94.9715 44.6976 94.0882 44.7859 93.1418 44.7859H89.3184V34.2349H93.3879C95.2049 34.2349 97.104 34.8059 97.1797 36.84C97.2239 38.1277 96.3469 38.9466 95.2491 39.3126C96.0945 39.5321 96.7822 39.7807 97.2491 40.5713C97.6592 41.2735 97.6908 42.2104 97.3564 42.9858C97.0031 43.7177 96.4605 44.2004 95.6529 44.4786ZM93.3879 35.8153H91.3247V38.5517H93.4194C94.5172 38.5517 95.0851 38.098 95.0851 37.2053C95.0851 36.3712 94.4289 35.8153 93.3879 35.8153ZM93.5961 40.1322L91.3247 40.1176V43.2199H93.5203C94.9841 43.2199 95.451 42.5026 95.451 41.6104C95.451 40.9227 94.9526 40.1176 93.5961 40.1322Z" fill="#AFB5BC"/>
<path d="M102.038 43.7317C101.293 43.673 100.852 43.3071 100.852 42.6048C100.864 41.0685 102.814 41.2294 103.823 41.2294C103.868 42.444 103.767 43.702 102.038 43.7317ZM105.741 39.4881C105.741 37.9953 104.133 37.2489 102.271 37.2634C100.498 37.293 99.2113 37.8634 99.186 39.5757H101.129C101.085 38.7852 101.628 38.3757 102.347 38.3612C103.426 38.3612 103.912 38.8584 103.811 40.0881C102.738 40.1461 101.306 40.0729 100.24 40.5707C99.4636 40.9367 98.8643 41.6244 98.8643 42.7216C98.8643 44.1266 99.8422 44.9752 101.274 45.0194C102.303 45.1216 103.47 44.668 103.924 43.7172L104 44.7853H105.741C105.741 43.0143 105.741 41.2729 105.741 39.4881Z" fill="#AFB5BC"/>
<path d="M107.686 37.4819H109.705V38.6529C110.234 37.7015 111.2 37.292 112.285 37.292C113.496 37.292 114.739 37.9942 114.739 39.7501V44.7843H112.72V40.3059C112.733 39.3551 112.266 38.6529 111.345 38.6529C110.436 38.6529 109.692 39.2378 109.692 40.5842V44.7843H107.686V37.4819Z" fill="#AFB5BC"/>
<path d="M121.806 44.7838L118.734 40.5982L121.516 37.4814H123.888L121.005 40.525L124.399 44.7838H121.806ZM116.689 34.2183H118.677V44.7838H116.689V34.2183Z" fill="#AFB5BC"/>
<path d="M135.105 18.9673H160.803V44.7691H135.105V18.9673ZM150.721 25.0785L140.683 38.5507H145.219L155.295 25.0785H150.721ZM138.683 41.1955H157.226V22.5415H138.683V41.1955Z" fill="#AFB5BC"/>
</svg>
