<svg width="177" height="64" viewBox="0 0 177 64" fill="none" xmlns="http://www.w3.org/2000/svg">
<rect width="177" height="64" fill="white"/>
<g clip-path="url(#clip0_58_171)">
<path d="M43.1898 40.6658V23H47.2126V40.6658H43.1898ZM121.379 34.0684C121.379 29.8004 118.069 27.1516 114.2 27.1516C110.33 27.1516 107.02 29.8252 107.02 34.0684C107.02 38.3115 110.33 41 114.2 41C118.069 41 121.379 38.3041 121.379 34.0609V34.0684ZM117.418 34.0684C117.418 36.2964 115.932 37.5515 114.18 37.5515C112.427 37.5515 110.942 36.3013 110.942 34.0684C110.942 31.8354 112.427 30.6025 114.18 30.6025C115.932 30.6025 117.405 31.8057 117.405 34.0609L117.418 34.0684ZM41.5831 35.5884C41.5831 33.6079 40.5533 32.0805 38.7139 31.3947C40.4468 30.4391 41.0682 29.1865 41.0682 27.716C41.0682 25.1414 39.2041 23.0124 35.0352 23.0322H27.0391V40.6906H35.3768C39.5581 40.6658 41.5708 38.5739 41.5708 35.5809L41.5831 35.5884ZM36.8003 28.2309C36.8003 29.4316 36.0403 30.1198 34.5723 30.1198H31.2203V26.4336H34.5549C35.9066 26.4336 36.7879 27.0228 36.7879 28.2235L36.8003 28.2309ZM37.1444 35.3111C37.1444 36.4647 36.3349 37.2247 34.8396 37.2247H31.2203V33.3999H34.8495C36.2978 33.3999 37.1444 34.1352 37.1444 35.3111ZM76.583 30.7486C75.4789 28.4438 73.4192 27.1689 70.3049 27.1689C66.6262 27.1689 63.3386 29.4737 63.3386 34.0609C63.3386 38.517 66.2326 40.9926 70.2554 40.9926C73.0751 40.9926 75.4541 39.8637 76.583 37.4352L73.3449 35.7666C72.7557 36.846 71.8596 37.5317 70.4015 37.5317C68.5373 37.5317 67.3367 36.2073 67.3367 34.0485C67.3367 31.8898 68.7106 30.5827 70.3792 30.5827C71.6789 30.5827 72.6592 31.1719 73.2731 32.4468L76.583 30.7486ZM135.863 30.7486C134.759 28.4438 132.7 27.1689 129.585 27.1689C125.907 27.1689 122.619 29.4737 122.619 34.0609C122.619 38.517 125.513 40.9926 129.536 40.9926C132.356 40.9926 134.735 39.8637 135.863 37.4352L132.625 35.7666C132.036 36.846 131.14 37.5317 129.682 37.5317C127.818 37.5317 126.617 36.2073 126.617 34.0485C126.617 31.8898 127.991 30.5827 129.66 30.5827C130.959 30.5827 131.94 31.1719 132.554 32.4468L135.863 30.7486ZM102.151 40.6658L98.7866 34.7244H96.2119V40.6658H92.0703V23H99.5515C103.599 23 106.419 24.9384 106.419 28.7384C106.419 31.167 105.218 32.8825 103.084 33.9371L106.956 40.6658H102.151ZM96.2392 31.2239H99.3312C101.245 31.2239 102.176 30.1445 102.176 28.8696C102.176 27.3496 101.292 26.5153 99.3312 26.5153H96.2392V31.2239ZM62.6875 40.438V37.6654C62.4645 37.7293 62.2338 37.7627 62.0018 37.7644C61.4869 37.7644 61.217 37.4946 61.217 37.0217V32.4419C61.217 29.0083 58.9123 27.1936 55.1098 27.1936C52.6342 27.1936 50.5225 28.1022 49.198 29.2781L51.4261 31.7809C52.3105 30.9826 53.4531 30.5299 54.6443 30.506C56.4094 30.506 57.2437 31.3898 57.2437 32.8355V33.2514C56.2083 32.9959 55.1463 32.8638 54.0799 32.8578C50.8616 32.8578 48.7821 34.4026 48.7821 36.9549C48.7821 39.579 50.5151 40.953 53.2209 40.953C55.0602 40.953 56.704 40.193 57.5631 39.2201C58.078 40.5197 59.2068 40.8638 60.311 40.8638C61.1244 40.892 61.9345 40.7468 62.6875 40.438ZM57.266 36.2939C57.266 37.4946 56.1124 38.2744 54.7904 38.2744C53.5402 38.2744 52.9263 37.6357 52.9263 36.7544C52.9263 35.8235 53.612 35.1353 55.0107 35.1353C55.7713 35.1464 56.5281 35.2453 57.266 35.4299V36.2939ZM150.247 40.6658L145.513 32.4493L149.952 27.617H145.496L140.812 32.8157V23.0248H136.807V40.6831H140.805V37.4946L142.718 35.4596L145.711 40.6831H150.249L150.247 40.6658ZM91.0157 40.6658L86.2824 32.4493L90.7211 27.617H86.2081L81.5738 32.8157V23.0248H77.5757V40.6831H81.5738V37.4946L83.4874 35.4596L86.4804 40.6831H91.0182L91.0157 40.6658Z" fill="#AFB5BC"/>
</g>
<defs>
<clipPath id="clip0_58_171">
<rect width="123.288" height="18" fill="white" transform="translate(27 23)"/>
</clipPath>
</defs>
</svg>
