<svg width="123" height="22" viewBox="0 0 123 22" fill="none" xmlns="http://www.w3.org/2000/svg">
<path d="M24.8246 6.13627C20.3563 6.13627 16.865 9.52942 16.865 14.0719C16.865 18.6143 20.2681 21.9784 24.8246 21.9784C29.3811 21.9784 32.8435 18.5562 32.8435 14.0428C32.8435 9.55846 29.4403 6.13627 24.8246 6.13627ZM24.8548 18.7048C22.3102 18.7048 20.4457 16.7279 20.4457 14.073C20.4457 11.3879 22.2801 9.41214 24.8246 9.41214C27.3993 9.41214 29.2628 11.4181 29.2628 14.073C29.2628 16.7279 27.3993 18.7048 24.8548 18.7048ZM33.8193 9.58861H36.0389V21.6847H39.5895V6.43113H33.8193V9.58861ZM7.9295 9.41103C9.79409 9.41103 11.2735 10.5614 11.8351 12.2725H15.5933C14.9122 8.61467 11.8943 6.13627 7.95965 6.13627C3.49135 6.13627 0 9.52942 0 14.073C0 18.6165 3.40314 21.9795 7.95965 21.9795C11.8061 21.9795 14.8832 19.5011 15.5642 15.8131H11.8351C11.3025 17.5242 9.82312 18.7048 7.95853 18.7048C5.38385 18.7048 3.57955 16.7279 3.57955 14.073C3.58067 11.3879 5.35593 9.41103 7.9295 9.41103ZM101.282 12.5975L98.6778 12.2145C97.4351 12.038 96.5475 11.6247 96.5475 10.6508C96.5475 9.58861 97.702 9.05808 99.2695 9.05808C100.986 9.05808 102.081 9.79524 102.318 11.0048H105.75C105.365 7.93671 102.998 6.13738 99.3589 6.13738C95.6007 6.13738 93.1153 8.0551 93.1153 10.7692C93.1153 13.3649 94.7432 14.8704 98.0269 15.3418L100.631 15.7249C101.903 15.9013 102.614 16.404 102.614 17.3477C102.614 18.5573 101.371 19.0588 99.6547 19.0588C97.5535 19.0588 96.3699 18.2033 96.1924 16.9054H92.7011C93.0271 19.8853 95.364 21.9795 99.6246 21.9795C103.501 21.9795 106.075 20.2092 106.075 17.1702C106.075 14.4561 104.211 13.0398 101.282 12.5975ZM37.8142 0.147431C36.5123 0.147431 35.5354 1.09121 35.5354 2.38906C35.5354 3.6869 36.5112 4.63068 37.8142 4.63068C39.1161 4.63068 40.093 3.6869 40.093 2.38906C40.093 1.09121 39.1161 0.147431 37.8142 0.147431ZM89.9198 11.6538C89.9198 8.34997 87.9079 6.13738 83.6472 6.13738C79.6233 6.13738 77.3746 8.1735 76.9303 11.3008H80.4518C80.6293 10.0912 81.5761 9.08824 83.5881 9.08824C85.3935 9.08824 86.2811 9.88459 86.2811 10.8585C86.2811 12.1273 84.6532 12.4512 82.6413 12.6579C79.9192 12.9527 76.5462 13.8965 76.5462 17.4371C76.5462 20.1813 78.5883 21.9505 81.8429 21.9505C84.3875 21.9505 85.9852 20.8883 86.7847 19.2063C86.903 20.7107 88.0273 21.6847 89.596 21.6847H91.6672V18.5283H89.9209V11.6538H89.9198ZM86.4285 15.4892C86.4285 17.5253 84.6532 19.0298 82.4928 19.0298C81.1608 19.0298 80.0364 18.4691 80.0364 17.2897C80.0364 15.7852 81.8418 15.3719 83.4987 15.1955C85.0965 15.048 85.9841 14.694 86.4285 14.0149V15.4892ZM67.5806 6.13627C65.5976 6.13627 63.9407 6.96277 62.7572 8.34885V0H59.2067V21.6847H62.698V19.6787C63.8815 21.124 65.5686 21.9795 67.5806 21.9795C71.8412 21.9795 75.0668 18.6165 75.0668 14.073C75.0668 9.52942 71.782 6.13627 67.5806 6.13627ZM67.048 18.7048C64.5034 18.7048 62.6388 16.7279 62.6388 14.073C62.6388 11.4181 64.5325 9.41214 67.077 9.41214C69.6517 9.41214 71.456 11.3891 71.456 14.073C71.456 16.7279 69.5925 18.7048 67.048 18.7048ZM50.7144 6.13627C48.4066 6.13627 46.8971 7.08005 46.0094 8.40805V6.43113H42.4879V21.6836H46.0385V13.3939C46.0385 11.0629 47.5179 9.41103 49.7073 9.41103C51.7495 9.41103 53.0212 10.8563 53.0212 12.9516V21.6847H56.5717V12.6869C56.5728 8.85034 54.591 6.13627 50.7144 6.13627ZM123 13.5715C123 9.20552 119.805 6.13738 115.514 6.13738C110.957 6.13738 107.613 9.55957 107.613 14.073C107.613 18.8232 111.194 21.9795 115.573 21.9795C119.272 21.9795 122.172 19.796 122.911 16.6988H119.212C118.679 18.0559 117.377 18.8232 115.631 18.8232C113.352 18.8232 111.636 17.4069 111.252 14.9285H122.999V13.5715H123ZM111.46 12.3909C112.022 10.2666 113.62 9.23455 115.455 9.23455C117.467 9.23455 119.005 10.385 119.36 12.3909H111.46Z" fill="#AFB5BC"/>
</svg>
