<svg width="177" height="64" viewBox="0 0 177 64" fill="none" xmlns="http://www.w3.org/2000/svg">
<rect width="177" height="64" fill="white"/>
<g clip-path="url(#clip0_58_172)">
<path d="M52.0369 21.9046H57.3105V30.6775C55.5495 31.0399 54.201 31.2234 52.7227 31.2234C46.9394 31.2234 44.9004 27.8583 44.9004 22.3188C44.9004 16.3651 47.7272 13 53.3622 13C54.0759 13 55.4244 13.0518 57.1066 13.3106V18.9254H55.8832L55.1927 16.7793C54.53 14.7367 53.7422 13.7248 52.491 13.7248C50.3269 13.7248 49.1777 16.6993 49.1777 22.267C49.1777 27.8583 49.6364 30.4986 52.4632 30.4986C52.8478 30.4986 53.302 30.4469 53.7376 30.3198V23.7919L52.0322 22.6012V21.9046H52.0369ZM57.2085 45.4558C57.2085 48.9762 54.8405 50.9953 50.6606 50.9953C49.5159 50.9953 47.8338 50.8164 46.2535 50.5529V43.672H47.4769L47.9867 45.3005C49.1313 49.0515 49.9469 50.294 51.402 50.294C52.9313 50.294 54.0249 48.9245 54.0249 47.1125C54.0249 45.6393 53.3391 44.6039 51.8608 43.7991L49.312 42.4013C47.3472 41.3423 46.2767 39.6857 46.2767 37.6666C46.2767 34.6121 48.7467 32.7766 52.8015 32.7766C53.7191 32.7766 54.7895 32.8566 56.4949 33.0872V38.702H55.2715L54.5856 36.5559C53.8951 34.2779 53.1583 33.4496 51.8098 33.4496C50.3037 33.4496 49.414 34.4332 49.414 35.8546C49.414 37.1206 50.1045 38.029 51.453 38.8056L54.0249 40.2787C56.189 41.5212 57.2085 43.1779 57.2085 45.4558ZM68.474 49.5222L68.9837 50.2987V50.6894H65.0865L64.9057 49.188C64.4979 50.327 63.4275 51 62.0511 51C60.0121 51 58.7378 49.7057 58.7378 47.5831C58.7378 45.5123 59.8824 44.1427 63.3997 42.7449L64.9011 42.1518V40.2128C64.9011 38.5043 64.5953 37.8078 63.6545 37.8078C62.8899 37.8078 62.4589 38.2219 61.7175 40.1092L60.8787 42.2224H59.7341V38.0007C61.2355 37.5348 62.7416 37.2242 64.0392 37.2242C66.9169 37.2242 68.474 38.622 68.474 41.1588V49.5222ZM69.9476 24.3379C69.9476 28.7384 67.6306 31.2234 64.6462 31.2234C61.6665 31.2234 59.3495 28.7384 59.3495 24.3379C59.3495 19.9373 61.6665 17.4523 64.6509 17.4523C67.6306 17.4523 69.9476 19.9373 69.9476 24.3379ZM64.9057 47.3478V42.8719L64.4238 43.079C62.9177 43.7003 62.357 45.0981 62.357 47.1407C62.357 48.6703 62.7138 49.5457 63.5526 49.5457C64.3914 49.5457 64.9057 48.7174 64.9057 47.3478ZM66.2033 24.3379C66.2033 19.3678 65.7955 18.05 64.6509 18.05C63.5062 18.05 63.0984 19.3678 63.0984 24.3379C63.0984 29.3079 63.5062 30.6257 64.6509 30.6257C65.7955 30.6257 66.2033 29.3079 66.2033 24.3379ZM78.998 47.4749L79.4568 47.7102C78.6412 50.0917 77.5985 50.9953 75.5827 50.9953C72.2971 50.9953 70.462 48.4867 70.462 44.1097C70.462 39.7374 72.603 37.2242 76.0924 37.2242C77.0331 37.2242 78.2843 37.3795 79.3548 37.8172V42.2177H78.1592L77.6773 40.5611C77.0378 38.3631 76.6856 37.7937 76.0461 37.7937C75.0266 37.7937 74.211 39.1397 74.211 44.265C74.211 48.3785 74.8227 49.8799 76.3751 49.8799C77.4178 49.8846 78.3075 49.2115 78.998 47.4749ZM76.1666 30.9128H71.5788V30.5269L72.0886 29.7503V15.3062L71.5788 14.5296V14.139L75.6568 13.8283V29.7456L76.1666 30.5222V30.9128ZM82.4365 31.2234C79.6329 31.2234 77.9507 28.6349 77.9507 24.2108C77.9507 19.8103 79.707 17.457 82.4087 17.457C83.785 17.457 84.5496 17.9983 84.8786 19.0855V15.3062L84.3689 14.5296V14.139L88.4469 13.8283V29.7456L88.9566 30.5222V30.9081H85.3374L85.0594 28.9408C84.6562 30.6257 83.8916 31.2234 82.4365 31.2234ZM91.3803 49.5222L91.89 50.2987V50.6894H87.3023V50.2987L87.812 49.5222V40.2034C87.812 39.0926 87.483 38.4196 86.6906 38.4196C85.7452 38.4196 85.0594 39.2244 85.0594 40.8011V49.5222L85.5691 50.2987V50.6894H80.9814V50.2987L81.4911 49.5222V35.078L80.9814 34.3015V33.9155L85.0594 33.6049V38.9609C85.5181 37.8501 86.5608 37.2289 88.0391 37.2289C90.1291 37.2289 91.3756 38.5749 91.3756 41.187V49.5222H91.3803ZM81.6997 24.2579C81.6997 28.9173 82.1075 30.3386 83.2289 30.3386C84.6284 30.3386 84.8833 28.296 84.8833 24.2061C84.8833 20.248 84.6052 18.2807 83.2521 18.2807C82.1075 18.2807 81.6997 19.6785 81.6997 24.2579ZM107.284 29.7456L107.794 30.5222V30.9081H103.206V30.5222L103.716 29.7456V20.1444C103.716 19.2125 103.41 18.6431 102.697 18.6431C101.807 18.6431 101.093 19.4479 101.093 20.9963V29.7456L101.603 30.5222V30.9081H97.0153V30.5222L97.5251 29.7456V20.1444C97.5251 19.2125 97.2192 18.6431 96.5056 18.6431C95.6158 18.6431 94.9022 19.4479 94.9022 20.9963V29.7456L95.4119 30.5222V30.9081H90.8242V30.5222L91.3339 29.7456V19.2125L90.8242 18.5913V18.2054L94.4944 17.7629H94.8002L94.9022 19.2125C95.3331 18.0736 96.4036 17.4523 97.8587 17.4523C99.4111 17.4523 100.431 18.2289 100.889 19.6267C101.269 18.2807 102.47 17.4523 103.999 17.4523C106.01 17.4523 107.284 18.7984 107.284 21.4105V29.7456ZM102.521 46.8818C102.521 49.1315 101.093 50.9953 97.6548 50.9953C96.7651 50.9953 95.5648 50.8918 93.7066 50.5529V45.7429H94.7492L95.0783 46.7783C95.8939 49.4186 96.6817 50.4023 97.9329 50.4023C99.1053 50.4023 99.8699 49.5457 99.8699 48.2279C99.8699 47.1407 99.3324 46.3924 98.0626 45.6911L95.8707 44.5004C94.4712 43.7238 93.7066 42.5095 93.7066 41.0082C93.7066 38.6549 95.5185 37.2289 98.5214 37.2289C99.388 37.2289 100.509 37.356 101.733 37.6148V41.3941H100.69L100.153 40.0198C99.5409 38.3631 98.957 37.8219 97.9885 37.8219C96.9458 37.8219 96.3341 38.4432 96.3341 39.4786C96.3341 40.3587 96.8438 40.9517 98.0904 41.6765L100.255 42.919C101.728 43.7756 102.521 44.9898 102.521 46.8818ZM119.009 29.7456L119.518 30.5222V30.9081H115.621L115.445 29.4067C115.037 30.5457 113.967 31.2187 112.59 31.2187C110.551 31.2187 109.277 29.9244 109.277 27.8018C109.277 25.731 110.422 24.3614 113.939 22.9636L115.44 22.3706V20.4315C115.44 18.7231 115.135 18.0265 114.194 18.0265C113.429 18.0265 112.998 18.4407 112.257 20.328L111.418 22.4506H110.269V18.2336C111.775 17.7676 113.276 17.457 114.574 17.457C117.452 17.457 119.009 18.8548 119.009 21.3916V29.7456ZM115.44 27.5712V23.0954L114.958 23.3025C113.457 23.9237 112.896 25.3215 112.896 27.3641C112.896 28.8937 113.253 29.7738 114.092 29.7738C114.931 29.7738 115.44 28.9455 115.44 27.5712ZM132.105 30.5222V30.9081H127.517V30.5222L128.027 29.7456V20.4268C128.027 19.3114 127.698 18.6431 126.905 18.6431C125.96 18.6431 125.274 19.4479 125.274 21.0245V29.7456L125.784 30.5222V30.9081H121.196V30.5222L121.706 29.7456V19.2125L121.196 18.5913V18.2054L124.866 17.7629H125.172L125.274 19.2125C125.705 18.0736 126.752 17.4523 128.254 17.4523C130.344 17.4523 131.59 18.7984 131.59 21.4105V29.7456L132.105 30.5222Z" fill="#AFB5BC"/>
</g>
<defs>
<clipPath id="clip0_58_172">
<rect width="89" height="38" fill="white" transform="translate(44 13)"/>
</clipPath>
</defs>
</svg>
