<svg width="107" height="27" viewBox="0 0 107 27" fill="none" xmlns="http://www.w3.org/2000/svg">
<path d="M22.2832 0H4.47062C2.00129 0 0 2.00129 0 4.47062V22.2832C0 24.7525 2.00129 26.7538 4.47062 26.7538H22.2832C24.7525 26.7538 26.7538 24.7525 26.7538 22.2832V4.47062C26.7538 2.00129 24.7525 0 22.2832 0ZM21.8904 20.4782C21.8904 21.2583 21.2583 21.8904 20.4782 21.8904H6.27555C5.49547 21.8904 4.86335 21.2583 4.86335 20.4782V6.27555C4.86335 5.49548 5.49547 4.86335 6.27555 4.86335H20.4782C21.2583 4.86335 21.8904 5.49548 21.8904 6.27555V20.4782ZM10.539 17.0083C10.0898 17.0083 9.72938 16.6451 9.72938 16.1959V10.5256C9.72938 10.0764 10.0898 9.71056 10.539 9.71056H16.2174C16.664 9.71056 17.0271 10.0737 17.0271 10.5256V16.1932C17.0271 16.6424 16.664 17.0056 16.2174 17.0056H10.539V17.0083ZM33.8471 16.6209H36.7683C36.9136 18.2752 38.0352 19.5664 40.2975 19.5664C42.3176 19.5664 43.5603 18.5684 43.5603 17.0594C43.5603 15.6472 42.5866 15.015 40.8327 14.6008L38.5678 14.1139C36.1093 13.5786 34.2586 11.997 34.2586 9.41467C34.2586 6.56606 36.7898 4.61857 40.0769 4.61857C43.5576 4.61857 45.7983 6.44501 45.992 9.14568H43.1676C42.8313 7.88142 41.7823 7.12825 40.0796 7.12825C38.2773 7.12825 37.0373 8.10199 37.0373 9.34473C37.0373 10.5875 38.1079 11.3406 39.9585 11.7549L42.1992 12.2418C44.6578 12.777 46.3363 14.2619 46.3363 16.8657C46.3363 20.177 43.8535 22.1487 40.3001 22.1487C36.3056 22.146 34.0918 19.9806 33.8471 16.6209ZM56.7866 26.7538V21.9093L56.9775 19.7842H56.7866C56.1168 21.3121 54.71 22.1487 52.8001 22.1487C49.7202 22.1487 47.4284 19.6417 47.4284 15.7978C47.4284 11.9539 49.7202 9.44695 52.8001 9.44695C54.6858 9.44695 56.0226 10.3292 56.7866 11.7145H56.9775V9.68366H59.5088V26.7538H56.7866ZM56.8807 15.7951C56.8807 13.3365 55.3771 11.9028 53.5372 11.9028C51.6973 11.9028 50.1936 13.3365 50.1936 15.7951C50.1936 18.2537 51.6973 19.6874 53.5372 19.6874C55.3771 19.6874 56.8807 18.2564 56.8807 15.7951ZM61.5289 17.0621V9.68366H64.2511V16.8227C64.2511 18.7567 65.1818 19.6874 66.7338 19.6874C68.6437 19.6874 69.8864 18.3263 69.8864 16.2013V9.68366H72.6086V21.9066H70.0774V19.3754H69.8864C69.2892 21.0001 67.9766 22.146 65.9484 22.146C63.0325 22.146 61.5289 20.2846 61.5289 17.0621ZM74.2656 18.4931C74.2656 16.2013 75.8661 14.8644 78.7066 14.6976L82.0717 14.4824V13.5275C82.0717 12.3816 81.2351 11.6903 79.7557 11.6903C78.3946 11.6903 77.5822 12.3816 77.367 13.3608H74.6448C74.9327 10.878 76.9851 9.44426 79.753 9.44426C82.8813 9.44426 84.7912 10.7811 84.7912 13.3608V21.9066H82.26V19.639H82.069C81.496 21.1427 80.3017 22.146 78.0099 22.146C75.8176 22.146 74.2656 20.6665 74.2656 18.4931ZM82.0744 16.9894V16.3439L79.328 16.5348C77.8485 16.629 77.1787 17.1804 77.1787 18.2779C77.1787 19.2086 77.9427 19.8784 79.0159 19.8784C80.9527 19.8784 82.0744 18.6383 82.0744 16.9894ZM86.822 21.9093V9.68366H89.3532V12.0239H89.5442C89.902 10.4234 91.1205 9.68366 92.9335 9.68366H94.1762V12.1422H92.6242C90.8569 12.1422 89.5442 13.2881 89.5442 15.4616V21.9066H86.822V21.9093ZM106.63 16.2981H97.3423C97.4848 18.5415 99.0611 19.8085 100.804 19.8085C102.284 19.8085 103.214 19.2113 103.742 18.208H106.44C105.7 20.6907 103.526 22.146 100.78 22.146C97.1755 22.146 94.6443 19.448 94.6443 15.7951C94.6443 12.1422 97.2454 9.44426 100.804 9.44426C104.384 9.44426 106.725 11.9028 106.725 14.9586C106.727 15.5584 106.679 15.8677 106.63 16.2981ZM104.029 14.4125C103.935 12.7179 102.526 11.572 100.807 11.572C99.1821 11.572 97.8237 12.5995 97.4875 14.4125H104.029Z" fill="#AFB5BC"/>
</svg>
