<svg width="97" height="26" viewBox="0 0 97 26" fill="none" xmlns="http://www.w3.org/2000/svg">
<path d="M8.15614 8.98643C7.24461 8.63702 6.09777 8.47104 5.43742 7.73066C4.98398 7.21047 5.13793 6.28219 5.70029 5.87445C6.4125 5.30331 7.54049 5.37069 8.42291 5.74493C8.88976 5.93723 9.36055 6.23548 9.82737 6.63969L11.5379 3.08423C10.7179 2.62116 9.86266 2.26797 8.97215 2.02859C6.63884 1.38052 3.93632 1.50538 2.22441 3.26082C0.695835 4.7574 0.263435 7.65923 1.06316 9.58292C1.55716 10.6925 2.40892 11.419 3.49548 11.8826C4.36558 12.2593 5.50254 12.6077 6.32404 12.9618C7.10948 13.2865 7.72137 13.7552 7.69714 14.6335C7.66196 15.7007 6.7888 16.3382 5.61397 16.3053C4.99804 16.3053 4.37819 16.1601 3.7505 15.8658C3.1228 15.5714 2.48725 15.1241 1.84387 14.5197L0 18.189C1.78501 19.5036 3.72303 20.1629 5.81404 20.1629C7.61642 20.1638 9.29907 19.6859 10.5414 18.5226C12.4824 16.771 12.8005 12.966 11.2436 10.9682C10.5924 10.1402 9.56455 9.47697 8.16005 8.98251L8.15614 8.98643ZM79.2274 14.1941C78.1799 12.0475 77.1325 9.90092 76.081 7.75429C73.4919 7.75823 70.9024 7.76216 68.3174 7.76607V9.3358C67.4111 8.2841 66.293 7.75429 64.9631 7.75429C64.1431 7.75429 63.3861 7.91913 62.6917 8.2527C61.9973 8.58626 61.3969 9.04148 60.891 9.62229C60.3847 10.2031 59.9885 10.8859 59.6944 11.6669C59.6236 11.8552 59.561 12.0475 59.5099 12.2437C59.459 12.0279 59.4 11.8199 59.3332 11.6198C59.0549 10.7917 58.6548 10.0893 58.1252 9.51632C56.9789 8.27284 55.3793 7.75391 53.6292 7.75429C51.8736 7.75028 50.2412 8.27828 49.0668 9.4967C48.7958 9.77532 48.5528 10.0854 48.3448 10.4268V7.75429H46.0853V4.17532H42.1149V7.75429H36.2069V9.31227C35.2847 8.27623 34.1235 7.75429 32.7191 7.75429C31.8875 7.75429 31.1264 7.91913 30.4397 8.2527C29.7532 8.58626 29.1608 9.03755 28.6626 9.61052C28.3527 9.96763 28.0858 10.364 27.8584 10.7957V7.53847C27.6974 7.50707 27.5563 7.49137 27.4307 7.49137H27.0894C26.2695 7.49137 25.5555 7.67974 24.9395 8.06042C24.3237 8.44107 23.8057 8.98654 23.3821 9.69685V7.74647H17.4935V4.16748H13.5233V7.74647H12.2091V11.2548H13.5233V20.0375H17.4935V11.2548H19.4119V20.0375H23.3821V14.5552C23.3821 13.4407 23.6135 12.593 24.0726 12.0122C24.5315 11.4314 25.222 11.141 26.144 11.141C26.65 11.141 27.1246 11.2352 27.5719 11.4275C27.5446 11.4903 27.5209 11.557 27.4974 11.6237C27.2189 12.3889 27.0817 13.2013 27.0817 14.0529C27.0817 14.9672 27.2229 15.811 27.5093 16.584C28.0541 18.0689 29.0841 19.2909 30.5024 19.9394C31.189 20.2573 31.9424 20.4142 32.7623 20.4142C34.2099 20.4142 35.3593 19.849 36.2069 18.7188V20.0415H40.2004V11.2587H42.1188V20.0415H46.089V11.2587H47.9251C47.8898 11.349 47.8505 11.4353 47.8193 11.5295C47.5248 12.3262 47.3797 13.2209 47.3797 14.2137C47.3797 15.2066 47.5327 16.0425 47.8387 16.8156C48.1446 17.5887 48.58 18.2559 49.1451 18.813C49.7101 19.3703 50.3849 19.802 51.1735 20.1043C51.9618 20.4063 52.8329 20.5555 53.7823 20.5555C56.8813 20.5555 58.8196 19.1938 59.5963 16.4663C59.6198 16.533 59.6394 16.5997 59.6629 16.6625C59.9337 17.3964 60.3142 18.0283 60.8045 18.554C61.825 19.6478 63.2292 20.2357 64.7669 20.2259C65.7801 20.2372 66.6643 19.9944 67.4778 19.4017C67.7484 19.2094 68.0309 18.9662 68.3212 18.6718V19.8099C68.3212 20.6928 68.0976 21.3835 67.6544 21.878C67.2071 22.3724 66.5674 22.6197 65.7358 22.6197C64.7552 22.6197 64.1275 22.2233 63.849 21.4344H59.3727C59.4902 22.0859 59.7217 22.6864 60.075 23.2358C62.8541 27.6542 71.7311 26.6856 72.1854 20.9754C72.26 20.4495 72.2954 19.853 72.2954 19.1859V9.3515L77.062 18.3735L73.2251 25.9475H77.6779C80.7417 19.8843 83.8057 13.8174 86.8697 7.75428H82.2874C81.2715 9.90091 80.2512 12.0475 79.2353 14.1941L79.2274 14.1941ZM36.1323 15.1438C35.7456 16.1026 34.8257 16.8093 33.7743 16.792C32.3059 16.8293 31.1695 15.486 31.2087 14.0529C31.1871 12.6386 32.3354 11.3521 33.7743 11.3843C35.6259 11.3369 36.8597 13.5169 36.1323 15.1438ZM52.2404 10.988C52.6288 10.6465 53.127 10.4778 53.7429 10.4778C54.3591 10.4778 54.8257 10.6544 55.2339 11.0115C55.6417 11.3686 55.9125 11.8395 56.0458 12.4282H51.5069C51.6089 11.8081 51.856 11.3294 52.2404 10.988ZM55.7594 16.4703C55.32 17.2119 54.6688 17.5847 53.8058 17.5847C52.1971 17.5847 51.3932 16.6782 51.3932 14.8652H59.2825C59.3255 15.4342 59.4317 15.9679 59.5963 16.4663H55.7594V16.4703ZM68.3095 15.0653C67.9286 16.0358 67.0076 16.7406 65.9518 16.7253C64.483 16.7627 63.3468 15.4194 63.3861 13.9861C63.3671 12.5824 64.5435 11.2987 65.9557 11.294C67.3882 11.2849 68.5495 12.5972 68.5251 14.0097C68.5251 14.3943 68.4546 14.7357 68.3174 15.0653L68.3095 15.0653ZM95.9216 8.49224C95.4519 7.89547 94.7793 7.58849 93.9755 7.42874C94.4347 7.1462 94.772 6.80084 94.9915 6.39666C95.6067 5.30194 95.3931 3.25269 94.454 2.48801C94.1325 2.18978 93.7246 1.97393 93.2381 1.84052V0H91.4411V1.66784H90.2994V0H88.5028V1.66784H87.0946V14.002H88.5028V15.7523H90.2994V14.002H91.4411V15.7523H93.2381V13.9353C93.5087 13.8961 93.7677 13.845 94.0109 13.7705C96.2837 13.2384 97.2066 10.3651 95.9216 8.49224ZM92.6771 5.19972C92.6771 6.10624 92.1081 6.55755 90.9666 6.55755H90.2957V3.83799H90.9666C92.1081 3.83799 92.6771 4.28929 92.6771 5.19581V5.19972ZM92.732 11.2039C92.3366 11.5041 91.0488 11.5372 90.2957 11.514V8.89646C91.0507 8.87376 92.3348 8.90589 92.732 9.2065C93.4302 9.57142 93.4343 10.839 92.732 11.2039Z" fill="#AFB5BC"/>
</svg>
