<svg width="136" height="14" viewBox="0 0 136 14" fill="none" xmlns="http://www.w3.org/2000/svg">
<path d="M0 0.04C0.171297 0.715125 0.520169 1.33139 1.00998 1.82408C1.49978 2.31677 2.11245 2.6677 2.78363 2.84H7.15789L7.35672 2.88V13.92H10.0608V2.92L10.3392 2.8H14.7134C15.3828 2.62384 15.9934 2.27162 16.4826 1.77954C16.9718 1.28745 17.3219 0.673244 17.4971 0L0 0V0.04ZM94.8819 0.04H92.1778V13.96H104.585C105.173 13.7365 105.697 13.3718 106.113 12.8977C106.529 12.4237 106.823 11.8546 106.971 11.24H94.9216V0L94.8819 0.04ZM74.0842 2.76C75.5158 2.36 76.7088 1.24 77.0269 0L61.876 0.04V8.28H74.2433V11.16H64.5403C63.7995 11.3539 63.1081 11.7037 62.5117 12.1864C61.9153 12.6691 61.4275 13.2736 61.0807 13.96H76.9474V5.56H64.5403V2.76H74.0842ZM120.292 13.96H122.957V8.36H132.739V13.96H135.403V5.56H120.292V13.96ZM33.9205 2.8H44.2596C44.94 2.63811 45.5632 2.29137 46.0611 1.79761C46.5589 1.30385 46.9125 0.682034 47.083 0L31.1368 0C31.3042 0.677041 31.6517 1.29543 32.1422 1.78875C32.6326 2.28206 33.2474 2.63167 33.9205 2.8ZM33.9205 8.32H44.2596C44.94 8.15811 45.5632 7.81137 46.0611 7.31761C46.5589 6.82385 46.9125 6.20203 47.083 5.52H31.1368C31.3042 6.19704 31.6517 6.81543 32.1422 7.30875C32.6326 7.80206 33.2474 8.15166 33.9205 8.32ZM33.9205 13.96H44.2596C44.94 13.7981 45.5632 13.4514 46.0611 12.9576C46.5589 12.4638 46.9125 11.842 47.083 11.16H31.1368C31.3042 11.837 31.6517 12.4554 32.1422 12.9487C32.6326 13.4421 33.2474 13.7917 33.9205 13.96ZM122.678 2.8H133.018C133.691 2.63167 134.305 2.28206 134.796 1.78875C135.286 1.29543 135.634 0.677041 135.801 0L119.895 0C120.062 0.677041 120.41 1.29543 120.9 1.78875C121.391 2.28206 122.005 2.63167 122.678 2.8Z" fill="#AFB5BC"/>
</svg>
