<svg width="44" height="51" viewBox="0 0 44 51" fill="none" xmlns="http://www.w3.org/2000/svg">
<path d="M0.339668 45.3784V50.6074H43.7309V45.3784H0.339668Z" fill="#AFB5BC"/>
<path d="M24.4092 12.2495V34.1599H29.6628V16.6684H31.7741C34.229 16.6684 35.6283 17.8345 35.6283 19.958C35.6283 22.0324 34.229 23.2476 31.7741 23.2476H31.4304V27.6665H31.995C37.6659 27.6665 40.9801 24.8188 40.9801 19.958C40.9801 15.0113 37.6537 12.2495 31.995 12.2495H24.4092ZM10.3424 12.2495L3.03889 34.1599H8.3293L13.2883 18.6691L15.7801 26.4145H12.5641L11.2752 30.8334H17.1917L18.2596 34.1599H23.6973L16.3938 12.2495H10.3424Z" fill="#AFB5BC"/>
</svg>
