<svg width="206" height="36" viewBox="0 0 206 36" fill="none" xmlns="http://www.w3.org/2000/svg">
<g clip-path="url(#clip0_2629_364)">
<path d="M11.1565 13.6957L10.4715 16.0855H6.52148L6.08004 17.5392H10.0149L9.38318 19.7768H5.38745L4.2382 23.8029H0.409912L3.30206 13.6957H11.1565ZM13.1506 23.8029H9.39079L11.5903 16.0931H15.3425L13.1506 23.8029ZM16.0427 13.6348L15.5709 15.2711H11.8187L12.2829 13.6348H16.0427ZM22.6566 23.8029H19.0567L19.3459 22.8135L19.3078 22.7831C18.9701 23.1906 18.5433 23.515 18.0603 23.7315C17.5773 23.9479 17.0511 24.0504 16.5222 24.0313C15.4415 24.0313 14.551 23.5366 14.551 22.3569C14.551 21.2761 15.3349 18.9015 15.784 17.9958C16.4461 16.6639 17.3975 15.8724 18.9425 15.8724C19.8786 15.8724 20.556 16.1996 20.8985 16.8237L21.8042 13.6348H25.564L22.6566 23.8029ZM18.8283 19.5941C18.6761 20.0355 18.4858 20.5759 18.4858 20.888C18.4858 21.2076 18.7142 21.4207 19.0947 21.4207C19.6199 21.4207 19.8177 20.789 20.0537 20.104C20.2263 19.693 20.3416 19.2602 20.3962 18.8178C20.3962 18.4905 20.1678 18.2774 19.7873 18.2774C19.2698 18.2774 19.0719 18.9167 18.8283 19.5941ZM27.8777 20.3704C27.7788 20.7129 27.6418 21.1848 27.6418 21.5273C27.6418 21.8774 27.8396 22.06 28.205 22.06C28.928 22.06 29.1183 21.6947 29.3086 21.0554H32.9542C32.2311 23.3463 29.8261 24.0313 27.657 24.0313C25.5792 24.0313 24.1331 23.5746 24.1331 21.7099C24.1331 20.477 24.7648 18.4829 25.564 17.5468C26.6752 16.2605 28.205 15.8724 29.925 15.8724C31.6603 15.8724 33.5783 16.0855 33.5783 18.2089C33.5783 18.8178 33.2967 19.8072 33.1521 20.378L27.8777 20.3704ZM29.9174 18.932C29.9783 18.7493 30.062 18.521 30.062 18.3611C30.062 18.011 29.8413 17.7751 29.4303 17.7751C28.6921 17.7751 28.5094 18.3459 28.342 18.9244L29.9174 18.932ZM39.53 13.6424L36.6226 23.8106H32.8705L35.7702 13.6424H39.53ZM41.2957 23.8106H37.5359L39.7355 16.1007H43.4877L41.2957 23.8106ZM44.1879 13.6424L43.716 15.2863H39.9638L40.4357 13.6424H44.1879ZM48.7392 14.3654L48.2293 16.1083H49.8276L49.3405 17.8055H47.7422L46.8898 20.7814C46.8365 20.9641 46.7223 21.2913 46.7223 21.5045C46.7223 22.1133 47.1638 22.1133 47.6737 22.1133H48.0999L47.6128 23.8106H44.3097C43.2061 23.8106 42.7114 23.4452 42.7114 22.6385C42.7114 22.2655 42.856 21.748 43.0082 21.1772L44.9794 14.3578L48.7392 14.3654Z" fill="#AFB5BC"/>
<path d="M54.9424 16.1085H58.7859L53.1386 24.3511C51.6621 26.505 50.9543 26.7485 48.2828 26.7485H47.301L47.6968 24.7773H48.4503C49.219 24.7773 49.7137 24.4348 49.7137 23.8107L49.6985 23.5824L49.0744 16.1085H53.0016L52.4308 21.1697L52.4536 21.1926L54.9424 16.1085ZM109.467 13.7111L106.575 23.8107H102.747L105.639 13.7111H109.467ZM113.417 16.1085L113.12 17.1284L113.151 17.1588C113.479 16.7658 113.888 16.4486 114.351 16.2292C114.813 16.0097 115.318 15.8933 115.83 15.8878C116.994 15.8878 117.862 16.3977 117.862 17.6307C117.845 18.1842 117.751 18.7326 117.58 19.2594L116.271 23.826H112.549L113.782 19.4953C113.868 19.2414 113.924 18.9783 113.95 18.7114C113.95 18.4831 113.767 18.3004 113.478 18.3004C112.938 18.3004 112.77 18.7647 112.625 19.2594L111.324 23.826H107.64L109.84 16.1161H113.417M118.646 16.1085H122.459L121.85 21.7786L121.873 21.8015L124.544 16.1085H128.35L123.737 23.8107H118.729L118.646 16.1085ZM130.587 20.3858C130.488 20.7283 130.351 21.1926 130.351 21.5351C130.351 21.8928 130.542 22.0754 130.915 22.0754C131.638 22.0754 131.82 21.7025 132.026 21.0708H135.671C134.948 23.3617 132.536 24.0467 130.367 24.0467C128.281 24.0467 126.843 23.59 126.843 21.7177C126.843 20.4848 127.474 18.4831 128.274 17.5546C129.385 16.2683 130.915 15.8802 132.642 15.8802C134.37 15.8802 136.295 16.0933 136.295 18.2167C136.295 18.8256 136.006 19.815 135.869 20.3858H130.587ZM132.627 18.9398C132.68 18.7571 132.772 18.5288 132.772 18.3765C132.772 18.0264 132.543 17.7981 132.132 17.7981C131.394 17.7981 131.211 18.3613 131.036 18.9398H132.627ZM141.874 18.4983C141.92 18.3689 141.988 18.2167 141.988 18.0721C141.988 17.7144 141.745 17.5622 141.418 17.5622C141.007 17.5622 140.573 17.8514 140.573 18.3004C140.573 19.5715 144.553 18.2319 144.553 20.6827C144.553 22.8365 142.384 24.0391 139.72 24.0391C137.589 24.0391 135.892 23.6661 135.892 22.1668C135.892 21.9232 135.945 21.6721 136.006 21.4285H139.34C139.325 21.5579 139.287 21.7482 139.287 21.8395C139.287 22.2353 139.522 22.3494 139.895 22.3494C140.314 22.3494 140.702 22.0526 140.702 21.596C140.702 20.4163 136.92 21.5198 136.92 19.1148C136.92 16.9076 139.157 15.8726 141.798 15.8726C144.097 15.8726 145.223 16.2988 145.223 17.7448C145.223 17.9884 145.185 18.2015 145.109 18.4983H141.874ZM150.817 14.3656L150.307 16.1085H151.905L151.426 17.8133H149.828L148.975 20.7816C148.922 20.9643 148.808 21.2915 148.808 21.5046C148.808 22.1135 149.249 22.1135 149.759 22.1135H150.185L149.706 23.8107H146.403C145.299 23.8107 144.804 23.4454 144.804 22.6387C144.804 22.2657 144.949 21.7482 145.101 21.1774L147.073 14.358L150.817 14.3656ZM161.587 19.4801C161.672 19.2262 161.729 18.9631 161.754 18.6962C161.754 18.4679 161.571 18.2852 161.282 18.2852C160.742 18.2852 160.574 18.7495 160.43 19.2442L159.128 23.8107H155.627L156.86 19.4801C156.946 19.2262 157.002 18.9631 157.028 18.6962C157.028 18.4679 156.845 18.2852 156.556 18.2852C156.015 18.2852 155.848 18.7495 155.703 19.2442L154.402 23.8107H150.718L152.918 16.1009H156.502L156.198 17.1207L156.228 17.1512C156.556 16.7582 156.966 16.441 157.428 16.2216C157.891 16.0021 158.396 15.8856 158.907 15.8802C159.912 15.8802 160.696 16.2607 160.917 17.1284L160.947 17.1588C161.276 16.7666 161.685 16.4499 162.148 16.2306C162.61 16.0112 163.115 15.8943 163.626 15.8878C164.791 15.8878 165.658 16.3977 165.658 17.6307C165.642 18.1842 165.547 18.7326 165.377 19.2594L164.075 23.826H160.346L161.587 19.4801ZM169.411 20.3858C169.312 20.7283 169.167 21.1926 169.167 21.5351C169.167 21.8928 169.365 22.0754 169.738 22.0754C170.461 22.0754 170.643 21.7025 170.841 21.0708H174.487C173.764 23.3617 171.351 24.0467 169.19 24.0467C167.104 24.0467 165.666 23.59 165.666 21.7177C165.666 20.4848 166.298 18.4831 167.097 17.5546C168.208 16.2683 169.738 15.8802 171.465 15.8802C173.193 15.8802 175.119 16.0933 175.119 18.2167C175.119 18.8256 174.83 19.815 174.693 20.3858H169.411ZM171.45 18.9398C171.504 18.7571 171.595 18.5288 171.595 18.3765C171.595 18.0264 171.367 17.7981 170.956 17.7981C170.217 17.7981 170.035 18.3613 169.86 18.9398H171.45ZM180.226 16.1085L179.929 17.1284L179.959 17.1588C180.287 16.7658 180.697 16.4486 181.159 16.2292C181.622 16.0097 182.126 15.8933 182.638 15.8878C183.803 15.8878 184.67 16.3977 184.67 17.6307C184.654 18.1842 184.559 18.7326 184.389 19.2594L183.087 23.826H179.358L180.591 19.4953C180.677 19.2414 180.733 18.9783 180.758 18.7114C180.758 18.4831 180.576 18.3004 180.287 18.3004C179.746 18.3004 179.571 18.7647 179.434 19.2594L178.133 23.826H174.449L176.649 16.1161H180.226M190.371 14.3656L189.861 16.1085H191.467L190.987 17.8057H189.389L188.529 20.7816C188.441 21.0141 188.385 21.2572 188.362 21.5046C188.362 22.1135 188.803 22.1135 189.313 22.1135H189.739L189.26 23.8107H185.957C184.853 23.8107 184.358 23.4454 184.358 22.6387C184.358 22.2657 184.495 21.7482 184.655 21.1774L186.626 14.358L190.371 14.3656ZM196.467 18.4983C196.505 18.3689 196.581 18.2167 196.581 18.0721C196.581 17.7144 196.338 17.5622 196.011 17.5622C195.6 17.5622 195.158 17.8514 195.158 18.3004C195.158 19.5715 199.139 18.2319 199.139 20.6827C199.139 22.8365 196.97 24.0391 194.306 24.0391C192.182 24.0391 190.478 23.6661 190.478 22.1668C190.478 21.9232 190.531 21.6721 190.592 21.4285H193.925C193.91 21.5579 193.872 21.7482 193.872 21.8395C193.872 22.2353 194.116 22.3494 194.481 22.3494C194.907 22.3494 195.288 22.0526 195.288 21.596C195.288 20.4163 191.505 21.5198 191.505 19.1148C191.505 16.9076 193.743 15.8726 196.384 15.8726C198.682 15.8726 199.816 16.2988 199.816 17.7448C199.816 17.9884 199.778 18.2015 199.702 18.4983H196.467ZM78.4373 22.2277H85.1729L87.1442 23.5063H78.1405L74.5557 34.8237L74.0991 36.0034C69.6314 34.2681 65.4987 30.2572 63.771 25.7515C61.9142 21.1781 61.9306 16.0578 63.8167 11.4963C65.5824 6.99062 69.8369 2.91878 74.3654 1.24438C77.9273 -0.232139 82.6918 -0.391968 86.4668 0.772502C90.991 2.1239 94.8444 5.12189 97.2667 9.17495C99.9305 13.6273 100.669 19.2746 99.0552 24.3511C97.9784 27.8498 95.8823 30.9476 93.035 33.2483L92.5403 32.4796L88.0575 24.96L94.9834 28.8187C95.0215 28.8187 95.0443 28.7807 95.0215 28.7426L85.9492 20.911L97.6853 22.6995C97.7233 22.6995 97.7386 22.6843 97.7386 22.6615L97.6624 22.6006L86.6038 18.7266L98.0963 15.9487C98.1343 15.9487 98.1343 15.9106 98.1191 15.8878L86.3298 16.6565L94.7703 10.3014L95.5618 9.66966C95.5771 9.63161 95.5009 9.60877 95.4781 9.64683L86.7256 14.0916L85.112 14.8984L90.8354 4.80629C90.8354 4.78345 90.8355 4.7454 90.7974 4.76823L83.3235 13.5436L84.7543 2.01308C84.7543 1.99025 84.7163 1.96742 84.6782 1.99025L81.2305 13.1935L80.2715 9.72294L78.2242 1.65537C78.2013 1.63254 78.1633 1.61731 78.1481 1.65537L78.2013 2.63718L78.97 13.6197L71.8614 4.37246C71.8462 4.35724 71.8234 4.37246 71.8082 4.38769L77.1815 14.6244L67.0133 9.07601C66.9981 9.07601 66.96 9.09884 66.96 9.11406L75.0656 15.766L75.9942 16.5347L64.456 15.317C64.418 15.3322 64.418 15.3702 64.456 15.3931L75.6365 18.6658L64.5169 21.9232C64.5087 21.9357 64.5044 21.9502 64.5044 21.9651C64.5044 21.98 64.5087 21.9945 64.5169 22.007L75.9942 20.6674L66.9828 28.324C66.9676 28.324 66.9448 28.3621 66.9828 28.3849L67.1046 28.3468L74.3274 24.5642L76.017 21.87H77.9426L76.603 20.9262L81.0706 13.7643L78.4373 22.2277ZM200.768 18.582C200.766 17.9028 201.035 17.251 201.515 16.77C201.995 16.289 202.646 16.0182 203.325 16.0172C204.004 16.0162 204.656 16.285 205.137 16.7646C205.618 17.2442 205.889 17.8952 205.89 18.5744C205.891 19.2537 205.622 19.9055 205.142 20.3865C204.663 20.8675 204.012 21.1383 203.332 21.1393C202.996 21.1398 202.663 21.0741 202.352 20.9458C202.041 20.8176 201.758 20.6293 201.52 20.3919C201.039 19.9123 200.769 19.2613 200.768 18.582ZM203.332 20.6827C203.877 20.6827 204.4 20.4661 204.785 20.0808C205.171 19.6954 205.387 19.1727 205.387 18.6277C205.387 18.0827 205.171 17.56 204.785 17.1746C204.4 16.7893 203.877 16.5728 203.332 16.5728C202.787 16.5728 202.265 16.7893 201.879 17.1746C201.494 17.56 201.277 18.0827 201.277 18.6277C201.277 19.1727 201.494 19.6954 201.879 20.0808C202.265 20.4661 202.787 20.6827 203.332 20.6827ZM202.282 17.2577H203.652C204.375 17.2577 204.512 17.7905 204.512 18.0264C204.512 18.3233 204.36 18.582 204.093 18.6734C204.314 18.7723 204.436 18.856 204.436 19.366C204.436 19.7617 204.436 19.8607 204.558 19.9063V19.9748H203.926C203.878 19.7964 203.857 19.6116 203.865 19.4268C203.865 19.0615 203.842 18.9169 203.416 18.9169H202.83V19.9824H202.274L202.282 17.2577ZM203.5 18.4527C203.797 18.4527 203.941 18.3537 203.941 18.0873C203.941 17.9351 203.88 17.7296 203.545 17.7296H202.838V18.4527H203.5Z" fill="#AFB5BC"/>
</g>
<defs>
<clipPath id="clip0_2629_364">
<rect width="205.479" height="36" fill="white" transform="translate(0.410156)"/>
</clipPath>
</defs>
</svg>
