<svg width="47" height="46" viewBox="0 0 47 46" fill="none" xmlns="http://www.w3.org/2000/svg">
<g clip-path="url(#clip0_2629_376)">
<path d="M23.5506 45.9982L30.0139 9.65277C36.1694 9.65277 38.128 10.3243 38.4078 13.0943C38.4078 13.0943 42.5487 11.5554 44.6192 8.42168C36.4772 4.64447 28.3072 4.47661 28.3072 4.47661L23.5506 10.2963L18.7662 4.47656C18.7662 4.47656 10.5961 4.64447 2.4541 8.42168C4.52457 11.5554 8.66554 13.0943 8.66554 13.0943C8.94535 10.3243 10.8759 9.65281 17.0035 9.65281L23.5506 45.9982H23.5506Z" fill="#AFB5BC"/>
<path d="M23.5216 2.79795C30.0968 2.74198 37.6233 3.80519 45.3176 7.16276C46.3529 5.31609 46.6047 4.50469 46.6047 4.50469C38.2108 1.17516 30.3206 0.0279404 23.5216 0C16.7505 0.0279853 8.8603 1.17511 0.438477 4.50469C0.438477 4.50469 0.802196 5.51198 1.72553 7.16276C9.44786 3.80519 16.9743 2.74198 23.5216 2.79795Z" fill="#AFB5BC"/>
</g>
<defs>
<clipPath id="clip0_2629_376">
<rect width="46.1662" height="46" fill="white" transform="translate(0.438477)"/>
</clipPath>
</defs>
</svg>
