<svg width="134" height="20" viewBox="0 0 134 20" fill="none" xmlns="http://www.w3.org/2000/svg">
<g clip-path="url(#clip0_2629_568)">
<path d="M32.5152 8.34853L32.2868 9.47159H32.2297C31.9442 8.84344 31.1447 7.96783 29.3745 7.96783C26.5192 7.96783 23.6069 10.1759 22.9597 13.6593C22.4077 16.7049 23.8734 19.3888 27.2616 19.3888C28.4989 19.3888 29.9265 18.9129 30.6688 17.866H30.7259L30.5166 19.0081H33.6764L35.656 8.34853H32.5152ZM31.4873 13.6593C31.278 14.7062 30.2881 16.4003 28.3085 16.4003C26.367 16.4003 25.9672 14.6872 26.1385 13.6973C26.367 12.4791 27.4519 10.9563 29.2983 10.9563C31.1066 10.9754 31.7158 12.403 31.4873 13.6593Z" fill="#AFB5BC"/>
<path d="M37.4469 8.34853H40.4164L40.207 9.47159H40.2641C40.6448 8.95765 41.3871 7.96783 43.2145 7.96783L42.6244 11.2038C41.1207 11.2228 40.0357 11.5274 39.7501 13.1644L38.6652 19.0081H35.4673L37.4469 8.34853Z" fill="#AFB5BC"/>
<path d="M45.3641 4.18073H48.5619L47.0582 12.2135H47.1153L50.8081 8.34937H54.5579L49.685 13.032L52.4831 19.0089H48.8665L46.8107 13.8695H46.7536L45.8209 19.0089H42.604L45.3641 4.18073Z" fill="#AFB5BC"/>
<path d="M59.6776 7.96783C56.4416 7.96783 53.5674 10.7469 53.0344 13.7164C52.4443 16.8762 54.5762 19.3697 57.6408 19.3697C58.7258 19.3697 59.8489 19.0462 60.8387 18.399C61.8476 17.7899 62.7803 16.8762 63.5036 15.677H60.2486C59.7156 16.229 59.1065 16.6668 58.1167 16.6668C56.8794 16.6668 55.9467 15.9244 56.0038 14.6491H63.9985C64.0937 14.4016 64.1508 14.2113 64.2269 13.8116C64.836 10.5566 62.9325 7.96783 59.6776 7.96783ZM56.4416 12.4981C56.6891 11.87 57.5647 10.6708 59.2207 10.6708C60.8768 10.6708 61.2765 11.87 61.2765 12.4981H56.4416Z" fill="#AFB5BC"/>
<path d="M18.7344 4.18073L13.1001 12.6322H13.062V4.18073H10.34L0.365738 19.0089H4.22983L9.82609 10.5574H9.8832V19.0089H12.6242L18.2205 10.5574H18.2776V19.0089H21.4755V4.18073H18.7344Z" fill="#AFB5BC"/>
<path d="M72.3177 8.35029H70.3L70.8901 5.19049H68.092L67.8636 6.40873C67.6161 7.79827 66.7405 8.21704 65.5794 8.35029H65.5603L65.0845 10.7677H66.6644L65.1416 19.0098H68.3204L69.8432 10.7677H71.8799L72.3177 8.35029Z" fill="#AFB5BC"/>
<path d="M121.657 14.9744C120.61 17.3918 118.116 19.3714 115.242 19.3714C112.006 19.3714 110.008 16.8207 110.579 13.6419C111.169 10.5202 114.062 7.96951 117.26 7.96951C120.077 7.96951 122.019 9.85397 122.076 12.4618H118.84C118.63 11.7194 118.154 10.958 116.803 10.958C115.299 10.8819 114.062 12.1191 113.776 13.661C113.491 15.2218 114.29 16.3829 115.813 16.3829C117.127 16.3829 117.926 15.6215 118.383 14.9553H121.657V14.9744ZM95.2364 0.393616L89.0311 4.18156H90.7823L85.167 12.6331H85.1099V4.18156H82.3688L76.7535 12.6331H76.6964V4.18156H73.4986V19.0098H76.2777L81.893 10.5583H81.9501V19.0098H84.6911L94.6273 4.18156H96.2072L95.2364 0.393616ZM101.29 19.0098H98.1297L98.3391 17.8677H98.282C97.5397 18.9146 96.112 19.3905 94.8748 19.3905C91.4866 19.3905 90.0209 16.7256 90.5729 13.661C91.201 10.1776 94.1324 7.96951 96.9876 7.96951C98.7389 7.96951 99.5574 8.82608 99.8429 9.47327H99.9L100.128 8.35021H103.288L101.29 19.0098ZM95.9217 16.421C97.9013 16.421 98.8911 14.7079 99.1005 13.68C99.3289 12.4046 98.7198 10.977 96.9115 10.977C95.0842 10.977 93.9801 12.4998 93.7517 13.7181C93.5804 14.7079 93.9801 16.421 95.9217 16.421ZM111.245 8.35021H109.246L109.836 5.19041H107.038L106.81 6.40865C106.562 7.7982 105.687 8.21697 104.525 8.35021H104.487L104.031 10.7676H105.61L104.088 19.0098H107.266L108.789 10.7676H110.826L111.245 8.35021ZM124.664 4.18156H127.843L126.872 9.47327H126.93C127.615 8.48345 128.529 7.96951 129.937 7.96951C130.946 7.96951 132.107 8.35021 132.64 9.16871C133.325 10.2156 133.249 11.1483 132.888 13.0518L131.803 19.0098H128.624L129.69 13.2041C129.785 12.6902 130.089 10.958 128.395 10.958C126.606 10.958 126.301 12.5569 126.206 13.0899L125.121 18.9907H121.942L124.664 4.18156Z" fill="#AFB5B7" fill-opacity="0.972549"/>
</g>
<defs>
<clipPath id="clip0_2629_568">
<rect width="132.769" height="18.9968" fill="white" transform="translate(0.365738 0.393616)"/>
</clipPath>
</defs>
</svg>
