<svg width="102" height="24" viewBox="0 0 102 24" fill="none" xmlns="http://www.w3.org/2000/svg">
<g clip-path="url(#clip0_108_13)">
<path d="M55.9559 1.06665H54.0156V22.4H55.9559V1.06665Z" fill="#AFB5BC"/>
<path d="M80.7222 1.06665H86.9136V2.84318H84.8112V22.4H82.8587V2.84318H80.7222V1.06665Z" fill="#AFB5BC"/>
<path d="M52.2481 1.06665V22.4H50.2161L47.3094 9.44158V22.4H45.4033V1.06665H47.1569L50.342 15.1968V1.06665H52.2481Z" fill="#AFB5BC"/>
<path d="M10.0837 1.06665V22.4H8.17653V4.11358L5.82293 22.4H4.23573L1.92 4.11358V22.4H0V1.06665H3.24746L5.1072 13.9259L6.8608 1.06665H10.0837Z" fill="#AFB5BC"/>
<path d="M33.6937 22.3913C35.203 20.346 36.0937 17.8175 36.0937 15.0804C36.0937 8.26495 30.57 2.74121 23.7556 2.74121C16.9417 2.74121 11.418 8.26601 11.418 15.0804C11.418 17.8164 12.3086 20.346 13.8148 22.3913H16.3806C14.5182 20.5135 13.3673 17.9332 13.3673 15.0804C13.3673 9.34175 18.0196 4.68948 23.7566 4.68948C29.4948 4.68948 34.1476 9.34281 34.1476 15.0804C34.1476 17.9311 32.9977 20.5145 31.139 22.3913H33.6937Z" fill="#AFB5BC"/>
<path d="M93.9366 22.4H92.0395L91.5377 17.5936H88.6987L88.2358 22.4H86.2998L88.4886 1.06665H91.4475L93.9366 22.4ZM91.3606 15.6677L90.0699 3.90398L88.8795 15.6677H91.3606Z" fill="#AFB5BC"/>
<path d="M70.7641 19.7174C70.7641 20.6769 70.1982 21.1681 69.5523 21.1681C68.9065 21.1681 68.3411 20.6769 68.3411 19.7174V3.61717C68.3411 2.65663 68.9059 2.1649 69.5523 2.1649C70.1987 2.1649 70.7641 2.65717 70.7641 3.61717L70.7603 4.38677V8.40543H72.7097V5.30783L72.7038 4.41237C72.691 1.75637 71.6515 0.490234 69.4841 0.490234C67.5529 0.490234 66.2969 1.86037 66.2969 3.9617L66.299 4.74463V18.0865L66.2969 18.9505C66.2969 21.6822 67.3561 23.0145 69.5294 23.0145C71.6979 23.0145 72.7097 21.7052 72.7097 18.8934V11.1393H69.1283V13.006H70.7609V19.0108L70.7641 19.7174Z" fill="#AFB5BC"/>
<path d="M78.7574 19.2085V13.6634L74.3131 10.3461V4.15144C74.3131 1.71677 75.4107 0.471436 77.5558 0.471436C79.735 0.471436 80.7238 1.70824 80.7409 4.44423L80.7446 5.29437V8.43677H78.7585V4.2213L78.7526 3.61704C78.7526 2.65597 78.1926 2.16477 77.5531 2.16477C76.9142 2.16477 76.3537 2.65704 76.3537 3.61704V4.2405V9.42077L80.743 12.736V19.1456C80.743 21.6533 79.6278 22.9957 77.5414 22.9957C75.431 22.9957 74.3313 21.729 74.3179 19.2842L74.3115 18.44V14.2682H76.3505V19.1552V19.7194C76.3505 20.6784 76.9121 21.1701 77.5505 21.1701C78.191 21.1701 78.751 20.6784 78.751 19.7194L78.7574 19.2085Z" fill="#AFB5BC"/>
<path d="M44.2307 22.3989H42.2845C42.0195 21.6811 41.9027 21.0053 41.8893 20.104L41.8749 19.0123L41.8664 18.4603V14.2944C41.8664 13.4213 41.3352 13.0235 40.7203 13.0235H39.3357V22.4H37.4307V1.06665H39.9144C42.7053 1.06665 43.7811 2.08692 43.7811 4.81598V8.82025C43.7811 10.6165 43.4813 11.368 42.0749 11.8864C42.0952 11.8939 42.1144 11.8997 42.1325 11.9072C43.46 12.2928 43.7576 12.7968 43.7731 14.4811L43.78 15.2528V19.1488C43.7816 20.5685 43.8867 21.3376 44.2307 22.3989ZM39.3352 2.74505V11.1936H40.02C41.2765 11.1936 41.8669 10.6165 41.8669 9.39198V5.04478C41.8669 3.29225 41.4605 2.74452 40.164 2.74452L39.3352 2.74505ZM101.235 22.3989H99.2888C99.0237 21.6811 98.9075 21.0053 98.8963 20.104L98.8797 19.0123L98.8728 18.4603V14.2944C98.8728 13.4213 98.3405 13.0235 97.7267 13.0235H96.3416V22.4H94.4355V1.06665H96.9213C99.7117 1.06665 100.785 2.08692 100.785 4.81598V8.82025C100.785 10.6165 100.486 11.368 99.0808 11.8864C99.1005 11.8939 99.1197 11.8997 99.1389 11.9072C100.466 12.2928 100.764 12.7968 100.779 14.4811L100.785 15.2528V19.1488C100.786 20.5685 100.891 21.3376 101.235 22.3989ZM96.3405 2.74505V11.1936H97.0243C98.2824 11.1936 98.8728 10.6165 98.8728 9.39198V5.04478C98.8728 3.29225 98.4675 2.74452 97.1693 2.74452L96.3405 2.74505Z" fill="#AFB5BC"/>
<path d="M64.5445 1.06665V22.4H62.5125L59.6048 9.44158V22.4H57.6992V1.06665H59.4517L62.6379 15.1968V1.06665H64.5445Z" fill="#AFB5BC"/>
</g>
<defs>
<clipPath id="clip0_108_13">
<rect width="101.333" height="24" fill="white"/>
</clipPath>
</defs>
</svg>
