<svg width="100" height="22" viewBox="0 0 100 22" fill="none" xmlns="http://www.w3.org/2000/svg">
<g clip-path="url(#clip0_2629_361)">
<path d="M39.1216 16.0828V16.2172H34.0819V14.2551V9.0978C34.0819 8.79542 34.1826 7.45486 32.6539 7.4683C32.6539 7.4683 31.0849 7.49518 31.1219 9.38339V14.4869C31.1655 16.056 32.1029 16.0896 32.1063 16.0896V16.2206H24.0965C23.9856 16.2206 20.4377 16.3483 20.2966 13.0489V11.2649C20.2966 11.2649 18.8922 11.5773 18.452 11.9133C18.2969 12.0127 18.1634 12.1424 18.0596 12.2947C17.9559 12.4469 17.8839 12.6186 17.8482 12.7993C17.8124 12.9801 17.8135 13.1662 17.8515 13.3465C17.8894 13.5268 17.9634 13.6976 18.069 13.8486C18.069 13.8486 18.62 14.8162 20.4041 14.4567L19.5339 16.2239H17.817C17.817 16.2239 13.8088 16.3046 13.3384 13.3614C13.3384 13.3412 12.9789 11.0499 15.7138 10.1225C16.6028 9.84132 17.5113 9.62571 18.4319 9.47746C18.452 9.47746 19.9539 9.26243 20.095 8.44936C20.1298 8.2846 20.1122 8.11307 20.0446 7.95883C20.0681 8.02267 19.3726 6.1647 15.0385 8.04283C15.0553 8.06299 15.9288 5.3281 15.9288 5.3281C15.9288 5.3281 20.0009 4.13201 22.8433 5.87575C22.8231 5.89591 24.3283 6.69218 24.3082 9.20195L24.3519 12.6794C24.3519 12.7298 24.3519 14.4567 26.0318 14.5508C26.0318 14.5508 26.6365 14.5508 26.9792 14.5508V6.96769C26.9792 6.92401 27.0733 5.35162 26.0217 5.28779V5.14332L31.1051 4.94509V6.23189C31.9283 5.43471 33.0173 4.97036 34.1625 4.92828C34.1625 4.92828 38.117 4.79053 38.1103 8.66438V14.2417C38.08 16.0526 39.1182 16.0761 39.1182 16.0761L39.1216 16.0828ZM0 0.190958V0.0229677H5.51344L9.47129 11.5807L12.3977 2.30764C12.3977 2.30764 12.9957 0.748688 11.3897 0.130484V-0.00390625H15.8079L10.2306 16.3415L7.90898 15.4445C7.90898 15.4445 6.02749 14.8901 5.02626 12.0679L1.39432 2.03885C1.39432 2.03885 0.934026 0.419425 0 0.190958ZM98.2978 14.2484C98.2709 16.187 99.3057 16.0828 99.3057 16.0828V16.2206H94.1115V9.10116C94.1115 9.16836 94.1115 7.32046 92.4921 7.3003C92.4719 7.32046 90.5938 7.11888 90.5938 10.6332C90.5736 10.6534 90.5736 14.7423 93.752 14.2181L92.6365 16.2105C91.8006 16.4417 90.9165 16.4335 90.085 16.187C89.2534 15.9405 88.5077 15.4656 87.9328 14.8162C87.9328 14.8162 86.3066 13.4051 86.3066 10.6332C86.3268 10.6534 86.2529 8.02603 87.9328 6.35956C87.916 6.41332 90.5232 3.46677 94.1182 5.74136V2.04558C94.1182 2.00526 94.2089 0.429511 93.1573 0.365674V0.224558L98.2978 0.0263308V14.2484ZM82.8427 6.40996C83.1365 5.8227 83.6251 5.35563 84.225 5.08847C84.8249 4.82131 85.4989 4.77064 86.1319 4.94509V7.71693C82.7016 7.14912 82.8461 9.7328 82.8427 9.716V14.2417C82.8192 16.1601 83.8036 16.0862 83.8506 16.0828V16.2172H75.7535C75.646 16.2172 72.098 16.3449 71.9603 13.0456V11.2615C71.9603 11.2615 70.5492 11.574 70.1124 11.91C69.9575 12.0096 69.8243 12.1395 69.7209 12.2919C69.6174 12.4443 69.5458 12.616 69.5104 12.7967C69.4749 12.9775 69.4763 13.1635 69.5145 13.3437C69.5528 13.5238 69.627 13.6944 69.7327 13.8452C69.7327 13.8452 70.2804 14.8128 72.0644 14.4533L71.1942 16.2239H69.474C69.474 16.2239 65.4691 16.3046 64.9988 13.358C64.9988 13.3379 64.6393 11.0465 67.3742 10.1225C68.2619 9.84074 69.1693 9.62512 70.0889 9.47746C70.109 9.47746 71.6109 9.26243 71.752 8.44936C71.788 8.28466 71.7703 8.11277 71.7016 7.95883C71.7217 8.02603 71.0296 6.1647 66.6921 8.04283C66.7156 8.06299 67.5858 5.3281 67.5858 5.3281C67.5858 5.3281 71.6613 4.13201 74.5037 5.87575C74.4835 5.89591 75.9853 6.69555 75.9652 9.1986L76.0089 12.6659C76.0089 12.7163 76.0089 14.4433 77.6888 14.5373C77.6888 14.5373 78.3607 14.5373 78.6967 14.5373V6.96769C78.6967 6.92401 78.7874 5.34826 77.7358 5.28779V5.14667L82.8192 4.94844V6.40996H82.8427Z" fill="#AFB5BC"/>
<path d="M44.9962 11.0753C46.5518 11.0753 46.3704 8.91496 46.3704 8.88136C46.3368 7.02675 44.9996 7.0805 44.9996 7.0805C43.5246 7.0805 43.5851 8.93176 43.5683 8.91496C43.4037 10.9712 44.8854 11.1022 44.9962 11.0753ZM56.6077 4.93359V12.1572C56.6077 12.1572 56.5708 13.7228 57.9987 13.7094C57.9987 13.6825 59.5072 13.9379 59.5643 11.7842V6.96963C59.5643 6.92596 59.6551 5.35357 58.6034 5.28973V5.14526L63.6868 4.94704V14.2436C63.6868 14.2839 63.5927 16.031 64.6948 16.0814V16.2125H59.561V14.8988C58.7376 15.7174 57.6369 16.197 56.4767 16.2427C56.4767 16.2427 52.4449 16.3838 52.4449 12.5032C52.4449 12.473 52.4449 8.37068 52.4449 6.973H49.3472C49.4455 7.06572 49.5354 7.1669 49.616 7.27538C51.3563 9.50293 49.6664 11.3542 49.6496 11.371C48.5341 12.9333 44.9458 13.3869 44.9458 13.3869L44.7207 13.4137C43.5011 13.4574 43.8875 14.0857 43.8942 14.0857C44.0689 14.499 44.9492 14.4217 44.9492 14.4217H47.0121C51.185 14.4217 51.6318 17.1431 51.6486 17.1431C52.3206 20.98 48.4736 22.1223 44.6166 22.0216C40.7898 22.0451 39.3753 20.382 39.3887 20.3954C38.4177 19.2699 38.9318 17.7076 40.652 17.2238C41.5664 17.0251 42.5128 17.0251 43.4272 17.2238C42.2849 17.385 42.4865 18.5475 42.4898 18.5677C42.8728 19.9418 44.8417 19.9553 44.9458 19.9586C47.4422 19.831 47.5127 18.6147 47.5127 18.02C47.5021 17.7758 47.4382 17.5368 47.3256 17.3197C47.2131 17.1027 47.0545 16.9129 46.8609 16.7635C45.9571 16.0915 44.2436 16.3099 43.0543 16.2561C41.3744 16.1621 40.951 14.5762 40.8704 14.1126C40.7898 13.6489 40.8704 13.4406 41.1627 13.2525C41.6667 12.9568 42.8124 12.8258 42.6813 12.8291C41.7697 12.4983 40.9706 11.9158 40.3765 11.1492C39.8584 10.4639 39.6039 9.61524 39.6594 8.75794C39.7149 7.90065 40.0768 7.09187 40.6789 6.47911C41.9019 5.29981 43.4541 5.03774 44.8383 4.97055H56.6144L56.6077 4.93359Z" fill="#AFB5BC"/>
</g>
<defs>
<clipPath id="clip0_2629_361">
<rect width="99.3024" height="22" fill="white"/>
</clipPath>
</defs>
</svg>
