<svg width="173" height="32" viewBox="0 0 173 32" fill="none" xmlns="http://www.w3.org/2000/svg">
<path d="M45.936 15.88L48.272 15.464L50.352 19.32C50.448 19.4907 50.5493 19.624 50.656 19.72C50.7627 19.8053 50.88 19.864 51.008 19.896C51.1467 19.928 51.296 19.944 51.456 19.944H51.6V21H48.432L45.936 15.88ZM44.416 19.784C44.416 19.816 44.448 19.8427 44.512 19.864C44.576 19.8747 44.656 19.8907 44.752 19.912C44.8587 19.9227 44.976 19.9333 45.104 19.944C45.232 19.944 45.36 19.944 45.488 19.944H45.696V21H40.656V19.944H40.816C41.136 19.944 41.3973 19.9067 41.6 19.832C41.8133 19.7573 41.92 19.6027 41.92 19.368V11.272C41.92 11.0373 41.8133 10.8827 41.6 10.808C41.3973 10.7333 41.136 10.696 40.816 10.696H40.656V9.64L46.304 9.64C47.2 9.64 47.9573 9.768 48.576 10.024C49.2053 10.28 49.6853 10.648 50.016 11.128C50.3467 11.5973 50.512 12.168 50.512 12.84C50.512 13.4267 50.3787 13.9493 50.112 14.408C49.8453 14.856 49.456 15.224 48.944 15.512C48.4427 15.8 47.824 15.992 47.088 16.088C47.0027 16.1307 46.9173 16.168 46.832 16.2C46.7467 16.2213 46.656 16.2427 46.56 16.264C46.4747 16.2853 46.384 16.3013 46.288 16.312H44.096V15.192H45.872C46.3413 15.192 46.7253 15.1013 47.024 14.92C47.3333 14.728 47.5573 14.4613 47.696 14.12C47.8453 13.7787 47.92 13.3733 47.92 12.904C47.92 12.456 47.8453 12.0773 47.696 11.768C47.5573 11.448 47.3387 11.208 47.04 11.048C46.752 10.8773 46.3893 10.792 45.952 10.792H44.416V19.784ZM61.5104 16.776C61.5104 17.6613 61.3237 18.4347 60.9504 19.096C60.577 19.7573 60.049 20.2693 59.3664 20.632C58.6837 20.9947 57.873 21.176 56.9344 21.176C56.0064 21.176 55.1957 20.9947 54.5024 20.632C53.8197 20.2693 53.2917 19.7573 52.9184 19.096C52.545 18.4347 52.3584 17.6613 52.3584 16.776C52.3584 16.104 52.465 15.5013 52.6784 14.968C52.8917 14.424 53.1957 13.96 53.5904 13.576C53.9957 13.1813 54.4757 12.8827 55.0304 12.68C55.5957 12.4667 56.2304 12.36 56.9344 12.36C57.6384 12.36 58.2677 12.4667 58.8224 12.68C59.3877 12.8827 59.8677 13.1813 60.2624 13.576C60.6677 13.96 60.977 14.424 61.1904 14.968C61.4037 15.5013 61.5104 16.104 61.5104 16.776ZM54.8224 16.776C54.8224 17.4907 54.897 18.088 55.0464 18.568C55.2064 19.048 55.441 19.4107 55.7504 19.656C56.0704 19.8907 56.465 20.008 56.9344 20.008C57.4144 20.008 57.809 19.8907 58.1184 19.656C58.4277 19.4107 58.6624 19.048 58.8224 18.568C58.9824 18.088 59.0624 17.4907 59.0624 16.776C59.0624 16.0613 58.9824 15.4693 58.8224 15C58.6624 14.52 58.4277 14.1627 58.1184 13.928C57.809 13.6827 57.4144 13.56 56.9344 13.56C56.465 13.56 56.0704 13.6827 55.7504 13.928C55.441 14.1627 55.2064 14.52 55.0464 15C54.897 15.4693 54.8224 16.0613 54.8224 16.776ZM68.509 21.176C68.0077 21.176 67.565 21.1013 67.181 20.952C66.8077 20.792 66.477 20.568 66.189 20.28C65.9117 19.9813 65.6503 19.6133 65.405 19.176L65.437 17.72C65.7037 18.168 65.9597 18.552 66.205 18.872C66.461 19.192 66.7277 19.4373 67.005 19.608C67.293 19.768 67.613 19.848 67.965 19.848C68.2957 19.848 68.5837 19.7787 68.829 19.64C69.0743 19.5013 69.277 19.2987 69.437 19.032C69.6077 18.7547 69.7303 18.424 69.805 18.04C69.8903 17.6453 69.933 17.1973 69.933 16.696C69.933 16.2053 69.8957 15.7787 69.821 15.416C69.7463 15.0427 69.6343 14.728 69.485 14.472C69.3357 14.216 69.1437 14.024 68.909 13.896C68.6743 13.768 68.397 13.704 68.077 13.704C67.725 13.704 67.3997 13.784 67.101 13.944C66.813 14.0933 66.5357 14.3333 66.269 14.664C66.0023 14.9947 65.725 15.4213 65.437 15.944L65.421 14.68C65.7197 14.168 66.0183 13.7413 66.317 13.4C66.6263 13.0587 66.9677 12.8027 67.341 12.632C67.7143 12.4507 68.1517 12.36 68.653 12.36C69.4317 12.36 70.0983 12.5413 70.653 12.904C71.2077 13.2667 71.6343 13.7733 71.933 14.424C72.2317 15.0747 72.381 15.832 72.381 16.696C72.381 17.56 72.221 18.3333 71.901 19.016C71.5917 19.688 71.1437 20.216 70.557 20.6C69.981 20.984 69.2983 21.176 68.509 21.176ZM63.533 10.648C63.533 10.52 63.501 10.424 63.437 10.36C63.373 10.2853 63.2717 10.2267 63.133 10.184C62.9943 10.1307 62.8183 10.088 62.605 10.056L62.461 10.024V9H65.917V19.08L65.709 19.192L65.005 21.128H63.533V10.648ZM76.008 16.824C76.008 17.368 76.0613 17.8427 76.168 18.248C76.2747 18.6427 76.4347 18.968 76.648 19.224C76.8613 19.4693 77.1227 19.656 77.432 19.784C77.7413 19.9013 78.0933 19.96 78.488 19.96C78.8933 19.96 79.2453 19.8907 79.544 19.752C79.8427 19.6027 80.0987 19.416 80.312 19.192C80.536 18.9573 80.728 18.712 80.888 18.456L81.848 19.16C81.6347 19.5653 81.3573 19.9227 81.016 20.232C80.6853 20.5307 80.2853 20.7653 79.816 20.936C79.3573 21.096 78.824 21.176 78.216 21.176C77.3093 21.176 76.5093 21.0053 75.816 20.664C75.1227 20.3227 74.584 19.8267 74.2 19.176C73.816 18.5253 73.624 17.736 73.624 16.808C73.624 15.9227 73.8053 15.1493 74.168 14.488C74.5413 13.816 75.0533 13.2933 75.704 12.92C76.3547 12.5467 77.096 12.36 77.928 12.36C78.6 12.36 79.1813 12.4613 79.672 12.664C80.1733 12.8667 80.5893 13.1707 80.92 13.576C81.2507 13.9813 81.5013 14.488 81.672 15.096C81.8427 15.704 81.928 16.4187 81.928 17.24H75.544V16.168H80.056L79.672 16.584C79.6613 16.008 79.6187 15.5227 79.544 15.128C79.48 14.7333 79.3787 14.424 79.24 14.2C79.112 13.9653 78.9413 13.7947 78.728 13.688C78.5147 13.5813 78.2587 13.528 77.96 13.528C77.6613 13.528 77.3947 13.592 77.16 13.72C76.9253 13.848 76.7173 14.0453 76.536 14.312C76.3653 14.568 76.232 14.904 76.136 15.32C76.0507 15.736 76.008 16.2373 76.008 16.824ZM89.524 12.456V14.648C89.4387 14.6267 89.332 14.6107 89.204 14.6C89.0867 14.5787 88.9587 14.5627 88.82 14.552C88.692 14.5413 88.564 14.536 88.436 14.536C88.18 14.536 87.9453 14.5627 87.732 14.616C87.5187 14.6587 87.3213 14.728 87.14 14.824C86.9587 14.92 86.7933 15.048 86.644 15.208C86.4947 15.368 86.34 15.5653 86.18 15.8L86.164 15.032C86.388 14.4773 86.6227 14.0027 86.868 13.608C87.1133 13.2133 87.396 12.9093 87.716 12.696C88.0467 12.4827 88.4413 12.376 88.9 12.376C89.0387 12.376 89.1613 12.3867 89.268 12.408C89.3853 12.4187 89.4707 12.4347 89.524 12.456ZM83.044 21V20.056H83.076C83.396 20.056 83.6467 20.008 83.828 19.912C84.02 19.8053 84.116 19.6133 84.116 19.336V14.184C84.116 14.056 84.084 13.96 84.02 13.896C83.956 13.8213 83.8547 13.7627 83.716 13.72C83.5773 13.6773 83.4013 13.6347 83.188 13.592L83.044 13.56V12.536H86.228L86.372 14.952L86.5 14.856V19.752C86.5 19.8373 86.5587 19.9067 86.676 19.96C86.804 20.0027 86.9587 20.0293 87.14 20.04C87.3213 20.0507 87.4867 20.056 87.636 20.056H87.86V21H83.044ZM90.3163 13.672V12.616H90.4283C90.7163 12.616 90.9616 12.5947 91.1643 12.552C91.3776 12.5093 91.5376 12.424 91.6443 12.296C91.7509 12.168 91.8043 11.9813 91.8043 11.736L93.2763 12.536H96.5243V13.672L90.3163 13.672ZM94.0763 18.248C94.0763 18.664 94.1296 18.9947 94.2363 19.24C94.3429 19.4747 94.4976 19.64 94.7003 19.736C94.9136 19.832 95.1643 19.88 95.4523 19.88C95.6976 19.88 95.9216 19.8587 96.1243 19.816C96.3376 19.7733 96.4869 19.7413 96.5723 19.72V20.92C96.4763 20.9627 96.3376 21 96.1563 21.032C95.9856 21.0747 95.7883 21.1067 95.5643 21.128C95.3509 21.16 95.1216 21.176 94.8763 21.176C94.2896 21.176 93.7563 21.096 93.2763 20.936C92.7963 20.7653 92.4123 20.4773 92.1243 20.072C91.8469 19.656 91.7083 19.08 91.7083 18.344V12.808L91.8043 12.68V10.152H94.0763V18.248ZM107.285 20.44L107.045 20.04L110.229 10.792C110.229 10.7173 110.159 10.6587 110.021 10.616C109.893 10.5733 109.722 10.5413 109.509 10.52C109.306 10.488 109.087 10.472 108.853 10.472H108.613V9.64H112.437V10.472H112.341C112.031 10.472 111.781 10.52 111.589 10.616C111.407 10.712 111.258 10.9307 111.141 11.272L107.749 21.064H106.069L102.565 11.112C102.469 10.824 102.325 10.648 102.133 10.584C101.951 10.5093 101.711 10.472 101.413 10.472H101.333V9.64H105.541V10.472H105.301C105.066 10.472 104.842 10.4773 104.629 10.488C104.415 10.4987 104.239 10.5147 104.101 10.536C103.973 10.5573 103.909 10.5893 103.909 10.632L107.285 20.44ZM114.005 16.856C114.005 17.4427 114.074 17.9493 114.213 18.376C114.362 18.8027 114.565 19.1547 114.821 19.432C115.077 19.6987 115.376 19.9013 115.717 20.04C116.058 20.168 116.432 20.232 116.837 20.232C117.274 20.232 117.653 20.152 117.973 19.992C118.304 19.8213 118.586 19.6133 118.821 19.368C119.056 19.1227 119.253 18.8667 119.413 18.6L120.181 19.24C119.978 19.6027 119.717 19.9333 119.397 20.232C119.077 20.5307 118.698 20.7653 118.261 20.936C117.834 21.096 117.349 21.176 116.805 21.176C116.005 21.176 115.28 21.0053 114.629 20.664C113.989 20.3227 113.482 19.8267 113.109 19.176C112.736 18.5253 112.549 17.7467 112.549 16.84C112.549 15.9547 112.72 15.1813 113.061 14.52C113.413 13.8587 113.888 13.3413 114.485 12.968C115.082 12.5947 115.76 12.408 116.517 12.408C117.125 12.408 117.653 12.5093 118.101 12.712C118.56 12.904 118.944 13.2027 119.253 13.608C119.562 14.0027 119.797 14.4987 119.957 15.096C120.117 15.6827 120.197 16.376 120.197 17.176H113.685V16.264H119.141L118.709 16.616C118.688 16.0293 118.629 15.5333 118.533 15.128C118.448 14.712 118.32 14.376 118.149 14.12C117.978 13.8533 117.754 13.6613 117.477 13.544C117.21 13.416 116.89 13.352 116.517 13.352C116.154 13.352 115.818 13.4267 115.509 13.576C115.2 13.7253 114.933 13.9493 114.709 14.248C114.485 14.5467 114.309 14.9147 114.181 15.352C114.064 15.7893 114.005 16.2907 114.005 16.856ZM121.515 21V20.248H121.563C121.83 20.248 122.064 20.2267 122.267 20.184C122.47 20.1413 122.624 20.0613 122.731 19.944C122.848 19.8267 122.907 19.6667 122.907 19.464V14.12C122.907 13.96 122.859 13.8427 122.763 13.768C122.678 13.6827 122.544 13.6133 122.363 13.56C122.182 13.5067 121.952 13.4533 121.675 13.4L121.515 13.368V12.568H124.107L124.235 14.344L124.331 14.456V20.088C124.331 20.12 124.395 20.152 124.523 20.184C124.651 20.2053 124.806 20.2213 124.987 20.232C125.168 20.2427 125.334 20.248 125.483 20.248H125.531V21H121.515ZM131.099 21H127.083V20.248H127.131C127.28 20.248 127.446 20.2427 127.627 20.232C127.808 20.2213 127.963 20.2053 128.091 20.184C128.23 20.152 128.299 20.12 128.299 20.088V15.048C128.299 14.6853 128.256 14.3867 128.171 14.152C128.086 13.9173 127.942 13.7413 127.739 13.624C127.536 13.5067 127.264 13.448 126.923 13.448C126.571 13.448 126.23 13.5173 125.899 13.656C125.568 13.7947 125.248 14.0027 124.939 14.28C124.64 14.5573 124.342 14.904 124.043 15.32V14.392C124.342 13.9547 124.651 13.592 124.971 13.304C125.302 13.0053 125.654 12.7813 126.027 12.632C126.4 12.4827 126.806 12.408 127.243 12.408C127.766 12.408 128.208 12.4987 128.571 12.68C128.934 12.8507 129.216 13.1227 129.419 13.496C129.622 13.8587 129.723 14.3173 129.723 14.872V19.464C129.723 19.6667 129.776 19.8267 129.883 19.944C130 20.0613 130.155 20.1413 130.347 20.184C130.55 20.2267 130.79 20.248 131.067 20.248H131.099V21ZM131.708 13.512V12.648H131.852C132.193 12.648 132.481 12.6267 132.716 12.584C132.961 12.5307 133.142 12.4347 133.26 12.296C133.388 12.1573 133.452 11.9547 133.452 11.688L134.492 12.568L137.436 12.568V13.512L131.708 13.512ZM134.764 18.328C134.764 18.7867 134.828 19.1547 134.956 19.432C135.084 19.6987 135.265 19.8907 135.5 20.008C135.745 20.1147 136.028 20.168 136.348 20.168C136.604 20.168 136.844 20.152 137.068 20.12C137.292 20.0773 137.457 20.04 137.564 20.008V20.952C137.457 20.9947 137.329 21.032 137.18 21.064C137.03 21.096 136.87 21.1227 136.7 21.144C136.54 21.1653 136.369 21.176 136.188 21.176C135.697 21.176 135.233 21.096 134.796 20.936C134.369 20.776 134.017 20.4933 133.74 20.088C133.473 19.6827 133.34 19.1013 133.34 18.344V12.808L133.452 12.68V10.184H134.764V18.328ZM141.279 12.568V18.504C141.279 18.8667 141.322 19.1707 141.407 19.416C141.503 19.6507 141.647 19.8267 141.839 19.944C142.042 20.0613 142.314 20.12 142.655 20.12C143.007 20.12 143.343 20.0507 143.663 19.912C143.983 19.7733 144.292 19.5707 144.591 19.304C144.9 19.0267 145.199 18.68 145.487 18.264V19.208C145.188 19.6347 144.879 19.992 144.559 20.28C144.239 20.568 143.892 20.7867 143.519 20.936C143.156 21.0853 142.756 21.16 142.319 21.16C141.818 21.16 141.38 21.0747 141.007 20.904C140.644 20.7227 140.362 20.4453 140.159 20.072C139.956 19.6987 139.855 19.24 139.855 18.696V14.12C139.855 13.8853 139.754 13.72 139.551 13.624C139.359 13.528 139.055 13.4533 138.639 13.4L138.415 13.368V12.568H141.279ZM146.623 12.568V19.576C146.623 19.7253 146.676 19.8427 146.783 19.928C146.9 20.0133 147.055 20.0773 147.247 20.12C147.45 20.152 147.679 20.1787 147.935 20.2L148.015 20.216V21H145.423L145.295 19.208L145.199 19.064V14.12C145.199 13.8853 145.098 13.72 144.895 13.624C144.692 13.528 144.378 13.4587 143.951 13.416L143.567 13.368V12.568H146.623ZM154.95 12.456V13.96C154.876 13.928 154.785 13.9067 154.678 13.896C154.572 13.8853 154.46 13.8747 154.342 13.864C154.236 13.8533 154.129 13.848 154.022 13.848C153.734 13.848 153.473 13.88 153.238 13.944C153.014 14.008 152.806 14.1093 152.614 14.248C152.433 14.376 152.257 14.5467 152.086 14.76C151.926 14.9733 151.756 15.2293 151.574 15.528V14.68C151.798 14.2 152.044 13.7893 152.31 13.448C152.588 13.1067 152.892 12.8453 153.222 12.664C153.564 12.4827 153.942 12.392 154.358 12.392C154.486 12.392 154.604 12.3973 154.71 12.408C154.817 12.4187 154.897 12.4347 154.95 12.456ZM149.046 21V20.248H149.094C149.5 20.248 149.825 20.2 150.07 20.104C150.316 19.9973 150.438 19.784 150.438 19.464V14.12C150.438 13.96 150.39 13.8427 150.294 13.768C150.209 13.6827 150.076 13.6133 149.894 13.56C149.713 13.5067 149.484 13.4533 149.206 13.4L149.046 13.368V12.568H151.638L151.766 14.776L151.862 14.68V19.832C151.862 19.9493 151.937 20.04 152.086 20.104C152.236 20.168 152.412 20.2107 152.614 20.232C152.817 20.2427 152.993 20.248 153.142 20.248H153.478V21H149.046ZM157.411 16.856C157.411 17.4427 157.48 17.9493 157.619 18.376C157.768 18.8027 157.971 19.1547 158.227 19.432C158.483 19.6987 158.782 19.9013 159.123 20.04C159.464 20.168 159.838 20.232 160.243 20.232C160.68 20.232 161.059 20.152 161.379 19.992C161.71 19.8213 161.992 19.6133 162.227 19.368C162.462 19.1227 162.659 18.8667 162.819 18.6L163.587 19.24C163.384 19.6027 163.123 19.9333 162.803 20.232C162.483 20.5307 162.104 20.7653 161.667 20.936C161.24 21.096 160.755 21.176 160.211 21.176C159.411 21.176 158.686 21.0053 158.035 20.664C157.395 20.3227 156.888 19.8267 156.515 19.176C156.142 18.5253 155.955 17.7467 155.955 16.84C155.955 15.9547 156.126 15.1813 156.467 14.52C156.819 13.8587 157.294 13.3413 157.891 12.968C158.488 12.5947 159.166 12.408 159.923 12.408C160.531 12.408 161.059 12.5093 161.507 12.712C161.966 12.904 162.35 13.2027 162.659 13.608C162.968 14.0027 163.203 14.4987 163.363 15.096C163.523 15.6827 163.603 16.376 163.603 17.176H157.091V16.264H162.547L162.115 16.616C162.094 16.0293 162.035 15.5333 161.939 15.128C161.854 14.712 161.726 14.376 161.555 14.12C161.384 13.8533 161.16 13.6613 160.883 13.544C160.616 13.416 160.296 13.352 159.923 13.352C159.56 13.352 159.224 13.4267 158.915 13.576C158.606 13.7253 158.339 13.9493 158.115 14.248C157.891 14.5467 157.715 14.9147 157.587 15.352C157.47 15.7893 157.411 16.2907 157.411 16.856ZM170.281 18.792C170.281 18.5467 170.217 18.344 170.089 18.184C169.972 18.024 169.807 17.8907 169.593 17.784C169.391 17.6773 169.156 17.592 168.889 17.528C168.633 17.4533 168.361 17.384 168.073 17.32C167.732 17.2347 167.391 17.1387 167.049 17.032C166.719 16.9253 166.415 16.7813 166.137 16.6C165.86 16.4187 165.641 16.1893 165.481 15.912C165.321 15.624 165.241 15.2613 165.241 14.824C165.241 14.344 165.359 13.9227 165.593 13.56C165.839 13.1973 166.191 12.9147 166.649 12.712C167.108 12.5093 167.668 12.408 168.329 12.408C168.841 12.408 169.284 12.44 169.657 12.504C170.041 12.568 170.361 12.648 170.617 12.744C170.873 12.84 171.065 12.9307 171.193 13.016V14.936H169.785V13.336C169.903 13.336 169.999 13.352 170.073 13.384C170.159 13.416 170.223 13.464 170.265 13.528C170.319 13.592 170.351 13.672 170.361 13.768C170.383 13.8533 170.388 13.96 170.377 14.088C170.249 13.9173 170.079 13.7787 169.865 13.672C169.663 13.5653 169.433 13.4853 169.177 13.432C168.921 13.3787 168.639 13.352 168.329 13.352C167.721 13.352 167.273 13.4693 166.985 13.704C166.697 13.9387 166.553 14.2533 166.553 14.648C166.553 14.904 166.612 15.1173 166.729 15.288C166.857 15.4587 167.028 15.5973 167.241 15.704C167.455 15.8 167.695 15.8907 167.961 15.976C168.239 16.0507 168.532 16.12 168.841 16.184C169.172 16.2587 169.503 16.3547 169.833 16.472C170.164 16.5787 170.463 16.7227 170.729 16.904C171.007 17.0747 171.225 17.304 171.385 17.592C171.545 17.8693 171.625 18.2213 171.625 18.648C171.625 19.128 171.497 19.56 171.241 19.944C170.985 20.328 170.612 20.632 170.121 20.856C169.631 21.0693 169.028 21.176 168.313 21.176C167.791 21.176 167.316 21.1387 166.889 21.064C166.473 20.9893 166.105 20.8933 165.785 20.776C165.465 20.648 165.183 20.5093 164.937 20.36V18.344H166.361V20.488C166.201 20.4027 166.073 20.3173 165.977 20.232C165.892 20.1467 165.833 20.0613 165.801 19.976C165.769 19.88 165.753 19.784 165.753 19.688C165.764 19.592 165.78 19.4907 165.801 19.384C165.972 19.5653 166.18 19.72 166.425 19.848C166.681 19.9653 166.964 20.0613 167.273 20.136C167.593 20.2 167.935 20.232 168.297 20.232C168.735 20.232 169.097 20.1787 169.385 20.072C169.673 19.9653 169.892 19.8053 170.041 19.592C170.201 19.3787 170.281 19.112 170.281 18.792Z" fill="#152429"/>
<rect width="32" height="32" fill="#152429"/>
<rect width="11.3137" height="3.017" transform="matrix(0.707106 -0.707107 0.707106 0.707107 8 21.8672)" fill="#BFD1D7"/>
<rect width="3.017" height="11.3137" transform="matrix(0.707106 -0.707107 0.707106 0.707107 13.8672 16.002)" fill="#BFD1D7"/>
<path d="M10.1719 8.62695V11.644H17.3301C18.1022 11.644 18.8743 11.9388 19.4634 12.5279C20.3587 13.4232 20.5737 14.7412 20.1083 15.8395L22.3211 18.0522C22.7731 17.387 23.0897 16.6347 23.2481 15.8384C23.4809 14.6679 23.3615 13.4547 22.9048 12.3521C22.4481 11.2495 21.6747 10.3072 20.6824 9.64413C19.6921 8.98244 18.5282 8.62864 17.3372 8.62723L10.1719 8.62695Z" fill="#BFD1D7"/>
<rect width="3.017" height="5.27975" transform="matrix(0.707106 -0.707107 0.707106 0.707107 9.06641 11.2012)" fill="#BFD1D7"/>
<circle cx="1.5085" cy="1.5085" r="1.5085" transform="matrix(0.707106 -0.707107 0.707106 0.707107 8 10.1348)" fill="#BFD1D7"/>
</svg>
