<svg width="366" height="376" viewBox="0 0 366 376" fill="none" xmlns="http://www.w3.org/2000/svg">
<rect width="366" height="376" rx="8" fill="white"/>
<line x1="24" y1="343.5" x2="284" y2="343.5" stroke="#DBE2EB"/>
<line x1="24" y1="295.5" x2="284" y2="295.5" stroke="#DBE2EB"/>
<line x1="24" y1="247.5" x2="284" y2="247.5" stroke="#DBE2EB"/>
<line x1="24" y1="199.5" x2="284" y2="199.5" stroke="#DBE2EB"/>
<line x1="24" y1="151.5" x2="284" y2="151.5" stroke="#DBE2EB"/>
<path d="M100.047 131C100.047 131.872 99.8815 132.615 99.5508 133.227C99.2227 133.839 98.7747 134.306 98.207 134.629C97.6419 134.949 97.0065 135.109 96.3008 135.109C95.5898 135.109 94.9518 134.948 94.3867 134.625C93.8216 134.302 93.375 133.835 93.0469 133.223C92.7188 132.611 92.5547 131.87 92.5547 131C92.5547 130.128 92.7188 129.385 93.0469 128.773C93.375 128.161 93.8216 127.695 94.3867 127.375C94.9518 127.052 95.5898 126.891 96.3008 126.891C97.0065 126.891 97.6419 127.052 98.207 127.375C98.7747 127.695 99.2227 128.161 99.5508 128.773C99.8815 129.385 100.047 130.128 100.047 131ZM98.332 131C98.332 130.435 98.2474 129.958 98.0781 129.57C97.9115 129.182 97.6758 128.888 97.3711 128.688C97.0664 128.487 96.7096 128.387 96.3008 128.387C95.8919 128.387 95.5352 128.487 95.2305 128.688C94.9258 128.888 94.6888 129.182 94.5195 129.57C94.3529 129.958 94.2695 130.435 94.2695 131C94.2695 131.565 94.3529 132.042 94.5195 132.43C94.6888 132.818 94.9258 133.112 95.2305 133.312C95.5352 133.513 95.8919 133.613 96.3008 133.613C96.7096 133.613 97.0664 133.513 97.3711 133.312C97.6758 133.112 97.9115 132.818 98.0781 132.43C98.2474 132.042 98.332 131.565 98.332 131ZM104.46 129V130.25H100.847V129H104.46ZM101.667 127.562H103.331V133.156C103.331 133.31 103.354 133.43 103.401 133.516C103.448 133.599 103.513 133.658 103.597 133.691C103.683 133.725 103.782 133.742 103.894 133.742C103.972 133.742 104.05 133.736 104.128 133.723C104.206 133.707 104.266 133.695 104.308 133.687L104.569 134.926C104.486 134.952 104.369 134.982 104.218 135.016C104.067 135.052 103.883 135.074 103.667 135.082C103.266 135.098 102.914 135.044 102.612 134.922C102.313 134.799 102.08 134.609 101.913 134.352C101.746 134.094 101.664 133.768 101.667 133.375V127.562ZM107.337 131.531V135H105.673V127H107.29V130.059H107.36C107.496 129.704 107.715 129.427 108.017 129.227C108.319 129.023 108.698 128.922 109.153 128.922C109.57 128.922 109.933 129.013 110.243 129.195C110.556 129.375 110.798 129.634 110.97 129.973C111.144 130.309 111.23 130.711 111.228 131.18V135H109.563V131.477C109.566 131.107 109.472 130.819 109.282 130.613C109.095 130.408 108.832 130.305 108.493 130.305C108.267 130.305 108.066 130.353 107.892 130.449C107.72 130.546 107.584 130.686 107.485 130.871C107.389 131.053 107.34 131.273 107.337 131.531ZM115.271 135.117C114.654 135.117 114.123 134.992 113.678 134.742C113.235 134.49 112.894 134.133 112.654 133.672C112.415 133.208 112.295 132.66 112.295 132.027C112.295 131.41 112.415 130.868 112.654 130.402C112.894 129.936 113.231 129.573 113.666 129.312C114.104 129.052 114.617 128.922 115.205 128.922C115.601 128.922 115.969 128.986 116.311 129.113C116.654 129.238 116.954 129.427 117.209 129.68C117.467 129.932 117.667 130.25 117.811 130.633C117.954 131.013 118.025 131.458 118.025 131.969V132.426H112.959V131.395H116.459C116.459 131.155 116.407 130.943 116.303 130.758C116.199 130.573 116.054 130.428 115.869 130.324C115.687 130.217 115.475 130.164 115.232 130.164C114.98 130.164 114.756 130.223 114.561 130.34C114.368 130.454 114.217 130.609 114.107 130.805C113.998 130.997 113.942 131.212 113.939 131.449V132.43C113.939 132.727 113.994 132.983 114.104 133.199C114.215 133.415 114.373 133.582 114.576 133.699C114.779 133.816 115.02 133.875 115.299 133.875C115.484 133.875 115.653 133.849 115.807 133.797C115.96 133.745 116.092 133.667 116.201 133.562C116.311 133.458 116.394 133.331 116.451 133.18L117.99 133.281C117.912 133.651 117.752 133.974 117.51 134.25C117.27 134.523 116.96 134.737 116.58 134.891C116.202 135.042 115.766 135.117 115.271 135.117ZM119.111 135V129H120.725V130.047H120.787C120.896 129.674 121.08 129.393 121.338 129.203C121.596 129.01 121.893 128.914 122.229 128.914C122.312 128.914 122.402 128.919 122.498 128.93C122.594 128.94 122.679 128.954 122.752 128.973V130.449C122.674 130.426 122.566 130.405 122.428 130.387C122.29 130.368 122.163 130.359 122.049 130.359C121.804 130.359 121.585 130.413 121.393 130.52C121.202 130.624 121.051 130.77 120.939 130.957C120.83 131.145 120.775 131.361 120.775 131.605V135H119.111ZM128.604 130.711L127.081 130.805C127.055 130.674 126.999 130.557 126.913 130.453C126.827 130.346 126.714 130.262 126.573 130.199C126.435 130.134 126.27 130.102 126.077 130.102C125.819 130.102 125.602 130.156 125.425 130.266C125.248 130.372 125.159 130.516 125.159 130.695C125.159 130.839 125.216 130.96 125.331 131.059C125.446 131.158 125.642 131.237 125.921 131.297L127.007 131.516C127.59 131.635 128.025 131.828 128.312 132.094C128.598 132.359 128.741 132.708 128.741 133.141C128.741 133.534 128.625 133.879 128.394 134.176C128.164 134.473 127.849 134.704 127.448 134.871C127.05 135.035 126.59 135.117 126.069 135.117C125.275 135.117 124.642 134.952 124.171 134.621C123.702 134.288 123.427 133.835 123.347 133.262L124.983 133.176C125.033 133.418 125.153 133.603 125.343 133.73C125.533 133.855 125.776 133.918 126.073 133.918C126.365 133.918 126.599 133.862 126.776 133.75C126.956 133.635 127.047 133.488 127.05 133.309C127.047 133.158 126.983 133.034 126.858 132.938C126.733 132.839 126.541 132.763 126.28 132.711L125.241 132.504C124.655 132.387 124.219 132.184 123.933 131.895C123.649 131.605 123.507 131.237 123.507 130.789C123.507 130.404 123.611 130.072 123.819 129.793C124.03 129.514 124.326 129.299 124.706 129.148C125.089 128.997 125.537 128.922 126.05 128.922C126.808 128.922 127.404 129.082 127.839 129.402C128.276 129.723 128.532 130.159 128.604 130.711ZM95.6328 146.109C95.0313 146.109 94.4961 146.012 94.0273 145.816C93.5612 145.618 93.1953 145.349 92.9297 145.008C92.6641 144.667 92.5313 144.28 92.5313 143.848C92.5313 143.514 92.6068 143.208 92.7578 142.93C92.9115 142.648 93.1198 142.415 93.3828 142.23C93.6458 142.043 93.9401 141.923 94.2656 141.871V141.816C93.8385 141.73 93.4922 141.523 93.2266 141.195C92.9609 140.865 92.8281 140.48 92.8281 140.043C92.8281 139.629 92.9492 139.26 93.1914 138.937C93.4336 138.612 93.7656 138.357 94.1875 138.172C94.612 137.984 95.0938 137.891 95.6328 137.891C96.1719 137.891 96.6523 137.984 97.0742 138.172C97.4987 138.359 97.832 138.616 98.0742 138.941C98.3164 139.264 98.4388 139.632 98.4414 140.043C98.4388 140.483 98.3034 140.867 98.0352 141.195C97.7669 141.523 97.4232 141.73 97.0039 141.816V141.871C97.3242 141.923 97.6146 142.043 97.875 142.23C98.138 142.415 98.3464 142.648 98.5 142.93C98.6563 143.208 98.7357 143.514 98.7383 143.848C98.7357 144.28 98.6016 144.667 98.3359 145.008C98.0703 145.349 97.7031 145.618 97.2344 145.816C96.7682 146.012 96.2344 146.109 95.6328 146.109ZM95.6328 144.867C95.901 144.867 96.1354 144.819 96.3359 144.723C96.5365 144.624 96.6927 144.488 96.8047 144.316C96.9193 144.142 96.9766 143.941 96.9766 143.715C96.9766 143.483 96.918 143.279 96.8008 143.102C96.6836 142.922 96.5247 142.781 96.3242 142.68C96.1237 142.576 95.8932 142.523 95.6328 142.523C95.375 142.523 95.1445 142.576 94.9414 142.68C94.7383 142.781 94.5781 142.922 94.4609 143.102C94.3464 143.279 94.2891 143.483 94.2891 143.715C94.2891 143.941 94.3451 144.142 94.457 144.316C94.569 144.488 94.7266 144.624 94.9297 144.723C95.1328 144.819 95.3672 144.867 95.6328 144.867ZM95.6328 141.293C95.8568 141.293 96.056 141.247 96.2305 141.156C96.4049 141.065 96.5417 140.939 96.6406 140.777C96.7396 140.616 96.7891 140.43 96.7891 140.219C96.7891 140.01 96.7396 139.828 96.6406 139.672C96.5417 139.513 96.4063 139.389 96.2344 139.301C96.0625 139.21 95.862 139.164 95.6328 139.164C95.4063 139.164 95.2057 139.21 95.0313 139.301C94.8568 139.389 94.7201 139.513 94.6211 139.672C94.5247 139.828 94.4766 140.01 94.4766 140.219C94.4766 140.43 94.526 140.616 94.625 140.777C94.724 140.939 94.8607 141.065 95.0352 141.156C95.2096 141.247 95.4089 141.293 95.6328 141.293ZM104.3 144.5V144.078C104.3 143.758 104.368 143.464 104.503 143.195C104.641 142.924 104.84 142.708 105.101 142.547C105.364 142.383 105.684 142.301 106.062 142.301C106.444 142.301 106.766 142.382 107.026 142.543C107.289 142.704 107.487 142.921 107.62 143.191C107.756 143.46 107.823 143.755 107.823 144.078V144.5C107.823 144.82 107.756 145.116 107.62 145.387C107.485 145.655 107.285 145.87 107.022 146.031C106.759 146.195 106.439 146.277 106.062 146.277C105.679 146.277 105.357 146.195 105.097 146.031C104.836 145.87 104.638 145.655 104.503 145.387C104.368 145.116 104.3 144.82 104.3 144.5ZM105.437 144.078V144.5C105.437 144.685 105.481 144.859 105.569 145.023C105.66 145.187 105.825 145.27 106.062 145.27C106.299 145.27 106.46 145.189 106.546 145.027C106.634 144.866 106.679 144.69 106.679 144.5V144.078C106.679 143.888 106.637 143.711 106.554 143.547C106.47 143.383 106.306 143.301 106.062 143.301C105.827 143.301 105.664 143.383 105.573 143.547C105.482 143.711 105.437 143.888 105.437 144.078ZM100.194 139.922V139.5C100.194 139.177 100.263 138.882 100.401 138.613C100.539 138.342 100.739 138.126 100.999 137.965C101.262 137.803 101.58 137.723 101.952 137.723C102.338 137.723 102.66 137.803 102.921 137.965C103.181 138.126 103.379 138.342 103.515 138.613C103.65 138.882 103.718 139.177 103.718 139.5V139.922C103.718 140.245 103.649 140.54 103.511 140.809C103.375 141.077 103.176 141.292 102.913 141.453C102.653 141.612 102.332 141.691 101.952 141.691C101.572 141.691 101.25 141.611 100.987 141.449C100.727 141.285 100.529 141.07 100.394 140.805C100.261 140.536 100.194 140.242 100.194 139.922ZM101.339 139.5V139.922C101.339 140.112 101.383 140.288 101.472 140.449C101.563 140.611 101.723 140.691 101.952 140.691C102.192 140.691 102.354 140.611 102.44 140.449C102.529 140.288 102.573 140.112 102.573 139.922V139.5C102.573 139.31 102.532 139.133 102.448 138.969C102.365 138.805 102.2 138.723 101.952 138.723C101.72 138.723 101.56 138.806 101.472 138.973C101.383 139.139 101.339 139.315 101.339 139.5ZM100.71 146L106.21 138H107.233L101.733 146H100.71Z" fill="#505050"/>
<path d="M165.754 201.801H164.043C164.012 201.579 163.948 201.383 163.852 201.211C163.755 201.036 163.632 200.888 163.48 200.766C163.329 200.643 163.155 200.549 162.957 200.484C162.762 200.419 162.549 200.387 162.32 200.387C161.906 200.387 161.546 200.49 161.238 200.695C160.931 200.898 160.693 201.195 160.523 201.586C160.354 201.974 160.27 202.445 160.27 203C160.27 203.57 160.354 204.049 160.523 204.437C160.695 204.826 160.935 205.118 161.242 205.316C161.549 205.514 161.905 205.613 162.309 205.613C162.535 205.613 162.745 205.583 162.938 205.523C163.133 205.464 163.306 205.376 163.457 205.262C163.608 205.145 163.733 205.003 163.832 204.836C163.934 204.669 164.004 204.479 164.043 204.266L165.754 204.273C165.71 204.641 165.599 204.995 165.422 205.336C165.247 205.674 165.012 205.978 164.715 206.246C164.421 206.512 164.069 206.723 163.66 206.879C163.254 207.033 162.794 207.109 162.281 207.109C161.568 207.109 160.93 206.948 160.367 206.625C159.807 206.302 159.365 205.835 159.039 205.223C158.716 204.611 158.555 203.87 158.555 203C158.555 202.128 158.719 201.385 159.047 200.773C159.375 200.161 159.82 199.695 160.383 199.375C160.945 199.052 161.578 198.891 162.281 198.891C162.745 198.891 163.174 198.956 163.57 199.086C163.969 199.216 164.322 199.406 164.629 199.656C164.936 199.904 165.186 200.207 165.379 200.566C165.574 200.926 165.699 201.337 165.754 201.801ZM169.803 207H166.967V199H169.826C170.631 199 171.324 199.16 171.904 199.48C172.485 199.798 172.932 200.255 173.244 200.852C173.559 201.448 173.717 202.161 173.717 202.992C173.717 203.826 173.559 204.542 173.244 205.141C172.932 205.74 172.482 206.199 171.896 206.52C171.313 206.84 170.615 207 169.803 207ZM168.658 205.551H169.732C170.232 205.551 170.653 205.462 170.994 205.285C171.338 205.105 171.596 204.828 171.768 204.453C171.942 204.076 172.029 203.589 172.029 202.992C172.029 202.401 171.942 201.918 171.768 201.543C171.596 201.168 171.339 200.892 170.998 200.715C170.657 200.538 170.236 200.449 169.736 200.449H168.658V205.551ZM176.333 199V199.844C176.333 200.083 176.286 200.328 176.192 200.578C176.101 200.826 175.979 201.06 175.825 201.281C175.672 201.5 175.504 201.686 175.321 201.84L174.587 201.406C174.717 201.201 174.832 200.973 174.931 200.723C175.032 200.473 175.083 200.182 175.083 199.852V199H176.333ZM181.682 202.711L180.158 202.805C180.132 202.674 180.076 202.557 179.99 202.453C179.904 202.346 179.791 202.262 179.65 202.199C179.512 202.134 179.347 202.102 179.154 202.102C178.896 202.102 178.679 202.156 178.502 202.266C178.325 202.372 178.236 202.516 178.236 202.695C178.236 202.839 178.294 202.96 178.408 203.059C178.523 203.158 178.719 203.237 178.998 203.297L180.084 203.516C180.667 203.635 181.102 203.828 181.389 204.094C181.675 204.359 181.818 204.708 181.818 205.141C181.818 205.534 181.702 205.879 181.471 206.176C181.242 206.473 180.926 206.704 180.525 206.871C180.127 207.035 179.667 207.117 179.146 207.117C178.352 207.117 177.719 206.952 177.248 206.621C176.779 206.288 176.505 205.835 176.424 205.262L178.061 205.176C178.11 205.418 178.23 205.603 178.42 205.73C178.61 205.855 178.854 205.918 179.15 205.918C179.442 205.918 179.676 205.862 179.854 205.75C180.033 205.635 180.124 205.488 180.127 205.309C180.124 205.158 180.061 205.034 179.936 204.938C179.811 204.839 179.618 204.763 179.357 204.711L178.318 204.504C177.732 204.387 177.296 204.184 177.01 203.895C176.726 203.605 176.584 203.237 176.584 202.789C176.584 202.404 176.688 202.072 176.896 201.793C177.107 201.514 177.403 201.299 177.783 201.148C178.166 200.997 178.614 200.922 179.127 200.922C179.885 200.922 180.481 201.082 180.916 201.402C181.354 201.723 181.609 202.159 181.682 202.711ZM161.57 218.109C161.018 218.109 160.526 218.008 160.094 217.805C159.664 217.602 159.323 217.322 159.07 216.965C158.818 216.608 158.686 216.199 158.676 215.738H160.316C160.335 216.048 160.465 216.299 160.707 216.492C160.949 216.685 161.237 216.781 161.57 216.781C161.836 216.781 162.07 216.723 162.273 216.605C162.479 216.486 162.639 216.32 162.754 216.109C162.871 215.896 162.93 215.651 162.93 215.375C162.93 215.094 162.87 214.846 162.75 214.633C162.633 214.419 162.47 214.253 162.262 214.133C162.053 214.013 161.815 213.952 161.547 213.949C161.313 213.949 161.085 213.997 160.863 214.094C160.645 214.19 160.474 214.322 160.352 214.488L158.848 214.219L159.227 210H164.117V211.383H160.621L160.414 213.387H160.461C160.602 213.189 160.814 213.025 161.098 212.895C161.382 212.764 161.699 212.699 162.051 212.699C162.533 212.699 162.962 212.812 163.34 213.039C163.717 213.266 164.016 213.577 164.234 213.973C164.453 214.366 164.561 214.819 164.559 215.332C164.561 215.871 164.436 216.35 164.184 216.77C163.934 217.186 163.583 217.514 163.133 217.754C162.685 217.991 162.164 218.109 161.57 218.109ZM170.117 216.5V216.078C170.117 215.758 170.185 215.464 170.32 215.195C170.458 214.924 170.658 214.708 170.918 214.547C171.181 214.383 171.501 214.301 171.879 214.301C172.262 214.301 172.583 214.382 172.844 214.543C173.107 214.704 173.305 214.921 173.438 215.191C173.573 215.46 173.641 215.755 173.641 216.078V216.5C173.641 216.82 173.573 217.116 173.438 217.387C173.302 217.655 173.103 217.87 172.84 218.031C172.577 218.195 172.257 218.277 171.879 218.277C171.496 218.277 171.174 218.195 170.914 218.031C170.654 217.87 170.456 217.655 170.32 217.387C170.185 217.116 170.117 216.82 170.117 216.5ZM171.254 216.078V216.5C171.254 216.685 171.298 216.859 171.387 217.023C171.478 217.187 171.642 217.27 171.879 217.27C172.116 217.27 172.277 217.189 172.363 217.027C172.452 216.866 172.496 216.69 172.496 216.5V216.078C172.496 215.888 172.454 215.711 172.371 215.547C172.288 215.383 172.124 215.301 171.879 215.301C171.645 215.301 171.482 215.383 171.391 215.547C171.299 215.711 171.254 215.888 171.254 216.078ZM166.012 211.922V211.5C166.012 211.177 166.081 210.882 166.219 210.613C166.357 210.342 166.556 210.126 166.816 209.965C167.079 209.803 167.397 209.723 167.77 209.723C168.155 209.723 168.478 209.803 168.738 209.965C168.999 210.126 169.197 210.342 169.332 210.613C169.467 210.882 169.535 211.177 169.535 211.5V211.922C169.535 212.245 169.466 212.54 169.328 212.809C169.193 213.077 168.993 213.292 168.73 213.453C168.47 213.612 168.15 213.691 167.77 213.691C167.389 213.691 167.068 213.611 166.805 213.449C166.544 213.285 166.346 213.07 166.211 212.805C166.078 212.536 166.012 212.242 166.012 211.922ZM167.156 211.5V211.922C167.156 212.112 167.201 212.288 167.289 212.449C167.38 212.611 167.54 212.691 167.77 212.691C168.009 212.691 168.172 212.611 168.258 212.449C168.346 212.288 168.391 212.112 168.391 211.922V211.5C168.391 211.31 168.349 211.133 168.266 210.969C168.182 210.805 168.017 210.723 167.77 210.723C167.538 210.723 167.378 210.806 167.289 210.973C167.201 211.139 167.156 211.315 167.156 211.5ZM166.527 218L172.027 210H173.051L167.551 218H166.527Z" fill="#505050"/>
<path d="M224.695 287V279H227.898C228.487 279 228.978 279.087 229.371 279.262C229.764 279.436 230.06 279.678 230.258 279.988C230.456 280.296 230.555 280.65 230.555 281.051C230.555 281.363 230.492 281.638 230.367 281.875C230.242 282.109 230.07 282.302 229.852 282.453C229.635 282.602 229.388 282.707 229.109 282.77V282.848C229.414 282.861 229.699 282.947 229.965 283.105C230.233 283.264 230.451 283.487 230.617 283.773C230.784 284.057 230.867 284.396 230.867 284.789C230.867 285.214 230.762 285.592 230.551 285.926C230.342 286.257 230.034 286.518 229.625 286.711C229.216 286.904 228.712 287 228.113 287H224.695ZM226.387 285.617H227.766C228.237 285.617 228.581 285.527 228.797 285.348C229.013 285.165 229.121 284.923 229.121 284.621C229.121 284.4 229.068 284.204 228.961 284.035C228.854 283.866 228.702 283.733 228.504 283.637C228.309 283.54 228.076 283.492 227.805 283.492H226.387V285.617ZM226.387 282.348H227.641C227.872 282.348 228.078 282.307 228.258 282.227C228.44 282.143 228.583 282.026 228.688 281.875C228.794 281.724 228.848 281.543 228.848 281.332C228.848 281.043 228.745 280.81 228.539 280.633C228.336 280.456 228.047 280.367 227.672 280.367H226.387V282.348ZM233.647 287.113C233.265 287.113 232.924 287.047 232.624 286.914C232.325 286.779 232.088 286.579 231.913 286.316C231.741 286.051 231.655 285.72 231.655 285.324C231.655 284.991 231.716 284.711 231.839 284.484C231.961 284.258 232.128 284.076 232.339 283.937C232.55 283.799 232.789 283.695 233.058 283.625C233.328 283.555 233.612 283.505 233.909 283.477C234.258 283.44 234.539 283.406 234.753 283.375C234.966 283.341 235.121 283.292 235.218 283.227C235.314 283.161 235.362 283.065 235.362 282.937V282.914C235.362 282.667 235.284 282.475 235.128 282.34C234.974 282.204 234.756 282.137 234.472 282.137C234.172 282.137 233.934 282.203 233.757 282.336C233.58 282.466 233.463 282.63 233.405 282.828L231.866 282.703C231.944 282.339 232.098 282.023 232.327 281.758C232.556 281.49 232.852 281.284 233.214 281.141C233.578 280.995 234 280.922 234.479 280.922C234.813 280.922 235.132 280.961 235.437 281.039C235.744 281.117 236.016 281.238 236.253 281.402C236.493 281.566 236.681 281.777 236.819 282.035C236.957 282.29 237.026 282.596 237.026 282.953V287H235.448V286.168H235.401C235.305 286.355 235.176 286.521 235.015 286.664C234.853 286.805 234.659 286.915 234.433 286.996C234.206 287.074 233.944 287.113 233.647 287.113ZM234.124 285.965C234.369 285.965 234.585 285.917 234.772 285.82C234.96 285.721 235.107 285.589 235.214 285.422C235.321 285.255 235.374 285.066 235.374 284.855V284.219C235.322 284.253 235.25 284.284 235.159 284.312C235.071 284.339 234.97 284.363 234.858 284.387C234.746 284.408 234.634 284.427 234.522 284.445C234.41 284.461 234.309 284.475 234.218 284.488C234.022 284.517 233.852 284.562 233.706 284.625C233.56 284.687 233.447 284.772 233.366 284.879C233.285 284.983 233.245 285.113 233.245 285.27C233.245 285.496 233.327 285.669 233.491 285.789C233.658 285.906 233.869 285.965 234.124 285.965ZM239.981 283.531V287H238.317V281H239.903V282.059H239.974C240.106 281.71 240.329 281.434 240.642 281.23C240.954 281.025 241.333 280.922 241.778 280.922C242.195 280.922 242.558 281.013 242.868 281.195C243.178 281.378 243.419 281.638 243.591 281.977C243.763 282.312 243.849 282.714 243.849 283.18V287H242.185V283.477C242.187 283.109 242.093 282.823 241.903 282.617C241.713 282.409 241.451 282.305 241.118 282.305C240.894 282.305 240.696 282.353 240.524 282.449C240.355 282.546 240.222 282.686 240.126 282.871C240.032 283.053 239.984 283.273 239.981 283.531ZM246.668 285.273L246.672 283.277H246.914L248.836 281H250.746L248.164 284.016H247.77L246.668 285.273ZM245.16 287V279H246.824V287H245.16ZM248.91 287L247.145 284.387L248.254 283.211L250.859 287H248.91ZM256.555 282.711L255.031 282.805C255.005 282.674 254.949 282.557 254.863 282.453C254.777 282.346 254.664 282.262 254.523 282.199C254.385 282.134 254.22 282.102 254.027 282.102C253.77 282.102 253.552 282.156 253.375 282.266C253.198 282.372 253.109 282.516 253.109 282.695C253.109 282.839 253.167 282.96 253.281 283.059C253.396 283.158 253.592 283.237 253.871 283.297L254.957 283.516C255.54 283.635 255.975 283.828 256.262 284.094C256.548 284.359 256.691 284.708 256.691 285.141C256.691 285.534 256.576 285.879 256.344 286.176C256.115 286.473 255.799 286.704 255.398 286.871C255 287.035 254.54 287.117 254.02 287.117C253.225 287.117 252.592 286.952 252.121 286.621C251.652 286.288 251.378 285.835 251.297 285.262L252.934 285.176C252.983 285.418 253.103 285.603 253.293 285.73C253.483 285.855 253.727 285.918 254.023 285.918C254.315 285.918 254.549 285.862 254.727 285.75C254.906 285.635 254.997 285.488 255 285.309C254.997 285.158 254.934 285.034 254.809 284.938C254.684 284.839 254.491 284.763 254.23 284.711L253.191 284.504C252.605 284.387 252.169 284.184 251.883 283.895C251.599 283.605 251.457 283.237 251.457 282.789C251.457 282.404 251.561 282.072 251.77 281.793C251.98 281.514 252.276 281.299 252.656 281.148C253.039 280.997 253.487 280.922 254 280.922C254.758 280.922 255.354 281.082 255.789 281.402C256.227 281.723 256.482 282.159 256.555 282.711ZM228.129 290V298H226.438V291.605H226.391L224.559 292.754V291.254L226.539 290H228.129ZM230.589 298.102C230.331 298.102 230.11 298.01 229.925 297.828C229.743 297.643 229.651 297.422 229.651 297.164C229.651 296.909 229.743 296.69 229.925 296.508C230.11 296.326 230.331 296.234 230.589 296.234C230.839 296.234 231.058 296.326 231.245 296.508C231.433 296.69 231.526 296.909 231.526 297.164C231.526 297.336 231.482 297.493 231.394 297.637C231.308 297.777 231.194 297.891 231.054 297.977C230.913 298.06 230.758 298.102 230.589 298.102ZM235.539 298.109C234.938 298.109 234.402 298.012 233.934 297.816C233.467 297.618 233.102 297.349 232.836 297.008C232.57 296.667 232.438 296.28 232.438 295.848C232.438 295.514 232.513 295.208 232.664 294.93C232.818 294.648 233.026 294.415 233.289 294.23C233.552 294.043 233.846 293.923 234.172 293.871V293.816C233.745 293.73 233.398 293.523 233.133 293.195C232.867 292.865 232.734 292.48 232.734 292.043C232.734 291.629 232.855 291.26 233.098 290.937C233.34 290.612 233.672 290.357 234.094 290.172C234.518 289.984 235 289.891 235.539 289.891C236.078 289.891 236.559 289.984 236.98 290.172C237.405 290.359 237.738 290.616 237.98 290.941C238.223 291.264 238.345 291.632 238.348 292.043C238.345 292.483 238.21 292.867 237.941 293.195C237.673 293.523 237.329 293.73 236.91 293.816V293.871C237.23 293.923 237.521 294.043 237.781 294.23C238.044 294.415 238.253 294.648 238.406 294.93C238.563 295.208 238.642 295.514 238.645 295.848C238.642 296.28 238.508 296.667 238.242 297.008C237.977 297.349 237.609 297.618 237.141 297.816C236.674 298.012 236.141 298.109 235.539 298.109ZM235.539 296.867C235.807 296.867 236.042 296.819 236.242 296.723C236.443 296.624 236.599 296.488 236.711 296.316C236.826 296.142 236.883 295.941 236.883 295.715C236.883 295.483 236.824 295.279 236.707 295.102C236.59 294.922 236.431 294.781 236.23 294.68C236.03 294.576 235.799 294.523 235.539 294.523C235.281 294.523 235.051 294.576 234.848 294.68C234.645 294.781 234.484 294.922 234.367 295.102C234.253 295.279 234.195 295.483 234.195 295.715C234.195 295.941 234.251 296.142 234.363 296.316C234.475 296.488 234.633 296.624 234.836 296.723C235.039 296.819 235.273 296.867 235.539 296.867ZM235.539 293.293C235.763 293.293 235.962 293.247 236.137 293.156C236.311 293.065 236.448 292.939 236.547 292.777C236.646 292.616 236.695 292.43 236.695 292.219C236.695 292.01 236.646 291.828 236.547 291.672C236.448 291.513 236.313 291.389 236.141 291.301C235.969 291.21 235.768 291.164 235.539 291.164C235.313 291.164 235.112 291.21 234.938 291.301C234.763 291.389 234.626 291.513 234.527 291.672C234.431 291.828 234.383 292.01 234.383 292.219C234.383 292.43 234.432 292.616 234.531 292.777C234.63 292.939 234.767 293.065 234.941 293.156C235.116 293.247 235.315 293.293 235.539 293.293ZM244.206 296.5V296.078C244.206 295.758 244.274 295.464 244.409 295.195C244.547 294.924 244.746 294.708 245.007 294.547C245.27 294.383 245.59 294.301 245.968 294.301C246.351 294.301 246.672 294.382 246.933 294.543C247.196 294.704 247.394 294.921 247.526 295.191C247.662 295.46 247.729 295.755 247.729 296.078V296.5C247.729 296.82 247.662 297.116 247.526 297.387C247.391 297.655 247.192 297.87 246.929 298.031C246.666 298.195 246.345 298.277 245.968 298.277C245.585 298.277 245.263 298.195 245.003 298.031C244.743 297.87 244.545 297.655 244.409 297.387C244.274 297.116 244.206 296.82 244.206 296.5ZM245.343 296.078V296.5C245.343 296.685 245.387 296.859 245.476 297.023C245.567 297.187 245.731 297.27 245.968 297.27C246.205 297.27 246.366 297.189 246.452 297.027C246.541 296.866 246.585 296.69 246.585 296.5V296.078C246.585 295.888 246.543 295.711 246.46 295.547C246.377 295.383 246.213 295.301 245.968 295.301C245.733 295.301 245.571 295.383 245.479 295.547C245.388 295.711 245.343 295.888 245.343 296.078ZM240.101 291.922V291.5C240.101 291.177 240.17 290.882 240.308 290.613C240.446 290.342 240.645 290.126 240.905 289.965C241.168 289.803 241.486 289.723 241.858 289.723C242.244 289.723 242.567 289.803 242.827 289.965C243.088 290.126 243.285 290.342 243.421 290.613C243.556 290.882 243.624 291.177 243.624 291.5V291.922C243.624 292.245 243.555 292.54 243.417 292.809C243.282 293.077 243.082 293.292 242.819 293.453C242.559 293.612 242.239 293.691 241.858 293.691C241.478 293.691 241.157 293.611 240.894 293.449C240.633 293.285 240.435 293.07 240.3 292.805C240.167 292.536 240.101 292.242 240.101 291.922ZM241.245 291.5V291.922C241.245 292.112 241.289 292.288 241.378 292.449C241.469 292.611 241.629 292.691 241.858 292.691C242.098 292.691 242.261 292.611 242.347 292.449C242.435 292.288 242.479 292.112 242.479 291.922V291.5C242.479 291.31 242.438 291.133 242.354 290.969C242.271 290.805 242.106 290.723 241.858 290.723C241.627 290.723 241.466 290.806 241.378 290.973C241.289 291.139 241.245 291.315 241.245 291.5ZM240.616 298L246.116 290H247.14L241.64 298H240.616Z" fill="#505050"/>
<path d="M24 104H66L78 112V344H24V104Z" fill="#5028FF"/>
<path d="M66 104L78 112V344H66V104Z" fill="#3C1FBF"/>
<path d="M90 152H132L144 160V344H90V152Z" fill="#DBE2EB"/>
<path d="M156 224H198L210 232V344H156V224Z" fill="#DBE2EB"/>
<path d="M222 304H264L276 312V344H222V304Z" fill="#DBE2EB"/>
<path d="M303.04 152.109C302.438 152.109 301.903 152.012 301.435 151.816C300.968 151.618 300.603 151.349 300.337 151.008C300.071 150.667 299.938 150.28 299.938 149.848C299.938 149.514 300.014 149.208 300.165 148.93C300.319 148.648 300.527 148.415 300.79 148.23C301.053 148.043 301.347 147.923 301.673 147.871V147.816C301.246 147.73 300.899 147.523 300.634 147.195C300.368 146.865 300.235 146.48 300.235 146.043C300.235 145.629 300.356 145.26 300.599 144.937C300.841 144.612 301.173 144.357 301.595 144.172C302.019 143.984 302.501 143.891 303.04 143.891C303.579 143.891 304.06 143.984 304.481 144.172C304.906 144.359 305.239 144.616 305.481 144.941C305.724 145.264 305.846 145.632 305.849 146.043C305.846 146.483 305.711 146.867 305.442 147.195C305.174 147.523 304.83 147.73 304.411 147.816V147.871C304.731 147.923 305.022 148.043 305.282 148.23C305.545 148.415 305.754 148.648 305.907 148.93C306.063 149.208 306.143 149.514 306.146 149.848C306.143 150.28 306.009 150.667 305.743 151.008C305.478 151.349 305.11 151.618 304.642 151.816C304.175 152.012 303.642 152.109 303.04 152.109ZM303.04 150.867C303.308 150.867 303.543 150.819 303.743 150.723C303.944 150.624 304.1 150.488 304.212 150.316C304.326 150.142 304.384 149.941 304.384 149.715C304.384 149.483 304.325 149.279 304.208 149.102C304.091 148.922 303.932 148.781 303.731 148.68C303.531 148.576 303.3 148.523 303.04 148.523C302.782 148.523 302.552 148.576 302.349 148.68C302.146 148.781 301.985 148.922 301.868 149.102C301.754 149.279 301.696 149.483 301.696 149.715C301.696 149.941 301.752 150.142 301.864 150.316C301.976 150.488 302.134 150.624 302.337 150.723C302.54 150.819 302.774 150.867 303.04 150.867ZM303.04 147.293C303.264 147.293 303.463 147.247 303.638 147.156C303.812 147.065 303.949 146.939 304.048 146.777C304.147 146.616 304.196 146.43 304.196 146.219C304.196 146.01 304.147 145.828 304.048 145.672C303.949 145.513 303.813 145.389 303.642 145.301C303.47 145.21 303.269 145.164 303.04 145.164C302.813 145.164 302.613 145.21 302.438 145.301C302.264 145.389 302.127 145.513 302.028 145.672C301.932 145.828 301.884 146.01 301.884 146.219C301.884 146.43 301.933 146.616 302.032 146.777C302.131 146.939 302.268 147.065 302.442 147.156C302.617 147.247 302.816 147.293 303.04 147.293ZM311.707 150.5V150.078C311.707 149.758 311.775 149.464 311.91 149.195C312.048 148.924 312.247 148.708 312.508 148.547C312.771 148.383 313.091 148.301 313.469 148.301C313.852 148.301 314.173 148.382 314.434 148.543C314.697 148.704 314.895 148.921 315.027 149.191C315.163 149.46 315.23 149.755 315.23 150.078V150.5C315.23 150.82 315.163 151.116 315.027 151.387C314.892 151.655 314.693 151.87 314.43 152.031C314.167 152.195 313.846 152.277 313.469 152.277C313.086 152.277 312.764 152.195 312.504 152.031C312.243 151.87 312.046 151.655 311.91 151.387C311.775 151.116 311.707 150.82 311.707 150.5ZM312.844 150.078V150.5C312.844 150.685 312.888 150.859 312.977 151.023C313.068 151.187 313.232 151.27 313.469 151.27C313.706 151.27 313.867 151.189 313.953 151.027C314.042 150.866 314.086 150.69 314.086 150.5V150.078C314.086 149.888 314.044 149.711 313.961 149.547C313.878 149.383 313.714 149.301 313.469 149.301C313.234 149.301 313.072 149.383 312.98 149.547C312.889 149.711 312.844 149.888 312.844 150.078ZM307.602 145.922V145.5C307.602 145.177 307.671 144.882 307.809 144.613C307.947 144.342 308.146 144.126 308.406 143.965C308.669 143.803 308.987 143.723 309.359 143.723C309.745 143.723 310.068 143.803 310.328 143.965C310.589 144.126 310.786 144.342 310.922 144.613C311.057 144.882 311.125 145.177 311.125 145.5V145.922C311.125 146.245 311.056 146.54 310.918 146.809C310.783 147.077 310.583 147.292 310.32 147.453C310.06 147.612 309.74 147.691 309.359 147.691C308.979 147.691 308.658 147.611 308.395 147.449C308.134 147.285 307.936 147.07 307.801 146.805C307.668 146.536 307.602 146.242 307.602 145.922ZM308.746 145.5V145.922C308.746 146.112 308.79 146.288 308.879 146.449C308.97 146.611 309.13 146.691 309.359 146.691C309.599 146.691 309.762 146.611 309.848 146.449C309.936 146.288 309.98 146.112 309.98 145.922V145.5C309.98 145.31 309.939 145.133 309.855 144.969C309.772 144.805 309.607 144.723 309.359 144.723C309.128 144.723 308.967 144.806 308.879 144.973C308.79 145.139 308.746 145.315 308.746 145.5ZM308.117 152L313.617 144H314.641L309.141 152H308.117ZM320.753 152H318.94L321.702 144H323.882L326.64 152H324.827L322.823 145.828H322.761L320.753 152ZM320.64 148.855H324.921V150.176H320.64V148.855ZM327.603 152V144H330.759C331.366 144 331.882 144.116 332.31 144.348C332.737 144.577 333.062 144.896 333.286 145.305C333.513 145.711 333.626 146.18 333.626 146.711C333.626 147.242 333.511 147.711 333.282 148.117C333.053 148.523 332.721 148.84 332.286 149.066C331.854 149.293 331.33 149.406 330.716 149.406H328.704V148.051H330.442C330.768 148.051 331.036 147.995 331.247 147.883C331.461 147.768 331.619 147.611 331.724 147.41C331.83 147.207 331.884 146.974 331.884 146.711C331.884 146.445 331.83 146.214 331.724 146.016C331.619 145.815 331.461 145.66 331.247 145.551C331.034 145.439 330.763 145.383 330.435 145.383H329.294V152H327.603ZM334.256 144H336.15L337.975 147.445H338.053L339.877 144H341.771L338.854 149.172V152H337.174V149.172L334.256 144Z" fill="#737373"/>
<path d="M303.137 200.109C302.725 200.107 302.328 200.038 301.945 199.902C301.565 199.767 301.224 199.547 300.922 199.242C300.62 198.937 300.38 198.534 300.203 198.031C300.029 197.529 299.941 196.911 299.941 196.18C299.944 195.508 300.021 194.908 300.172 194.379C300.326 193.848 300.544 193.397 300.828 193.027C301.115 192.658 301.457 192.376 301.855 192.184C302.254 191.988 302.701 191.891 303.195 191.891C303.729 191.891 304.201 191.995 304.609 192.203C305.018 192.409 305.346 192.689 305.594 193.043C305.844 193.397 305.995 193.794 306.047 194.234H304.379C304.314 193.956 304.177 193.737 303.969 193.578C303.76 193.419 303.503 193.34 303.195 193.34C302.674 193.34 302.279 193.566 302.008 194.02C301.74 194.473 301.603 195.089 301.598 195.867H301.652C301.772 195.63 301.934 195.428 302.137 195.262C302.342 195.092 302.576 194.964 302.836 194.875C303.099 194.784 303.376 194.738 303.668 194.738C304.142 194.738 304.564 194.85 304.934 195.074C305.303 195.296 305.595 195.6 305.809 195.988C306.022 196.376 306.129 196.82 306.129 197.32C306.129 197.862 306.003 198.344 305.75 198.766C305.5 199.187 305.15 199.518 304.699 199.758C304.251 199.995 303.73 200.112 303.137 200.109ZM303.129 198.781C303.389 198.781 303.622 198.719 303.828 198.594C304.034 198.469 304.195 198.299 304.313 198.086C304.43 197.872 304.488 197.633 304.488 197.367C304.488 197.102 304.43 196.863 304.313 196.652C304.198 196.441 304.039 196.273 303.836 196.148C303.633 196.023 303.401 195.961 303.141 195.961C302.945 195.961 302.764 195.997 302.598 196.07C302.434 196.143 302.289 196.245 302.164 196.375C302.042 196.505 301.945 196.656 301.875 196.828C301.805 196.997 301.77 197.178 301.77 197.371C301.77 197.629 301.828 197.865 301.945 198.078C302.065 198.292 302.227 198.462 302.43 198.59C302.635 198.717 302.868 198.781 303.129 198.781ZM311.707 198.5V198.078C311.707 197.758 311.775 197.464 311.91 197.195C312.048 196.924 312.247 196.708 312.508 196.547C312.771 196.383 313.091 196.301 313.469 196.301C313.852 196.301 314.173 196.382 314.434 196.543C314.697 196.704 314.895 196.921 315.027 197.191C315.163 197.46 315.23 197.755 315.23 198.078V198.5C315.23 198.82 315.163 199.116 315.027 199.387C314.892 199.655 314.693 199.87 314.43 200.031C314.167 200.195 313.846 200.277 313.469 200.277C313.086 200.277 312.764 200.195 312.504 200.031C312.243 199.87 312.046 199.655 311.91 199.387C311.775 199.116 311.707 198.82 311.707 198.5ZM312.844 198.078V198.5C312.844 198.685 312.888 198.859 312.977 199.023C313.068 199.187 313.232 199.27 313.469 199.27C313.706 199.27 313.867 199.189 313.953 199.027C314.042 198.866 314.086 198.69 314.086 198.5V198.078C314.086 197.888 314.044 197.711 313.961 197.547C313.878 197.383 313.714 197.301 313.469 197.301C313.234 197.301 313.072 197.383 312.98 197.547C312.889 197.711 312.844 197.888 312.844 198.078ZM307.602 193.922V193.5C307.602 193.177 307.671 192.882 307.809 192.613C307.947 192.342 308.146 192.126 308.406 191.965C308.669 191.803 308.987 191.723 309.359 191.723C309.745 191.723 310.068 191.803 310.328 191.965C310.589 192.126 310.786 192.342 310.922 192.613C311.057 192.882 311.125 193.177 311.125 193.5V193.922C311.125 194.245 311.056 194.54 310.918 194.809C310.783 195.077 310.583 195.292 310.32 195.453C310.06 195.612 309.74 195.691 309.359 195.691C308.979 195.691 308.658 195.611 308.395 195.449C308.134 195.285 307.936 195.07 307.801 194.805C307.668 194.536 307.602 194.242 307.602 193.922ZM308.746 193.5V193.922C308.746 194.112 308.79 194.288 308.879 194.449C308.97 194.611 309.13 194.691 309.359 194.691C309.599 194.691 309.762 194.611 309.848 194.449C309.936 194.288 309.98 194.112 309.98 193.922V193.5C309.98 193.31 309.939 193.133 309.855 192.969C309.772 192.805 309.607 192.723 309.359 192.723C309.128 192.723 308.967 192.806 308.879 192.973C308.79 193.139 308.746 193.315 308.746 193.5ZM308.117 200L313.617 192H314.641L309.141 200H308.117ZM320.753 200H318.94L321.702 192H323.882L326.64 200H324.827L322.823 193.828H322.761L320.753 200ZM320.64 196.855H324.921V198.176H320.64V196.855ZM327.603 200V192H330.759C331.366 192 331.882 192.116 332.31 192.348C332.737 192.577 333.062 192.896 333.286 193.305C333.513 193.711 333.626 194.18 333.626 194.711C333.626 195.242 333.511 195.711 333.282 196.117C333.053 196.523 332.721 196.84 332.286 197.066C331.854 197.293 331.33 197.406 330.716 197.406H328.704V196.051H330.442C330.768 196.051 331.036 195.995 331.247 195.883C331.461 195.768 331.619 195.611 331.724 195.41C331.83 195.207 331.884 194.974 331.884 194.711C331.884 194.445 331.83 194.214 331.724 194.016C331.619 193.815 331.461 193.66 331.247 193.551C331.034 193.439 330.763 193.383 330.435 193.383H329.294V200H327.603ZM334.256 192H336.15L337.975 195.445H338.053L339.877 192H341.771L338.854 197.172V200H337.174V197.172L334.256 192Z" fill="#737373"/>
<path d="M299.752 246.594V245.262L303.092 240H304.24V241.844H303.561L301.455 245.176V245.238H306.201V246.594H299.752ZM303.592 248V246.187L303.623 245.598V240H305.209V248H303.592ZM311.707 246.5V246.078C311.707 245.758 311.775 245.464 311.91 245.195C312.048 244.924 312.247 244.708 312.508 244.547C312.771 244.383 313.091 244.301 313.469 244.301C313.852 244.301 314.173 244.382 314.434 244.543C314.697 244.704 314.895 244.921 315.027 245.191C315.163 245.46 315.23 245.755 315.23 246.078V246.5C315.23 246.82 315.163 247.116 315.027 247.387C314.892 247.655 314.693 247.87 314.43 248.031C314.167 248.195 313.846 248.277 313.469 248.277C313.086 248.277 312.764 248.195 312.504 248.031C312.243 247.87 312.046 247.655 311.91 247.387C311.775 247.116 311.707 246.82 311.707 246.5ZM312.844 246.078V246.5C312.844 246.685 312.888 246.859 312.977 247.023C313.068 247.187 313.232 247.27 313.469 247.27C313.706 247.27 313.867 247.189 313.953 247.027C314.042 246.866 314.086 246.69 314.086 246.5V246.078C314.086 245.888 314.044 245.711 313.961 245.547C313.878 245.383 313.714 245.301 313.469 245.301C313.234 245.301 313.072 245.383 312.98 245.547C312.889 245.711 312.844 245.888 312.844 246.078ZM307.602 241.922V241.5C307.602 241.177 307.671 240.882 307.809 240.613C307.947 240.342 308.146 240.126 308.406 239.965C308.669 239.803 308.987 239.723 309.359 239.723C309.745 239.723 310.068 239.803 310.328 239.965C310.589 240.126 310.786 240.342 310.922 240.613C311.057 240.882 311.125 241.177 311.125 241.5V241.922C311.125 242.245 311.056 242.54 310.918 242.809C310.783 243.077 310.583 243.292 310.32 243.453C310.06 243.612 309.74 243.691 309.359 243.691C308.979 243.691 308.658 243.611 308.395 243.449C308.134 243.285 307.936 243.07 307.801 242.805C307.668 242.536 307.602 242.242 307.602 241.922ZM308.746 241.5V241.922C308.746 242.112 308.79 242.288 308.879 242.449C308.97 242.611 309.13 242.691 309.359 242.691C309.599 242.691 309.762 242.611 309.848 242.449C309.936 242.288 309.98 242.112 309.98 241.922V241.5C309.98 241.31 309.939 241.133 309.855 240.969C309.772 240.805 309.607 240.723 309.359 240.723C309.128 240.723 308.967 240.806 308.879 240.973C308.79 241.139 308.746 241.315 308.746 241.5ZM308.117 248L313.617 240H314.641L309.141 248H308.117ZM320.753 248H318.94L321.702 240H323.882L326.64 248H324.827L322.823 241.828H322.761L320.753 248ZM320.64 244.855H324.921V246.176H320.64V244.855ZM327.603 248V240H330.759C331.366 240 331.882 240.116 332.31 240.348C332.737 240.577 333.062 240.896 333.286 241.305C333.513 241.711 333.626 242.18 333.626 242.711C333.626 243.242 333.511 243.711 333.282 244.117C333.053 244.523 332.721 244.84 332.286 245.066C331.854 245.293 331.33 245.406 330.716 245.406H328.704V244.051H330.442C330.768 244.051 331.036 243.995 331.247 243.883C331.461 243.768 331.619 243.611 331.724 243.41C331.83 243.207 331.884 242.974 331.884 242.711C331.884 242.445 331.83 242.214 331.724 242.016C331.619 241.815 331.461 241.66 331.247 241.551C331.034 241.439 330.763 241.383 330.435 241.383H329.294V248H327.603ZM334.256 240H336.15L337.975 243.445H338.053L339.877 240H341.771L338.854 245.172V248H337.174V245.172L334.256 240Z" fill="#737373"/>
<path d="M300.399 296V294.781L303.247 292.145C303.489 291.91 303.692 291.699 303.856 291.512C304.023 291.324 304.149 291.141 304.235 290.961C304.321 290.779 304.364 290.582 304.364 290.371C304.364 290.137 304.311 289.935 304.204 289.766C304.097 289.594 303.951 289.462 303.767 289.371C303.582 289.277 303.372 289.23 303.138 289.23C302.893 289.23 302.679 289.28 302.497 289.379C302.315 289.478 302.174 289.62 302.075 289.805C301.976 289.99 301.927 290.21 301.927 290.465H300.321C300.321 289.941 300.44 289.487 300.677 289.102C300.914 288.716 301.246 288.418 301.673 288.207C302.1 287.996 302.592 287.891 303.149 287.891C303.722 287.891 304.221 287.992 304.646 288.195C305.073 288.396 305.405 288.674 305.642 289.031C305.879 289.388 305.997 289.797 305.997 290.258C305.997 290.56 305.937 290.858 305.817 291.152C305.7 291.447 305.491 291.773 305.188 292.133C304.886 292.49 304.461 292.918 303.911 293.418L302.743 294.562V294.617H306.103V296H300.399ZM311.707 294.5V294.078C311.707 293.758 311.775 293.464 311.91 293.195C312.048 292.924 312.247 292.708 312.508 292.547C312.771 292.383 313.091 292.301 313.469 292.301C313.852 292.301 314.173 292.382 314.434 292.543C314.697 292.704 314.895 292.921 315.027 293.191C315.163 293.46 315.23 293.755 315.23 294.078V294.5C315.23 294.82 315.163 295.116 315.027 295.387C314.892 295.655 314.693 295.87 314.43 296.031C314.167 296.195 313.846 296.277 313.469 296.277C313.086 296.277 312.764 296.195 312.504 296.031C312.243 295.87 312.046 295.655 311.91 295.387C311.775 295.116 311.707 294.82 311.707 294.5ZM312.844 294.078V294.5C312.844 294.685 312.888 294.859 312.977 295.023C313.068 295.187 313.232 295.27 313.469 295.27C313.706 295.27 313.867 295.189 313.953 295.027C314.042 294.866 314.086 294.69 314.086 294.5V294.078C314.086 293.888 314.044 293.711 313.961 293.547C313.878 293.383 313.714 293.301 313.469 293.301C313.234 293.301 313.072 293.383 312.98 293.547C312.889 293.711 312.844 293.888 312.844 294.078ZM307.602 289.922V289.5C307.602 289.177 307.671 288.882 307.809 288.613C307.947 288.342 308.146 288.126 308.406 287.965C308.669 287.803 308.987 287.723 309.359 287.723C309.745 287.723 310.068 287.803 310.328 287.965C310.589 288.126 310.786 288.342 310.922 288.613C311.057 288.882 311.125 289.177 311.125 289.5V289.922C311.125 290.245 311.056 290.54 310.918 290.809C310.783 291.077 310.583 291.292 310.32 291.453C310.06 291.612 309.74 291.691 309.359 291.691C308.979 291.691 308.658 291.611 308.395 291.449C308.134 291.285 307.936 291.07 307.801 290.805C307.668 290.536 307.602 290.242 307.602 289.922ZM308.746 289.5V289.922C308.746 290.112 308.79 290.288 308.879 290.449C308.97 290.611 309.13 290.691 309.359 290.691C309.599 290.691 309.762 290.611 309.848 290.449C309.936 290.288 309.98 290.112 309.98 289.922V289.5C309.98 289.31 309.939 289.133 309.855 288.969C309.772 288.805 309.607 288.723 309.359 288.723C309.128 288.723 308.967 288.806 308.879 288.973C308.79 289.139 308.746 289.315 308.746 289.5ZM308.117 296L313.617 288H314.641L309.141 296H308.117ZM320.753 296H318.94L321.702 288H323.882L326.64 296H324.827L322.823 289.828H322.761L320.753 296ZM320.64 292.855H324.921V294.176H320.64V292.855ZM327.603 296V288H330.759C331.366 288 331.882 288.116 332.31 288.348C332.737 288.577 333.062 288.896 333.286 289.305C333.513 289.711 333.626 290.18 333.626 290.711C333.626 291.242 333.511 291.711 333.282 292.117C333.053 292.523 332.721 292.84 332.286 293.066C331.854 293.293 331.33 293.406 330.716 293.406H328.704V292.051H330.442C330.768 292.051 331.036 291.995 331.247 291.883C331.461 291.768 331.619 291.611 331.724 291.41C331.83 291.207 331.884 290.974 331.884 290.711C331.884 290.445 331.83 290.214 331.724 290.016C331.619 289.815 331.461 289.66 331.247 289.551C331.034 289.439 330.763 289.383 330.435 289.383H329.294V296H327.603ZM334.256 288H336.15L337.975 291.445H338.053L339.877 288H341.771L338.854 293.172V296H337.174V293.172L334.256 288Z" fill="#737373"/>
<path d="M302.892 344.176C302.22 344.173 301.642 344.008 301.157 343.68C300.675 343.352 300.304 342.876 300.044 342.254C299.786 341.632 299.659 340.883 299.661 340.008C299.661 339.135 299.79 338.392 300.048 337.777C300.308 337.163 300.679 336.695 301.161 336.375C301.646 336.052 302.222 335.891 302.892 335.891C303.561 335.891 304.136 336.052 304.618 336.375C305.103 336.698 305.475 337.167 305.735 337.781C305.996 338.393 306.125 339.135 306.122 340.008C306.122 340.885 305.992 341.635 305.731 342.258C305.474 342.88 305.104 343.355 304.622 343.684C304.14 344.012 303.563 344.176 302.892 344.176ZM302.892 342.773C303.35 342.773 303.716 342.543 303.989 342.082C304.263 341.621 304.398 340.93 304.396 340.008C304.396 339.401 304.333 338.896 304.208 338.492C304.086 338.089 303.911 337.785 303.685 337.582C303.461 337.379 303.196 337.277 302.892 337.277C302.436 337.277 302.071 337.505 301.798 337.961C301.524 338.417 301.386 339.099 301.384 340.008C301.384 340.622 301.445 341.135 301.567 341.547C301.692 341.956 301.868 342.263 302.095 342.469C302.321 342.672 302.587 342.773 302.892 342.773ZM311.707 342.5V342.078C311.707 341.758 311.775 341.464 311.91 341.195C312.048 340.924 312.247 340.708 312.508 340.547C312.771 340.383 313.091 340.301 313.469 340.301C313.852 340.301 314.173 340.382 314.434 340.543C314.697 340.704 314.895 340.921 315.027 341.191C315.163 341.46 315.23 341.755 315.23 342.078V342.5C315.23 342.82 315.163 343.116 315.027 343.387C314.892 343.655 314.693 343.87 314.43 344.031C314.167 344.195 313.846 344.277 313.469 344.277C313.086 344.277 312.764 344.195 312.504 344.031C312.243 343.87 312.046 343.655 311.91 343.387C311.775 343.116 311.707 342.82 311.707 342.5ZM312.844 342.078V342.5C312.844 342.685 312.888 342.859 312.977 343.023C313.068 343.187 313.232 343.27 313.469 343.27C313.706 343.27 313.867 343.189 313.953 343.027C314.042 342.866 314.086 342.69 314.086 342.5V342.078C314.086 341.888 314.044 341.711 313.961 341.547C313.878 341.383 313.714 341.301 313.469 341.301C313.234 341.301 313.072 341.383 312.98 341.547C312.889 341.711 312.844 341.888 312.844 342.078ZM307.602 337.922V337.5C307.602 337.177 307.671 336.882 307.809 336.613C307.947 336.342 308.146 336.126 308.406 335.965C308.669 335.803 308.987 335.723 309.359 335.723C309.745 335.723 310.068 335.803 310.328 335.965C310.589 336.126 310.786 336.342 310.922 336.613C311.057 336.882 311.125 337.177 311.125 337.5V337.922C311.125 338.245 311.056 338.54 310.918 338.809C310.783 339.077 310.583 339.292 310.32 339.453C310.06 339.612 309.74 339.691 309.359 339.691C308.979 339.691 308.658 339.611 308.395 339.449C308.134 339.285 307.936 339.07 307.801 338.805C307.668 338.536 307.602 338.242 307.602 337.922ZM308.746 337.5V337.922C308.746 338.112 308.79 338.288 308.879 338.449C308.97 338.611 309.13 338.691 309.359 338.691C309.599 338.691 309.762 338.611 309.848 338.449C309.936 338.288 309.98 338.112 309.98 337.922V337.5C309.98 337.31 309.939 337.133 309.855 336.969C309.772 336.805 309.607 336.723 309.359 336.723C309.128 336.723 308.967 336.806 308.879 336.973C308.79 337.139 308.746 337.315 308.746 337.5ZM308.117 344L313.617 336H314.641L309.141 344H308.117ZM320.753 344H318.94L321.702 336H323.882L326.64 344H324.827L322.823 337.828H322.761L320.753 344ZM320.64 340.855H324.921V342.176H320.64V340.855ZM327.603 344V336H330.759C331.366 336 331.882 336.116 332.31 336.348C332.737 336.577 333.062 336.896 333.286 337.305C333.513 337.711 333.626 338.18 333.626 338.711C333.626 339.242 333.511 339.711 333.282 340.117C333.053 340.523 332.721 340.84 332.286 341.066C331.854 341.293 331.33 341.406 330.716 341.406H328.704V340.051H330.442C330.768 340.051 331.036 339.995 331.247 339.883C331.461 339.768 331.619 339.611 331.724 339.41C331.83 339.207 331.884 338.974 331.884 338.711C331.884 338.445 331.83 338.214 331.724 338.016C331.619 337.815 331.461 337.66 331.247 337.551C331.034 337.439 330.763 337.383 330.435 337.383H329.294V344H327.603ZM334.256 336H336.15L337.975 339.445H338.053L339.877 336H341.771L338.854 341.172V344H337.174V341.172L334.256 336Z" fill="#737373"/>
<path d="M42.9545 57.0909V92H33.4773V68.0682H33.1364C32.8182 68.4886 32.3523 68.8977 31.7386 69.2955C31.1364 69.6932 30.375 70.0227 29.4545 70.2841C28.5341 70.5341 27.4432 70.6591 26.1818 70.6591V63.2273C27.1591 63.2273 28.0795 63.0682 28.9432 62.75C29.8182 62.4205 30.5909 61.9716 31.2614 61.4034C31.9318 60.8352 32.4545 60.1818 32.8295 59.4432C33.2159 58.7045 33.4091 57.9205 33.4091 57.0909H42.9545ZM65.3352 92.9545C62.1648 92.9432 59.4261 92.2102 57.1193 90.7557C54.8125 89.3011 53.0341 87.2045 51.7841 84.4659C50.5341 81.7273 49.9148 78.4432 49.9261 74.6136C49.9375 70.7727 50.5625 67.5114 51.8011 64.8295C53.0511 62.1477 54.8239 60.108 57.1193 58.7102C59.4261 57.3125 62.1648 56.6136 65.3352 56.6136C68.5057 56.6136 71.2443 57.3182 73.5511 58.7273C75.858 60.125 77.6364 62.1648 78.8864 64.8466C80.1364 67.5284 80.7557 70.7841 80.7443 74.6136C80.7443 78.4659 80.1193 81.7614 78.8693 84.5C77.6193 87.2386 75.8409 89.3352 73.5341 90.7898C71.2386 92.233 68.5057 92.9545 65.3352 92.9545ZM65.3352 85.25C66.9716 85.25 68.3125 84.3977 69.358 82.6932C70.4148 80.9773 70.9375 78.2841 70.9261 74.6136C70.9261 72.2159 70.6875 70.2557 70.2102 68.733C69.733 67.2102 69.0739 66.0852 68.233 65.358C67.392 64.6193 66.4261 64.25 65.3352 64.25C63.6989 64.25 62.3636 65.0795 61.3295 66.7386C60.2955 68.3977 59.767 71.0227 59.7443 74.6136C59.733 77.0568 59.9659 79.0682 60.4432 80.6477C60.9205 82.2159 61.5795 83.375 62.4205 84.125C63.2727 84.875 64.2443 85.25 65.3352 85.25ZM96.3452 88.0455V86.9332C96.3452 86.0407 96.5374 85.2169 96.9219 84.4616C97.3132 83.7064 97.8796 83.0988 98.6211 82.6388C99.3626 82.1789 100.265 81.9489 101.33 81.9489C102.421 81.9489 103.338 82.1754 104.079 82.6286C104.828 83.0817 105.394 83.6858 105.778 84.4411C106.163 85.1963 106.355 86.027 106.355 86.9332V88.0455C106.355 88.938 106.159 89.7618 105.768 90.517C105.384 91.2723 104.817 91.8799 104.069 92.3398C103.321 92.7998 102.407 93.0298 101.33 93.0298C100.252 93.0298 99.342 92.7998 98.6005 92.3398C97.859 91.8799 97.296 91.2723 96.9116 90.517C96.534 89.7618 96.3452 88.938 96.3452 88.0455ZM99.929 86.9332V88.0455C99.929 88.4368 100.025 88.8247 100.217 89.2092C100.416 89.5868 100.787 89.7756 101.33 89.7756C101.899 89.7756 102.274 89.5902 102.452 89.2195C102.637 88.8487 102.73 88.4574 102.73 88.0455V86.9332C102.73 86.5213 102.644 86.1231 102.473 85.7386C102.301 85.3542 101.92 85.1619 101.33 85.1619C100.787 85.1619 100.416 85.3542 100.217 85.7386C100.025 86.1231 99.929 86.5213 99.929 86.9332ZM85.3054 75.9759V74.8636C85.3054 73.9574 85.5011 73.1267 85.8924 72.3714C86.2906 71.6162 86.8604 71.0121 87.6019 70.5589C88.3434 70.1058 89.2393 69.8793 90.2898 69.8793C91.3814 69.8793 92.2979 70.1058 93.0394 70.5589C93.7878 71.0121 94.3542 71.6162 94.7386 72.3714C95.1231 73.1267 95.3153 73.9574 95.3153 74.8636V75.9759C95.3153 76.8821 95.1197 77.7094 94.7283 78.4577C94.3439 79.2061 93.7775 79.8034 93.0291 80.2496C92.2808 80.6959 91.3677 80.919 90.2898 80.919C89.2119 80.919 88.3022 80.6925 87.5607 80.2393C86.8192 79.7862 86.2563 79.1855 85.8718 78.4371C85.4942 77.6888 85.3054 76.8684 85.3054 75.9759ZM88.9304 74.8636V75.9759C88.9304 76.3878 89.0265 76.7791 89.2188 77.1499C89.411 77.5206 89.768 77.706 90.2898 77.706C90.8596 77.706 91.2338 77.5206 91.4123 77.1499C91.5977 76.7791 91.6903 76.3878 91.6903 75.9759V74.8636C91.6903 74.4517 91.6045 74.0535 91.4329 73.669C91.2612 73.2846 90.8802 73.0923 90.2898 73.0923C89.7474 73.0923 89.3835 73.2914 89.1982 73.6896C89.0196 74.081 88.9304 74.4723 88.9304 74.8636ZM87.0561 92L101.556 70.9091H104.481L89.9808 92H87.0561Z" fill="#5028FF"/>
<path d="M27.762 45H25.458V31.842H30.48C33.468 31.842 35.214 33.354 35.214 35.946C35.214 37.71 34.386 38.97 32.838 39.6L35.34 45H32.82L30.588 40.086H27.762V45ZM27.762 33.894V38.052H30.48C31.938 38.052 32.802 37.278 32.802 35.946C32.802 34.632 31.938 33.894 30.48 33.894H27.762ZM36.0378 40.536C36.0378 37.764 38.0358 35.856 40.7898 35.856C43.5438 35.856 45.5418 37.764 45.5418 40.536C45.5418 43.308 43.5438 45.216 40.7898 45.216C38.0358 45.216 36.0378 43.308 36.0378 40.536ZM38.2338 40.536C38.2338 42.156 39.2778 43.254 40.7898 43.254C42.3018 43.254 43.3458 42.156 43.3458 40.536C43.3458 38.916 42.3018 37.818 40.7898 37.818C39.2778 37.818 38.2338 38.916 38.2338 40.536ZM49.3164 45H47.2824V31.608H49.4784V37.404C50.0544 36.414 51.2424 35.82 52.5924 35.82C55.1304 35.82 56.6784 37.8 56.6784 40.608C56.6784 43.344 55.0044 45.234 52.4484 45.234C51.1164 45.234 49.9824 44.64 49.4604 43.614L49.3164 45ZM49.4964 40.518C49.4964 42.12 50.4864 43.218 51.9984 43.218C53.5464 43.218 54.4644 42.102 54.4644 40.518C54.4644 38.934 53.5464 37.8 51.9984 37.8C50.4864 37.8 49.4964 38.916 49.4964 40.518ZM62.405 45.234C59.759 45.234 57.905 43.308 57.905 40.554C57.905 37.764 59.723 35.838 62.333 35.838C64.997 35.838 66.689 37.62 66.689 40.392V41.058L59.993 41.076C60.155 42.642 60.983 43.434 62.441 43.434C63.647 43.434 64.439 42.966 64.691 42.12H66.725C66.347 44.064 64.727 45.234 62.405 45.234ZM62.351 37.638C61.055 37.638 60.263 38.34 60.047 39.672H64.511C64.511 38.448 63.665 37.638 62.351 37.638ZM74.0265 36.072V38.106H73.2165C71.6325 38.106 70.6425 38.952 70.6425 40.68V45H68.4465V36.126H70.5165L70.6425 37.422C71.0205 36.54 71.8665 35.946 73.0545 35.946C73.3605 35.946 73.6665 35.982 74.0265 36.072ZM78.8885 45H76.6925V37.944H74.9825V36.108H76.6925V33.336H78.8885V36.108H80.6165V37.944H78.8885V45ZM90.8472 45L85.8792 31.842H88.3272L91.2072 39.42C91.4952 40.212 91.7472 40.986 92.0352 42.048C92.3592 40.896 92.6292 40.086 92.8812 39.42L95.7252 31.842H98.1192L93.2232 45H90.8472ZM101.903 45.234C99.257 45.234 97.403 43.308 97.403 40.554C97.403 37.764 99.221 35.838 101.831 35.838C104.495 35.838 106.187 37.62 106.187 40.392V41.058L99.491 41.076C99.653 42.642 100.481 43.434 101.939 43.434C103.145 43.434 103.937 42.966 104.189 42.12H106.223C105.845 44.064 104.225 45.234 101.903 45.234ZM101.849 37.638C100.553 37.638 99.761 38.34 99.545 39.672H104.009C104.009 38.448 103.163 37.638 101.849 37.638ZM110.141 45H107.945V36.108H109.979L110.159 37.26C110.717 36.36 111.797 35.838 113.003 35.838C115.235 35.838 116.387 37.224 116.387 39.528V45H114.191V40.05C114.191 38.556 113.453 37.836 112.319 37.836C110.969 37.836 110.141 38.772 110.141 40.212V45ZM121.568 45H119.372V37.944H117.662V36.108H119.372V33.336H121.568V36.108H123.296V37.944H121.568V45ZM130.691 36.108H132.887V45H130.853L130.691 43.812C130.151 44.658 128.999 45.234 127.811 45.234C125.759 45.234 124.553 43.848 124.553 41.67V36.108H126.749V40.896C126.749 42.588 127.415 43.272 128.639 43.272C130.025 43.272 130.691 42.462 130.691 40.77V36.108ZM140.735 36.072V38.106H139.925C138.341 38.106 137.351 38.952 137.351 40.68V45H135.155V36.126H137.225L137.351 37.422C137.729 36.54 138.575 35.946 139.763 35.946C140.069 35.946 140.375 35.982 140.735 36.072ZM145.901 45.234C143.255 45.234 141.401 43.308 141.401 40.554C141.401 37.764 143.219 35.838 145.829 35.838C148.493 35.838 150.185 37.62 150.185 40.392V41.058L143.489 41.076C143.651 42.642 144.479 43.434 145.937 43.434C147.143 43.434 147.935 42.966 148.187 42.12H150.221C149.843 44.064 148.223 45.234 145.901 45.234ZM145.847 37.638C144.551 37.638 143.759 38.34 143.543 39.672H148.007C148.007 38.448 147.161 37.638 145.847 37.638ZM151.259 42.3H153.347C153.365 43.074 153.941 43.56 154.949 43.56C155.975 43.56 156.533 43.146 156.533 42.498C156.533 42.048 156.299 41.724 155.507 41.544L153.905 41.166C152.303 40.806 151.529 40.05 151.529 38.628C151.529 36.882 153.005 35.838 155.057 35.838C157.055 35.838 158.405 36.99 158.423 38.718H156.335C156.317 37.962 155.813 37.476 154.967 37.476C154.103 37.476 153.599 37.872 153.599 38.538C153.599 39.042 153.995 39.366 154.751 39.546L156.353 39.924C157.847 40.266 158.603 40.95 158.603 42.318C158.603 44.118 157.073 45.234 154.877 45.234C152.663 45.234 151.259 44.046 151.259 42.3ZM165.45 45V31.842H170.688C173.28 31.842 174.864 33.192 174.864 35.388C174.864 36.846 174.216 37.89 172.974 38.412C174.36 38.862 175.062 39.906 175.062 41.436C175.062 43.686 173.496 45 170.778 45H165.45ZM170.49 33.876H167.754V37.458H170.544C171.804 37.458 172.506 36.792 172.506 35.622C172.506 34.488 171.786 33.876 170.49 33.876ZM170.688 39.402H167.754V42.966H170.688C171.984 42.966 172.704 42.336 172.704 41.148C172.704 40.032 171.966 39.402 170.688 39.402ZM176.329 40.536C176.329 37.764 178.327 35.856 181.081 35.856C183.835 35.856 185.833 37.764 185.833 40.536C185.833 43.308 183.835 45.216 181.081 45.216C178.327 45.216 176.329 43.308 176.329 40.536ZM178.525 40.536C178.525 42.156 179.569 43.254 181.081 43.254C182.593 43.254 183.637 42.156 183.637 40.536C183.637 38.916 182.593 37.818 181.081 37.818C179.569 37.818 178.525 38.916 178.525 40.536ZM189.769 45H187.573V36.108H189.607L189.787 37.26C190.345 36.36 191.425 35.838 192.631 35.838C194.863 35.838 196.015 37.224 196.015 39.528V45H193.819V40.05C193.819 38.556 193.081 37.836 191.947 37.836C190.597 37.836 189.769 38.772 189.769 40.212V45ZM201.827 45.234C199.253 45.234 197.651 43.344 197.651 40.59C197.651 37.818 199.271 35.838 201.953 35.838C203.195 35.838 204.293 36.36 204.851 37.242V31.608H207.029V45H205.013L204.869 43.614C204.329 44.64 203.177 45.234 201.827 45.234ZM202.313 43.218C203.843 43.218 204.833 42.12 204.833 40.518C204.833 38.916 203.843 37.8 202.313 37.8C200.783 37.8 199.847 38.934 199.847 40.518C199.847 42.102 200.783 43.218 202.313 43.218ZM208.634 42.3H210.722C210.74 43.074 211.316 43.56 212.324 43.56C213.35 43.56 213.908 43.146 213.908 42.498C213.908 42.048 213.674 41.724 212.882 41.544L211.28 41.166C209.678 40.806 208.904 40.05 208.904 38.628C208.904 36.882 210.38 35.838 212.432 35.838C214.43 35.838 215.78 36.99 215.798 38.718H213.71C213.692 37.962 213.188 37.476 212.342 37.476C211.478 37.476 210.974 37.872 210.974 38.538C210.974 39.042 211.37 39.366 212.126 39.546L213.728 39.924C215.222 40.266 215.978 40.95 215.978 42.318C215.978 44.118 214.448 45.234 212.252 45.234C210.038 45.234 208.634 44.046 208.634 42.3Z" fill="#281480"/>
<path d="M132 152L144 160V344H132V152Z" fill="#ABBBD3"/>
<path d="M198 224L210 232V344H198V224Z" fill="#ABBBD3"/>
<path d="M264 304L276 312V344H264V304Z" fill="#ABBBD3"/>
</svg>
