<svg width="48" height="48" viewBox="0 0 48 48" fill="none" xmlns="http://www.w3.org/2000/svg">
<path d="M42 27V39C42 39.3978 41.842 39.7794 41.5607 40.0607C41.2794 40.342 40.8978 40.5 40.5 40.5H7.5C7.10218 40.5 6.72064 40.342 6.43934 40.0607C6.15804 39.7794 6 39.3978 6 39V27C6 26.6022 6.15804 26.2206 6.43934 25.9393C6.72064 25.658 7.10218 25.5 7.5 25.5C7.89782 25.5 8.27936 25.658 8.56066 25.9393C8.84196 26.2206 9 26.6022 9 27V37.5H39V27C39 26.6022 39.158 26.2206 39.4393 25.9393C39.7206 25.658 40.1022 25.5 40.5 25.5C40.8978 25.5 41.2794 25.658 41.5607 25.9393C41.842 26.2206 42 26.6022 42 27ZM22.9387 28.0613C23.0781 28.2007 23.2435 28.3114 23.4256 28.3868C23.6077 28.4623 23.8029 28.5012 24 28.5012C24.1971 28.5012 24.3923 28.4623 24.5744 28.3868C24.7565 28.3114 24.9219 28.2007 25.0613 28.0613L32.5613 20.5613C32.7006 20.4219 32.8112 20.2564 32.8866 20.0743C32.962 19.8923 33.0008 19.6971 33.0008 19.5C33.0008 19.3029 32.962 19.1077 32.8866 18.9257C32.8112 18.7436 32.7006 18.5781 32.5613 18.4387C32.4219 18.2994 32.2564 18.1888 32.0743 18.1134C31.8923 18.038 31.6971 17.9992 31.5 17.9992C31.3029 17.9992 31.1077 18.038 30.9257 18.1134C30.7436 18.1888 30.5781 18.2994 30.4387 18.4387L25.5 23.3794V6C25.5 5.60218 25.342 5.22064 25.0607 4.93934C24.7794 4.65804 24.3978 4.5 24 4.5C23.6022 4.5 23.2206 4.65804 22.9393 4.93934C22.658 5.22064 22.5 5.60218 22.5 6V23.3794L17.5613 18.4387C17.2798 18.1573 16.898 17.9992 16.5 17.9992C16.102 17.9992 15.7202 18.1573 15.4387 18.4387C15.1573 18.7202 14.9992 19.102 14.9992 19.5C14.9992 19.898 15.1573 20.2798 15.4387 20.5613L22.9387 28.0613Z" fill="#343330"/>
</svg>
