<svg width="940" height="942" viewBox="0 0 940 942" fill="none" xmlns="http://www.w3.org/2000/svg">
<g clip-path="url(#clip0_2596_3139)">
<path d="M701.714 859.524L701.885 859.52C721.581 858.857 738.76 854.211 752.948 845.715C790.264 823.374 806.573 773.919 798.873 706.461C790.927 636.869 759.139 553.757 706.931 466.082C656.527 506.24 600.268 544.982 539.714 581.24C465.122 625.903 388.464 663.994 318.022 691.394C246.126 719.361 184.139 734.769 138.664 735.99C198.064 835.203 286.656 903.911 388.206 929.49C480.352 952.703 576.847 938.099 659.893 888.374C659.91 888.361 659.914 888.357 659.927 888.349C674.21 879.799 688.223 870.136 701.585 859.632L701.714 859.524ZM753.485 846.611C739.185 855.174 721.898 859.865 702.093 860.557C688.739 871.045 674.731 880.699 660.464 889.245C660.456 889.249 660.439 889.257 660.431 889.261C577.135 939.136 480.372 953.778 387.951 930.499C285.868 904.786 196.856 835.624 137.314 735.761L136.855 734.995L137.747 734.969C183.181 733.936 245.389 718.528 317.643 690.419C388.031 663.044 464.635 624.982 539.181 580.344C599.881 544.003 656.26 505.157 706.752 464.894L707.214 464.523L707.518 465.036C813.352 642.536 832.252 799.449 753.485 846.611Z" fill="#BFD1D7"/>
<path d="M705.376 861.974C629.726 907.266 549.647 939.22 502.076 940.307L502.051 939.266C568.03 937.762 696.863 876.603 789.238 802.937L789.884 803.749C763.872 824.495 734.959 844.257 705.376 861.974Z" fill="#BFD1D7"/>
<path d="M647.281 761.812C517.977 839.237 381.106 893.857 299.814 895.716L299.785 894.674C412.689 892.099 633.106 787.474 791.136 661.453L791.786 662.266C747.306 697.736 697.865 731.524 647.281 761.812Z" fill="#BFD1D7"/>
<path d="M657.544 901.453C634.027 915.536 607.327 922.02 578.373 920.449C534.089 918.041 485.635 896.803 438.252 859.028C389.427 820.103 342.448 764.028 302.41 696.874L303.302 696.34C343.281 763.39 390.169 819.365 438.902 858.215C486.11 895.853 534.364 917.011 578.431 919.403C627.485 922.07 670.035 901.428 701.49 859.728L702.319 860.353C689.206 877.745 674.169 891.503 657.544 901.453Z" fill="#BFD1D7"/>
<path d="M703.298 880.474C703.19 880.537 703.082 880.595 702.965 880.645C689.186 886.578 610.294 773.774 506.652 599.945L507.548 599.407C626.277 798.549 691.865 884.295 702.552 879.687C702.623 879.653 702.694 879.62 702.765 879.578C704.423 878.582 705.411 874.328 701.402 860.182L702.407 859.899C705.84 872.028 706.136 878.774 703.298 880.474Z" fill="#BFD1D7"/>
<path d="M802.707 206.457C823.294 241.132 839.798 278.603 851.778 317.861C876.065 280.915 883.261 251.186 872.582 231.832C862.911 214.299 839.407 205.765 802.707 206.457ZM707.757 465.428C770.148 570.178 803.473 668.816 801.748 743.524C875.594 620.432 894.153 462.466 851.423 320.286C822.853 363.04 773.207 413.199 707.757 465.428ZM703.448 859.458C722.486 858.608 739.132 853.991 752.948 845.716L752.961 845.712C782.244 828.183 798.682 794.237 800.586 747.462C774.023 790.899 741.352 828.57 703.448 859.458ZM753.498 846.608L753.486 846.612C739.14 855.199 721.794 859.891 701.923 860.562L700.369 860.616L701.577 859.637C740.373 828.262 773.707 789.807 800.657 745.332C802.978 670.507 769.586 571.166 706.627 465.57L706.394 465.182L706.752 464.895C772.661 412.341 822.544 361.89 851.032 318.995C838.973 279.22 822.257 241.282 801.353 206.224L800.898 205.461L801.79 205.436C839.419 204.578 863.544 213.29 873.494 231.332C884.44 251.17 877.065 281.536 852.173 319.161C895.486 462.436 876.623 621.836 801.69 745.637C800.144 793.745 783.482 828.653 753.498 846.608Z" fill="#BFD1D7"/>
<path d="M789.884 803.749L789.238 802.936C849.755 754.682 882.259 710.69 874.076 688.136C870.297 677.703 857.613 672.44 837.409 672.899L837.384 671.857C858.08 671.386 871.109 676.89 875.055 687.778C883.397 710.77 850.759 755.207 789.884 803.749Z" fill="#BFD1D7"/>
<path d="M791.785 662.265L791.135 661.453C894.752 578.824 950.393 503.436 936.343 464.707C929.814 446.711 908.006 437.615 873.276 438.407L873.251 437.365C908.472 436.561 930.627 445.894 937.322 464.353C951.531 503.511 895.764 579.349 791.785 662.265Z" fill="#BFD1D7"/>
<path d="M756.569 834.22C739.565 844.399 721.373 853.207 702.09 860.528L701.719 859.553C792.127 825.232 858.744 758.028 889.294 670.311C906.952 619.616 912.061 564.824 904.482 507.457C896.632 448.07 875.544 389.265 841.806 332.678L842.702 332.145C876.515 388.853 897.644 447.79 905.511 507.32C913.115 564.849 907.99 619.803 890.277 670.653C866.14 739.953 819.561 796.499 756.569 834.22Z" fill="#BFD1D7"/>
<path d="M709.018 856.461C706.747 857.82 704.463 859.161 702.163 860.495L701.643 859.59C757.697 827.253 805.551 785.215 843.884 734.736C880.934 685.953 907.451 631.524 922.701 572.957C952.459 458.661 935.797 340.286 875.788 239.636L876.68 239.103C936.839 339.994 953.539 458.653 923.709 573.219C908.426 631.919 881.847 686.474 844.718 735.365C807.868 783.878 762.243 824.59 709.018 856.461Z" fill="#BFD1D7"/>
<path d="M233.167 476.269C294.855 579.619 377.492 676.328 465.905 748.607C554.251 820.841 637.984 860.22 701.718 859.524C789.947 788.107 848.914 680.965 867.751 557.819C886.597 434.644 863.072 309.882 801.509 206.486C756.101 207.582 694.013 222.982 621.909 251.032C551.522 278.407 474.917 316.469 400.376 361.103C339.817 397.361 283.567 436.107 233.167 476.269ZM702.093 860.557L701.909 860.561C637.909 861.336 553.859 821.866 465.247 749.415C376.63 676.97 293.813 580.011 232.042 476.411L231.805 476.019L232.159 475.736C282.688 435.448 339.101 396.578 399.842 360.207C474.43 315.548 551.092 277.457 621.534 250.057C693.905 221.907 756.239 206.478 801.789 205.436L802.093 205.432L802.247 205.694C864.051 309.344 887.68 434.461 868.78 557.982C849.893 681.449 790.743 788.865 702.23 860.445L702.093 860.557Z" fill="#BFD1D7"/>
<path d="M837.41 672.899C771.43 674.407 642.605 735.562 550.23 809.228L549.576 808.412C642.11 734.633 771.214 673.37 837.385 671.857L837.41 672.899Z" fill="#BFD1D7"/>
<path d="M873.277 438.407C760.377 440.986 539.956 545.611 381.931 671.628L381.281 670.815C539.469 544.674 760.161 439.949 873.252 437.365L873.277 438.407Z" fill="#BFD1D7"/>
<path d="M702.327 860.345L701.485 859.737C745.656 798.741 763.231 701.337 750.973 585.457C738.702 469.47 697.96 348.599 636.256 245.111L637.152 244.574C698.931 348.19 739.718 469.211 752.006 585.349C764.293 701.482 746.652 799.145 702.327 860.345Z" fill="#BFD1D7"/>
<path d="M702.401 859.895L701.406 860.186C680.006 787.724 559.16 555.282 432.014 342.04L432.909 341.507C560.093 554.811 680.989 787.361 702.401 859.895Z" fill="#BFD1D7"/>
<path d="M232.347 476.924C112.63 572.482 48.3842 659.645 64.6426 704.465C72.2176 725.34 97.4967 735.89 137.747 734.97L138.051 734.961L138.209 735.224C197.593 834.832 286.372 903.811 388.18 929.461C480.351 952.691 576.855 938.091 659.926 888.349C673.768 880.061 687.372 870.72 700.381 860.574C636.576 860.707 553.16 821.291 465.247 749.415C376.776 677.09 294.084 580.332 232.347 476.924ZM660.464 889.245C577.155 939.128 480.368 953.77 387.926 930.478C285.934 904.782 196.997 835.728 137.468 736.02C96.9009 736.89 71.3842 726.103 63.6634 704.82C47.2259 659.507 111.793 571.728 232.159 475.736L232.63 475.365L232.934 475.878C294.643 579.378 377.38 676.236 465.905 748.607C554.335 820.907 638.143 860.295 701.897 859.52L703.431 859.499L702.222 860.449C688.818 870.99 674.768 880.678 660.464 889.245Z" fill="#BFD1D7"/>
<path d="M502.077 940.308C481.381 940.778 468.356 935.274 464.41 924.387C456.069 901.395 488.702 856.957 549.577 808.412L550.231 809.228C489.71 857.482 457.206 901.474 465.385 924.028C469.169 934.462 481.848 939.728 502.052 939.266L502.077 940.308Z" fill="#BFD1D7"/>
<path d="M299.815 895.716C264.594 896.52 242.44 887.186 235.744 868.732C221.535 829.57 277.302 753.732 381.281 670.815L381.931 671.628C278.315 754.261 222.673 829.645 236.723 868.374C243.252 886.374 265.06 895.47 299.785 894.674L299.815 895.716Z" fill="#BFD1D7"/>
<path d="M702.081 860.528C601.922 896.899 483.897 890.849 369.755 843.491C255.576 796.12 158.659 712.949 96.8594 609.303L97.7552 608.774C159.439 712.228 256.18 795.245 370.16 842.528C484.06 889.787 601.81 895.828 701.727 859.553L702.081 860.528Z" fill="#BFD1D7"/>
<path d="M702.161 860.495C592.915 921.77 466.356 939.112 345.794 909.328C225.165 879.528 124.69 806.016 62.877 702.349L63.7686 701.812C125.44 805.241 225.69 878.583 346.048 908.316C466.348 938.037 592.64 920.733 701.648 859.587L702.161 860.495Z" fill="#BFD1D7"/>
<path d="M138.05 734.962C183.459 733.866 245.55 718.47 317.642 690.424C388.026 663.049 464.63 624.982 539.18 580.345C599.738 544.086 655.992 505.345 706.392 465.182C644.717 361.84 562.076 265.144 473.671 192.869C385.326 120.64 301.592 81.2609 237.863 81.9609C149.634 153.378 90.6628 260.515 71.8211 383.653C52.9753 506.828 76.4961 631.582 138.05 734.962ZM539.713 581.241C465.113 625.907 388.455 663.999 318.021 691.395C245.659 719.545 183.33 734.974 137.771 736.011L137.467 736.02L137.313 735.761C75.517 632.116 51.892 507.015 70.792 383.499C89.6878 260.032 148.838 152.615 237.35 81.0401L237.488 80.9234H237.671C301.667 80.1443 385.713 119.615 474.33 192.061C562.942 264.507 645.759 361.449 707.522 465.036L707.755 465.428L707.401 465.715C656.872 506.003 600.455 544.874 539.713 581.241Z" fill="#BFD1D7"/>
<path d="M413.785 370.203C284.476 447.628 147.61 502.249 66.3222 504.103L66.293 503.061C179.197 500.486 399.622 395.87 557.643 269.84L558.293 270.657C513.814 306.124 464.368 339.915 413.785 370.203Z" fill="#BFD1D7"/>
<path d="M305.489 191.286C229.839 236.582 149.764 268.536 102.193 269.623L102.168 268.582C168.147 267.073 296.981 205.923 389.347 132.252L389.997 133.069C363.985 153.811 335.072 173.573 305.489 191.286Z" fill="#BFD1D7"/>
<path d="M303.301 696.341L302.409 696.874C240.638 593.274 199.855 472.261 187.567 356.128C175.284 239.994 192.93 142.336 237.255 81.1401L238.097 81.7485C193.926 142.74 176.346 240.14 188.605 356.019C200.876 472.003 241.605 592.866 303.301 696.341Z" fill="#BFD1D7"/>
<path d="M507.547 599.407L506.651 599.945C379.476 386.644 258.588 154.111 237.176 81.59L238.176 81.2983C259.572 153.748 380.405 386.174 507.547 599.407Z" fill="#BFD1D7"/>
<path d="M239.196 80.9111C303.005 80.7736 386.417 120.19 474.33 192.061C562.793 264.386 645.484 361.128 707.213 464.524C826.93 368.97 891.176 281.807 874.918 236.986C867.343 216.107 842.064 205.561 801.814 206.478L801.509 206.486L801.351 206.224C741.976 106.632 653.209 37.6652 551.409 12.0152C459.234 -11.2098 362.722 3.39439 279.655 53.1319C265.813 61.4194 252.209 70.7611 239.196 80.9111ZM706.93 466.082L706.626 465.57C644.922 362.082 562.193 265.236 473.672 192.869C385.247 120.578 301.434 81.1903 237.684 81.9653L236.146 81.9819L237.355 81.032C250.763 70.4944 264.813 60.8027 279.117 52.236C362.43 2.35685 459.222 -12.289 551.663 11.0027C653.647 36.6986 742.572 105.736 802.093 205.432C842.655 204.561 868.176 215.345 875.897 236.632C892.334 281.94 827.768 369.72 707.401 465.716L706.93 466.082Z" fill="#BFD1D7"/>
<path d="M558.292 270.657L557.643 269.84C661.259 187.215 716.901 111.828 702.851 73.0986C696.322 55.0985 674.513 46.0027 639.788 46.7986L639.763 45.7569C674.98 44.9527 697.134 54.2861 703.83 72.7444C718.038 111.907 662.268 187.74 558.292 270.657Z" fill="#BFD1D7"/>
<path d="M389.998 133.069L389.348 132.253C449.864 83.9943 482.373 40.0067 474.194 17.4525C470.41 7.02336 457.731 1.75254 437.523 2.21504L437.498 1.17337C458.194 0.702537 471.223 6.20667 475.173 17.0983C483.506 40.09 450.877 84.5234 389.998 133.069Z" fill="#BFD1D7"/>
<path d="M842.702 332.145L841.807 332.678C780.132 229.236 683.394 146.228 569.419 98.9445C455.519 51.6944 337.769 45.6527 237.852 81.9319L237.502 80.9528C337.656 44.5861 455.673 50.632 569.819 97.9862C683.998 145.353 780.911 228.511 842.702 332.145Z" fill="#BFD1D7"/>
<path d="M876.681 239.103L875.789 239.636C814.127 136.219 713.889 62.8902 593.535 33.161C473.23 3.44435 346.939 20.7527 237.93 81.8944L237.422 80.9902C346.664 19.7151 473.218 2.36514 593.78 32.1485C714.41 61.9485 814.877 135.449 876.681 239.103Z" fill="#BFD1D7"/>
<path d="M399.842 360.207C474.438 315.545 551.101 277.453 621.538 250.053C693.426 222.09 755.417 206.682 800.897 205.461C741.522 106.29 652.951 37.6027 551.405 12.0235C459.226 -11.2015 362.717 3.39857 279.655 53.1319C265.384 61.6778 251.367 71.3361 237.996 81.8528L237.863 81.957L237.696 81.9653C217.996 82.6278 200.813 87.2694 186.629 95.7653C149.309 118.111 133 167.561 140.696 235.011C148.638 304.595 180.425 387.699 232.629 475.366C283.034 435.207 339.288 396.466 399.842 360.207ZM802.705 206.457L801.813 206.478C756.376 207.52 694.167 222.924 621.913 251.024C551.534 278.403 474.926 316.465 400.375 361.103C339.675 397.449 283.3 436.291 232.813 476.553L232.346 476.924L232.038 476.411C126.217 298.932 107.321 142.032 186.092 94.8736C200.392 86.3069 217.684 81.6194 237.488 80.9278C250.854 70.4277 264.859 60.7777 279.117 52.2361C362.421 2.35685 459.213 -12.2806 551.659 11.0152C653.738 36.7319 742.73 105.869 802.247 205.69L802.705 206.457Z" fill="#BFD1D7"/>
<path d="M639.79 46.7985C526.889 49.3777 306.473 153.994 148.443 280.019L147.789 279.203C305.973 153.065 526.669 48.3402 639.764 45.7568L639.79 46.7985Z" fill="#BFD1D7"/>
<path d="M437.523 2.21501C371.548 3.71918 242.718 64.8692 150.343 138.544L149.693 137.728C242.227 63.9442 371.327 2.68584 437.498 1.17334L437.523 2.21501Z" fill="#BFD1D7"/>
<path d="M637.152 244.574L636.256 245.111C596.285 178.069 549.401 122.103 500.672 83.2608C453.46 45.6233 405.214 24.4691 361.151 22.0733C312.089 19.415 269.543 40.0483 238.093 81.7567L237.264 81.1275C268.93 39.14 311.789 18.3483 361.21 21.0358C405.489 23.44 453.939 44.6733 501.318 82.4442C550.151 121.365 597.118 177.432 637.152 244.574Z" fill="#BFD1D7"/>
<path d="M432.909 341.507L432.013 342.04C313.296 142.923 247.717 57.1898 237.025 61.7981C235.255 62.5815 234.005 66.5732 238.175 81.3024L237.175 81.5857C233.738 69.4523 233.446 62.7107 236.284 61.0107C236.392 60.9482 236.5 60.8898 236.613 60.8398C250.392 54.9023 329.275 167.694 432.909 341.507Z" fill="#BFD1D7"/>
<path d="M186.631 95.765C157.348 113.298 140.902 147.24 138.998 194.015C165.56 150.578 198.227 112.915 236.135 82.0233C217.09 82.8774 200.444 87.4941 186.631 95.765ZM137.835 197.953C63.9895 321.044 45.4229 479.003 88.1396 621.161C116.71 578.407 166.352 528.253 231.806 476.019C169.423 371.286 136.11 272.665 137.835 197.953ZM87.7854 623.582C63.4979 660.528 56.3062 690.261 66.9812 709.62C76.652 727.149 100.156 735.686 136.856 734.99C116.269 700.32 99.7646 662.853 87.7854 623.582ZM138.665 735.99L137.773 736.011C100.144 736.874 76.0229 728.161 66.0728 710.12C55.127 690.282 62.502 659.911 87.3937 622.286C44.0895 479.028 62.9562 319.64 137.894 195.84C139.44 147.736 156.106 112.827 186.094 94.8733C200.435 86.2858 217.781 81.5941 237.66 80.9233L239.215 80.8691L238.006 81.8483C199.21 113.219 165.877 151.669 138.923 196.14C136.606 270.969 169.99 370.307 232.936 475.878L233.169 476.269L232.815 476.553C166.902 529.111 117.019 579.561 88.5312 622.453C100.594 662.236 117.31 700.174 138.21 735.224L138.665 735.99Z" fill="#BFD1D7"/>
</g>
<defs>
<clipPath id="clip0_2596_3139">
<rect width="940" height="942" fill="white"/>
</clipPath>
</defs>
</svg>
