<svg width="20" height="20" viewBox="0 0 20 20" fill="none" xmlns="http://www.w3.org/2000/svg">
<rect width="20" height="20" rx="2.5" fill="#5ACE79"/>
<path d="M16.0055 8.06866L9.31797 14.7562C9.16171 14.9123 8.94983 15 8.72891 15C8.50799 15 8.29611 14.9123 8.13985 14.7562L4.40964 11.0062C4.25364 10.8499 4.16602 10.6381 4.16602 10.4174C4.16602 10.1966 4.25364 9.9848 4.40964 9.82855L5.45131 8.78689C5.60749 8.63136 5.81892 8.54404 6.03933 8.54404C6.25974 8.54404 6.47117 8.63136 6.62735 8.78689L8.74974 10.8452L13.7893 5.86762C13.9455 5.71193 14.1571 5.62451 14.3776 5.62451C14.5981 5.62451 14.8097 5.71193 14.9659 5.86762L16.005 6.88533C16.0831 6.96276 16.1451 7.0549 16.1875 7.15643C16.2298 7.25796 16.2517 7.36687 16.2517 7.47688C16.2518 7.58689 16.23 7.69582 16.1878 7.79739C16.1455 7.89896 16.0835 7.99115 16.0055 8.06866Z" fill="white"/>
</svg>
