<svg width="35" height="35" viewBox="0 0 35 35" fill="none" xmlns="http://www.w3.org/2000/svg">
<path d="M17.5 22.6111V29M22.7 20.0556V29M27.9 14.9444V29M30.5 6L19.2602 17.0477C19.1998 17.1072 19.1281 17.1544 19.0491 17.1866C18.9702 17.2188 18.8855 17.2354 18.8 17.2354C18.7145 17.2354 18.6298 17.2188 18.5509 17.1866C18.4719 17.1544 18.4002 17.1072 18.3398 17.0477L14.0602 12.8412C13.9383 12.7214 13.773 12.6542 13.6006 12.6542C13.4283 12.6542 13.263 12.7214 13.1411 12.8412L4.5 21.3333M7.1 25.1667V29M12.3 20.0556V29" stroke="#241273" stroke-width="2" stroke-linecap="round" stroke-linejoin="round"/>
</svg>
