<svg width="104" height="15" viewBox="0 0 104 15" fill="none" xmlns="http://www.w3.org/2000/svg">
<g clip-path="url(#clip0_2629_586)">
<path d="M15.1332 14.5005H25.0525V11.889H18.1397V8.68502H23.8674V6.07354H18.1397V3.11093H25.0964V0.499451H15.1332V14.5005ZM36.9907 9.32144L30.4949 0.499451H26.0181L27.4226 2.27702V14.5444H30.4071V5.34935L37.1224 14.5005H39.9972V0.499451H36.9907V9.32144ZM10.6125 7.30247C11.9292 7.06108 13.0265 5.83214 13.0265 4.09847C13.0265 2.23312 11.6659 0.499451 8.96662 0.499451H0.276306L1.63691 2.23312V14.5225H9.27385C11.9731 14.5225 13.3776 12.8327 13.3776 10.7259C13.3118 8.99226 12.1267 7.49998 10.6125 7.30247ZM4.62146 3.13288H8.3741C9.38358 3.13288 10.02 3.7254 10.02 4.60321C10.02 5.48102 9.38358 6.07354 8.3741 6.07354H4.62146V3.13288ZM8.50577 11.911H4.62146V8.68502H8.50577C9.64692 8.68502 10.2833 9.40922 10.2833 10.287C10.2833 11.2965 9.60303 11.889 8.50577 11.911ZM83.8438 9.32144H85.4019V10.9673C84.5899 11.6257 83.5804 11.9988 82.5271 12.0207C80.0253 12.0207 78.2697 10.1115 78.2697 7.54387C78.2697 4.97628 80.0472 3.06704 82.5271 3.06704C83.8218 3.06704 85.0288 3.74735 85.7311 4.84461L88.1011 3.52789C87.0917 1.92589 85.3141 0.499451 82.5051 0.499451C78.533 0.499451 75.2412 3.24261 75.2412 7.49998C75.2412 11.7574 78.4891 14.5005 82.5051 14.5005C84.6996 14.5444 86.7844 13.6008 88.2328 11.9768V6.79773H81.8248L83.8438 9.32144ZM70.3474 9.32144L63.8297 0.499451H59.3748L60.7574 2.27702V14.5444H63.7639V5.34935L70.4791 14.5005H73.332V0.499451H70.3474V9.32144ZM98.1521 0.499451H92.3805L93.763 2.27702L93.5216 2.95732L89.0448 14.5444H92.4244L93.3022 12.1743H99.3371L100.215 14.5444H103.594L98.1521 0.499451ZM94.0702 9.54089L96.2648 3.50595L98.4593 9.54089H94.0702ZM54.6347 0.499451H57.6412V14.5663H54.6347V0.499451ZM52.2426 2.91343V0.499451H41.687V3.11093H48.3144L41.687 12.1085V14.5005H52.3524V11.889H45.5713L52.2426 2.91343Z" fill="#AFB5BC"/>
</g>
<defs>
<clipPath id="clip0_2629_586">
<rect width="103.384" height="14.0011" fill="white" transform="translate(0.276306 0.499451)"/>
</clipPath>
</defs>
</svg>
