<svg width="124" height="18" viewBox="0 0 124 18" fill="none" xmlns="http://www.w3.org/2000/svg">
<g clip-path="url(#clip0_2629_379)">
<path d="M16.902 17.6658V0H20.9248V17.6658H16.902ZM95.0909 11.0684C95.0909 6.80044 91.7811 4.15156 87.9117 4.15156C84.0424 4.15156 80.7325 6.8252 80.7325 11.0684C80.7325 15.3115 84.0424 18 87.9117 18C91.7811 18 95.0909 15.3041 95.0909 11.0609V11.0684ZM91.13 11.0684C91.13 13.2964 89.6446 14.5515 87.8919 14.5515C86.1392 14.5515 84.6538 13.3013 84.6538 11.0684C84.6538 8.83537 86.1392 7.60253 87.8919 7.60253C89.6446 7.60253 91.1176 8.80567 91.1176 11.0609L91.13 11.0684ZM15.2953 12.5884C15.2953 10.6079 14.2655 9.08046 12.4261 8.39472C14.159 7.43914 14.7804 6.18649 14.7804 4.71599C14.7804 2.14138 12.9163 0.0123779 8.74737 0.0321826H0.751221V17.6906H9.089C13.2703 17.6658 15.2829 15.5739 15.2829 12.5809L15.2953 12.5884ZM10.5125 5.23092C10.5125 6.43158 9.75246 7.11979 8.28443 7.11979H4.93249V3.43364H8.26711C9.61878 3.43364 10.5001 4.02283 10.5001 5.22349L10.5125 5.23092ZM10.8566 12.3111C10.8566 13.4647 10.0471 14.2247 8.5518 14.2247H4.93249V10.3999H8.5617C10.0099 10.3999 10.8566 11.1352 10.8566 12.3111ZM50.2952 7.74859C49.191 5.44382 47.1314 4.16889 44.0171 4.16889C40.3383 4.16889 37.0508 6.47366 37.0508 11.0609C37.0508 15.517 39.9447 17.9926 43.9676 17.9926C46.7873 17.9926 49.1663 16.8637 50.2952 14.4352L47.0571 12.7666C46.4679 13.846 45.5717 14.5317 44.1136 14.5317C42.2495 14.5317 41.0488 13.2073 41.0488 11.0485C41.0488 8.88984 42.4228 7.58273 44.0913 7.58273C45.391 7.58273 46.3714 8.17192 46.9853 9.44684L50.2952 7.74859ZM109.576 7.74859C108.471 5.44382 106.412 4.16889 103.298 4.16889C99.6188 4.16889 96.3312 6.47366 96.3312 11.0609C96.3312 15.517 99.2252 17.9926 103.248 17.9926C106.068 17.9926 108.447 16.8637 109.576 14.4352L106.338 12.7666C105.748 13.846 104.852 14.5317 103.394 14.5317C101.53 14.5317 100.329 13.2073 100.329 11.0485C100.329 8.88984 101.703 7.58273 103.372 7.58273C104.671 7.58273 105.652 8.17192 106.266 9.44684L109.576 7.74859ZM75.863 17.6658L72.4987 11.7244H69.9241V17.6658H65.7824V0H73.2637C77.3112 0 80.131 1.93839 80.131 5.73841C80.131 8.16697 78.9303 9.88255 76.7963 10.9371L80.6682 17.6658H75.863ZM69.9513 8.2239H73.0433C74.957 8.2239 75.8878 7.14455 75.8878 5.86962C75.8878 4.34961 75.004 3.51533 73.0433 3.51533H69.9513V8.2239ZM36.3997 17.438V14.6654C36.1767 14.7293 35.946 14.7627 35.7139 14.7644C35.199 14.7644 34.9292 14.4946 34.9292 14.0217V9.44189C34.9292 6.00825 32.6244 4.19365 28.8219 4.19365C26.3463 4.19365 24.2346 5.10219 22.9102 6.27809L25.1382 8.78091C26.0226 7.98256 27.1653 7.52989 28.3565 7.50598C30.1216 7.50598 30.9559 8.38977 30.9559 9.83551V10.2514C29.9205 9.9959 28.8585 9.86377 27.7921 9.85779C24.5738 9.85779 22.4943 11.4026 22.4943 13.9549C22.4943 16.579 24.2272 17.953 26.933 17.953C28.7724 17.953 30.4162 17.193 31.2752 16.2201C31.7901 17.5197 32.919 17.8638 34.0231 17.8638C34.8365 17.892 35.6466 17.7468 36.3997 17.438ZM30.9781 13.2939C30.9781 14.4946 29.8245 15.2744 28.5026 15.2744C27.2524 15.2744 26.6384 14.6357 26.6384 13.7544C26.6384 12.8235 27.3242 12.1353 28.7229 12.1353C29.4835 12.1464 30.2402 12.2453 30.9781 12.4299V13.2939ZM123.959 17.6658L119.225 9.44932L123.664 4.61697H119.208L114.524 9.81571V0.0247559H110.519V17.6831H114.517V14.4946L116.43 12.4596L119.423 17.6831H123.961L123.959 17.6658ZM64.7278 17.6658L59.9945 9.44932L64.4332 4.61697H59.9202L55.2859 9.81571V0.0247559H51.2879V17.6831H55.2859V14.4946L57.1996 12.4596L60.1926 17.6831H64.7303L64.7278 17.6658Z" fill="#AFB5BC"/>
</g>
<defs>
<clipPath id="clip0_2629_379">
<rect width="123.288" height="18" fill="white" transform="translate(0.712402)"/>
</clipPath>
</defs>
</svg>
