<svg width="146" height="14" viewBox="0 0 146 14" fill="none" xmlns="http://www.w3.org/2000/svg">
<g clip-path="url(#clip0_2629_563)">
<path fill-rule="evenodd" clip-rule="evenodd" d="M0.865732 0.794661H6.06799C8.96155 0.794661 10.4746 2.29071 10.4746 4.12792C10.4746 5.39617 9.75938 6.25757 8.76766 6.71316V6.74601C10.0359 7.2016 10.7511 8.20921 10.7511 9.49335C10.7511 11.3306 9.33663 12.94 6.2799 12.94H0.865732V0.794661ZM5.90589 5.60702C6.76728 5.60702 7.15824 5.16838 7.15824 4.67993C7.15824 4.19149 6.76834 3.73696 5.90589 3.73696H4.37805V5.60702H5.90589ZM5.95463 9.99663C6.86476 9.99663 7.30446 9.55798 7.30446 8.98902C7.30446 8.42005 6.84886 7.98141 5.97158 7.98141H4.37805V9.99769H5.95463V9.99663ZM11.4981 7.9973V0.794661H15.0422V7.96446C15.0422 9.31429 15.7086 10.0295 16.8465 10.0295C17.9845 10.0295 18.6996 9.31429 18.6996 7.94857V0.794661H22.2607V7.9973C22.2607 11.054 20.2126 13.2494 16.8465 13.2494C13.4804 13.2494 11.497 11.054 11.497 7.9973H11.4981ZM31.2847 1.37952V4.50088C30.5207 3.96476 29.2197 3.59074 28.1633 3.59074C27.2044 3.59074 26.716 3.90013 26.716 4.30592C26.716 4.71172 27.2521 4.92363 28.212 5.26479C29.8384 5.83376 32.0486 6.59767 32.0486 9.18291C32.0486 11.4916 30.3088 13.1985 27.2521 13.1985C25.6755 13.1985 24.2282 12.7429 23.334 12.1422V8.85764C24.2123 9.57282 25.5452 10.1418 26.8294 10.1418C27.9186 10.1418 28.4229 9.73492 28.4229 9.28039C28.4229 8.69553 27.5933 8.43489 26.6016 8.07677C25.3005 7.60528 23.2365 6.75978 23.2365 4.40234C23.2365 2.2727 24.9116 0.532959 27.9027 0.532959C29.2196 0.532959 30.4063 0.874126 31.2847 1.37846V1.37952ZM32.9587 0.794661H36.5028V12.94H32.9587V0.794661ZM49.1037 12.94H45.7217L41.348 6.42073H41.3321V12.94H37.9671V0.794661H41.3491L45.7228 7.20054H45.7387V0.794661H49.1037V12.94ZM50.5669 0.794661H58.9562V3.94886H54.111V5.41207H58.4678V8.27384H54.111V9.78578H58.9562V12.94H50.5669V0.794661ZM67.8499 1.37952V4.50088C67.086 3.96476 65.7849 3.59074 64.7285 3.59074C63.7697 3.59074 63.2812 3.90013 63.2812 4.30592C63.2812 4.71172 63.8173 4.92363 64.7773 5.26479C66.4036 5.83376 68.6138 6.59767 68.6138 9.18291C68.6138 11.4916 66.8741 13.1985 63.8173 13.1985C62.2408 13.1985 60.7935 12.7429 59.8992 12.1422V8.85764C60.7776 9.57282 62.1104 10.1418 63.3946 10.1418C64.4838 10.1418 64.9881 9.73492 64.9881 9.28039C64.9881 8.69553 64.1585 8.43489 63.1668 8.07677C61.8657 7.60528 59.8017 6.75978 59.8017 4.40234C59.8017 2.2727 61.4769 0.532959 64.4679 0.532959C65.7849 0.532959 66.9715 0.874126 67.8499 1.37846V1.37952ZM77.2309 1.37952V4.50088C76.467 3.96476 75.1659 3.59074 74.1096 3.59074C73.1507 3.59074 72.6622 3.90013 72.6622 4.30592C72.6622 4.71172 73.1984 4.92363 74.1583 5.26479C75.7847 5.83376 77.9948 6.59767 77.9948 9.18291C77.9948 11.4916 76.2551 13.1985 73.1984 13.1985C71.6218 13.1985 70.1745 12.7429 69.2802 12.1422V8.85764C70.1586 9.57282 71.4915 10.1418 72.7756 10.1418C73.8648 10.1418 74.3691 9.73492 74.3691 9.28039C74.3691 8.69553 73.5395 8.43489 72.5478 8.07677C71.2467 7.60528 69.1828 6.75978 69.1828 4.40234C69.1828 2.2727 70.8579 0.532959 73.8489 0.532959C75.1659 0.532959 76.3526 0.874126 77.2309 1.37846V1.37952ZM82.1015 12.9633H85.6456V0.81903H82.1015V12.9644V12.9633ZM98.2444 0.81903H94.8794V7.22491H94.8635L90.4898 0.81903H87.1078V12.9644H90.4728V6.4451H90.4887L94.8624 12.9644H98.2444V0.81903ZM103.949 0.558388C100.957 0.558388 99.2828 2.29813 99.2828 4.42777C99.2828 6.78521 101.348 7.63071 102.648 8.1022C103.64 8.46032 104.469 8.7199 104.469 9.30582C104.469 9.76141 103.965 10.1672 102.876 10.1672C101.591 10.1672 100.258 9.59825 99.3803 8.88307V12.1676C100.274 12.7694 101.722 13.2239 103.298 13.2239C106.355 13.2239 108.095 11.517 108.095 9.20834C108.095 6.6231 105.884 5.85918 104.258 5.29022C103.299 4.94905 102.762 4.7541 102.762 4.33135C102.762 3.9086 103.25 3.61617 104.21 3.61617C105.266 3.61617 106.567 3.99019 107.331 4.5263V1.40389C106.453 0.899554 105.266 0.558388 103.949 0.558388ZM108.922 12.9633H112.466V0.81903H108.922V12.9644V12.9633ZM117.474 9.76035H118.157C119.994 9.76035 121.181 8.7199 121.181 6.89858C121.181 5.07726 119.994 4.02091 118.157 4.02091H117.474V9.76035ZM124.758 6.89858C124.758 10.5571 121.994 12.9633 118.027 12.9633H113.93V0.81903H118.027C121.994 0.81903 124.758 3.2411 124.758 6.89964V6.89858ZM125.719 12.9633H134.108V9.80909H129.263V8.29715H133.62V5.43538H129.263V3.97217H134.108V0.81903H125.719V12.9644V12.9633ZM139.687 6.55741C140.581 6.55741 141.28 6.13466 141.28 5.28916C141.28 4.44366 140.581 4.02091 139.671 4.02091H138.923V6.55741H139.687ZM145.491 12.9633H141.312L139.003 9.20728H138.922V12.9633H135.378V0.81903H139.703C142.743 0.81903 144.856 2.16886 144.856 5.04653C144.856 6.18446 144.352 7.84261 142.335 8.68811L145.49 12.9644L145.491 12.9633Z" fill="#AFB5BC"/>
</g>
<defs>
<clipPath id="clip0_2629_563">
<rect width="144.625" height="12.7143" fill="white" transform="translate(0.865732 0.534912)"/>
</clipPath>
</defs>
</svg>
