<svg width="187" height="32" viewBox="0 0 187 32" fill="none" xmlns="http://www.w3.org/2000/svg">
<path fill-rule="evenodd" clip-rule="evenodd" d="M7.51994 24.8755C3.7017 24.8755 2.14625 20.7439 1.3833 16.187H0.5V25.3675H1.26295L2.38765 23.8151C2.38765 23.8151 4.30417 25.5654 7.39606 25.5654C11.6176 25.5654 14.0373 22.9758 14.0373 19.5221C14.0373 12.1162 3.00913 9.62668 3.00913 3.68692C3.00913 2.04714 4.34639 1.25707 5.6717 1.25707C8.64324 1.25707 10.1881 4.59565 11.1115 7.99674H11.9554V0.43457H11.2326L9.86719 2.08592C9.86719 2.08592 8.18083 0.599531 5.77093 0.599531C2.71986 0.599531 0.551379 2.87832 0.551379 5.61957C0.551379 12.5543 10.9243 14.4864 10.9243 21.2359C10.9243 23.5159 9.72079 24.8755 7.51994 24.8755ZM21.7067 24.7248C20.2908 24.7248 19.6676 23.1675 19.6676 16.6961C19.6676 10.4192 20.2419 8.75523 21.6981 8.75523C23.114 8.75523 23.5989 10.4192 23.5989 16.6961C23.5989 23.1675 23.0417 24.7248 21.7067 24.7248ZM21.6981 8.18641C17.9767 8.18641 15.5151 11.1956 15.5151 16.6314C15.5151 22.3582 17.815 25.3027 21.7385 25.3027C25.5005 25.3027 27.7147 22.3259 27.7147 16.6638C27.7147 11.2279 25.6621 8.18641 21.6981 8.18641ZM30.2751 21.6046C30.2751 22.7174 30.5245 23.6008 31.1485 24.2226C31.8141 24.9425 32.9368 25.3027 34.1433 25.3027C36.057 25.3027 37.3875 24.4847 38.053 23.1425C38.1479 22.9549 38.2295 22.7662 38.3024 22.5763V24.3861V25.0411H42.0459H43.6679V24.3861H42.0459V8.18641H41.8381H38.0946H36.4726V8.84091H38.0946V17.743C38.0946 19.4116 38.0115 21.2116 37.6375 22.2264C37.3043 23.1098 36.6387 23.6662 35.6823 23.6662C34.8089 23.6662 34.268 23.2411 34.268 22.1283V8.18641H34.0187H30.2751H28.6531V8.84091H30.2751V21.6046ZM46.5998 23.7013C47.343 24.8451 48.6645 25.3027 50.151 25.3027C51.3545 25.3027 52.3097 24.9969 52.9285 24.4167C53.4343 23.9419 53.6283 23.2878 53.6283 22.4282C53.6283 22.3428 53.6348 20.0295 53.6348 19.9448H52.7092C52.7092 20.0158 52.7114 22.3417 52.7114 22.4282C52.7114 22.986 52.6174 23.3938 52.4031 23.7042C52.1273 24.1051 51.6722 24.3279 51.1655 24.3279C50.664 24.3279 50.3398 24.1601 50.1343 23.8629C49.9498 23.5965 49.9028 23.2094 49.9028 22.7151V8.76839H53.9908V8.01639H49.9028V2.23291H48.9945C48.9945 2.23291 48.4575 5.17391 46.5173 6.7747C45.0309 8.01639 43.6681 8.14755 43.6681 8.14755V8.80047H45.9804V20.8909C45.9804 22.0673 46.1454 23.0152 46.5998 23.7013Z" fill="#AFB5BC"/>
<path fill-rule="evenodd" clip-rule="evenodd" d="M62.7023 25.3023H66.4456H68.0677V24.6474H66.4456V11.6808C66.4456 9.71627 65.4062 8.17701 62.9932 8.17701C61.1219 8.17701 59.4088 9.17908 58.6266 10.5674V0.744141H58.4181H54.6755H53.0527V1.39899H54.6755V24.6474V25.3023H54.8833H58.4181H58.6266H60.2486V24.6474H58.6266V13.1541C58.6266 12.3684 58.7928 11.7462 59.1252 11.2222C59.6246 10.4365 60.4148 9.91255 61.0804 9.91255C61.9537 9.91255 62.4531 10.3705 62.4531 11.5494V25.3023H62.7023ZM75.3423 8.89509C76.6399 8.89509 77.1302 10.7499 77.2071 14.6342C77.213 14.9308 77.1981 15.8422 77.1981 16.1574H73.317C73.3222 15.9021 73.3266 14.7964 73.3355 14.5563C73.4767 10.4567 74.103 8.89509 75.3423 8.89509ZM75.7889 25.3023C78.0884 25.3023 79.724 24.6311 80.5277 23.0378C81.0453 22.0135 81.0224 20.9186 81.0646 19.6293H80.0945C80.0908 19.7191 80.0827 20.1044 80.0827 20.1977C80.0827 21.4497 79.8896 22.3842 79.4807 23.0672C78.9891 23.8893 77.9952 24.3362 76.7982 24.3362C75.2654 24.3362 74.3633 23.6316 73.8597 22.4039C73.402 21.2864 73.3074 19.7185 73.3074 17.7383C73.3074 17.6174 73.3081 17.0162 73.3088 16.8987H81.1215C81.1215 16.8987 81.2058 16.18 81.2058 14.8263C81.2058 10.5392 79.2656 8.18604 75.3844 8.18604C73.5706 8.18604 72.094 8.89509 70.9967 10.0878C69.7737 11.4737 69.0062 13.8342 69.0062 16.6252V16.8399C69.0062 19.3219 69.3893 21.457 70.4621 22.9797C71.6386 24.6492 73.643 25.3023 75.7889 25.3023ZM83.0081 25.3023H86.4883H86.6936H88.2906V24.6466H86.6936V13.0717C86.6936 11.6619 86.939 11.0062 87.4716 10.2843C87.7357 9.93203 88.0206 9.66709 88.3156 9.46823C88.2266 9.66709 88.1678 9.89123 88.1678 10.1533C88.1678 11.2355 89.0276 11.924 90.2966 11.924C91.5254 11.924 92.467 11.1045 92.467 10.0878C92.467 8.90731 91.4844 8.18604 90.0102 8.18604C88.536 8.18604 87.2104 8.99122 86.4883 10.3516V9.07168V8.41592H82.8035H81.2058V9.07168H82.8035V24.6466H81.2058V25.3023H82.8035H83.0081ZM95.2353 25.3023H98.771H98.9788H100.601V24.6478H98.9788V13.1605C98.9788 12.3752 99.145 11.7534 99.4774 11.2297C99.9776 10.4444 100.767 9.92067 101.432 9.92067C102.306 9.92067 102.806 10.3784 102.806 11.5566V25.3023H103.055H106.798H108.42V24.6478H106.798V11.688C106.798 9.72449 105.759 8.18604 103.346 8.18604C101.288 8.18604 99.4184 9.3958 98.771 11.0002V9.10268V8.44818H95.0275H93.4055V9.10268H95.0275V24.6478H93.4055V25.3023H95.0275H95.2353ZM118.565 25.3023H127.189V17.0067H126.301C125.794 20.5151 124.442 24.581 119.75 24.581H118.862V1.39986H120.511V0.744141H118.565H115.058H113.112V1.39986H114.761V24.6466H113.112V25.3023H114.761H118.565ZM129.098 25.3023H132.786H133.004H134.696V24.6376H133.004V8.18604H132.786H128.881H127.189V8.85072H128.881V24.6376H127.189V25.3023H128.881H129.098ZM130.493 2.97668C129.231 2.97668 128.127 3.72701 128.127 4.85277C128.127 6.04101 129.231 6.69761 130.493 6.69761C131.794 6.69761 132.819 5.97853 132.819 4.85277C132.819 3.72701 131.794 2.97668 130.493 2.97668ZM144.72 8.18604H142.585V8.84431H144.536L141.702 19.0236L139.176 8.84431H140.45V8.18604H139.055H139.012H135.194H135.154H133.758V8.84431H135.154H135.194L140.05 25.3023H140.902L145.481 8.84431H146.896V8.18604H145.664H144.72ZM149.743 25.3023H153.432H153.649H155.342V24.6376H153.649V8.18604H153.432H149.527H147.835V8.85072H149.527V24.6376H147.835V25.3023H149.527H149.743ZM151.139 2.97668C149.877 2.97668 148.773 3.72701 148.773 4.85277C148.773 6.04101 149.877 6.69761 151.139 6.69761C152.44 6.69761 153.465 5.97853 153.465 4.85277C153.465 3.72701 152.44 2.97668 151.139 2.97668ZM157.172 25.3023H160.707H160.915H162.537V24.6478H160.915V13.1605C160.915 12.3752 161.081 11.7534 161.414 11.2297C161.914 10.4444 162.704 9.92067 163.369 9.92067C164.242 9.92067 164.741 10.3784 164.741 11.5566V25.3023H164.991H168.734H170.357V24.6478H168.734V11.688C168.734 9.72449 167.695 8.18604 165.282 8.18604C163.224 8.18604 161.353 9.39638 160.707 11.0008V9.10268V8.44818H156.964H155.342V9.10268H156.964V24.6478H155.342V25.3023H156.964H157.172Z" fill="#AFB5BC"/>
<path fill-rule="evenodd" clip-rule="evenodd" d="M177.407 20.7114C176.235 20.7114 175.27 19.4896 175.27 14.8C175.27 10.1771 176.417 9.10219 177.464 9.10219C178.554 9.10219 179.461 10.1441 179.461 14.767C179.461 19.3906 178.623 20.7114 177.407 20.7114ZM184.195 9.45064C185.243 9.45064 186.082 8.78963 186.082 7.93126C186.082 6.9739 185.284 6.31348 184.112 6.31348C182.474 6.31348 181.02 7.64474 180.461 9.04605C179.607 8.61136 178.623 8.36073 177.533 8.36073C173.888 8.36073 170.913 11.1014 170.913 14.734C170.913 17.7595 172.147 20.0134 174.541 20.9673C172.696 21.3198 171.223 22.2713 171.223 23.6512C171.223 25.3408 173.075 26.1274 175.511 26.1274C176.932 26.1274 179.064 26.1395 179.406 26.1395C180.89 26.1395 181.684 26.2981 182.362 26.7606C182.887 27.1194 183.149 27.726 183.149 28.4206C183.149 30.1408 181.17 31.2006 178.378 31.2006C175.663 31.2006 174.064 30.4007 174.064 28.8408C174.064 27.4007 175.396 26.9811 175.396 26.9811V26.7496C175.396 26.7496 173.755 26.5765 172.415 26.841C171.074 27.105 170.131 27.8007 170.131 28.941C170.131 30.7607 172.77 32.0006 177.388 32.0006C182.494 32.0006 185.201 29.8607 185.201 27.1009C185.201 25.7303 184.521 24.6033 183.174 23.9609C182.083 23.4411 181 23.2912 179.494 23.2912H175.79C174.458 23.2912 173.72 23.0811 173.72 22.4212C173.72 21.7012 175.019 21.4708 176.276 21.4708H177.407C181.43 21.4708 183.818 18.6972 183.818 14.767C183.818 12.5843 182.841 10.6563 181.216 9.49926C181.314 9.07614 181.507 8.71497 181.808 8.32774C181.979 8.08927 182.176 7.89768 182.385 7.74083C182.368 7.82302 182.353 7.90579 182.353 7.99724C182.353 8.8232 183.148 9.45064 184.195 9.45064Z" fill="#AFB5BC"/>
<path fill-rule="evenodd" clip-rule="evenodd" d="M184.817 21.2703C185.052 21.4577 185.17 21.6842 185.17 21.9494C185.17 22.2169 185.052 22.4446 184.817 22.633C184.582 22.8215 184.295 22.9161 183.959 22.9161C183.622 22.9161 183.337 22.8215 183.101 22.633C182.867 22.4446 182.751 22.2169 182.751 21.9494C182.751 21.6842 182.867 21.4577 183.104 21.2703C183.34 21.0818 183.625 20.9873 183.959 20.9873C184.294 20.9873 184.58 21.0818 184.817 21.2703ZM184.958 21.1625C184.681 20.9458 184.349 20.8369 183.959 20.8369C183.571 20.8369 183.24 20.9458 182.967 21.1625C182.692 21.3804 182.555 21.6427 182.555 21.9494C182.555 22.2595 182.69 22.5235 182.963 22.7408C183.236 22.9599 183.569 23.0694 183.959 23.0694C184.349 23.0694 184.681 22.9599 184.958 22.7408C185.232 22.5218 185.37 22.2584 185.37 21.9494C185.37 21.6416 185.232 21.3793 184.958 21.1625ZM184.168 21.8981C184.11 21.9165 184.024 21.9252 183.909 21.9252H183.664V21.4819H183.896C184.047 21.4819 184.156 21.4969 184.226 21.5269C184.293 21.5574 184.327 21.6174 184.327 21.7061C184.327 21.8007 184.274 21.8641 184.168 21.8981ZM183.391 22.5587H183.664V22.0751H183.879C184.024 22.0751 184.124 22.0889 184.182 22.1148C184.279 22.1604 184.327 22.2543 184.327 22.3961V22.493L184.333 22.5327C184.334 22.5385 184.335 22.5425 184.337 22.5466C184.338 22.5506 184.34 22.5547 184.34 22.5587H184.596L184.587 22.5431C184.58 22.5339 184.576 22.512 184.574 22.4797C184.571 22.4469 184.57 22.4169 184.57 22.3886V22.2993C184.57 22.237 184.541 22.1742 184.485 22.1091C184.429 22.0439 184.34 22.0042 184.218 21.9892C184.314 21.9771 184.389 21.9575 184.443 21.9298C184.543 21.8779 184.595 21.7972 184.595 21.6883C184.595 21.5338 184.514 21.4312 184.354 21.3781C184.265 21.3487 184.124 21.3337 183.932 21.3337H183.391V22.5587Z" fill="#AFB5BC"/>
</svg>
