<svg width="136" height="32" viewBox="0 0 136 32" fill="none" xmlns="http://www.w3.org/2000/svg">
<mask id="mask0_3205_136" style="mask-type:alpha" maskUnits="userSpaceOnUse" x="0" y="0" width="136" height="32">
<path fill-rule="evenodd" clip-rule="evenodd" d="M0.0195312 0.0996094H135.883V31.8932H0.0195312V0.0996094Z" fill="white"/>
</mask>
<g mask="url(#mask0_3205_136)">
<path fill-rule="evenodd" clip-rule="evenodd" d="M123.584 5.09197H128.007V1.20195H131.145V5.09197H135.569V8.08406H131.145V11.9744H128.007V8.08406H123.584V5.09197ZM124.713 28.2898H135.882V31.5971H120.792V18.3053H135.569V21.6122H124.713V23.3765H133.577V26.3687H124.713V28.2898ZM120.258 13.3917H105.324V0.0996094H109.246V10.0843H120.258V13.3917ZM110.798 22.8253C110.798 22.0376 110.296 21.6122 109.089 21.6122H102.406V24.0379H109.089C110.296 24.0379 110.798 23.6127 110.798 22.8253ZM108.116 27.2662H102.406V31.5971H98.484V18.3053H108.932C112.932 18.3053 114.877 20.2738 114.877 22.7777C114.877 24.5733 113.795 25.9118 111.85 26.5889L115.835 31.5971H111.442L108.116 27.2662ZM88.1618 10.0843H99.3314V13.3917H84.2403V0.0996094H99.0178V3.40696H88.1618V5.17071H97.0252V8.1631H88.1618V10.0843ZM88.601 25.6127V18.3053H92.5233V25.7701C92.5233 29.8333 89.825 31.912 84.3347 31.912C78.8439 31.912 76.146 29.8333 76.146 25.7701V18.3053H80.0674V25.6127C80.0674 27.5971 81.291 28.4472 84.3347 28.4472C87.3777 28.4472 88.601 27.5971 88.601 25.6127ZM72.8359 13.3917H69.3058L61.3054 0.0996094H65.7292L71.1257 9.20246L76.5221 0.0996094H80.8358L72.8359 13.3917ZM68.3959 22.4628C65.3841 21.4237 63.7528 21.156 61.7761 21.156C59.282 21.156 58.7329 21.5651 58.7329 22.1324C58.7329 22.5415 59.0465 22.7777 60.0818 22.8722L65.8076 23.3607C69.761 23.6914 71.1416 25.3134 71.1416 27.4712C71.1416 30.0221 68.3806 31.912 62.7801 31.912C60.2386 31.912 56.8505 31.3765 53.8698 30.3845L55.9404 27.1401C58.8897 28.2271 61.7136 28.7152 63.7685 28.7152C66.4666 28.7152 67.0627 28.2898 67.0627 27.7545C67.0627 27.3292 66.7645 26.9987 65.5881 26.8884L60.0191 26.3687C56.2383 26.0221 54.811 24.5891 54.811 22.4315C54.811 20.1478 56.9604 17.9904 62.5449 17.9904C64.9763 17.9904 67.5331 18.4628 70.3099 19.4864L68.3959 22.4628ZM55.0934 7.98989L52.7404 3.89515L50.3871 7.98989H55.0934ZM44.3632 31.5971H48.2851V18.3053H44.3632V31.5971ZM56.913 11.1394H48.5675L47.2655 13.3917H43.03L51.0302 0.0996094H54.56L62.5606 13.3917H58.2152L56.913 11.1394ZM35.594 4.61955C35.594 3.83215 35.092 3.40696 33.8842 3.40696H27.2015V5.83211H33.8842C35.092 5.83211 35.594 5.40694 35.594 4.61955ZM27.2015 28.2898H38.3709V31.5971H23.2796V18.3053H38.057V21.6122H27.2015V23.3765H36.0646V26.3687H27.2015V28.2898ZM32.9118 9.06074H27.2015V13.3917H23.2796V0.0996094H33.7274C37.7277 0.0996094 39.6727 2.06808 39.6727 4.57229C39.6727 6.36754 38.5904 7.70641 36.645 8.38358L40.6296 13.3917H36.2374L32.9118 9.06074ZM18.1029 31.5971H3.16863V18.3053H7.09051V28.2898H18.1029V31.5971ZM0 0.0996094H18.1029V3.40696H11.0124V13.3917H7.09051V3.40696H0V0.0996094Z" fill="#AFB5BC"/>
</g>
</svg>
