<svg width="177" height="64" viewBox="0 0 177 64" fill="none" xmlns="http://www.w3.org/2000/svg">
<rect width="177" height="64" fill="white"/>
<g clip-path="url(#clip0_58_173)">
<path d="M37.5696 44.5929C44.6704 44.5929 50.4236 38.8596 50.4236 31.7875C50.4236 24.7165 44.6704 18.9844 37.5696 18.9844C30.4712 18.9844 24.7168 24.7162 24.7168 31.7875C24.7168 38.8596 30.4712 44.5929 37.5696 44.5929Z" fill="white"/>
<path d="M35.595 33.9224H40.3257L41.7076 34.8151H35.3863L32.5492 43.5505C29.415 42.3395 26.5143 39.5345 25.2975 36.382C24.0003 33.3267 24.0003 29.4883 25.3259 26.4202C26.5685 23.2665 29.553 20.4182 32.7295 19.2481C35.2294 18.2168 38.5745 18.1076 41.2254 18.9193C44.2676 19.7872 47.1401 21.9591 48.8098 24.7945C50.6777 27.9038 51.2024 31.855 50.0668 35.4035C49.3498 37.7585 47.8724 40.0137 45.8383 41.6265L42.3467 35.831L47.2072 38.5315C47.2345 38.5315 47.2486 38.5008 47.2345 38.4728L40.8681 32.9979L49.1021 34.2489C49.1305 34.2489 49.1423 34.236 49.1423 34.2217L49.088 34.1806L41.3245 31.4687L49.3923 29.5283C49.4193 29.5283 49.4193 29.5025 49.4052 29.4883L41.1287 30.025L47.6092 25.1376C47.6233 25.1105 47.5667 25.0976 47.5538 25.1259L40.2736 28.8023L44.2923 21.7395C44.2923 21.729 44.2923 21.6995 44.2676 21.7136L39.0168 27.8521L40.025 19.7874C40.025 19.7722 39.9954 19.7582 39.9684 19.7722L37.5535 27.6031L35.4393 19.5372C35.4252 19.5243 35.3968 19.5101 35.3816 19.5372L35.964 27.9038L30.9774 21.4388C30.9621 21.4236 30.949 21.4388 30.9349 21.4516L34.7071 28.6061L27.5767 24.7253C27.5638 24.7253 27.5353 24.7405 27.5353 24.7534L33.8769 29.9406L25.782 29.0888C25.7536 29.104 25.7536 29.1288 25.782 29.1417L33.6306 31.4287L25.8245 33.7133C25.8093 33.725 25.8093 33.7533 25.8245 33.7662L33.8769 32.8312L27.5494 38.1849C27.5353 38.1849 27.5222 38.212 27.5494 38.2272L27.6344 38.2001L32.7014 35.5571L33.8912 33.6719H35.2438L34.3061 33.012L37.4403 27.9999L35.5915 33.9187L35.595 33.9224ZM58.9425 40.5184H52.6256L57.6844 22.5319H70.6313L69.3981 26.8004H62.7912L61.9434 29.8625H68.5515L67.437 33.7914H60.8304L58.9425 40.5184ZM73.5595 40.5186H67.3158L71.0185 27.3786H77.2633L73.5595 40.5186ZM77.6016 26.1253H71.358L72.3743 22.5321H78.618L77.6016 26.1253ZM89.7593 40.5182H83.6358L84.0709 39.0476C82.8362 40.0848 81.5782 40.8306 79.57 40.8306C77.5359 40.8306 76.2542 39.8661 76.2542 37.8177C76.2542 35.552 77.1504 32.1761 78.4804 29.814C79.4484 28.0533 81.1913 27.1384 83.2489 27.1384C85.0142 27.1384 86.3219 27.909 86.83 28.8732L88.5727 22.5328H94.8163L89.7593 40.5182ZM85.0637 31.2834C84.5059 31.2834 83.9507 31.4537 83.6358 32.2243C83.1759 33.3331 82.7643 34.4184 82.7643 35.5026C82.7643 36.0101 83.1275 36.4435 83.7323 36.4435C84.2157 36.4435 84.5306 36.299 84.797 36.131L86.0564 31.8143C85.8385 31.5009 85.4507 31.2834 85.0637 31.2834ZM107.389 34.7805H98.7742C98.6045 35.4781 98.4359 35.961 98.4359 36.5153C98.4359 36.7807 98.4843 37.4561 99.3543 37.4561C100.226 37.4561 100.614 37.1177 100.976 35.841H107.099C106.324 39.5773 101.872 40.8542 99.1374 40.8542C95.4336 40.8542 92.5543 40.3245 92.5543 36.7807C92.5543 34.8275 93.546 31.5973 94.8537 29.8858C96.4267 27.8362 99.1611 27.0656 101.679 27.0656C105.551 27.0656 108.067 27.8608 108.067 31.1391C108.067 31.9355 107.729 33.6951 107.389 34.7805ZM101.145 30.3685C100.371 30.3685 99.8389 30.8983 99.4994 32.2245H102.065C102.138 31.9591 102.235 31.5491 102.235 31.3071C102.235 30.5846 101.799 30.3685 101.145 30.3685ZM113.665 40.5184H107.42L112.479 22.5319H118.724L113.665 40.5184ZM121.915 40.5186H115.671L119.373 27.3786H125.618L121.915 40.5186ZM125.956 26.1253H119.713L120.729 22.5321H126.973L125.956 26.1253ZM137.182 27.3786L137.725 30.3445H132.946L131.543 35.334C131.422 35.7206 131.325 36.2021 131.325 36.5158C131.325 37.0936 131.567 37.2875 132.413 37.2875H133.745L132.825 40.5189H127.258C125.418 40.5189 124.717 39.6262 124.717 38.2754C124.717 37.722 124.79 37.1184 124.985 36.443L128.372 24.4611H134.616L133.793 27.3788L137.182 27.3786ZM52.4979 42.5385L54.0545 42.5374L53.0628 45.7722H51.5109L52.4979 42.5385ZM57.9304 42.5411L60.2073 42.5399L60.7909 44.6964H60.8064L61.4654 42.5388L62.8168 42.5376L61.8181 45.7654L59.6389 45.7725L59.008 43.4679H58.9975L58.3065 45.7678L56.9551 45.769L57.9304 42.5411ZM65.7677 42.5425L67.4809 42.5413L67.7816 44.5746L69.3488 42.539L70.9347 42.5378L68.3204 45.7668L66.4173 45.7692L65.7677 42.5425ZM73.9184 42.5437L77.4596 42.5402L77.2602 43.1957L75.2238 43.1969L75.0271 43.8604L76.936 43.8592L76.7449 44.4817L74.8359 44.4829L74.639 45.1232L76.6965 45.1218L76.489 45.7762L72.9293 45.7785L73.9184 42.5437ZM89.1251 43.3311L87.913 43.3325L88.1525 42.5477L92.1319 42.5442L91.8927 43.329L90.6805 43.3299L89.9377 45.7638L88.3823 45.765L89.1251 43.3311ZM95.3521 42.5395L97.7104 42.5371L97.8236 44.6962H97.8342L99.2409 42.536L101.609 42.5336L100.625 45.7697L99.1832 45.7708L99.9225 43.3346H99.9119L98.1596 45.772L96.6563 45.7732L96.4429 43.3372H96.4274L95.6892 45.7661L94.3686 45.7673L95.3521 42.5395ZM111.517 42.5411L113.791 42.5399L114.377 44.6964H114.393L115.052 42.5376H116.402L115.414 45.7725L113.207 45.7666L112.595 43.4679H112.584L111.878 45.7678L110.525 45.769L111.517 42.5411ZM120.133 43.3262L118.92 43.3274L119.159 42.5416L123.14 42.5392L122.901 43.3239L121.688 43.325L120.946 45.7671L119.389 45.7683L120.133 43.3262ZM147.171 37.8755C146.236 37.8755 145.473 38.6341 145.473 39.5668C145.473 40.4983 146.236 41.2581 147.171 41.2581C148.106 41.2581 148.869 40.498 148.869 39.5668C148.869 38.6341 148.106 37.8755 147.171 37.8755ZM147.171 40.9576C146.801 40.9576 146.446 40.8111 146.184 40.5503C145.922 40.2895 145.775 39.9357 145.775 39.5669C145.775 39.1981 145.922 38.8443 146.184 38.5835C146.446 38.3227 146.801 38.1762 147.171 38.1762C147.541 38.1762 147.897 38.3227 148.158 38.5835C148.42 38.8443 148.567 39.1981 148.567 39.5669C148.567 39.9357 148.42 40.2895 148.158 40.5503C147.897 40.8111 147.541 40.9576 147.171 40.9576Z" fill="#AFB5BC"/>
<path d="M147.852 39.2153C147.852 38.8795 147.655 38.6903 147.235 38.6903H146.575V40.4333H146.88V39.7202H147.115L147.551 40.4333H147.889L147.431 39.6957C147.67 39.6665 147.852 39.5184 147.852 39.2153ZM146.88 39.449V38.9604H147.115C147.312 38.9569 147.531 38.9686 147.531 39.2025C147.531 39.4375 147.312 39.4492 147.115 39.4492L146.88 39.449ZM82.2299 43.5201C82.1956 43.4839 82.1933 43.4226 82.2088 43.3733C82.2595 43.2088 82.4647 43.1008 82.7936 43.1008C82.987 43.0996 83.2852 43.1218 83.3702 43.1901C83.4121 43.2178 83.4435 43.2586 83.4595 43.306C83.4756 43.3534 83.4753 43.4048 83.4587 43.4521H84.8371C84.9998 42.8742 84.6342 42.5019 83.0777 42.5042C81.599 42.5054 80.7607 42.8213 80.5449 43.5262C80.4895 43.7096 80.4824 43.9362 80.6358 44.0877C81.0166 44.4659 82.7358 44.6163 82.8809 44.8207C82.8965 44.8414 82.9066 44.8657 82.9105 44.8913C82.9144 44.9169 82.9119 44.9431 82.9032 44.9675C82.8241 45.2271 82.455 45.294 82.1332 45.294C81.928 45.294 81.6615 45.2505 81.585 45.1661C81.5131 45.0817 81.5131 44.9512 81.5542 44.8677L80.111 44.87C79.9671 45.3717 79.9047 45.8929 81.9104 45.892C83.593 45.8897 84.3642 45.4797 84.5575 44.8419C84.653 44.5295 84.5586 44.3557 84.449 44.2453C84.0752 43.8618 82.4102 43.721 82.2299 43.5201ZM104.777 42.5433L108.318 42.5397L108.118 43.1953L106.082 43.1965L105.885 43.8602L107.793 43.859L107.602 44.4816L105.694 44.4825L105.497 45.124L107.554 45.1216L107.346 45.7758L103.788 45.7781L104.777 42.5433ZM145.611 27.3774L142.223 34.6587L142.319 27.3774H136.004L137.212 40.5175C137.058 41.2869 136.803 41.7203 136.319 41.934C135.788 42.1691 134.59 42.1267 134.168 42.1031L134.091 42.1078L133.095 45.6785L137.357 45.682C139.875 45.682 141.109 44.4217 142.901 41.626L152 27.377H145.611V27.3774ZM127.178 43.5122C127.143 43.4759 127.142 43.4135 127.156 43.3653C127.207 43.2009 127.414 43.0928 127.741 43.0928C127.935 43.0917 128.233 43.1139 128.318 43.1822C128.36 43.2098 128.391 43.2506 128.407 43.298C128.423 43.3455 128.423 43.3969 128.406 43.4441H129.785C129.947 42.8662 129.582 42.4939 128.025 42.4963C126.548 42.4974 125.708 42.8134 125.494 43.5183C125.437 43.7016 125.43 43.9282 125.583 44.0798C125.964 44.4579 127.684 44.6083 127.829 44.8127C127.844 44.8335 127.854 44.8578 127.858 44.8834C127.862 44.909 127.86 44.9352 127.851 44.9596C127.773 45.2192 127.403 45.2861 127.081 45.2861C126.876 45.2861 126.609 45.2426 126.532 45.1581C126.461 45.0737 126.461 44.9432 126.502 44.8597L125.058 44.8621C124.915 45.3637 124.852 45.885 126.858 45.8841C128.54 45.8817 129.312 45.4717 129.506 44.834C129.6 44.5215 129.506 44.3478 129.396 44.2374C129.024 43.8541 127.358 43.7131 127.178 43.5122Z" fill="#AFB5BC"/>
</g>
<defs>
<clipPath id="clip0_58_173">
<rect width="128" height="28" fill="white" transform="translate(24 18)"/>
</clipPath>
</defs>
</svg>
