<svg width="92" height="30" viewBox="0 0 92 30" fill="none" xmlns="http://www.w3.org/2000/svg">
<path d="M14.8046 29.8C22.981 29.8 29.6093 23.129 29.6093 14.9C29.6093 6.67096 22.981 0 14.8046 0C6.62826 0 0 6.67096 0 14.9C0 23.129 6.62826 29.8 14.8046 29.8Z" fill="#AFB5BC"/>
<path d="M24.6779 14.899C24.6338 13.699 23.6328 12.762 22.4368 12.8027C21.9069 12.8213 21.4027 13.0398 21.02 13.4065C19.3346 12.2509 17.3547 11.6176 15.3197 11.5731L16.2802 6.92497L19.4486 7.59534C19.537 8.41386 20.2656 9.00645 21.0789 8.91756C21.8922 8.82867 22.481 8.09534 22.3926 7.27682C22.3043 6.4583 21.5757 5.86571 20.7624 5.9546C20.295 6.00275 19.8755 6.27682 19.6437 6.68423L16.0152 5.9546C15.7686 5.89905 15.5221 6.0546 15.4669 6.30645C15.4669 6.31016 15.4669 6.31016 15.4669 6.31386L14.3739 11.4842C12.3131 11.5176 10.3075 12.1546 8.59999 13.3176C7.73151 12.4953 6.36255 12.5361 5.54559 13.4139C4.72863 14.2879 4.76911 15.6657 5.64127 16.4879C5.81055 16.6472 6.00559 16.7842 6.22271 16.8805C6.20799 17.099 6.20799 17.3176 6.22271 17.5361C6.22271 20.8731 10.0867 23.5879 14.8523 23.5879C19.6179 23.5879 23.4819 20.8768 23.4819 17.5361C23.4966 17.3176 23.4966 17.099 23.4819 16.8805C24.2253 16.5065 24.6926 15.7361 24.6779 14.899ZM9.87327 16.3916C9.87327 15.5694 10.5394 14.899 11.3563 14.899C12.1733 14.899 12.8394 15.5694 12.8394 16.3916C12.8394 17.2139 12.1733 17.8842 11.3563 17.8842C10.5357 17.8768 9.87327 17.2139 9.87327 16.3916ZM18.4734 20.4879C17.421 21.2842 16.133 21.6916 14.8155 21.6361C13.4981 21.6916 12.2101 21.2842 11.1576 20.4879C11.0178 20.3176 11.0435 20.062 11.2128 19.9213C11.36 19.799 11.5698 19.799 11.7206 19.9213C12.6112 20.5768 13.6968 20.9102 14.8008 20.8583C15.9048 20.9176 16.9941 20.599 17.8957 19.9509C18.0576 19.7916 18.3226 19.7953 18.4808 19.9583C18.639 20.1213 18.6354 20.3879 18.4734 20.5472V20.4879ZM18.2085 17.9361C17.3915 17.9361 16.7254 17.2657 16.7254 16.4435C16.7254 15.6213 17.3915 14.9509 18.2085 14.9509C19.0254 14.9509 19.6915 15.6213 19.6915 16.4435C19.7246 17.2657 19.088 17.9583 18.271 17.9916C18.2453 17.9916 18.2232 17.9916 18.1974 17.9916L18.2085 17.9361Z" fill="white"/>
<path d="M82.6026 10.3537C83.7163 10.3537 84.6192 9.445 84.6192 8.32406C84.6192 7.20313 83.7163 6.29443 82.6026 6.29443C81.4888 6.29443 80.5859 7.20313 80.5859 8.32406C80.5859 9.445 81.4888 10.3537 82.6026 10.3537Z" fill="#AFB5BC"/>
<path d="M54.0235 16.9603C54.8037 17.0159 55.4808 16.4233 55.5397 15.6344C55.5434 15.59 55.5434 15.5381 55.5434 15.49C55.5323 15.2159 55.4992 14.9381 55.444 14.6677C54.9656 12.0974 52.7834 10.2048 50.189 10.1011C47.2339 10.1011 44.7646 12.8344 44.7646 16.19C44.7646 19.5455 47.1935 22.2826 50.1853 22.2826C51.7714 22.3455 53.3096 21.7011 54.3768 20.5196C54.8147 20.0381 54.7779 19.2937 54.2995 18.8529C54.2627 18.8196 54.2296 18.79 54.1928 18.764C53.7144 18.464 53.0925 18.527 52.6877 18.9196C52.0216 19.5863 51.1274 19.9677 50.1853 19.9974C48.5587 19.8677 47.256 18.5863 47.0941 16.9455H53.9794L54.0235 16.9603ZM50.1742 12.3937C51.6058 12.49 52.8091 13.5196 53.1293 14.9307H47.2266C47.543 13.5159 48.739 12.4863 50.1742 12.3937Z" fill="#AFB5BC"/>
<path d="M44.8824 11.2835C44.8824 10.7131 44.4628 10.2279 43.8998 10.1575C42.38 9.90197 40.8344 10.4686 39.8371 11.6538V11.5057C39.8371 10.8723 39.3292 10.3612 38.7 10.3612C38.0707 10.3612 37.5628 10.8723 37.5628 11.5057V20.876C37.5481 21.4909 38.0155 22.0131 38.6264 22.0649C39.2483 22.1094 39.7929 21.6353 39.8334 21.0094C39.8371 20.9649 39.8371 20.9205 39.8334 20.876V16.0686C39.734 14.1501 41.195 12.5168 43.1012 12.4131C43.2705 12.402 43.4435 12.4057 43.6128 12.4242H43.8409C44.4297 12.3723 44.8824 11.8797 44.8824 11.2835Z" fill="#AFB5BC"/>
<path d="M83.7352 12.5131C83.7352 11.8798 83.2273 11.3687 82.5981 11.3687C81.9688 11.3687 81.4609 11.8798 81.4609 12.5131V20.8724C81.4609 21.5057 81.9688 22.0168 82.5981 22.0168C83.2273 22.0168 83.7352 21.5057 83.7352 20.8724V12.5131Z" fill="#AFB5BC"/>
<path d="M66.956 6.16174C66.956 5.53211 66.4482 5.021 65.8226 5.021C65.197 5.021 64.6892 5.53211 64.6892 6.16174V11.2728C63.9237 10.4951 62.8712 10.0728 61.7856 10.1025C58.8306 10.1025 56.3613 12.8358 56.3613 16.1914C56.3613 19.5469 58.7938 22.284 61.7856 22.284C62.8896 22.3173 63.9569 21.8914 64.7407 21.1025C64.9173 21.7062 65.5466 22.0506 66.1464 21.8728C66.5991 21.7395 66.9229 21.3395 66.9524 20.8617L66.956 6.16174ZM61.7783 20.0284C60.0377 20.0284 58.6208 18.3247 58.6208 16.2173C58.6208 14.1099 60.0266 12.4062 61.7783 12.4062C63.53 12.4062 64.9357 14.1099 64.9357 16.2173C64.9357 18.3247 63.53 20.0099 61.7856 20.0099L61.7783 20.0284Z" fill="#AFB5BC"/>
<path d="M78.8105 6.16174C78.8105 5.53211 78.3027 5.021 77.6771 5.021C77.0515 5.021 76.5437 5.53211 76.5437 6.16174V11.2728C75.7782 10.4951 74.7257 10.0728 73.6401 10.1025C70.6851 10.1025 68.2158 12.8358 68.2158 16.1914C68.2158 19.5469 70.6483 22.284 73.6401 22.284C74.7441 22.3173 75.8113 21.8914 76.5952 21.1025C76.7718 21.7062 77.4011 22.0506 78.0009 21.8728C78.4536 21.7395 78.7774 21.3395 78.8069 20.8617L78.8105 6.16174ZM73.6365 20.0284C71.8958 20.0284 70.479 18.3247 70.479 16.2173C70.479 14.1099 71.8848 12.4062 73.6365 12.4062C75.3881 12.4062 76.7939 14.1099 76.7939 16.2173C76.7939 18.3247 75.3881 20.0099 73.6438 20.0099L73.6365 20.0284Z" fill="#AFB5BC"/>
<path d="M89.6281 20.8688V12.3947H90.6106C91.1553 12.4281 91.6189 12.0095 91.6521 11.4651C91.6521 11.4466 91.6557 11.4244 91.6557 11.4021C91.7036 10.8577 91.3025 10.3762 90.7652 10.3281C90.7357 10.3244 90.7026 10.3244 90.6732 10.3244H89.6317V8.75029C89.6391 8.13918 89.1754 7.62436 88.5682 7.5688C87.9463 7.52436 87.4053 7.99843 87.3612 8.62436C87.3575 8.65029 87.3575 8.67992 87.3575 8.70584V10.3503H86.3713C85.8266 10.317 85.3629 10.7355 85.3298 11.2799C85.3298 11.2984 85.3261 11.3207 85.3261 11.3429C85.2783 11.8873 85.6794 12.3688 86.2167 12.417C86.2461 12.4207 86.2793 12.4207 86.3087 12.4207H87.2913V20.8725C87.2913 21.5021 87.7991 22.0132 88.4247 22.0132C89.0503 22.054 89.5839 21.5725 89.6244 20.9429C89.6281 20.9207 89.6281 20.8947 89.6281 20.8688Z" fill="#AFB5BC"/>
</svg>
