<svg width="178" height="64" viewBox="0 0 178 64" fill="none" xmlns="http://www.w3.org/2000/svg">
<rect x="0.411133" width="177" height="64" fill="white"/>
<g clip-path="url(#clip0_15_1131)">
<path d="M84.9003 41.7121H79.9482L83.0456 22.3516H87.9975L84.9003 41.7121Z" fill="#AFB5BC"/>
<path d="M102.851 22.8243C101.874 22.4325 100.325 22 98.4094 22C93.519 22 90.0753 24.6362 90.0542 28.4051C90.0135 31.1859 92.5198 32.7304 94.3943 33.6575C96.3102 34.605 96.9614 35.2234 96.9614 36.0679C96.9419 37.3649 95.4133 37.9628 93.9875 37.9628C92.0104 37.9628 90.9511 37.6545 89.3412 36.9329L88.6891 36.6236L87.9961 40.9696C89.1576 41.5045 91.2974 41.9792 93.519 42C98.7151 42 102.098 39.4046 102.138 35.3882C102.158 33.1842 100.834 31.4955 97.9813 30.1155C96.2492 29.2297 95.1885 28.6324 95.1885 27.726C95.2088 26.902 96.0857 26.058 98.0408 26.058C99.6507 26.0167 100.834 26.4079 101.73 26.7993L102.178 27.0049L102.851 22.8243Z" fill="#AFB5BC"/>
<path d="M109.434 34.8533C109.842 33.7411 111.411 29.4364 111.411 29.4364C111.391 29.4778 111.818 28.3037 112.063 27.5829L112.409 29.2511C112.409 29.2511 113.347 33.8854 113.55 34.8533C112.776 34.8533 110.412 34.8533 109.434 34.8533ZM115.547 22.3516H111.716C110.535 22.3516 109.638 22.7014 109.128 23.9579L101.772 41.7118H106.969C106.969 41.7118 107.824 39.3223 108.008 38.8076C108.578 38.8076 113.633 38.8076 114.366 38.8076C114.508 39.4873 114.957 41.7118 114.957 41.7118H119.542L115.547 22.3516Z" fill="#AFB5BC"/>
<path d="M75.8113 22.3516L70.9615 35.5536L70.4316 32.8761C69.535 29.7865 66.723 26.4299 63.585 24.7608L68.0271 41.6916H73.2639L81.0477 22.3516H75.8113Z" fill="#AFB5BC"/>
<path d="M66.4581 22.3516H58.4907L58.4092 22.7427C64.6243 24.3494 68.7404 28.2221 70.4316 32.8769L68.6995 23.979C68.4144 22.7425 67.5381 22.3924 66.4581 22.3516Z" fill="#AFB5BC"/>
</g>
<defs>
<clipPath id="clip0_15_1131">
<rect width="61.1318" height="20" fill="white" transform="translate(58.4111 22)"/>
</clipPath>
</defs>
</svg>
